<svg xmlns="http://www.w3.org/2000/svg" width="90" height="90" viewBox="0 0 90 90">
  <g id="Group_1117180" data-name="Group 1117180" transform="translate(-137.051 -2889)">
    <g id="Group_1117179" data-name="Group 1117179" transform="translate(85.058 2877.003)">
      <path id="Path_908359" data-name="Path 908359" d="M97.44,31.549A12.934,12.934,0,0,1,93.5,44.6l14.483,54.049a5.748,5.748,0,1,1-11.105,2.976L82.393,47.579a12.938,12.938,0,0,1-4.767-23.347L80.41,34.625l8.329-2.232L85.955,22A12.94,12.94,0,0,1,97.44,31.549Z" transform="translate(-6.579 -6.566)" fill="#7e8488"/>
      <path id="Path_908360" data-name="Path 908360" d="M126.607,142.371v20.12h-8.623a8.623,8.623,0,0,1-8.623,8.623H80.718a4.376,4.376,0,0,1-4.41-4.229,4.313,4.313,0,0,1,4.311-4.394H76.407A4.376,4.376,0,0,1,72,158.262a4.313,4.313,0,0,1,4.311-4.394,4.311,4.311,0,0,1,0-8.623,4.311,4.311,0,1,1,0-8.623H94.841l-1.356-5.062A12.918,12.918,0,0,0,96.313,128h5.863a14.371,14.371,0,0,1,14.371,14.371Z" transform="translate(-6.565 -93.524)" fill="#f5cbaa"/>
      <path id="Path_908361" data-name="Path 908361" d="M362.874,176H371.5v31.617h-8.623A2.874,2.874,0,0,1,360,204.742V178.874A2.874,2.874,0,0,1,362.874,176Z" transform="translate(-242.833 -132.901)" fill="#2b70a8"/>
      <path id="Path_908362" data-name="Path 908362" d="M128.664,41.662h-8.623a4.316,4.316,0,0,0-4.311,4.311V47.41h-4.375A15.81,15.81,0,0,0,95.611,33.039h-3.65A14.4,14.4,0,0,0,79.488,14a1.437,1.437,0,0,0-1.5,1.8L80.4,24.812,74.848,26.3l-2.413-9.005a1.437,1.437,0,0,0-2.2-.813,14.378,14.378,0,0,0,2.755,25.181H69.743a5.746,5.746,0,0,0-3.8,10.058c-.09.08-.18.163-.266.249a5.744,5.744,0,0,0,.266,8.373c-.09.08-.18.163-.266.249a5.717,5.717,0,0,0-1.683,4.173A5.819,5.819,0,0,0,69.1,70.357a5.722,5.722,0,0,0-.795,3.031,5.829,5.829,0,0,0,5.847,5.639h10.36l4.4,16.407a7.186,7.186,0,1,0,13.882-3.719l-3.4-12.688h3.4a10.076,10.076,0,0,0,9.958-8.623h2.976v1.437a4.316,4.316,0,0,0,4.311,4.311h8.623a1.437,1.437,0,0,0,1.437-1.437V43.1A1.437,1.437,0,0,0,128.664,41.662ZM77.2,40.641A1.437,1.437,0,0,0,76.1,39.6a11.5,11.5,0,0,1-5.861-19.4l2.206,8.232a1.437,1.437,0,0,0,1.76,1.016l8.329-2.232a1.437,1.437,0,0,0,1.016-1.76l-2.206-8.231A11.5,11.5,0,0,1,85.969,36.96a1.437,1.437,0,0,0-.437,1.45l.871,3.251H77.477Zm22.811,51.818a4.311,4.311,0,1,1-8.329,2.23l-4.2-15.663h8.927Zm11.4-24.929a1.437,1.437,0,0,0-1.437,1.437,7.194,7.194,0,0,1-7.186,7.186H74.153a2.94,2.94,0,0,1-2.973-2.817A2.876,2.876,0,0,1,74.054,70.4h8.623a1.437,1.437,0,0,0,0-2.874H69.841a2.94,2.94,0,0,1-2.973-2.817,2.876,2.876,0,0,1,2.874-2.931h8.623a1.437,1.437,0,1,0,0-2.874H69.743a2.874,2.874,0,0,1,0-5.748h8.623a1.437,1.437,0,1,0,0-2.874H69.743a2.874,2.874,0,0,1,0-5.748H97.048a1.437,1.437,0,0,0,0-2.874H89.379L88.531,38.5a14.462,14.462,0,0,0,2.057-2.583h5.023a12.933,12.933,0,0,1,12.934,12.935,1.437,1.437,0,0,0,1.437,1.436h5.748V67.53Zm15.808,5.748h-7.186a1.439,1.439,0,0,1-1.437-1.437V45.973a1.439,1.439,0,0,1,1.437-1.437h7.186Z" transform="translate(0)"/>
    </g>
    <rect id="Rectangle_409909" data-name="Rectangle 409909" width="90" height="90" transform="translate(137.051 2889)" fill="none"/>
  </g>
</svg>
