<svg xmlns="http://www.w3.org/2000/svg" width="90" height="90" viewBox="0 0 90 90">
  <g id="Group_1117298" data-name="Group 1117298" transform="translate(-569.051 -2853)">
    <rect id="Rectangle_409910" data-name="Rectangle 409910" width="90" height="90" transform="translate(569.051 2853)" fill="none"/>
    <g id="Group_1117297" data-name="Group 1117297" transform="translate(577.079 2860.662)">
      <g id="Group_1117181" data-name="Group 1117181">
        <path id="Path_908363" data-name="Path 908363" d="M20.33,16.91l6.09,6.1,4.81-11.34-.87-.95Z" fill="#c0c8ce"/>
      </g>
      <g id="Group_1117182" data-name="Group 1117182">
        <path id="Path_908364" data-name="Path 908364" d="M26.42,23.51a.533.533,0,0,1-.34-.13l-5.91-5.42a.5.5,0,0,1-.16-.4.525.525,0,0,1,.21-.38l9.85-6.87a.5.5,0,0,1,.65.07l.87.95a.491.491,0,0,1,.09.53L26.87,23.2a.488.488,0,0,1-.35.29.18.18,0,0,1-.1.02ZM21.3,17.64l4.93,4.52,4.41-10.39-.36-.39Z"/>
      </g>
      <g id="Group_1117183" data-name="Group 1117183">
        <path id="Path_908365" data-name="Path 908365" d="M44.39,25.1h4.07V38.12H44.39Z" transform="translate(-6.1 51.489) rotate(-54.975)" fill="#283a49"/>
      </g>
      <g id="Group_1117184" data-name="Group 1117184" opacity="0.3">
        <path id="Path_908366" data-name="Path 908366" d="M51.32,35.97l-.73,1.04L39.92,29.54l2.34-3.34,1.11.78a2.791,2.791,0,0,0,.69,3.89Z"/>
      </g>
      <g id="Group_1117185" data-name="Group 1117185">
        <path id="Path_908367" data-name="Path 908367" d="M50.59,37.51a.521.521,0,0,1-.29-.09L39.64,29.95a.5.5,0,0,1-.12-.7l2.34-3.33a.492.492,0,0,1,.69-.13l10.66,7.47a.5.5,0,0,1,.12.7L51,37.3A.494.494,0,0,1,50.59,37.51Zm-9.97-8.1,9.84,6.9,1.76-2.52-9.84-6.9Z"/>
      </g>
      <g id="Group_1117191" data-name="Group 1117191">
        <g id="Group_1117186" data-name="Group 1117186">
          <path id="Path_908368" data-name="Path 908368" d="M47.79,22.82h2.97v9.86H47.79Z" transform="translate(-1.733 52.181) rotate(-54.975)" fill="#f22020"/>
        </g>
        <g id="Group_1117187" data-name="Group 1117187">
          <path id="Path_908369" data-name="Path 908369" d="M52.46,32.3a.521.521,0,0,1-.29-.09l-8.08-5.66a.492.492,0,0,1-.13-.69l1.71-2.44a.5.5,0,0,1,.7-.12l8.08,5.66a.5.5,0,0,1,.12.7L52.86,32.1a.535.535,0,0,1-.32.21.2.2,0,0,0-.08-.01Zm-7.38-6.28,7.26,5.09,1.13-1.62L46.21,24.4Z"/>
        </g>
        <g id="Group_1117188" data-name="Group 1117188">
          <path id="Path_908370" data-name="Path 908370" d="M45.93,21.98h3.21V37.42H45.93Z" transform="translate(-4.07 51.58) rotate(-54.975)" fill="#f33"/>
        </g>
        <g id="Group_1117189" data-name="Group 1117189" opacity="0.3">
          <path id="Path_908371" data-name="Path 908371" d="M53.69,34.36l-.76,1.08L40.29,26.58l1.83-2.62,1.55,1.08a1.879,1.879,0,0,0,.46,2.62Z"/>
        </g>
        <g id="Group_1117190" data-name="Group 1117190">
          <path id="Path_908372" data-name="Path 908372" d="M52.93,35.94a.521.521,0,0,1-.29-.09L40,26.99a.5.5,0,0,1-.12-.7l1.84-2.63a.492.492,0,0,1,.69-.13l12.65,8.86a.492.492,0,0,1,.13.69L53.35,35.7a.472.472,0,0,1-.42.24ZM40.99,26.46l11.83,8.29,1.27-1.81L42.26,24.65Z"/>
        </g>
      </g>
      <g id="Group_1117192" data-name="Group 1117192">
        <path id="Path_908373" data-name="Path 908373" d="M10.49,64.14a2.949,2.949,0,0,1-2.83-2.09L4.42,51.57a2.957,2.957,0,0,1,1.05-3.24l3.11-2.34a.88.88,0,0,1-.06-.1,14.13,14.13,0,0,1-1.21-2.47L3.79,46.07a5.8,5.8,0,0,0-2.05,6.32L4.98,62.87a5.752,5.752,0,0,0,5.52,4.07h5.1V64.12H10.49Z" fill="#d3dae0"/>
      </g>
      <g id="Group_1117193" data-name="Group 1117193" opacity="0.3">
        <path id="Path_908374" data-name="Path 908374" d="M11.98,66.96h-1.5a5.752,5.752,0,0,1-5.52-4.07L1.72,52.4a5.8,5.8,0,0,1,2.05-6.32L7.3,43.43a9.112,9.112,0,0,0,.35.86L5.27,46.08A5.8,5.8,0,0,0,3.22,52.4L6.46,62.89A5.752,5.752,0,0,0,11.98,66.96Z"/>
      </g>
      <g id="Group_1117194" data-name="Group 1117194">
        <path id="Path_908375" data-name="Path 908375" d="M53.84,46.08l-3.53-2.66c-.06.26-.1.53-.14.79,0,.03-.01.07-.01.1-.01.08-.02.15-.03.23-.02.15-.03.3-.05.46-.06.54-.1,1.09-.17,1.64l2.24,1.68a2.957,2.957,0,0,1,1.05,3.24L49.96,62.04a2.949,2.949,0,0,1-2.83,2.09H43.47v2.82h3.66a5.752,5.752,0,0,0,5.52-4.07L55.89,52.4a5.8,5.8,0,0,0-2.05-6.32Z" fill="#d3dae0"/>
      </g>
      <g id="Group_1117195" data-name="Group 1117195" opacity="0.3">
        <path id="Path_908376" data-name="Path 908376" d="M48.51,66.04a5.776,5.776,0,0,0,2.48-.56,5.77,5.77,0,0,1-3.87,1.48H43.46V64.14h1.39a1.9,1.9,0,0,0,1.9,1.9Z"/>
      </g>
      <g id="Group_1117196" data-name="Group 1117196" opacity="0.3">
        <path id="Path_908377" data-name="Path 908377" d="M54.58,50.66,51.34,61.14a2.889,2.889,0,0,1-1.98,1.96,2.723,2.723,0,0,0,.59-1.05l3.24-10.48a2.973,2.973,0,0,0-1.05-3.24L49.9,46.65c.06-.55.34-2.96.4-3.23l1.14.86v.01a2.574,2.574,0,0,0,1.02,2.31l1.08.81a2.978,2.978,0,0,1,1.04,3.25Z"/>
      </g>
      <g id="Group_1117197" data-name="Group 1117197">
        <path id="Path_908378" data-name="Path 908378" d="M15.58,67.62h-5.1a6.256,6.256,0,0,1-6-4.42L1.25,52.71a6.3,6.3,0,0,1,2.23-6.87l3.57-2.68a.5.5,0,0,1,.44-.08.508.508,0,0,1,.33.31,13.854,13.854,0,0,0,1.12,2.26l.13.2a.5.5,0,0,1-.13.66L5.76,48.9a2.448,2.448,0,0,0-.87,2.69L8.13,62.07a2.454,2.454,0,0,0,2.35,1.74h5.1a.5.5,0,0,1,.5.5v2.82A.5.5,0,0,1,15.58,67.62ZM7.13,44.34,4.08,46.63a5.288,5.288,0,0,0-1.87,5.78L5.44,62.9a5.257,5.257,0,0,0,5.04,3.72h4.6V64.8h-4.6a3.444,3.444,0,0,1-3.31-2.44L3.94,51.88a3.461,3.461,0,0,1,1.23-3.79l2.81-2.11a16.22,16.22,0,0,1-.85-1.64Z"/>
      </g>
      <g id="Group_1117198" data-name="Group 1117198">
        <path id="Path_908379" data-name="Path 908379" d="M47.12,67.46H43.46a.5.5,0,0,1-.5-.5V64.14a.5.5,0,0,1,.5-.5h3.66a2.445,2.445,0,0,0,2.35-1.74l3.24-10.48a2.48,2.48,0,0,0-.87-2.69L49.6,47.04a.513.513,0,0,1-.2-.46c.04-.36.08-.73.11-1.09l.13-1.24.01-.1c.04-.28.09-.56.15-.83a.493.493,0,0,1,.31-.36.517.517,0,0,1,.48.07l3.53,2.66a6.313,6.313,0,0,1,2.23,6.87L53.11,63.04a6.216,6.216,0,0,1-5.99,4.42Zm-3.15-1h3.16a5.235,5.235,0,0,0,5.04-3.72l3.24-10.48a5.315,5.315,0,0,0-1.87-5.78l-2.88-2.17-.14,1.28c-.03.27-.05.55-.08.83l2.01,1.51a3.477,3.477,0,0,1,1.23,3.79L50.43,62.2a3.444,3.444,0,0,1-3.31,2.44H43.96v1.82Z"/>
      </g>
      <g id="Group_1117200" data-name="Group 1117200">
        <g id="Group_1117199" data-name="Group 1117199">
          <path id="Path_908380" data-name="Path 908380" d="M51.8,39.37,43.01,70.72a1.959,1.959,0,0,1-1.89,1.43H16.49a1.971,1.971,0,0,1-1.89-1.43L5.81,39.37a1.953,1.953,0,0,1,.77-2.14l12.04-8.41a1.954,1.954,0,0,1,1.12-.35H37.87a1.954,1.954,0,0,1,1.12.35l12.04,8.41a1.963,1.963,0,0,1,.77,2.14Z" fill="#34495e"/>
        </g>
      </g>
      <g id="Group_1117202" data-name="Group 1117202" opacity="0.3">
        <g id="Group_1117201" data-name="Group 1117201">
          <path id="Path_908381" data-name="Path 908381" d="M43.1,70.39l-.09.33a1.959,1.959,0,0,1-1.89,1.44H16.49a1.98,1.98,0,0,1-1.9-1.44L5.81,39.37a1.947,1.947,0,0,1,.77-2.14l1.21-.84a1.886,1.886,0,0,0-.07,1.22l4.86,16.62A22.279,22.279,0,0,0,33.61,70.25l9.42.15A.17.17,0,0,0,43.1,70.39Z"/>
        </g>
      </g>
      <g id="Group_1117206" data-name="Group 1117206">
        <g id="Group_1117203" data-name="Group 1117203">
          <path id="Path_908382" data-name="Path 908382" d="M20.96,64.3,14.51,41.27l7.08-4.95H36.02l7.09,4.95L36.65,64.3Z" fill="#283a49"/>
        </g>
        <g id="Group_1117204" data-name="Group 1117204" opacity="0.3">
          <path id="Path_908383" data-name="Path 908383" d="M36.01,36.32H21.59l-1.73,1.21a.517.517,0,0,1,.06.13l.01-.01H31.7a8.446,8.446,0,0,1,8.13,10.72L35.36,64.3h1.29L43.1,41.27Z"/>
        </g>
        <g id="Group_1117205" data-name="Group 1117205">
          <path id="Path_908384" data-name="Path 908384" d="M36.65,64.8H20.95a.5.5,0,0,1-.48-.37L14.02,41.4a.494.494,0,0,1,.19-.54L21.3,35.9a.476.476,0,0,1,.29-.09H36.01a.521.521,0,0,1,.29.09l7.09,4.96a.494.494,0,0,1,.19.54L37.13,64.43A.484.484,0,0,1,36.65,64.8Zm-15.31-1H36.28l6.25-22.32-6.67-4.66H21.75l-6.67,4.66Z"/>
        </g>
      </g>
      <g id="Group_1117207" data-name="Group 1117207">
        <path id="Path_908385" data-name="Path 908385" d="M41.12,72.66H16.49a2.463,2.463,0,0,1-2.37-1.8L5.33,39.5a2.451,2.451,0,0,1,.96-2.68l12.04-8.41a2.452,2.452,0,0,1,1.41-.44H37.87a2.429,2.429,0,0,1,1.41.44l12.04,8.41a2.463,2.463,0,0,1,.96,2.68L43.49,70.85a2.461,2.461,0,0,1-2.37,1.81ZM19.74,28.96a1.488,1.488,0,0,0-.84.26L6.87,37.64a1.469,1.469,0,0,0-.57,1.6l8.79,31.35a1.476,1.476,0,0,0,1.41,1.07H41.13a1.476,1.476,0,0,0,1.41-1.07l8.79-31.35a1.469,1.469,0,0,0-.57-1.6L38.72,29.23a1.488,1.488,0,0,0-.84-.26H19.74Z"/>
      </g>
      <g id="Group_1117237" data-name="Group 1117237">
        <g id="Group_1117216" data-name="Group 1117216">
          <g id="Group_1117211" data-name="Group 1117211">
            <g id="Group_1117208" data-name="Group 1117208">
              <path id="Path_908386" data-name="Path 908386" d="M24.87,47.42h2.71v22.6H24.87Z" transform="matrix(0.379, -0.925, 0.925, 0.379, -38.052, 60.74)" fill="#ededed"/>
            </g>
            <g id="Group_1117209" data-name="Group 1117209">
              <path id="Path_908387" data-name="Path 908387" d="M15.74,40.55H33.3v2.71H15.74Z" transform="translate(-21.104 25.293) rotate(-39.644)" fill="#ededed"/>
            </g>
            <g id="Group_1117210" data-name="Group 1117210">
              <path id="Path_908388" data-name="Path 908388" d="M37.06,37.42h2.71V57.89H37.06Z" transform="translate(-6.392 5.953) rotate(-8.163)" fill="#ededed"/>
            </g>
          </g>
          <g id="Group_1117215" data-name="Group 1117215">
            <g id="Group_1117212" data-name="Group 1117212">
              <path id="Path_908389" data-name="Path 908389" d="M36.17,64.75a.433.433,0,0,1-.19-.04L15.07,56.15a.509.509,0,0,1-.27-.27.5.5,0,0,1,0-.38l1.03-2.51a.492.492,0,0,1,.65-.27l20.91,8.56a.509.509,0,0,1,.27.27.5.5,0,0,1,0,.38l-1.03,2.51a.494.494,0,0,1-.46.31ZM15.91,55.42,35.9,63.6l.65-1.59L16.56,53.83Z"/>
            </g>
            <g id="Group_1117213" data-name="Group 1117213">
              <path id="Path_908390" data-name="Path 908390" d="M18.63,49.06a.513.513,0,0,1-.39-.18l-1.73-2.09a.483.483,0,0,1-.11-.37.52.52,0,0,1,.18-.34L30.1,34.87a.486.486,0,0,1,.7.07l1.73,2.09a.483.483,0,0,1,.11.37.52.52,0,0,1-.18.34L18.95,48.94a.51.51,0,0,1-.32.12ZM17.6,46.53l1.09,1.32L31.44,37.28l-1.09-1.32Z"/>
            </g>
            <g id="Group_1117214" data-name="Group 1117214">
              <path id="Path_908391" data-name="Path 908391" d="M38.54,58.48a.5.5,0,0,1-.49-.43L35.13,37.79a.542.542,0,0,1,.09-.37.5.5,0,0,1,.33-.2l2.69-.39a.5.5,0,0,1,.57.42l2.92,20.26a.542.542,0,0,1-.09.37.5.5,0,0,1-.33.2l-2.69.39a.281.281,0,0,1-.08.01ZM36.19,38.14l2.77,19.27,1.7-.24L37.88,37.9Z"/>
            </g>
          </g>
        </g>
        <g id="Group_1117222" data-name="Group 1117222">
          <g id="Group_1117217" data-name="Group 1117217">
            <path id="Path_908392" data-name="Path 908392" d="M42.22,58.92a5.955,5.955,0,1,1-5.97-5.97A5.966,5.966,0,0,1,42.22,58.92Z" fill="#d3dae0"/>
          </g>
          <g id="Group_1117218" data-name="Group 1117218">
            <path id="Path_908393" data-name="Path 908393" d="M36.25,65.39a6.47,6.47,0,1,1,6.47-6.47A6.461,6.461,0,0,1,36.25,65.39Zm0-11.93a5.47,5.47,0,1,0,5.47,5.47A5.459,5.459,0,0,0,36.25,53.46Z"/>
          </g>
          <g id="Group_1117221" data-name="Group 1117221">
            <g id="Group_1117219" data-name="Group 1117219">
              <path id="Path_908394" data-name="Path 908394" d="M39.69,58.92a3.425,3.425,0,1,1-3.43-3.43,3.429,3.429,0,0,1,3.43,3.43Z" fill="#bec6cc"/>
            </g>
            <g id="Group_1117220" data-name="Group 1117220">
              <path id="Path_908395" data-name="Path 908395" d="M36.26,62.86a3.93,3.93,0,1,1,3.93-3.93,3.928,3.928,0,0,1-3.93,3.93Zm0-6.87a2.93,2.93,0,1,0,2.93,2.93,2.932,2.932,0,0,0-2.93-2.93Z"/>
            </g>
          </g>
        </g>
        <g id="Group_1117230" data-name="Group 1117230">
          <g id="Group_1117223" data-name="Group 1117223">
            <path id="Path_908396" data-name="Path 908396" d="M27.14,51.64a7.265,7.265,0,1,1-7.28-7.28A7.281,7.281,0,0,1,27.14,51.64Z" fill="#d3dae0"/>
          </g>
          <g id="Group_1117224" data-name="Group 1117224">
            <path id="Path_908397" data-name="Path 908397" d="M19.86,59.42a7.78,7.78,0,1,1,7.78-7.78A7.776,7.776,0,0,1,19.86,59.42Zm0-14.56a6.78,6.78,0,1,0,6.78,6.78A6.773,6.773,0,0,0,19.86,44.86Z"/>
          </g>
          <g id="Group_1117229" data-name="Group 1117229">
            <g id="Group_1117225" data-name="Group 1117225">
              <path id="Path_908398" data-name="Path 908398" d="M24.06,51.64a4.18,4.18,0,1,1-4.19-4.19A4.182,4.182,0,0,1,24.06,51.64Z" fill="#bec6cc"/>
            </g>
            <g id="Group_1117226" data-name="Group 1117226" opacity="0.3">
              <path id="Path_908399" data-name="Path 908399" d="M22.52,54.88a4.181,4.181,0,0,0-6.47-4.94,4.185,4.185,0,1,1,6.47,4.94Z"/>
            </g>
            <g id="Group_1117227" data-name="Group 1117227" opacity="0.3">
              <path id="Path_908400" data-name="Path 908400" d="M38.37,61.48a3.3,3.3,0,0,0-3.01-4.63,3.2,3.2,0,0,0-2.07.75,3.286,3.286,0,1,1,5.08,3.88Z"/>
            </g>
            <g id="Group_1117228" data-name="Group 1117228">
              <path id="Path_908401" data-name="Path 908401" d="M19.87,56.33a4.69,4.69,0,1,1,4.69-4.69A4.68,4.68,0,0,1,19.87,56.33Zm0-8.38a3.69,3.69,0,1,0,3.69,3.69A3.69,3.69,0,0,0,19.87,47.95Z"/>
            </g>
          </g>
        </g>
        <g id="Group_1117236" data-name="Group 1117236">
          <g id="Group_1117231" data-name="Group 1117231">
            <path id="Path_908402" data-name="Path 908402" d="M38.87,38.54a5.175,5.175,0,1,1-5.19-5.19A5.185,5.185,0,0,1,38.87,38.54Z" fill="#d3dae0"/>
          </g>
          <g id="Group_1117232" data-name="Group 1117232">
            <path id="Path_908403" data-name="Path 908403" d="M33.69,44.22a5.69,5.69,0,1,1,5.69-5.69A5.68,5.68,0,0,1,33.69,44.22Zm0-10.37a4.69,4.69,0,1,0,4.69,4.69A4.678,4.678,0,0,0,33.69,33.85Z"/>
          </g>
          <g id="Group_1117235" data-name="Group 1117235">
            <g id="Group_1117233" data-name="Group 1117233">
              <path id="Path_908404" data-name="Path 908404" d="M36.68,38.54a2.98,2.98,0,1,1-2.99-2.99A2.992,2.992,0,0,1,36.68,38.54Z" fill="#bec6cc"/>
            </g>
            <g id="Group_1117234" data-name="Group 1117234">
              <path id="Path_908405" data-name="Path 908405" d="M33.69,42.02a3.49,3.49,0,1,1,3.49-3.49A3.483,3.483,0,0,1,33.69,42.02Zm0-5.97a2.49,2.49,0,1,0,2.49,2.49A2.48,2.48,0,0,0,33.69,36.05Z"/>
            </g>
          </g>
        </g>
      </g>
      <g id="Group_1117238" data-name="Group 1117238">
        <path id="Path_908406" data-name="Path 908406" d="M4.6,29.57H17.62v4.07H4.6Z" transform="translate(-16.127 12.102) rotate(-35.025)" fill="#283a49"/>
      </g>
      <g id="Group_1117239" data-name="Group 1117239">
        <path id="Path_908407" data-name="Path 908407" d="M6.95,37.51a.494.494,0,0,1-.41-.21L4.2,33.96a.448.448,0,0,1-.08-.37.472.472,0,0,1,.21-.32L14.99,25.8a.488.488,0,0,1,.37-.08.472.472,0,0,1,.32.21l2.34,3.33a.508.508,0,0,1-.12.7L7.24,37.42a.521.521,0,0,1-.29.09ZM5.31,33.8l1.76,2.52,9.85-6.9L15.16,26.9Z"/>
      </g>
      <g id="Group_1117246" data-name="Group 1117246">
        <g id="Group_1117240" data-name="Group 1117240">
          <path id="Path_908408" data-name="Path 908408" d="M3.27,26.14h9.86v3.05H3.27Z" transform="translate(-14.391 9.716) rotate(-35.025)" fill="#f22020"/>
        </g>
        <g id="Group_1117241" data-name="Group 1117241" opacity="0.3">
          <path id="Path_908409" data-name="Path 908409" d="M13.11,26.08,5.04,31.74l-1.76-2.5.9-.63a2.082,2.082,0,0,0,2.9.51l5.47-3.83Z"/>
        </g>
        <g id="Group_1117242" data-name="Group 1117242">
          <path id="Path_908410" data-name="Path 908410" d="M5.04,32.24a.494.494,0,0,1-.41-.21l-1.75-2.5a.508.508,0,0,1,.12-.7l8.08-5.66a.508.508,0,0,1,.7.12l1.75,2.5a.448.448,0,0,1,.08.37.472.472,0,0,1-.21.32L5.32,32.14a.374.374,0,0,1-.28.1ZM3.98,29.37l1.18,1.68,7.26-5.09-1.18-1.68Z"/>
        </g>
        <g id="Group_1117243" data-name="Group 1117243">
          <path id="Path_908411" data-name="Path 908411" d="M2.27,28.02H17.71v3.29H2.27Z" transform="translate(-15.217 11.104) rotate(-35.025)" fill="#f33"/>
        </g>
        <g id="Group_1117244" data-name="Group 1117244" opacity="0.3">
          <path id="Path_908412" data-name="Path 908412" d="M17.25,26.58,4.61,35.44,2.72,32.75l1.17-.82a1.879,1.879,0,0,0,2.62.46l9.93-6.97Z"/>
        </g>
        <g id="Group_1117245" data-name="Group 1117245">
          <path id="Path_908413" data-name="Path 908413" d="M4.61,35.94a.494.494,0,0,1-.41-.21L2.31,33.04a.508.508,0,0,1,.12-.7l12.65-8.86a.448.448,0,0,1,.37-.08.472.472,0,0,1,.32.21l1.89,2.69a.508.508,0,0,1-.12.7L4.9,35.85a.521.521,0,0,1-.29.09ZM3.42,32.87l1.31,1.88,11.83-8.29-1.31-1.88Z"/>
        </g>
      </g>
      <g id="Group_1117247" data-name="Group 1117247">
        <path id="Path_908414" data-name="Path 908414" d="M31.31,28.88a2.585,2.585,0,0,1-1.11-.02,3.073,3.073,0,0,1-2.54,3.28,3.122,3.122,0,0,1-3.18-1.41.679.679,0,0,1-.2.07,3.16,3.16,0,0,1-3.35-1.7,1.472,1.472,0,0,1-.39.26,1.172,1.172,0,0,1,.09.32A4.456,4.456,0,0,1,17,34.82a4.371,4.371,0,0,1-4.65-2.23,2.726,2.726,0,0,1-2.03,1.62A2.681,2.681,0,0,1,7.2,32.04a2.745,2.745,0,0,1,.85-2.49,4.417,4.417,0,0,1,.9-7.34A3.864,3.864,0,0,1,12,19.36a.849.849,0,0,1,.39-.01,4.774,4.774,0,0,1,3.91-4.6,4.633,4.633,0,0,1,4.43,1.65,4.937,4.937,0,0,1,.64-.17,4.57,4.57,0,0,1,3.9,1.13,4.414,4.414,0,0,1,2.19-1.06,4.7,4.7,0,0,1,5.45,3.82,4.507,4.507,0,0,1-.53,3.08,2.945,2.945,0,0,1,1.44,2.09A3.087,3.087,0,0,1,31.31,28.88Z" fill="#d3dae0"/>
      </g>
      <g id="Group_1117248" data-name="Group 1117248">
        <path id="Path_908415" data-name="Path 908415" d="M16.22,35.39a4.867,4.867,0,0,1-3.85-1.86,3.193,3.193,0,0,1-1.96,1.17,3.226,3.226,0,0,1-2.4-.52,3.2,3.2,0,0,1-.67-4.6,4.918,4.918,0,0,1,1.18-7.71,4.382,4.382,0,0,1,3.38-3h.01a5.243,5.243,0,0,1,4.29-4.61,5.143,5.143,0,0,1,4.68,1.57,2.229,2.229,0,0,1,.39-.09,5.052,5.052,0,0,1,3.99.98,4.8,4.8,0,0,1,2.1-.91,5.2,5.2,0,0,1,6.03,4.23,5.056,5.056,0,0,1-.37,3,3.48,3.48,0,0,1,1.28,2.17,3.6,3.6,0,0,1-2.92,4.16,3.486,3.486,0,0,1-.7.06,3.6,3.6,0,0,1-6.43,1.87,3.74,3.74,0,0,1-3.08-1,4.978,4.978,0,0,1-4.11,5.02,5.6,5.6,0,0,1-.84.07Zm-3.87-3.3a.509.509,0,0,1,.44.26,3.9,3.9,0,0,0,4.12,1.97,3.961,3.961,0,0,0,3.22-4.56,1.134,1.134,0,0,0-.05-.2.481.481,0,0,1-.01-.39.5.5,0,0,1,.27-.28.812.812,0,0,0,.26-.18.5.5,0,0,1,.42-.11.5.5,0,0,1,.35.27,2.664,2.664,0,0,0,2.82,1.43.467.467,0,0,1,.38-.09.5.5,0,0,1,.33.24,2.615,2.615,0,0,0,2.67,1.19,2.576,2.576,0,0,0,2.13-2.75.486.486,0,0,1,.18-.42.515.515,0,0,1,.45-.1,2.083,2.083,0,0,0,.9.01,2.57,2.57,0,0,0,2.1-3.01,2.459,2.459,0,0,0-1.19-1.74.542.542,0,0,1-.24-.3.464.464,0,0,1,.05-.38,4,4,0,0,0,.47-2.74,4.193,4.193,0,0,0-4.87-3.41,3.991,3.991,0,0,0-1.95.94.5.5,0,0,1-.67-.01,4.1,4.1,0,0,0-3.48-1.01,3.8,3.8,0,0,0-.46.12l-.12.04a.509.509,0,0,1-.53-.16,4.147,4.147,0,0,0-3.95-1.47,4.305,4.305,0,0,0-3.5,4.12.5.5,0,0,1-.21.4.494.494,0,0,1-.44.07.39.39,0,0,0-.14.02,3.389,3.389,0,0,0-2.67,2.49.494.494,0,0,1-.26.32,3.916,3.916,0,0,0-.8,6.51.526.526,0,0,1,.18.37.507.507,0,0,1-.16.38,2.242,2.242,0,0,0-.7,2.03,2.184,2.184,0,0,0,.9,1.41,2.215,2.215,0,0,0,3.3-.96.515.515,0,0,1,.44-.31.031.031,0,0,1,.02-.01Z"/>
      </g>
      <g id="Group_1117249" data-name="Group 1117249">
        <path id="Path_908416" data-name="Path 908416" d="M17.18,28.77a1.833,1.833,0,1,1-2.11-1.48A1.822,1.822,0,0,1,17.18,28.77Z" fill="#bec6cc"/>
      </g>
      <g id="Group_1117250" data-name="Group 1117250">
        <path id="Path_908417" data-name="Path 908417" d="M11.96,25.94a1.328,1.328,0,1,1-.32-1.85A1.341,1.341,0,0,1,11.96,25.94Z" fill="#bec6cc"/>
      </g>
      <g id="Group_1117251" data-name="Group 1117251">
        <path id="Path_908418" data-name="Path 908418" d="M19.53,19.39a2.593,2.593,0,1,1-3-2.11A2.614,2.614,0,0,1,19.53,19.39Z" fill="#bec6cc"/>
      </g>
      <g id="Group_1117252" data-name="Group 1117252" opacity="0.3">
        <path id="Path_908419" data-name="Path 908419" d="M18.99,21.46a2.778,2.778,0,0,0,0-.91A2.6,2.6,0,0,0,16,18.45a2.632,2.632,0,0,0-1.58.92,2.594,2.594,0,1,1,4.57,2.09Z"/>
      </g>
      <g id="Group_1117253" data-name="Group 1117253" opacity="0.3">
        <path id="Path_908420" data-name="Path 908420" d="M11.83,26.02a1.548,1.548,0,0,0,0-.43,1.235,1.235,0,0,0-1.43-1,1.181,1.181,0,0,0-.75.44,1.241,1.241,0,0,1,2.44.01A1.259,1.259,0,0,1,11.83,26.02Z"/>
      </g>
      <g id="Group_1117254" data-name="Group 1117254" opacity="0.3">
        <path id="Path_908421" data-name="Path 908421" d="M16.82,30.32a1.83,1.83,0,0,0,0-.66,1.87,1.87,0,0,0-2.17-1.52,1.961,1.961,0,0,0-1.15.67,1.887,1.887,0,0,1,3.71.01A1.858,1.858,0,0,1,16.82,30.32Z"/>
      </g>
      <g id="Group_1117255" data-name="Group 1117255">
        <path id="Path_908422" data-name="Path 908422" d="M15.37,31.42a2.344,2.344,0,0,1-2.3-1.92,2.3,2.3,0,0,1,.39-1.74,2.351,2.351,0,0,1,1.51-.96,2.3,2.3,0,0,1,1.74.39,2.326,2.326,0,0,1-.93,4.2,2.828,2.828,0,0,1-.41.03Zm.01-3.66a1.785,1.785,0,0,0-.23.02,1.362,1.362,0,0,0-.87.55,1.291,1.291,0,0,0-.22.99,1.351,1.351,0,0,0,1.55,1.08,1.329,1.329,0,0,0,.53-2.4,1.317,1.317,0,0,0-.76-.24Z"/>
      </g>
      <g id="Group_1117258" data-name="Group 1117258">
        <g id="Group_1117256" data-name="Group 1117256">
          <path id="Path_908423" data-name="Path 908423" d="M27.55,28.79a1.457,1.457,0,0,1-2.02.36,1.438,1.438,0,0,1-.36-2.02,1.451,1.451,0,0,1,2.38,1.66Z" fill="#bec6cc"/>
        </g>
        <g id="Group_1117257" data-name="Group 1117257">
          <path id="Path_908424" data-name="Path 908424" d="M26.36,29.91a1.955,1.955,0,0,1-1.61-3.07,1.954,1.954,0,0,1,2.72-.47,1.95,1.95,0,0,1-.78,3.52c-.11.01-.22.02-.33.02Zm-.01-2.9a.947.947,0,0,0-.54,1.73.946.946,0,0,0,.71.16.9.9,0,0,0,.61-.39.992.992,0,0,0,.16-.71.9.9,0,0,0-.39-.61A.865.865,0,0,0,26.35,27.01Z"/>
        </g>
      </g>
      <g id="Group_1117261" data-name="Group 1117261">
        <g id="Group_1117259" data-name="Group 1117259">
          <path id="Path_908425" data-name="Path 908425" d="M30.01,21.77a1.892,1.892,0,1,1-.46-2.63A1.911,1.911,0,0,1,30.01,21.77Z" fill="#bec6cc"/>
        </g>
        <g id="Group_1117260" data-name="Group 1117260">
          <path id="Path_908426" data-name="Path 908426" d="M28.46,23.08a2.361,2.361,0,0,1-1.36-.43,2.392,2.392,0,0,1-.99-1.54,2.382,2.382,0,0,1,3.72-2.37,2.355,2.355,0,0,1,.98,1.54,2.374,2.374,0,0,1-1.93,2.76,1.992,1.992,0,0,1-.42.04Zm0-3.78a1.343,1.343,0,0,0-1.13.59,1.409,1.409,0,0,0-.23,1.04,1.429,1.429,0,0,0,.58.9,1.394,1.394,0,0,0,1.03.23,1.414,1.414,0,0,0,.9-.57,1.382,1.382,0,0,0-.34-1.93,1.492,1.492,0,0,0-.81-.26Z"/>
        </g>
      </g>
      <g id="Group_1117264" data-name="Group 1117264">
        <g id="Group_1117262" data-name="Group 1117262">
          <path id="Path_908427" data-name="Path 908427" d="M23.11,24.65a1.35,1.35,0,1,1-.33-1.88,1.367,1.367,0,0,1,.33,1.88Z" fill="#bec6cc"/>
        </g>
        <g id="Group_1117263" data-name="Group 1117263">
          <path id="Path_908428" data-name="Path 908428" d="M22,25.72a1.839,1.839,0,0,1-1.82-1.52,1.818,1.818,0,0,1,.3-1.38,1.871,1.871,0,0,1,1.19-.76,1.823,1.823,0,0,1,1.38.31,1.844,1.844,0,0,1,.45,2.57,1.8,1.8,0,0,1-1.19.76A2.851,2.851,0,0,1,22,25.72Zm0-2.69a.757.757,0,0,0-.15.01.869.869,0,0,0-.55.34.837.837,0,0,0-.14.63.882.882,0,0,0,.35.55.828.828,0,0,0,.63.14A.84.84,0,0,0,22,23.03Z"/>
        </g>
      </g>
      <g id="Group_1117265" data-name="Group 1117265">
        <path id="Path_908429" data-name="Path 908429" d="M10.87,27.01a1.784,1.784,0,0,1-1.04-.33,1.832,1.832,0,1,1,2.55-.46,1.8,1.8,0,0,1-1.18.75,1.242,1.242,0,0,1-.33.04Zm0-2.65a.757.757,0,0,0-.15.01.8.8,0,0,0-.53.34.823.823,0,0,0,.21,1.15.833.833,0,0,0,.61.14.8.8,0,0,0,.53-.34.784.784,0,0,0,.13-.61.8.8,0,0,0-.34-.53.68.68,0,0,0-.46-.16Z"/>
      </g>
      <g id="Group_1117266" data-name="Group 1117266">
        <path id="Path_908430" data-name="Path 908430" d="M16.98,22.92a3.088,3.088,0,0,1-.53-6.13,3.1,3.1,0,0,1,3.57,2.51,3.108,3.108,0,0,1-.51,2.31,3.055,3.055,0,0,1-1.99,1.26,2.526,2.526,0,0,1-.54.05Zm0-5.17a2.186,2.186,0,0,0-.36.03,2.125,2.125,0,0,0-1.36.86,2.064,2.064,0,0,0-.35,1.56,2.091,2.091,0,1,0,3.26-2.06,1.973,1.973,0,0,0-1.19-.39Z"/>
      </g>
      <g id="Group_1117292" data-name="Group 1117292">
        <g id="Group_1117267" data-name="Group 1117267">
          <path id="Path_908431" data-name="Path 908431" d="M58.71,9.13c.71,2.26,1.27,4.56,1.89,6.84l11.93-.82L70.22,6.21,58.68,9.07l.03.06Z" fill="#fcd0a9"/>
        </g>
        <g id="Group_1117268" data-name="Group 1117268" opacity="0.3">
          <path id="Path_908432" data-name="Path 908432" d="M72.52,15.15l-11.93.82c-.62-2.28-1.18-4.58-1.89-6.84a.142.142,0,0,1-.02-.06l2.18-.54c.01.02.01.04.02.06a7.022,7.022,0,0,0,7.2,5.08l3.99-.27Z"/>
        </g>
        <g id="Group_1117269" data-name="Group 1117269">
          <path id="Path_908433" data-name="Path 908433" d="M60.6,16.47a.5.5,0,0,1-.48-.37l-.54-2.01c-.42-1.58-.85-3.21-1.34-4.79a.512.512,0,0,1,0-.42.539.539,0,0,1,.32-.29L70.1,5.73a.488.488,0,0,1,.6.36l2.31,8.94a.488.488,0,0,1-.08.42.505.505,0,0,1-.37.21l-11.93.82a.037.037,0,0,0-.03-.01ZM59.32,9.43c.45,1.46.84,2.96,1.22,4.4.14.54.28,1.07.43,1.61l10.92-.75L69.85,6.82Z"/>
        </g>
        <g id="Group_1117270" data-name="Group 1117270">
          <path id="Path_908434" data-name="Path 908434" d="M58.82,7.72,52.46,9.27s-3.61-2.43-4.34-3.14-2.96-1.21-4.76-2.09c-1.22-.6-1.8-.17-1.8-.17-2.29,1.87-4.25,1.1-4.21,1.96.1,2.32,4.34,1.6,4.34,1.6a3.078,3.078,0,0,0,2.11.77l.71,1.34c-.58.47-1.13.92-1.65,1.34,0,0-6.31.15-8.07.88a2.032,2.032,0,0,0-1.36,2.69c.49,1.22,1.45,1.62,1.85.98.59-.95,1.24-.96,1.24-.96s2.02.12,2.81.05-.75,1.68-.75,1.68l3.89,3.33-.5,3.15c3.18-.24,5.36-3.04,12.07-5.35l7.19-.29Z" fill="#fc3"/>
        </g>
        <g id="Group_1117271" data-name="Group 1117271" opacity="0.3">
          <path id="Path_908435" data-name="Path 908435" d="M54.27,17.33l6.95-.28-.4-1.55-6.55.27Z"/>
        </g>
        <g id="Group_1117272" data-name="Group 1117272">
          <path id="Path_908436" data-name="Path 908436" d="M41.97,23.19a.523.523,0,0,1-.37-.16.533.533,0,0,1-.13-.42l.46-2.88-3.68-3.15a.508.508,0,0,1-.04-.72,8,8,0,0,0,.65-.83c-.92.01-2.28-.07-2.36-.07.03,0-.37.05-.79.72a1.1,1.1,0,0,1-1.05.54,2.287,2.287,0,0,1-1.69-1.59,2.534,2.534,0,0,1,1.63-3.34c1.68-.7,7.02-.89,8.08-.92l1.2-.98-.38-.72a3.567,3.567,0,0,1-1.98-.72c-.74.1-2.82.27-3.94-.64a1.966,1.966,0,0,1-.73-1.47c-.05-.79.73-.93,1.35-1.04a6,6,0,0,0,3.04-1.31c.1-.08.89-.61,2.34.11a22.853,22.853,0,0,0,2.29.93,8.2,8.2,0,0,1,2.59,1.25c.54.52,2.98,2.2,4.09,2.95l6.15-1.5a.5.5,0,0,1,.6.36l2.41,9.33a.494.494,0,0,1-.46.62l-7.12.29a38.529,38.529,0,0,0-7.16,3.36,11.9,11.9,0,0,1-4.96,1.99.076.076,0,0,1-.04.01Zm-2.69-7.04,3.51,3a.5.5,0,0,1,.17.46l-.4,2.49a13.33,13.33,0,0,0,3.9-1.77,39.059,39.059,0,0,1,7.4-3.46.7.7,0,0,1,.14-.03l6.58-.27L58.45,8.32,52.56,9.76a.513.513,0,0,1-.4-.07c-.15-.1-3.65-2.47-4.41-3.19A8.153,8.153,0,0,0,45.5,5.47a24.8,24.8,0,0,1-2.38-.97c-.89-.44-1.3-.2-1.3-.2a7.02,7.02,0,0,1-3.45,1.49,4.037,4.037,0,0,0-.53.11.9.9,0,0,0,.35.65c.81.66,2.73.51,3.4.4a.506.506,0,0,1,.44.14,2.621,2.621,0,0,0,1.74.61.482.482,0,0,1,.46.27l.71,1.34a.5.5,0,0,1-.13.62l-1.65,1.34a.482.482,0,0,1-.3.11c-1.73.04-6.51.27-7.89.84-1.59.67-1.15,1.9-1.09,2.04.27.67.67.95.85.97.03.01.06.01.11-.07a2.128,2.128,0,0,1,1.66-1.19c.05,0,2.02.11,2.78.05a.677.677,0,0,1,.7.35c.1.18.29.57-.7,1.78Z"/>
        </g>
        <g id="Group_1117285" data-name="Group 1117285">
          <g id="Group_1117273" data-name="Group 1117273">
            <path id="Path_908437" data-name="Path 908437" d="M45.83,27.09l5.4,5.89a1.453,1.453,0,0,0,2.05.09l8.5-7.79a1.453,1.453,0,0,0,.09-2.05L52.18,12.65a8.837,8.837,0,0,0-4.14-2.54l-3.39-.94-3.87,3.54,2.25,3.81a7.318,7.318,0,0,1,.95,4.66,7.28,7.28,0,0,0,1.85,5.91Z" fill="#c0c8ce"/>
          </g>
          <g id="Group_1117274" data-name="Group 1117274" opacity="0.3">
            <path id="Path_908438" data-name="Path 908438" d="M44.27,19.08a7.326,7.326,0,0,0-.92-2.58L41.1,12.69l.86-.79,1.39,2.35a7.236,7.236,0,0,1,.94,4.66C44.28,18.97,44.28,19.03,44.27,19.08Z"/>
          </g>
          <g id="Group_1117275" data-name="Group 1117275" opacity="0.3">
            <path id="Path_908439" data-name="Path 908439" d="M61.79,25.27l-8.51,7.8a1.441,1.441,0,0,1-2.04-.09l-5.4-5.89a7.3,7.3,0,0,1-1.92-4.93,7.573,7.573,0,0,1,.06-.95c.01-.08.87-.5.88-.58.2,1.44.23,3.02,1.23,4.11a9.146,9.146,0,0,0,13.09.67l2.55-2.34.15.16A1.459,1.459,0,0,1,61.79,25.27Z"/>
          </g>
          <g id="Group_1117276" data-name="Group 1117276" opacity="0.3">
            <path id="Path_908440" data-name="Path 908440" d="M44,20.96a6.233,6.233,0,0,1-.09-1.06,6.792,6.792,0,0,1,.04-.78A7.533,7.533,0,0,1,44,20.96Z"/>
          </g>
          <g id="Group_1117277" data-name="Group 1117277">
            <path id="Path_908441" data-name="Path 908441" d="M52.3,33.95h-.09a1.933,1.933,0,0,1-1.35-.63l-5.4-5.89a7.8,7.8,0,0,1-1.98-6.29,6.786,6.786,0,0,0-.88-4.34l-2.25-3.81a.5.5,0,0,1,.09-.62l3.87-3.54a.477.477,0,0,1,.47-.11l3.39.94a9.3,9.3,0,0,1,4.37,2.68l9.69,10.58a1.945,1.945,0,0,1-.12,2.75l-8.5,7.79a2,2,0,0,1-1.31.49ZM41.42,12.82l2.04,3.47a7.805,7.805,0,0,1,1.01,4.98,6.721,6.721,0,0,0,1.73,5.48l5.4,5.89a.919.919,0,0,0,.66.31.942.942,0,0,0,.68-.25l8.5-7.79a.919.919,0,0,0,.31-.66.942.942,0,0,0-.25-.68L51.81,13a8.215,8.215,0,0,0-3.9-2.39l-3.13-.87Z"/>
          </g>
          <g id="Group_1117278" data-name="Group 1117278">
            <path id="Path_908442" data-name="Path 908442" d="M38.58,9.69l3.19-2.93,2.87,2.01a.24.24,0,0,1,.02.38L40.7,12.78a.242.242,0,0,1-.38-.06Z" fill="#34495e"/>
          </g>
          <g id="Group_1117279" data-name="Group 1117279" opacity="0.3">
            <path id="Path_908443" data-name="Path 908443" d="M44.67,9.16l-3.96,3.63a.242.242,0,0,1-.38-.06L38.58,9.69l.74-.68a2.212,2.212,0,0,0,3.33.51l1.36-1.19.64.45s.14.27.02.38Z"/>
          </g>
          <g id="Group_1117280" data-name="Group 1117280">
            <path id="Path_908444" data-name="Path 908444" d="M40.55,13.35a.487.487,0,0,1-.12-.01.741.741,0,0,1-.53-.36L38.15,9.94a.491.491,0,0,1,.1-.62l3.19-2.93a.484.484,0,0,1,.62-.04l2.87,2.01a.74.74,0,0,1,.32.56.726.726,0,0,1-.24.6l-3.96,3.63a.694.694,0,0,1-.5.2ZM39.22,9.79l1.39,2.41L44.1,9,41.82,7.4Z"/>
          </g>
          <g id="Group_1117281" data-name="Group 1117281">
            <path id="Path_908445" data-name="Path 908445" d="M37.53,17.82a.514.514,0,0,1-.5-.44,14.8,14.8,0,0,0-3.78-8.14.5.5,0,1,1,.74-.68,15.76,15.76,0,0,1,4.03,8.69.51.51,0,0,1-.44.56.075.075,0,0,1-.05.01Z"/>
          </g>
          <g id="Group_1117282" data-name="Group 1117282">
            <path id="Path_908446" data-name="Path 908446" d="M39.62,2.05l2.93,3.2a.647.647,0,0,1-.04.91l-4.86,4.45a.666.666,0,0,1-.66.13l-1.8-.67a1.37,1.37,0,0,0-1.42.28l-1.5,1.38a.647.647,0,0,1-.91-.04l-1.03-1.12a.647.647,0,0,1,.04-.91l8.34-7.64A.637.637,0,0,1,39.62,2.05Z" fill="#d3dae0"/>
          </g>
          <g id="Group_1117283" data-name="Group 1117283" opacity="0.3">
            <path id="Path_908447" data-name="Path 908447" d="M42.51,6.17l-4.86,4.45a.616.616,0,0,1-.66.13l-1.8-.67a1.4,1.4,0,0,0-1.42.28l-1.5,1.37a.629.629,0,0,1-.91-.04l-1.03-1.12a.629.629,0,0,1,.04-.91l.11-.1.88.95a.647.647,0,0,0,.91.04l1.31-1.56A1.371,1.371,0,0,1,35,8.72l1.8.67a.657.657,0,0,0,.66-.13l4.75-4.35.34.35a.629.629,0,0,1-.04.91Z"/>
          </g>
          <g id="Group_1117284" data-name="Group 1117284">
            <path id="Path_908448" data-name="Path 908448" d="M31.84,12.4a1.184,1.184,0,0,1-.85-.37l-1.03-1.12a1.16,1.16,0,0,1,.07-1.63l8.34-7.64a1.112,1.112,0,0,1,.83-.3,1.157,1.157,0,0,1,.8.37l2.94,3.2a1.16,1.16,0,0,1-.07,1.63L38,10.99a1.157,1.157,0,0,1-1.18.23l-1.8-.67a.871.871,0,0,0-.91.18l-1.5,1.38a1.191,1.191,0,0,1-.77.29Zm7.3-10.05a.169.169,0,0,0-.1.03L30.7,10.02a.155.155,0,0,0-.01.21l1.03,1.12a.166.166,0,0,0,.21.01l1.5-1.38a1.879,1.879,0,0,1,1.93-.38l1.8.67a.14.14,0,0,0,.15-.03l4.86-4.45a.166.166,0,0,0,.01-.21l-2.94-3.2a.166.166,0,0,0-.1-.03Z"/>
          </g>
        </g>
        <g id="Group_1117291" data-name="Group 1117291">
          <g id="Group_1117286" data-name="Group 1117286">
            <path id="Path_908449" data-name="Path 908449" d="M45.98,19.12s2.67,1.73-3.57,4.57c-1.4.47-1.86-1.91-1.17-2.27-1.74.4-3.09-.88-2.21-2.45a1.558,1.558,0,0,1-1.34-2.15c.31-.94,1.47-1.27,2.82-1.28,2.75-.82,5.94-2.22,5.74.88,0,0,.91.34,1.04.99.26,1.31-1.31,1.71-1.31,1.71Z" fill="#fc3"/>
          </g>
          <g id="Group_1117287" data-name="Group 1117287" opacity="0.3">
            <path id="Path_908450" data-name="Path 908450" d="M43.07,22.39a11.455,11.455,0,0,0,3.47-2.18c-.03.79-.85,1.98-4.14,3.49-.99.33-1.51-.77-1.48-1.56a.661.661,0,0,0-.61-.65,1.588,1.588,0,0,1-1.28-2.5,1.561,1.561,0,0,1-1.35-2.15,1.473,1.473,0,0,1,.56-.74,1.448,1.448,0,0,0,.87,1.4.681.681,0,0,1,.34.78,1.579,1.579,0,0,0,1.52,1.9.661.661,0,0,1,.61.65c-.02.79.5,1.89,1.49,1.56Z"/>
          </g>
          <g id="Group_1117288" data-name="Group 1117288">
            <path id="Path_908451" data-name="Path 908451" d="M42.06,24.25a1.561,1.561,0,0,1-1.43-1.05,2.489,2.489,0,0,1-.19-1.2,2.42,2.42,0,0,1-1.8-.89,1.978,1.978,0,0,1-.29-1.8,2.115,2.115,0,0,1-1-.83,2.068,2.068,0,0,1-.14-1.8c.24-.72.99-1.59,3.22-1.62.29-.09.58-.18.88-.27,1.91-.6,3.72-1.17,4.75-.36a2.066,2.066,0,0,1,.7,1.7,1.925,1.925,0,0,1,1.03,1.21,1.827,1.827,0,0,1-.98,1.99,1.68,1.68,0,0,1,.23.98c-.09,1.28-1.54,2.54-4.43,3.86a2.215,2.215,0,0,1-.55.08Zm-.82-3.32a.5.5,0,0,1,.23.95A1.372,1.372,0,0,0,41.64,23a.463.463,0,0,0,.6.23c3.33-1.52,3.77-2.61,3.8-3a.782.782,0,0,0-.34-.67.5.5,0,0,1,.15-.9c.12-.03,1.11-.33.96-1.13-.06-.28-.51-.54-.73-.62a.487.487,0,0,1-.32-.5c.04-.6-.06-1-.31-1.19-.62-.49-2.33.05-3.84.53-.32.1-.65.2-.96.3a.59.59,0,0,1-.14.02c-.93.01-2.1.18-2.35.94a1.124,1.124,0,0,0,.04.96,1.316,1.316,0,0,0,.9.54.507.507,0,0,1,.37.28.5.5,0,0,1-.01.46,1.148,1.148,0,0,0-.03,1.28,1.632,1.632,0,0,0,1.69.44.147.147,0,0,1,.12-.04Z"/>
          </g>
          <g id="Group_1117289" data-name="Group 1117289">
            <path id="Path_908452" data-name="Path 908452" d="M39.03,19.48a.5.5,0,0,1-.49-.39.488.488,0,0,1,.38-.59c.05-.01,5.04-1.11,7.05-2.48a.5.5,0,1,1,.56.82c-2.17,1.48-7.18,2.58-7.4,2.63-.03,0-.07.01-.1.01Z"/>
          </g>
          <g id="Group_1117290" data-name="Group 1117290">
            <path id="Path_908453" data-name="Path 908453" d="M41.24,21.93a.489.489,0,0,1-.46-.31.5.5,0,0,1,.28-.65,28.482,28.482,0,0,0,4.61-2.23.5.5,0,1,1,.62.78,30.928,30.928,0,0,1-4.86,2.37.464.464,0,0,1-.19.04Z"/>
          </g>
        </g>
      </g>
      <g id="Group_1117293" data-name="Group 1117293" opacity="0.3">
        <path id="Path_908454" data-name="Path 908454" d="M29.97,21.86a1.83,1.83,0,0,0,0-.66,1.87,1.87,0,0,0-2.17-1.52,1.961,1.961,0,0,0-1.15.67,1.887,1.887,0,0,1,3.71.01,1.849,1.849,0,0,1-.39,1.5Z"/>
      </g>
      <g id="Group_1117294" data-name="Group 1117294" opacity="0.3">
        <path id="Path_908455" data-name="Path 908455" d="M22.93,24.78a1.62,1.62,0,0,0,0-.44,1.26,1.26,0,0,0-2.22-.57,1.255,1.255,0,0,1,2.47.01A1.182,1.182,0,0,1,22.93,24.78Z"/>
      </g>
      <g id="Group_1117295" data-name="Group 1117295" opacity="0.3">
        <path id="Path_908456" data-name="Path 908456" d="M27.47,28.87a1.455,1.455,0,0,0-1.67-1.69,1.4,1.4,0,0,0-.88.52,1.45,1.45,0,1,1,2.55,1.17Z"/>
      </g>
      <g id="Group_1117296" data-name="Group 1117296" opacity="0.3">
        <path id="Path_908457" data-name="Path 908457" d="M35.42,40.78a2.924,2.924,0,0,0-4.53-3.45,2.929,2.929,0,1,1,4.53,3.45Z"/>
      </g>
    </g>
  </g>
</svg>
