<svg xmlns="http://www.w3.org/2000/svg" xmlns:xlink="http://www.w3.org/1999/xlink" width="90" height="90" viewBox="0 0 90 90">
  <defs>
    <clipPath id="clip-path">
      <path id="path7152" d="M0-682.665H80v80H0Z" transform="translate(0 682.665)"/>
    </clipPath>
  </defs>
  <g id="Group_1117299" data-name="Group 1117299" transform="translate(-842.051 -2853)">
    <rect id="Rectangle_409911" data-name="Rectangle 409911" width="90" height="90" transform="translate(842.051 2853)" fill="none"/>
    <g id="g7146" transform="translate(848.051 3540.665)">
      <g id="g7148" transform="translate(0 -682.665)">
        <g id="g7150" clip-path="url(#clip-path)">
          <g id="g7156" transform="translate(1.179 1.179)">
            <path id="path7158" d="M-584.9-324.032v-8.385a1.364,1.364,0,0,0-1.364-1.364h-3.913a1.366,1.366,0,0,1-1.336-1.1,32.7,32.7,0,0,0-4.729-11.415,1.367,1.367,0,0,1,.169-1.721l2.768-2.768a1.364,1.364,0,0,0,0-1.929l-5.929-5.929a1.364,1.364,0,0,0-1.929,0l-2.768,2.768a1.367,1.367,0,0,1-1.722.169,32.69,32.69,0,0,0-11.415-4.729,1.367,1.367,0,0,1-1.1-1.336v-3.913a1.364,1.364,0,0,0-1.364-1.364h-8.385a1.364,1.364,0,0,0-1.364,1.364v3.913a1.367,1.367,0,0,1-1.1,1.336,32.692,32.692,0,0,0-11.415,4.729,1.367,1.367,0,0,1-1.721-.169l-2.768-2.768a1.364,1.364,0,0,0-1.929,0l-5.929,5.929a1.364,1.364,0,0,0,0,1.929l2.767,2.768a1.367,1.367,0,0,1,.169,1.721,32.693,32.693,0,0,0-4.729,11.415,1.367,1.367,0,0,1-1.336,1.1h-3.913a1.364,1.364,0,0,0-1.364,1.364v8.385a1.364,1.364,0,0,0,1.364,1.364h3.913a1.367,1.367,0,0,1,1.336,1.1,32.692,32.692,0,0,0,4.729,11.415,1.367,1.367,0,0,1-.169,1.722l-2.767,2.768a1.364,1.364,0,0,0,0,1.929l5.929,5.929a1.364,1.364,0,0,0,1.929,0l2.768-2.768a1.367,1.367,0,0,1,1.721-.169,32.7,32.7,0,0,0,11.415,4.729,1.366,1.366,0,0,1,1.1,1.336v3.913a1.364,1.364,0,0,0,1.364,1.364h8.385a1.364,1.364,0,0,0,1.364-1.364v-3.913a1.367,1.367,0,0,1,1.1-1.336,32.7,32.7,0,0,0,11.415-4.729,1.367,1.367,0,0,1,1.722.169l2.768,2.768a1.364,1.364,0,0,0,1.929,0l5.929-5.929a1.364,1.364,0,0,0,0-1.929l-2.768-2.768a1.367,1.367,0,0,1-.169-1.722,32.7,32.7,0,0,0,4.729-11.415,1.366,1.366,0,0,1,1.336-1.1h3.913a1.364,1.364,0,0,0,1.364-1.364" transform="translate(662.538 367.044)" fill="#cdc0ba"/>
          </g>
          <g id="g7160" transform="translate(40.898 9.186)">
            <path id="path7162" d="M-285.68-200.545v8.386a1.363,1.363,0,0,1-1.365,1.363h-3.912a1.365,1.365,0,0,0-1.336,1.1,32.713,32.713,0,0,1-4.729,11.416,1.367,1.367,0,0,0,.168,1.721l2.769,2.769a1.364,1.364,0,0,1,0,1.928l-5.929,5.929a1.364,1.364,0,0,1-1.928,0l-2.769-2.768a1.367,1.367,0,0,0-1.721-.168,32.713,32.713,0,0,1-11.416,4.729,1.365,1.365,0,0,0-1.1,1.337v3.912a1.363,1.363,0,0,1-1.363,1.365H-323.6a1.363,1.363,0,0,0,1.363-1.365v-5.331a1.439,1.439,0,0,1,1.1-1.337c7.429-2.325,14.475-4.822,19.2-11.126a33.691,33.691,0,0,0,6.263-25.712,33.464,33.464,0,0,0-1.749-6.21,30.534,30.534,0,0,0-2.889-5.809,1.367,1.367,0,0,1,.168-1.721l2.769-2.769a1.364,1.364,0,0,0,0-1.928l-5.245-5.245.682-.684a1.364,1.364,0,0,1,1.928,0l5.929,5.929a1.364,1.364,0,0,1,0,1.928l-2.769,2.769a1.367,1.367,0,0,0-.168,1.721A32.714,32.714,0,0,1-292.293-203a1.365,1.365,0,0,0,1.336,1.1h3.912a1.363,1.363,0,0,1,1.365,1.363" transform="translate(323.602 227.166)" fill="#b9acac"/>
          </g>
          <g id="g7164" transform="translate(1.179 1.179)">
            <path id="path7166" d="M-70.958-403.488a32.82,32.82,0,0,0,1.923,3.328,1.367,1.367,0,0,1-.169,1.722l-2.768,2.768a1.364,1.364,0,0,0,0,1.929l5.929,5.929a1.364,1.364,0,0,0,1.929,0l2.768-2.768a1.367,1.367,0,0,1,1.722-.169,32.7,32.7,0,0,0,11.415,4.729,1.366,1.366,0,0,1,1.1,1.336v3.913a1.364,1.364,0,0,0,1.364,1.364h8.385A1.364,1.364,0,0,0-36-380.771v-3.913a1.366,1.366,0,0,1,1.1-1.336,32.7,32.7,0,0,0,11.415-4.729,1.368,1.368,0,0,1,1.722.169L-19-387.813a1.364,1.364,0,0,0,1.928,0l5.929-5.929a1.364,1.364,0,0,0,0-1.929l-2.768-2.768a1.367,1.367,0,0,1-.169-1.722A32.7,32.7,0,0,0-9.35-411.575a1.367,1.367,0,0,1,1.336-1.1H-4.1a1.364,1.364,0,0,0,1.364-1.364v-8.385A1.364,1.364,0,0,0-4.1-423.784H-8.013a1.366,1.366,0,0,1-1.336-1.1A32.7,32.7,0,0,0-14.079-436.3a1.367,1.367,0,0,1,.169-1.721l2.768-2.768a1.364,1.364,0,0,0,0-1.929l-5.929-5.929a1.364,1.364,0,0,0-1.928,0l-2.768,2.768a1.368,1.368,0,0,1-1.722.169A32.69,32.69,0,0,0-34.9-450.435a1.367,1.367,0,0,1-1.1-1.336v-3.913a1.364,1.364,0,0,0-1.364-1.364h-8.385a1.364,1.364,0,0,0-1.364,1.364v3.913a1.367,1.367,0,0,1-1.1,1.336,32.691,32.691,0,0,0-11.415,4.729,1.367,1.367,0,0,1-1.722-.169l-2.768-2.768a1.364,1.364,0,0,0-1.929,0l-5.929,5.929a1.364,1.364,0,0,0,0,1.929l2.768,2.768a1.367,1.367,0,0,1,.169,1.721,32.694,32.694,0,0,0-4.729,11.415,1.367,1.367,0,0,1-1.336,1.1h-3.913a1.364,1.364,0,0,0-1.364,1.364v8.385a1.364,1.364,0,0,0,1.364,1.364H-75.1a1.367,1.367,0,0,1,1.336,1.1q.316,1.539.773,3.022" transform="translate(80.377 457.048)" fill="none" stroke="#000" stroke-linecap="round" stroke-linejoin="round" stroke-miterlimit="10" stroke-width="2"/>
          </g>
          <g id="g7168" transform="translate(14.5 14.5)">
            <path id="path7170" d="M-372.36-155.631h0a1.571,1.571,0,0,1-.785-2.932,1.571,1.571,0,0,0,.575-2.146l-3.27-5.663a1.571,1.571,0,0,0-2.146-.575h0a1.571,1.571,0,0,1-2.146-2.146h0a1.571,1.571,0,0,0-.575-2.146l-5.663-3.27a1.571,1.571,0,0,0-2.146.575h0a1.571,1.571,0,0,1-2.931-.785,1.571,1.571,0,0,0-1.571-1.571h-6.539a1.571,1.571,0,0,0-1.571,1.571,1.571,1.571,0,0,1-2.932.785h0a1.571,1.571,0,0,0-2.146-.575l-5.663,3.27a1.571,1.571,0,0,0-.575,2.146h0a1.571,1.571,0,0,1-2.146,2.146h0a1.571,1.571,0,0,0-2.146.575l-3.27,5.663a1.571,1.571,0,0,0,.575,2.146,1.571,1.571,0,0,1-.786,2.932,1.571,1.571,0,0,0-1.571,1.571v6.539a1.571,1.571,0,0,0,1.571,1.571,1.571,1.571,0,0,1,.786,2.932,1.571,1.571,0,0,0-.575,2.146l3.27,5.663a1.571,1.571,0,0,0,2.146.575,1.571,1.571,0,0,1,2.146,2.146,1.571,1.571,0,0,0,.575,2.146l5.663,3.27a1.571,1.571,0,0,0,2.146-.575,1.571,1.571,0,0,1,2.932.785,1.571,1.571,0,0,0,1.571,1.571h6.539a1.571,1.571,0,0,0,1.571-1.571,1.571,1.571,0,0,1,2.932-.785,1.571,1.571,0,0,0,2.146.575l5.663-3.27a1.571,1.571,0,0,0,.575-2.146,1.571,1.571,0,0,1,2.146-2.146,1.571,1.571,0,0,0,2.146-.575l3.27-5.663a1.571,1.571,0,0,0-.575-2.146,1.571,1.571,0,0,1,.785-2.932,1.571,1.571,0,0,0,1.571-1.571v-6.539a1.571,1.571,0,0,0-1.571-1.571" transform="translate(421.788 176.29)" fill="#766e6e"/>
          </g>
          <g id="g7172" transform="translate(46.131 16.071)">
            <path id="path7174" d="M-145.9-155.637v6.538a1.568,1.568,0,0,1-.46,1.112,1.566,1.566,0,0,1-1.111.459,1.559,1.559,0,0,0-1.573,1.589,1.52,1.52,0,0,0,.787,1.343,1.571,1.571,0,0,1,.575,2.146l-3.27,5.663a1.57,1.57,0,0,1-1.362.786,1.567,1.567,0,0,1-.784-.21,1.579,1.579,0,0,0-2.365,1.355,1.572,1.572,0,0,0,.22.791,1.57,1.57,0,0,1-.576,2.146l-5.662,3.27a1.565,1.565,0,0,1-.784.21,1.57,1.57,0,0,1-1.362-.786,1.52,1.52,0,0,0-1.343-.787,1.732,1.732,0,0,0-.3.027c8.235-4.078,14.542-11.785,14.542-21.6a26.354,26.354,0,0,0-14.542-23.166,1.732,1.732,0,0,0,.3.027,1.52,1.52,0,0,0,1.343-.787,1.572,1.572,0,0,1,2.146-.576l5.662,3.271a1.57,1.57,0,0,1,.786,1.362,1.567,1.567,0,0,1-.21.784,1.579,1.579,0,0,0,1.355,2.365,1.574,1.574,0,0,0,.79-.22,1.57,1.57,0,0,1,2.146.575l3.27,5.663a1.564,1.564,0,0,1,.21.784,1.57,1.57,0,0,1-.786,1.362,1.571,1.571,0,0,0,.786,2.932,1.57,1.57,0,0,1,1.57,1.572" transform="translate(165.268 176.296)" fill="#5c5555"/>
          </g>
          <g id="g7176" transform="translate(14.5 14.5)">
            <path id="path7178" d="M-372.36-155.631h0a1.571,1.571,0,0,1-.785-2.932,1.571,1.571,0,0,0,.575-2.146l-3.27-5.663a1.571,1.571,0,0,0-2.146-.575h0a1.571,1.571,0,0,1-2.146-2.146h0a1.571,1.571,0,0,0-.575-2.146l-5.663-3.27a1.571,1.571,0,0,0-2.146.575h0a1.571,1.571,0,0,1-2.931-.785,1.571,1.571,0,0,0-1.571-1.571h-6.539a1.571,1.571,0,0,0-1.571,1.571,1.571,1.571,0,0,1-2.932.785h0a1.571,1.571,0,0,0-2.146-.575l-5.663,3.27a1.571,1.571,0,0,0-.575,2.146h0a1.571,1.571,0,0,1-2.146,2.146h0a1.571,1.571,0,0,0-2.146.575l-3.27,5.663a1.571,1.571,0,0,0,.575,2.146,1.571,1.571,0,0,1-.786,2.932,1.571,1.571,0,0,0-1.571,1.571v6.539a1.571,1.571,0,0,0,1.571,1.571,1.571,1.571,0,0,1,.786,2.932,1.571,1.571,0,0,0-.575,2.146l3.27,5.663a1.571,1.571,0,0,0,2.146.575,1.571,1.571,0,0,1,2.146,2.146,1.571,1.571,0,0,0,.575,2.146l5.663,3.27a1.571,1.571,0,0,0,2.146-.575,1.571,1.571,0,0,1,2.932.785,1.571,1.571,0,0,0,1.571,1.571h6.539a1.571,1.571,0,0,0,1.571-1.571,1.571,1.571,0,0,1,2.932-.785,1.571,1.571,0,0,0,2.146.575l5.663-3.27a1.571,1.571,0,0,0,.575-2.146,1.571,1.571,0,0,1,2.146-2.146,1.571,1.571,0,0,0,2.146-.575l3.27-5.663a1.571,1.571,0,0,0-.575-2.146,1.571,1.571,0,0,1,.785-2.932,1.571,1.571,0,0,0,1.571-1.571v-6.539A1.571,1.571,0,0,0-372.36-155.631Z" transform="translate(421.788 176.29)" fill="none" stroke="#000" stroke-linecap="round" stroke-linejoin="round" stroke-miterlimit="10" stroke-width="2"/>
          </g>
          <g id="g7180" transform="translate(22.134 22.134)">
            <path id="path7182" d="M-269.18-134.59a17.866,17.866,0,0,1-17.866,17.866,17.866,17.866,0,0,1-17.866-17.866,17.866,17.866,0,0,1,17.866-17.866A17.866,17.866,0,0,1-269.18-134.59" transform="translate(304.911 152.456)" fill="#b3dafe"/>
          </g>
          <g id="g7184" transform="translate(29.932 23.672)">
            <path id="path7186" d="M-210.432-123A17.867,17.867,0,0,1-228.3-105.134a17.782,17.782,0,0,1-10.067-3.106,17.793,17.793,0,0,0,7.259,1.537,17.867,17.867,0,0,0,17.866-17.866,17.844,17.844,0,0,0-7.8-14.759A17.87,17.87,0,0,1-210.432-123" transform="translate(238.365 139.328)" fill="#8ac9fe"/>
          </g>
          <g id="g7188" transform="translate(22.134 22.134)">
            <path id="path7190" d="M-264.779-100.323a17.892,17.892,0,0,1,.584,4.549A17.866,17.866,0,0,1-282.06-77.908a17.866,17.866,0,0,1-17.866-17.866A17.866,17.866,0,0,1-282.06-113.64,17.851,17.851,0,0,1-267-105.388" transform="translate(299.926 113.64)" fill="none" stroke="#000" stroke-linecap="round" stroke-linejoin="round" stroke-miterlimit="10" stroke-width="2"/>
          </g>
          <g id="g7192" transform="translate(38.431 6.975)">
            <path id="path7194" d="M-23.633-11.817A1.569,1.569,0,0,1-25.2-10.248a1.569,1.569,0,0,1-1.569-1.569A1.569,1.569,0,0,1-25.2-13.385a1.569,1.569,0,0,1,1.569,1.569" transform="translate(26.771 13.385)"/>
          </g>
          <g id="g7196" transform="translate(38.431 69.886)">
            <path id="path7198" d="M-23.633-11.817A1.569,1.569,0,0,1-25.2-10.248a1.569,1.569,0,0,1-1.569-1.569A1.569,1.569,0,0,1-25.2-13.385a1.569,1.569,0,0,1,1.569,1.569" transform="translate(26.771 13.385)"/>
          </g>
          <g id="g7200" transform="translate(16.188 16.188)">
            <path id="path7202" d="M-20.173-3.462a1.569,1.569,0,0,1,0,2.218,1.569,1.569,0,0,1-2.218,0,1.568,1.568,0,0,1,0-2.218,1.568,1.568,0,0,1,2.218,0" transform="translate(22.85 3.921)"/>
          </g>
          <g id="g7204" transform="translate(60.673 60.673)">
            <path id="path7206" d="M-20.173-3.462a1.569,1.569,0,0,1,0,2.218,1.569,1.569,0,0,1-2.218,0,1.568,1.568,0,0,1,0-2.218,1.568,1.568,0,0,1,2.218,0" transform="translate(22.85 3.921)"/>
          </g>
          <g id="g7208" transform="translate(6.975 38.431)">
            <path id="path7210" d="M-11.817,0a1.569,1.569,0,0,1,1.569,1.569,1.569,1.569,0,0,1-1.569,1.569,1.569,1.569,0,0,1-1.569-1.569A1.569,1.569,0,0,1-11.817,0" transform="translate(13.385 0)"/>
          </g>
          <g id="g7212" transform="translate(69.886 38.431)">
            <path id="path7214" d="M-11.817,0a1.569,1.569,0,0,1,1.569,1.569,1.569,1.569,0,0,1-1.569,1.569,1.569,1.569,0,0,1-1.569-1.569A1.568,1.568,0,0,1-11.817,0" transform="translate(13.385 0)"/>
          </g>
          <g id="g7216" transform="translate(16.188 60.673)">
            <path id="path7218" d="M-3.462-3.462a1.568,1.568,0,0,1,2.218,0,1.568,1.568,0,0,1,0,2.218,1.569,1.569,0,0,1-2.218,0,1.568,1.568,0,0,1,0-2.218" transform="translate(3.921 3.921)"/>
          </g>
          <g id="g7220" transform="translate(60.673 16.188)">
            <path id="path7222" d="M-3.462-3.462a1.568,1.568,0,0,1,2.218,0,1.569,1.569,0,0,1,0,2.218,1.569,1.569,0,0,1-2.218,0,1.568,1.568,0,0,1,0-2.218" transform="translate(3.921 3.921)"/>
          </g>
          <g id="g7224" transform="translate(28.72 28.72)">
            <path id="path7226" d="M-169.946-84.972a11.279,11.279,0,0,1-11.279,11.279A11.279,11.279,0,0,1-192.5-84.972a11.279,11.279,0,0,1,11.28-11.279,11.279,11.279,0,0,1,11.279,11.279" transform="translate(192.505 96.252)" fill="#60b8fe"/>
          </g>
          <g id="g7228" transform="translate(33.291 29.366)">
            <path id="path7230" d="M-135.514-80.106a11.281,11.281,0,0,1-11.28,11.28A11.216,11.216,0,0,1-153.5-71.04a11.25,11.25,0,0,0,3.764.645,11.28,11.28,0,0,0,11.28-11.28,11.259,11.259,0,0,0-4.568-9.065,11.282,11.282,0,0,1,7.512,10.633" transform="translate(153.502 90.74)" fill="#27a5fe"/>
          </g>
          <g id="g7232" transform="translate(28.72 28.72)">
            <path id="path7234" d="M-169.946-84.972a11.279,11.279,0,0,1-11.279,11.279A11.279,11.279,0,0,1-192.5-84.972a11.279,11.279,0,0,1,11.28-11.279A11.279,11.279,0,0,1-169.946-84.972Z" transform="translate(192.505 96.252)" fill="none" stroke="#000" stroke-linecap="round" stroke-linejoin="round" stroke-miterlimit="10" stroke-width="2"/>
          </g>
          <g id="g7236" transform="translate(39.11 28.356)">
            <path id="path7238" d="M-79.764-39.881a5.294,5.294,0,0,1-5.294,5.294,5.294,5.294,0,0,1-5.294-5.294,5.294,5.294,0,0,1,5.294-5.294,5.294,5.294,0,0,1,5.294,5.294" transform="translate(90.352 45.175)" fill="#eaf6ff"/>
          </g>
          <g id="g7240" transform="translate(39.954 28.665)">
            <path id="path7242" d="M-73.406-37.554A5.294,5.294,0,0,1-78.7-32.26a5.287,5.287,0,0,1-4.45-2.427,5.249,5.249,0,0,0,1.784.309,5.294,5.294,0,0,0,5.294-5.294,5.271,5.271,0,0,0-.844-2.867,5.293,5.293,0,0,1,3.511,4.985" transform="translate(83.15 42.539)" fill="#d8ecfe"/>
          </g>
          <g id="g7244" transform="translate(39.11 28.356)">
            <path id="path7246" d="M-79.764-39.881a5.294,5.294,0,0,1-5.294,5.294,5.294,5.294,0,0,1-5.294-5.294,5.294,5.294,0,0,1,5.294-5.294A5.294,5.294,0,0,1-79.764-39.881Z" transform="translate(90.352 45.175)" fill="none" stroke="#000" stroke-linecap="round" stroke-linejoin="round" stroke-miterlimit="10" stroke-width="2"/>
          </g>
        </g>
      </g>
    </g>
  </g>
</svg>
