<svg xmlns="http://www.w3.org/2000/svg" width="90" height="90" viewBox="0 0 90 90">
  <g id="Group_1118030" data-name="Group 1118030" transform="translate(-188.051 -730)">
    <rect id="Rectangle_409888" data-name="Rectangle 409888" width="90" height="90" transform="translate(188.051 730)" fill="none"/>
    <g id="Group_1117156" data-name="Group 1117156" transform="translate(186.829 732.007)">
      <circle id="Ellipse_11964" data-name="Ellipse 11964" cx="33.82" cy="33.82" r="33.82" transform="translate(12.387 1.158)" fill="#5b6ea2"/>
      <circle id="Ellipse_11965" data-name="Ellipse 11965" cx="27.191" cy="27.191" r="27.191" transform="translate(19.015 7.786)" fill="#eef0f1"/>
      <rect id="Rectangle_409887" data-name="Rectangle 409887" width="26.514" height="6.905" rx="3.452" transform="translate(32.949 76.778)" fill="#f7d56b"/>
      <path id="Path_908321" data-name="Path 908321" d="M60.011,103.323a33.872,33.872,0,0,1-7.844-.923v8.906H67.854V102.4a33.872,33.872,0,0,1-7.844.923Z" transform="translate(-13.804 -34.526)" fill="#86dbd5"/>
      <path id="Path_908322" data-name="Path 908322" d="M74.674,41.722A21.653,21.653,0,0,0,68.4,26.463a1.2,1.2,0,0,0-.083-.1,1.085,1.085,0,0,0-.1-.083,21.675,21.675,0,0,0-30.517,0,1.086,1.086,0,0,0-.1.083,1.192,1.192,0,0,0-.083.1,21.679,21.679,0,0,0,0,30.524,1.151,1.151,0,0,0,1.719.1l.006-.006,3.47-3.47a1.16,1.16,0,0,0-1.641-1.641l-2.623,2.623a19.223,19.223,0,0,1-4.857-11.706h3.721a1.16,1.16,0,1,0,0-2.32H33.59a19.323,19.323,0,0,1,4.859-11.706l2.622,2.622a1.16,1.16,0,1,0,1.641-1.64l-2.622-2.622a19.319,19.319,0,0,1,11.705-4.859v3.719a1.16,1.16,0,1,0,2.32,0V22.358A19.319,19.319,0,0,1,65.82,27.217L63.2,29.839a1.16,1.16,0,1,0,1.641,1.64l2.622-2.622a19.323,19.323,0,0,1,4.859,11.706H68.6a1.16,1.16,0,1,0,0,2.32h3.718a19.223,19.223,0,0,1-4.858,11.706l-2.622-2.623a1.16,1.16,0,0,0-1.638,1.641l3.478,3.475a1.159,1.159,0,0,0,1.641,0,1.227,1.227,0,0,0,.08-.1,21.57,21.57,0,0,0,6.281-15.262Z" transform="translate(-6.745 -6.745)" fill="#d6d8d8"/>
      <path id="Path_908323" data-name="Path 908323" d="M65.364,75.917H57.41a1.16,1.16,0,1,0,0,2.32h7.954a1.16,1.16,0,1,0,0-2.32Z" transform="translate(-15.181 -25.597)" fill="#d6d8d8"/>
      <path id="Path_908324" data-name="Path 908324" d="M58,56.386c0-2.2,3.977-14.969,3.977-14.969s3.977,12.773,3.977,14.969a3.977,3.977,0,0,1-7.954,0Z" transform="translate(-15.771 -13.966)" fill="#ec7887"/>
      <path id="Path_908325" data-name="Path 908325" d="M81.186,34.977A34.98,34.98,0,1,0,37.2,68.776v6.843h-.8a4.617,4.617,0,0,0-4.612,4.613,1.16,1.16,0,0,0,2.32,0A2.3,2.3,0,0,1,36.4,77.938h19.61a2.293,2.293,0,1,1,0,4.585H36.4a1.16,1.16,0,0,0,0,2.32h19.61a4.613,4.613,0,1,0,0-9.225h-.8V68.776a35.038,35.038,0,0,0,25.976-33.8Zm-67.639,0a32.66,32.66,0,1,1,25.229,31.8,32.662,32.662,0,0,1-25.229-31.8ZM52.89,69.309v6.309H39.523V69.309a35.175,35.175,0,0,0,13.367,0Z" transform="translate(0 0)"/>
      <path id="Path_908326" data-name="Path 908326" d="M75.234,90.1q-.422.137-.85.26a1.161,1.161,0,1,0,.638,2.231q.464-.133.928-.284a1.16,1.16,0,1,0-.716-2.207Z" transform="translate(-21.002 -30.361)"/>
      <path id="Path_908327" data-name="Path 908327" d="M49.582,66.711a1.16,1.16,0,0,0,0-2.32,26.05,26.05,0,1,1,14.071-4.138,1.161,1.161,0,0,0,1.259,1.95,28.34,28.34,0,1,0-15.331,4.507Z" transform="translate(-3.376 -3.383)"/>
      <path id="Path_908328" data-name="Path 908328" d="M67.49,57.422a1.155,1.155,0,0,0,.82-.34,1.228,1.228,0,0,0,.08-.1,21.679,21.679,0,0,0,0-30.521,1.193,1.193,0,0,0-.083-.1,1.085,1.085,0,0,0-.1-.083,21.675,21.675,0,0,0-30.517,0,1.088,1.088,0,0,0-.1.083,1.2,1.2,0,0,0-.083.1,21.679,21.679,0,0,0,.007,30.524,1.151,1.151,0,0,0,1.719.1l.006-.006,3.47-3.47a1.16,1.16,0,0,0-1.641-1.641l-2.623,2.623a19.223,19.223,0,0,1-4.857-11.706h3.721a1.16,1.16,0,1,0,0-2.32H33.589a19.323,19.323,0,0,1,4.859-11.706l2.622,2.622a1.16,1.16,0,1,0,1.641-1.64l-2.622-2.622a19.319,19.319,0,0,1,11.705-4.859v3.719a1.16,1.16,0,0,0,2.32,0V22.358a19.319,19.319,0,0,1,11.705,4.859L63.2,29.839a1.16,1.16,0,1,0,1.641,1.64l2.622-2.622a19.323,19.323,0,0,1,4.859,11.706H68.594a1.16,1.16,0,0,0,0,2.32h3.718a19.223,19.223,0,0,1-4.858,11.706l-2.622-2.623a1.16,1.16,0,0,0-1.638,1.641l3.478,3.475a1.156,1.156,0,0,0,.819.34Z" transform="translate(-6.744 -6.745)"/>
      <path id="Path_908329" data-name="Path 908329" d="M65.364,75.917H57.41a1.16,1.16,0,1,0,0,2.32h7.954a1.16,1.16,0,1,0,0-2.32Z" transform="translate(-15.181 -25.597)"/>
      <path id="Path_908330" data-name="Path 908330" d="M61.387,39.667a1.16,1.16,0,0,0-1.108.817C59.607,42.646,56.25,53.543,56.25,55.8a5.137,5.137,0,0,0,10.274,0c0-2.258-3.357-13.153-4.03-15.312A1.16,1.16,0,0,0,61.387,39.667Zm0,18.946A2.82,2.82,0,0,1,58.57,55.8c0-1.144,1.458-6.407,2.817-10.982C62.749,49.388,64.2,54.652,64.2,55.8a2.82,2.82,0,0,1-2.817,2.817Z" transform="translate(-15.181 -13.376)"/>
    </g>
  </g>
</svg>
