<svg xmlns="http://www.w3.org/2000/svg" xmlns:xlink="http://www.w3.org/1999/xlink" width="69.335" height="69.335" viewBox="0 0 69.335 69.335">
  <defs>
    <clipPath id="clip-path">
      <path id="path6387" d="M0-682.665H69.335v69.335H0Z" transform="translate(0 682.665)"/>
    </clipPath>
  </defs>
  <g id="g6381" transform="translate(0 682.665)">
    <g id="g6383" transform="translate(0 -682.665)">
      <g id="g6385" clip-path="url(#clip-path)">
        <g id="g6391" transform="translate(7.145 6.062)">
          <path id="path6393" d="M-241.777-120.888a13.666,13.666,0,0,0-13.666-13.666,13.666,13.666,0,0,0-13.666,13.666,13.666,13.666,0,0,0,13.666,13.666,13.666,13.666,0,0,0,13.666-13.666" transform="translate(269.109 134.554)" fill="#23e8bf"/>
        </g>
        <g id="g6395" transform="translate(18.102 6.062)">
          <path id="path6397" d="M-23.958,0a13.737,13.737,0,0,0-2.708.269,13.671,13.671,0,0,1,10.958,13.4,13.671,13.671,0,0,1-10.958,13.4,13.737,13.737,0,0,0,2.708.269A13.666,13.666,0,0,0-10.292,13.666,13.666,13.666,0,0,0-23.958,0" transform="translate(26.667)" fill="#20d2ad"/>
        </g>
        <g id="g6399" transform="translate(19.346 18.263)">
          <path id="path6401" d="M-25.918-12.958a1.465,1.465,0,0,1-1.465,1.465,1.465,1.465,0,0,1-1.465-1.465,1.465,1.465,0,0,1,1.465-1.465,1.465,1.465,0,0,1,1.465,1.465" transform="translate(28.848 14.423)" fill="#05aba0"/>
        </g>
        <g id="g6403" transform="translate(34.858 35.941)">
          <path id="path6405" d="M0-120.888a13.666,13.666,0,0,1,13.666-13.666,13.666,13.666,0,0,1,13.666,13.666,13.666,13.666,0,0,1-13.666,13.666A13.666,13.666,0,0,1,0-120.888" transform="translate(0 134.554)" fill="#ff4580"/>
        </g>
        <g id="g6407" transform="translate(45.816 35.941)">
          <path id="path6409" d="M-23.958,0a13.737,13.737,0,0,0-2.708.269,13.671,13.671,0,0,1,10.958,13.4,13.671,13.671,0,0,1-10.958,13.4,13.737,13.737,0,0,0,2.708.269A13.666,13.666,0,0,0-10.292,13.666,13.666,13.666,0,0,0-23.958,0" transform="translate(26.667)" fill="#f52567"/>
        </g>
        <g id="g6411" transform="translate(47.059 48.142)">
          <path id="path6413" d="M-25.918-12.958a1.465,1.465,0,0,1-1.465,1.465,1.465,1.465,0,0,1-1.465-1.465,1.465,1.465,0,0,1,1.465-1.465,1.465,1.465,0,0,1,1.465,1.465" transform="translate(28.848 14.423)" fill="#d10f4c"/>
        </g>
        <g id="g6415" transform="translate(2.098 1.016)">
          <path id="path6417" d="M-69.473-300.268a18.611,18.611,0,0,0,10.859,3.481A18.734,18.734,0,0,0-39.9-315.5a18.734,18.734,0,0,0-18.713-18.713A18.734,18.734,0,0,0-77.326-315.5a18.607,18.607,0,0,0,1.639,7.657" transform="translate(77.326 334.213)" fill="none" stroke="#060606" stroke-linecap="round" stroke-linejoin="round" stroke-miterlimit="10" stroke-width="2"/>
        </g>
        <g id="g6419" transform="translate(7.144 6.062)">
          <path id="path6421" d="M-241.39-130.595q.043-.543.044-1.1a13.666,13.666,0,0,0-13.666-13.666,13.666,13.666,0,0,0-13.666,13.666,13.666,13.666,0,0,0,13.666,13.666,13.665,13.665,0,0,0,12.16-7.424" transform="translate(268.678 145.358)" fill="none" stroke="#060606" stroke-linecap="round" stroke-linejoin="round" stroke-miterlimit="10" stroke-width="2"/>
        </g>
        <g id="g6423" transform="translate(22.218 17.119)">
          <path id="path6425" d="M0-15.814,3.063-17.6" transform="translate(0 17.601)" fill="none" stroke="#060606" stroke-linecap="round" stroke-linejoin="round" stroke-miterlimit="10" stroke-width="2"/>
        </g>
        <g id="g6427" transform="translate(15.23 16.488)">
          <path id="path6429" d="M0,0,4.077,2.367" fill="none" stroke="#060606" stroke-linecap="round" stroke-linejoin="round" stroke-miterlimit="10" stroke-width="2"/>
        </g>
        <g id="g6431" transform="translate(19.83 28.311)">
          <path id="path6433" d="M-8.679-17.969a1.016,1.016,0,0,0,0-2.031,1.016,1.016,0,0,0,0,2.031" transform="translate(9.66 20)" fill="#060606"/>
        </g>
        <g id="g6435" transform="translate(15.03 27.025)">
          <path id="path6437" d="M-8.678-17.969a1.016,1.016,0,0,0,0-2.031,1.016,1.016,0,0,0,0,2.031" transform="translate(9.659 20)" fill="#060606"/>
        </g>
        <g id="g6439" transform="translate(11.517 23.512)">
          <path id="path6441" d="M-8.678-17.969a1.016,1.016,0,0,0,0-2.031,1.016,1.016,0,0,0,0,2.031" transform="translate(9.659 20)" fill="#060606"/>
        </g>
        <g id="g6443" transform="translate(10.231 18.713)">
          <path id="path6445" d="M-8.678-17.969a1.016,1.016,0,0,0,0-2.031,1.016,1.016,0,0,0,0,2.031" transform="translate(9.659 20)" fill="#060606"/>
        </g>
        <g id="g6447" transform="translate(11.517 13.913)">
          <path id="path6449" d="M-8.678-17.969a1.016,1.016,0,0,0,0-2.031,1.016,1.016,0,0,0,0,2.031" transform="translate(9.659 20)" fill="#060606"/>
        </g>
        <g id="g6451" transform="translate(15.03 10.4)">
          <path id="path6453" d="M-8.678-17.969a1.016,1.016,0,0,0,0-2.031,1.016,1.016,0,0,0,0,2.031" transform="translate(9.659 20)" fill="#060606"/>
        </g>
        <g id="g6455" transform="translate(19.83 9.114)">
          <path id="path6457" d="M-8.679-17.969a1.016,1.016,0,0,0,0-2.031,1.016,1.016,0,0,0,0,2.031" transform="translate(9.66 20)" fill="#060606"/>
        </g>
        <g id="g6459" transform="translate(24.629 10.4)">
          <path id="path6461" d="M-8.678-17.969a1.016,1.016,0,0,0,0-2.031,1.016,1.016,0,0,0,0,2.031" transform="translate(9.659 20)" fill="#060606"/>
        </g>
        <g id="g6463" transform="translate(28.142 13.913)">
          <path id="path6465" d="M-8.679-17.969a1.016,1.016,0,0,0,0-2.031,1.016,1.016,0,0,0,0,2.031" transform="translate(9.66 20)" fill="#060606"/>
        </g>
        <g id="g6467" transform="translate(29.428 18.713)">
          <path id="path6469" d="M-8.679-17.969a1.016,1.016,0,0,0,0-2.031,1.016,1.016,0,0,0,0,2.031" transform="translate(9.66 20)" fill="#060606"/>
        </g>
        <g id="g6471" transform="translate(28.142 23.512)">
          <path id="path6473" d="M-8.679-17.969a1.016,1.016,0,0,0,0-2.031,1.016,1.016,0,0,0,0,2.031" transform="translate(9.66 20)" fill="#060606"/>
        </g>
        <g id="g6475" transform="translate(24.629 27.025)">
          <path id="path6477" d="M-8.678-17.969a1.016,1.016,0,0,0,0-2.031,1.016,1.016,0,0,0,0,2.031" transform="translate(9.659 20)" fill="#060606"/>
        </g>
        <g id="g6479" transform="translate(1.016 24.894)">
          <path id="path6481" d="M-35.3,0l-1.179,2.89-2.812-1.356" transform="translate(39.293)" fill="none" stroke="#060606" stroke-linecap="round" stroke-linejoin="round" stroke-miterlimit="10" stroke-width="2"/>
        </g>
        <g id="g6483" transform="translate(19.346 18.263)">
          <path id="path6485" d="M-25.918-12.958a1.465,1.465,0,0,1-1.465,1.465,1.465,1.465,0,0,1-1.465-1.465,1.465,1.465,0,0,1,1.465-1.465A1.465,1.465,0,0,1-25.918-12.958Z" transform="translate(28.848 14.423)" fill="none" stroke="#060606" stroke-linecap="round" stroke-linejoin="round" stroke-miterlimit="10" stroke-width="2"/>
        </g>
        <g id="g6487" transform="translate(29.812 30.894)">
          <path id="path6489" d="M-261.585-300.267a18.61,18.61,0,0,1-10.859,3.481A18.734,18.734,0,0,1-291.157-315.5a18.734,18.734,0,0,1,18.713-18.712A18.734,18.734,0,0,1-253.732-315.5a18.607,18.607,0,0,1-1.639,7.657" transform="translate(291.157 334.211)" fill="none" stroke="#060606" stroke-linecap="round" stroke-linejoin="round" stroke-miterlimit="10" stroke-width="2"/>
        </g>
        <g id="g6491" transform="translate(34.858 35.941)">
          <path id="path6493" d="M-189.812-21.571a13.6,13.6,0,0,0-7.792-2.439A13.666,13.666,0,0,0-211.27-10.343,13.666,13.666,0,0,0-197.6,3.323a13.666,13.666,0,0,0,13.666-13.666,13.6,13.6,0,0,0-2.147-7.357" transform="translate(211.27 24.009)" fill="none" stroke="#060606" stroke-linecap="round" stroke-linejoin="round" stroke-miterlimit="10" stroke-width="2"/>
        </g>
        <g id="g6495" transform="translate(43.837 46.977)">
          <path id="path6497" d="M-28.824-16.174-32.083-18" transform="translate(32.083 18.003)" fill="none" stroke="#060606" stroke-linecap="round" stroke-linejoin="round" stroke-miterlimit="10" stroke-width="2"/>
        </g>
        <g id="g6499" transform="translate(48.55 51.071)">
          <path id="path6501" d="M-.749-42.351l-.085-4.788" transform="translate(0.833 47.139)" fill="none" stroke="#060606" stroke-linecap="round" stroke-linejoin="round" stroke-miterlimit="10" stroke-width="2"/>
        </g>
        <g id="g6503" transform="translate(47.543 58.19)">
          <path id="path6505" d="M-8.678-17.969a1.016,1.016,0,0,0,0-2.031,1.016,1.016,0,0,0,0,2.031" transform="translate(9.659 20)" fill="#060606"/>
        </g>
        <g id="g6507" transform="translate(52.343 56.904)">
          <path id="path6509" d="M-8.679-17.969a1.016,1.016,0,0,0,0-2.031,1.016,1.016,0,0,0,0,2.031" transform="translate(9.66 20)" fill="#060606"/>
        </g>
        <g id="g6511" transform="translate(55.856 53.391)">
          <path id="path6513" d="M-8.679-17.969a1.016,1.016,0,0,0,0-2.031,1.016,1.016,0,0,0,0,2.031" transform="translate(9.66 20)" fill="#060606"/>
        </g>
        <g id="g6515" transform="translate(57.142 48.591)">
          <path id="path6517" d="M-8.678-17.969a1.016,1.016,0,0,0,0-2.031,1.016,1.016,0,0,0,0,2.031" transform="translate(9.659 20)" fill="#060606"/>
        </g>
        <g id="g6519" transform="translate(55.856 43.792)">
          <path id="path6521" d="M-8.679-17.969a1.016,1.016,0,0,0,0-2.031,1.016,1.016,0,0,0,0,2.031" transform="translate(9.66 20)" fill="#060606"/>
        </g>
        <g id="g6523" transform="translate(52.343 40.278)">
          <path id="path6525" d="M-8.679-17.969a1.016,1.016,0,0,0,0-2.031,1.016,1.016,0,0,0,0,2.031" transform="translate(9.66 20)" fill="#060606"/>
        </g>
        <g id="g6527" transform="translate(47.543 38.992)">
          <path id="path6529" d="M-8.678-17.969a1.016,1.016,0,0,0,0-2.031,1.016,1.016,0,0,0,0,2.031" transform="translate(9.659 20)" fill="#060606"/>
        </g>
        <g id="g6531" transform="translate(42.744 40.278)">
          <path id="path6533" d="M-8.679-17.969a1.016,1.016,0,0,0,0-2.031,1.016,1.016,0,0,0,0,2.031" transform="translate(9.66 20)" fill="#060606"/>
        </g>
        <g id="g6535" transform="translate(39.231 43.792)">
          <path id="path6537" d="M-8.678-17.969a1.016,1.016,0,0,0,0-2.031,1.016,1.016,0,0,0,0,2.031" transform="translate(9.659 20)" fill="#060606"/>
        </g>
        <g id="g6539" transform="translate(37.945 48.591)">
          <path id="path6541" d="M-8.678-17.969a1.016,1.016,0,0,0,0-2.031,1.016,1.016,0,0,0,0,2.031" transform="translate(9.659 20)" fill="#060606"/>
        </g>
        <g id="g6543" transform="translate(39.231 53.391)">
          <path id="path6545" d="M-8.678-17.969a1.016,1.016,0,0,0,0-2.031,1.016,1.016,0,0,0,0,2.031" transform="translate(9.659 20)" fill="#060606"/>
        </g>
        <g id="g6547" transform="translate(42.744 56.904)">
          <path id="path6549" d="M-8.679-17.969a1.016,1.016,0,0,0,0-2.031,1.016,1.016,0,0,0,0,2.031" transform="translate(9.66 20)" fill="#060606"/>
        </g>
        <g id="g6551" transform="translate(64.329 54.773)">
          <path id="path6553" d="M0,0,1.179,2.89,3.991,1.535" fill="none" stroke="#060606" stroke-linecap="round" stroke-linejoin="round" stroke-miterlimit="10" stroke-width="2"/>
        </g>
        <g id="g6555" transform="translate(47.059 48.142)">
          <path id="path6557" d="M-25.918-12.958a1.465,1.465,0,0,1-1.465,1.465,1.465,1.465,0,0,1-1.465-1.465,1.465,1.465,0,0,1,1.465-1.465A1.465,1.465,0,0,1-25.918-12.958Z" transform="translate(28.848 14.423)" fill="none" stroke="#060606" stroke-linecap="round" stroke-linejoin="round" stroke-miterlimit="10" stroke-width="2"/>
        </g>
        <g id="g6559" transform="translate(6.906 10.292)">
          <path id="path6561" d="M0-431.248,55.522-480" transform="translate(0 479.999)" fill="none" stroke="#060606" stroke-linecap="round" stroke-linejoin="round" stroke-miterlimit="10" stroke-width="2"/>
        </g>
      </g>
    </g>
  </g>
</svg>
