<svg xmlns="http://www.w3.org/2000/svg" width="73.561" height="70.302" viewBox="0 0 73.561 70.302">
  <g id="Group_1117399" data-name="Group 1117399" transform="translate(0 -11.338)">
    <g id="Group_1117382" data-name="Group 1117382" transform="translate(19.799 48.305)">
      <path id="Path_908674" data-name="Path 908674" d="M148.61,268.63l-10.8,10.179,4.218,4.489,10.8-10.179a24.519,24.519,0,0,1-4.218-4.489Z" transform="translate(-137.809 -268.63)" fill="#e8eaea" fill-rule="evenodd"/>
    </g>
    <g id="Group_1117383" data-name="Group 1117383" transform="translate(21.908 50.681)">
      <path id="Path_908675" data-name="Path 908675" d="M160.685,287.484l-6.925,6.532-1.274,1.2,2.109,2.246,1.274-1.2,7.072-6.662,2.455-2.315a23.375,23.375,0,0,1-2.251-2.112Z" transform="translate(-152.486 -285.169)" fill="#cecece" fill-rule="evenodd"/>
    </g>
    <g id="Group_1117384" data-name="Group 1117384" transform="translate(1.077 54.876)">
      <path id="Path_908676" data-name="Path 908676" d="M33.306,322.964l-7.507-7.99a1.922,1.922,0,0,0-2.7-.089L9.832,327.29a7.392,7.392,0,1,0,10.121,10.777L33.22,325.661A1.912,1.912,0,0,0,33.306,322.964Z" transform="translate(-7.5 -314.372)" fill="#6bd9e7" fill-rule="evenodd"/>
    </g>
    <g id="Group_1117385" data-name="Group 1117385" transform="translate(23.569 12.403)">
      <path id="Path_908677" data-name="Path 908677" d="M170.573,59.336a24.13,24.13,0,1,1,34.144,1.1A24.065,24.065,0,0,1,170.573,59.336Z" transform="translate(-164.043 -18.752)" fill="#6bd9e7" fill-rule="evenodd"/>
    </g>
    <g id="Group_1117386" data-name="Group 1117386" transform="translate(43.925 12.403)">
      <path id="Path_908678" data-name="Path 908678" d="M327.147,26.371a24.153,24.153,0,0,0-21.422-7.324A24.093,24.093,0,0,1,307.7,66.26c-.651.162-1.307.293-1.966.4.655.1,1.311.179,1.966.227a24.1,24.1,0,0,0,19.448-40.515Z" transform="translate(-305.725 -18.75)" fill="#00c7dd" fill-rule="evenodd"/>
    </g>
    <g id="Group_1117387" data-name="Group 1117387" transform="translate(29.273 18.095)">
      <path id="Path_908679" data-name="Path 908679" d="M222.2,95.189a18.411,18.411,0,1,0-18.45-18.413A18.468,18.468,0,0,0,222.2,95.189Z" transform="translate(-203.745 -58.366)" fill="#fe636e" fill-rule="evenodd"/>
    </g>
    <g id="Group_1117388" data-name="Group 1117388" transform="translate(36.772 26.395)">
      <path id="Path_908680" data-name="Path 908680" d="M270.905,135.444a10.548,10.548,0,0,0,2.292-18.653c-2.939-2-2.369,1.162-2.369,1.694v6.349a3.943,3.943,0,1,1-7.87,0v-6.349c0-.532.566-3.7-2.369-1.694a10.546,10.546,0,0,0,2.288,18.653v8.778a18.755,18.755,0,0,0,8.028,0v-8.778Z" transform="translate(-255.94 -116.134)" fill="#c1eaf4" fill-rule="evenodd"/>
    </g>
    <g id="Group_1117389" data-name="Group 1117389" transform="translate(49.135 26.402)">
      <path id="Path_908681" data-name="Path 908681" d="M344.593,144.264v-8.778a10.548,10.548,0,0,0,2.292-18.653,3.315,3.315,0,0,0-1.441-.65,10.54,10.54,0,0,1-2.984,17.585c-.627.264-.444,1.007-.444,1.763v9.115A19.082,19.082,0,0,0,344.593,144.264Z" transform="translate(-341.991 -116.183)" fill="#99cfe0" fill-rule="evenodd"/>
    </g>
    <g id="Group_1117390" data-name="Group 1117390" transform="translate(45.598 18.095)">
      <path id="Path_908682" data-name="Path 908682" d="M337.95,76.775A18.43,18.43,0,0,0,319.5,58.366a19.39,19.39,0,0,0-2.125.118,18.405,18.405,0,0,1,6.139,34.479v1.791A18.428,18.428,0,0,0,337.95,76.775Z" transform="translate(-317.371 -58.366)" fill="#f93e55" fill-rule="evenodd"/>
    </g>
    <g id="Group_1117391" data-name="Group 1117391" transform="translate(45.899 47.699)">
      <path id="Path_908683" data-name="Path 908683" d="M329.943,266.683a11.332,11.332,0,0,0-2.98,1.235l-.863-.861a1.056,1.056,0,0,0-1.49,0l-2.5,2.49a1.05,1.05,0,0,0,0,1.487l.863.861a11.277,11.277,0,0,0-1.238,2.973h-1.217a1.056,1.056,0,0,0-1.054,1.052v3.518a1.056,1.056,0,0,0,1.054,1.052h1.217a11.281,11.281,0,0,0,1.238,2.974l-.863.861a1.055,1.055,0,0,0,0,1.491l2.5,2.486a1.056,1.056,0,0,0,1.49,0l.863-.861a11.2,11.2,0,0,0,2.98,1.235v1.215A1.056,1.056,0,0,0,331,290.942h3.526a1.056,1.056,0,0,0,1.054-1.052v-1.215a11.322,11.322,0,0,0,2.98-1.231l.863.857a1.061,1.061,0,0,0,1.494,0l2.491-2.486a1.055,1.055,0,0,0,0-1.491l-.859-.861a11.269,11.269,0,0,0,1.234-2.974H345a1.056,1.056,0,0,0,1.054-1.052V275.92A1.056,1.056,0,0,0,345,274.868h-1.217a11.273,11.273,0,0,0-1.234-2.973l.859-.861a1.05,1.05,0,0,0,0-1.487l-2.491-2.49a1.061,1.061,0,0,0-1.494,0l-.863.861a11.332,11.332,0,0,0-2.98-1.235v-1.215a1.056,1.056,0,0,0-1.054-1.052H331a1.056,1.056,0,0,0-1.054,1.052Z" transform="translate(-319.468 -264.416)" fill="#737a93" fill-rule="evenodd"/>
    </g>
    <g id="Group_1117392" data-name="Group 1117392" transform="translate(52.462 54.247)">
      <path id="Path_908684" data-name="Path 908684" d="M365.145,316.707a6.732,6.732,0,1,0,6.73-6.715A6.725,6.725,0,0,0,365.145,316.707Z" transform="translate(-365.145 -309.992)" fill="#e8eaea" fill-rule="evenodd"/>
    </g>
    <g id="Group_1117393" data-name="Group 1117393" transform="translate(60.181 54.442)">
      <path id="Path_908685" data-name="Path 908685" d="M420.124,316.85a23.068,23.068,0,0,1-1.254,7.665,6.715,6.715,0,0,0,.635-13.165A24.2,24.2,0,0,1,420.124,316.85Z" transform="translate(-418.87 -311.35)" fill="#d4d6d8" fill-rule="evenodd"/>
    </g>
    <g id="Group_1117394" data-name="Group 1117394" transform="translate(56.411 47.699)">
      <path id="Path_908686" data-name="Path 908686" d="M397.035,271.157a6.715,6.715,0,0,1-.635,13.165,13.246,13.246,0,0,1-3.77,5.845,1.062,1.062,0,0,0,1.018.772h3.526a1.056,1.056,0,0,0,1.054-1.052v-1.215c1.413-.357,2.011-.979,2.618-1.028.354-.024.708.138,1.225.654a1.061,1.061,0,0,0,1.494,0l2.491-2.486a1.055,1.055,0,0,0,0-1.491l-.859-.861a11.269,11.269,0,0,0,1.234-2.974h1.217a1.056,1.056,0,0,0,1.054-1.052v-3.518a1.056,1.056,0,0,0-1.054-1.052h-1.217a11.273,11.273,0,0,0-1.234-2.974l.859-.861a1.05,1.05,0,0,0,0-1.487l-2.491-2.49a1.061,1.061,0,0,0-1.494,0l-.863.861a11.333,11.333,0,0,0-2.98-1.235v-1.215a1.054,1.054,0,0,0-1.046-1.052H393.9a16.512,16.512,0,0,1,3.135,6.744Z" transform="translate(-392.63 -264.414)" fill="#606b82" fill-rule="evenodd"/>
    </g>
    <g id="Group_1117395" data-name="Group 1117395" transform="translate(12.557 54.876)">
      <path id="Path_908687" data-name="Path 908687" d="M94.218,314.973a1.922,1.922,0,0,0-2.7-.089L87.4,318.734l10.125,10.773,4.116-3.847a1.912,1.912,0,0,0,.085-2.7l-1.628-1.734-4.214-4.489Z" transform="translate(-87.399 -314.371)" fill="#c1eaf4" fill-rule="evenodd"/>
    </g>
    <g id="Group_1117396" data-name="Group 1117396" transform="translate(2.001 67.392)">
      <path id="Path_908688" data-name="Path 908688" d="M32.143,401.483,23,410.042a7.451,7.451,0,0,1-9.07.821,7.41,7.41,0,0,0,11.529,1.8l9.152-8.559Z" transform="translate(-13.925 -401.483)" fill="#00c7dd" fill-rule="evenodd"/>
    </g>
    <g id="Group_1117397" data-name="Group 1117397" transform="translate(20.219 60.856)">
      <path id="Path_908689" data-name="Path 908689" d="M144.843,358.682l-3.086,2.888-1.03.959,2.463,2.62,4.116-3.847a1.912,1.912,0,0,0,.085-2.7l-1.592-1.7-.037-.037-.822-.877a1.912,1.912,0,0,1-.1,2.689Z" transform="translate(-140.727 -355.993)" fill="#99cfe0" fill-rule="evenodd"/>
    </g>
    <g id="Group_1117398" data-name="Group 1117398" transform="translate(0 11.338)">
      <path id="Path_908690" data-name="Path 908690" d="M71.428,57.073h-.409a12.2,12.2,0,0,0-.708-1.705l.287-.289a2.128,2.128,0,0,0,0-3.011L68.835,50.3A25.217,25.217,0,1,0,22.5,35.695a24.954,24.954,0,0,0,4.211,14.768l-5.628,5.264-.926-.985a3,3,0,0,0-4.225-.139L2.673,67.007a8.458,8.458,0,0,0,5.8,14.634,8.448,8.448,0,0,0,5.792-2.283l13.27-12.407a2.99,2.99,0,0,0,.133-4.22h0l-.889-.947,5.63-5.263a25.168,25.168,0,0,0,12.412,5v1.2a2.134,2.134,0,0,0,2.132,2.129h.411a12.3,12.3,0,0,0,.71,1.705l-.29.289a2.131,2.131,0,0,0,0,3.017l2.494,2.486a2.137,2.137,0,0,0,3.013,0l.292-.292a12.161,12.161,0,0,0,1.713.711v.405A2.134,2.134,0,0,0,57.429,75.3h3.526a2.134,2.134,0,0,0,2.132-2.131v-.405a12.474,12.474,0,0,0,1.713-.71l.292.29a2.139,2.139,0,0,0,3.016,0L70.6,69.86a2.133,2.133,0,0,0,0-3.014l-.29-.29a12.2,12.2,0,0,0,.708-1.705h.409a2.133,2.133,0,0,0,2.132-2.129V59.2A2.133,2.133,0,0,0,71.428,57.073ZM12.794,77.784A6.34,6.34,0,0,1,3.857,77.5a6.316,6.316,0,0,1,.288-8.915l8.362-7.821,8.65,9.2ZM26.062,65.378l-3.33,3.114-8.65-9.2,3.325-3.11a.842.842,0,0,1,1.184.038l7.507,7.99A.832.832,0,0,1,26.062,65.378ZM25.3,60.212l-2.739-2.918L28,52.212q.624.778,1.314,1.514t1.426,1.4l0,0ZM44.821,59.2v.144A23.023,23.023,0,1,1,67.1,49.017a2.135,2.135,0,0,0-2.012.559l-.292.292a12.461,12.461,0,0,0-1.713-.71v-.407c0-.067,0-.133-.01-.2A19.514,19.514,0,0,0,36.516,20.544a1.078,1.078,0,0,0,1.237,1.764,17.35,17.35,0,0,1,23.974,24.46,2.119,2.119,0,0,0-.773-.147H57.429A2.134,2.134,0,0,0,55.3,48.752v.407a12.388,12.388,0,0,0-1.713.71l-.289-.287a2.124,2.124,0,0,0-.48-.363V46.429a11.717,11.717,0,0,0,6.937-10.643,1.078,1.078,0,0,0-2.155,0,9.555,9.555,0,0,1-6.234,8.909,1.076,1.076,0,0,0-.7,1.01v3.57a2.183,2.183,0,0,0-.381.3l-2.5,2.49a2.1,2.1,0,0,0-.608,1.765,17.392,17.392,0,0,1-2.389-.24V45.7a1.078,1.078,0,0,0-.7-1.01,9.468,9.468,0,0,1-2.055-16.752,3.963,3.963,0,0,1,.714-.4c.02.2-.03,7.556-.03,7.556a5.3,5.3,0,0,0,4.94,5.276,1.2,1.2,0,0,0,.144,0,5.3,5.3,0,0,0,4.942-5.276s-.052-7.36-.032-7.556a3.958,3.958,0,0,1,.717.4,9.675,9.675,0,0,1,2.862,3.05,1.078,1.078,0,1,0,1.855-1.1,11.835,11.835,0,0,0-3.5-3.733c-.468-.319-1.894-1.29-3.079-.6-1.162.671-.948,2.1-.986,3.019,0,.072.011,6.519.011,6.519a3.145,3.145,0,0,1-2.859,3.121,3.144,3.144,0,0,1-2.856-3.121s.014-6.447.011-6.519c-.035-.9.174-2.349-.987-3.019-1.188-.685-2.611.286-3.078.6a11.619,11.619,0,0,0,1.817,20.267V53.08a17.32,17.32,0,0,1-8.315-27.6,1.078,1.078,0,1,0-1.661-1.374A19.483,19.483,0,0,0,47.723,56h.057c-.155.353-.295.712-.416,1.079h-.411A2.133,2.133,0,0,0,44.821,59.2ZM71.405,62.7H70.212a1.079,1.079,0,0,0-1.045.813A10.136,10.136,0,0,1,68.051,66.2a1.078,1.078,0,0,0,.165,1.31l.843.846L66.6,70.807l-.851-.845a1.078,1.078,0,0,0-1.306-.164,10.282,10.282,0,0,1-2.7,1.115,1.076,1.076,0,0,0-.813,1.045v1.19h-3.48v-1.19a1.076,1.076,0,0,0-.815-1.045A10.159,10.159,0,0,1,53.945,69.8a1.08,1.08,0,0,0-1.312.162l-.846.846-2.463-2.453.845-.845a1.076,1.076,0,0,0,.165-1.315,10.194,10.194,0,0,1-1.119-2.69A1.079,1.079,0,0,0,48.17,62.7H46.977V59.229H48.17a1.079,1.079,0,0,0,1.045-.809,10.194,10.194,0,0,1,1.119-2.69,1.078,1.078,0,0,0-.165-1.316l-.843-.84,1.335-1.332,1.126-1.124.846.845a1.025,1.025,0,0,0,.182.145,1.07,1.07,0,0,0,1.129.019,10.232,10.232,0,0,1,2.7-1.116,1.078,1.078,0,0,0,.81-1.045v-1.19h3.48v1.19a1.078,1.078,0,0,0,.81,1.045,10.253,10.253,0,0,1,2.7,1.116,1.076,1.076,0,0,0,1.312-.164l.848-.846,2.458,2.457-.84.843a1.078,1.078,0,0,0-.165,1.31,10.135,10.135,0,0,1,1.116,2.688,1.079,1.079,0,0,0,1.045.813h1.194Z" transform="translate(0 -11.338)"/>
      <path id="Path_908691" data-name="Path 908691" d="M365.452,302.492a7.794,7.794,0,1,0,7.811,7.792A7.808,7.808,0,0,0,365.452,302.492Zm0,13.433a5.639,5.639,0,1,1,5.656-5.641A5.653,5.653,0,0,1,365.452,315.925Z" transform="translate(-306.261 -260.661)"/>
    </g>
  </g>
</svg>
