<svg xmlns="http://www.w3.org/2000/svg" width="69.422" height="69.413" viewBox="0 0 69.422 69.413">
  <g id="filled_outline_creat" data-name="filled outline creat" transform="translate(-16 -16.057)">
    <path id="Path_908692" data-name="Path 908692" d="M299.483,33.414a1.156,1.156,0,0,1,.6,1.523l-8.332,19.086A48.351,48.351,0,0,0,268.42,43.842l8.332-19.088a1.156,1.156,0,0,1,1.523-.6Z" transform="translate(-215.913 -6.846)" fill="#757575"/>
    <path id="Path_908693" data-name="Path 908693" d="M47.425,24.754l8.332,19.088A48.352,48.352,0,0,0,32.429,54.024L24.1,34.937a1.156,1.156,0,0,1,.6-1.523L45.9,24.157a1.156,1.156,0,0,1,1.523.6Z" transform="translate(-6.843 -6.846)" fill="#757575"/>
    <path id="Path_908694" data-name="Path 908694" d="M135.262,189.689l6.871-15.738a4.634,4.634,0,0,0-3.107-6.339,48.321,48.321,0,0,1,14.092,6.148,4.634,4.634,0,0,0-6.745,2.042l-6.812,15.607,4.193,1.678v15.041l-11.57,5.785-11.57-5.785V193.086l4.193-1.678L118,175.8a4.634,4.634,0,0,0-6.745-2.042,48.3,48.3,0,0,1,14.257-6.19,4.773,4.773,0,0,0-3.2,6.537l6.8,15.582,3.078-1.231Zm3.864,11.5a6.942,6.942,0,1,0-6.942,6.942A6.942,6.942,0,0,0,139.127,201.186Z" transform="translate(-81.474 -129.6)" fill="#e0e0e0"/>
    <path id="Path_908695" data-name="Path 908695" d="M47.425,24.754l1.388,3.182L25.485,38.117,24.1,34.937a1.156,1.156,0,0,1,.6-1.523L45.9,24.157a1.156,1.156,0,0,1,1.523.6Z" transform="translate(-6.843 -6.846)" fill="#e0e0e0"/>
    <path id="Path_908696" data-name="Path 908696" d="M340.549,33.414a1.156,1.156,0,0,1,.6,1.523l-1.388,3.18L316.43,27.936l1.388-3.182a1.156,1.156,0,0,1,1.523-.6Z" transform="translate(-256.98 -6.846)" fill="#e0e0e0"/>
    <path id="Path_908697" data-name="Path 908697" d="M57.6,50.86,59.45,55.1,36.121,65.284,34.27,61.042Z" transform="translate(-15.628 -29.77)" fill="#616161"/>
    <path id="Path_908698" data-name="Path 908698" d="M328.81,61.042l-1.851,4.242L303.63,55.1l1.851-4.24Z" transform="translate(-246.031 -29.77)" fill="#616161"/>
    <g id="Group_1117400" data-name="Group 1117400" transform="translate(24.982 29.978)">
      <path id="Path_908699" data-name="Path 908699" d="M78.108,229.3a2.262,2.262,0,0,1,2.218,2.7l-.3,1.487a2.262,2.262,0,1,0,4.436,0l-.3-1.487a2.262,2.262,0,0,1,2.218-2.7Z" transform="translate(-78.108 -212.38)" fill="#fbc02d"/>
      <path id="Path_908700" data-name="Path 908700" d="M318.773,112.311a2.262,2.262,0,0,1,2.218,2.7l-.3,1.487a2.262,2.262,0,1,0,4.436,0l-.3-1.487a2.262,2.262,0,0,1,2.218-2.705Z" transform="translate(-283.966 -112.311)" fill="#fbc02d"/>
      <path id="Path_908701" data-name="Path 908701" d="M418.191,264l-2.013,3.424a2.335,2.335,0,1,0,4.026,0Z" transform="translate(-367.009 -242.062)" fill="#fbc02d"/>
      <path id="Path_908702" data-name="Path 908702" d="M90.191,320l-2.013,3.424a2.335,2.335,0,1,0,4.026,0Z" transform="translate(-86.447 -289.963)" fill="#fbc02d"/>
    </g>
    <path id="Path_908703" data-name="Path 908703" d="M200,352.1a8.1,8.1,0,1,0,8.1-8.1A8.1,8.1,0,0,0,200,352.1Zm13.884,0a5.785,5.785,0,1,1-5.785-5.785A5.785,5.785,0,0,1,213.884,352.1Z" transform="translate(-157.389 -280.514)"/>
    <path id="Path_908704" data-name="Path 908704" d="M85.26,26.782a2.294,2.294,0,0,0-1.228-1.274L62.825,16.251a2.313,2.313,0,0,0-3.047,1.195L51.446,36.533a1.157,1.157,0,0,0,.893,1.608,47.109,47.109,0,0,1,4.988,1.009A3.474,3.474,0,0,1,59.6,43.887L53.177,58.6l-2.037-.814a1.157,1.157,0,0,0-.859,0l-2.037.815L41.891,44.043A3.616,3.616,0,0,1,44.269,39.1a47.127,47.127,0,0,1,4.812-.963,1.157,1.157,0,0,0,.893-1.608L41.644,17.447a2.313,2.313,0,0,0-3.048-1.2L17.39,25.507a2.313,2.313,0,0,0-1.2,3.047L24.525,47.64a1.157,1.157,0,0,0,1.06.694,1.143,1.143,0,0,0,.124-.008,1.085,1.085,0,0,1,.355,1.048l-.3,1.486a3.42,3.42,0,1,0,6.7,0l-.3-1.487a1.088,1.088,0,0,1,.229-.917,1.1,1.1,0,0,1,.853-.4V45.738a3.419,3.419,0,0,0-3.352,4.09l.3,1.489a1.1,1.1,0,1,1-2.167,0l.3-1.486a3.406,3.406,0,0,0-.67-2.8q1.354-1.011,2.774-1.92a3.475,3.475,0,0,1,5.022,1.553l6.335,14.513-3.085,1.234a1.157,1.157,0,0,0-.726,1.075V78.527a1.157,1.157,0,0,0,.64,1.035l11.57,5.785a1.157,1.157,0,0,0,1.035,0L62.8,79.562a1.157,1.157,0,0,0,.64-1.035V63.486a1.157,1.157,0,0,0-.727-1.074l-3.085-1.234L65.96,46.664a3.475,3.475,0,0,1,5.022-1.554,47.1,47.1,0,0,1,4.126,2.969,1.157,1.157,0,0,0,1.786-.439l8.332-19.086a2.3,2.3,0,0,0,.034-1.773ZM61.9,18.371l21.208,9.257-.926,2.121L60.973,20.493Zm-2.777,6.362.926-2.121,21.208,9.258-.926,2.121Zm-16.822,0L21.091,33.991l-.926-2.12,21.208-9.258Zm-2.777-6.363.926,2.121L19.239,29.749l-.926-2.12ZM22.017,36.112l21.208-9.257,4.032,9.238q-1.771.314-3.509.756l-.017,0a49.561,49.561,0,0,0-14.578,6.332l-.018.011q-1.581,1.016-3.086,2.153ZM63.84,45.739,55.79,64.18l2.121.926L58.7,63.3l2.424.97V77.812L50.71,83.019,40.3,77.812V64.269l2.424-.97.789,1.806,2.121-.926-8.05-18.442a5.768,5.768,0,0,0-3.006-2.994,47.254,47.254,0,0,1,5.07-2.206,5.918,5.918,0,0,0,.126,4.43l7.779,17.823,2.121-.926-.5-1.146,1.54-.616,1.54.616-.5,1.146,2.121.926,7.848-17.979a5.768,5.768,0,0,0,.151-4.24,47.242,47.242,0,0,1,4.976,2.172,5.768,5.768,0,0,0-3.006,2.993Zm11.531-.39q-1.5-1.137-3.086-2.153l-.014-.009A49.559,49.559,0,0,0,57.88,36.9l-.037-.011h0q-1.82-.468-3.678-.8L58.2,26.854l7.266,3.172-.04.046a3.407,3.407,0,0,0-.709,2.838l.3,1.487a1.1,1.1,0,1,1-2.167,0l.3-1.486A3.419,3.419,0,0,0,59.79,28.82v2.314a1.1,1.1,0,0,1,1.083,1.321l-.3,1.487a3.419,3.419,0,1,0,6.7,0l-.3-1.487a1.1,1.1,0,0,1,1.028-1.317L79.4,36.111Z"/>
    <path id="Path_908705" data-name="Path 908705" d="M412.349,256.572a1.157,1.157,0,0,0-1.995,0L408.342,260a3.492,3.492,0,1,0,6.02,0Zm.025,5.778a1.178,1.178,0,1,1-2.038-1.182l1.015-1.727,1.015,1.727a1.157,1.157,0,0,1,.007,1.182Z" transform="translate(-335.186 -205.242)"/>
    <path id="Path_908706" data-name="Path 908706" d="M84.346,312.572a1.157,1.157,0,0,0-1.995,0L80.338,316a3.492,3.492,0,1,0,6.02,0Zm.025,5.778a1.178,1.178,0,1,1-2.038-1.182l1.015-1.727,1.015,1.727a1.157,1.157,0,0,1,.007,1.182Z" transform="translate(-54.621 -253.143)"/>
  </g>
</svg>
