<svg xmlns="http://www.w3.org/2000/svg" width="75" height="75" viewBox="0 0 75 75">
  <g id="Group_1117369" data-name="Group 1117369" transform="translate(-1 -1)">
    <path id="Path_908615" data-name="Path 908615" d="M74.581,45.548V31.032H71.374a33.682,33.682,0,0,0-4.562-11l2.272-2.272L58.82,7.5,56.548,9.769a33.682,33.682,0,0,0-11-4.562V2H31.032V5.207a33.682,33.682,0,0,0-11,4.562L17.761,7.5,7.5,17.761l2.272,2.272a33.682,33.682,0,0,0-4.562,11H2V45.548H5.207a33.682,33.682,0,0,0,4.562,11L7.5,58.82,17.761,69.084l2.272-2.272a33.682,33.682,0,0,0,11,4.562v3.207H45.548V71.374a33.682,33.682,0,0,0,11-4.562l2.272,2.272L69.084,58.82l-2.272-2.272a33.682,33.682,0,0,0,4.562-11Z" transform="translate(0.21 0.21)" fill="#efab38"/>
    <path id="Path_908616" data-name="Path 908616" d="M64.715,20.033l2.272-2.272L56.723,7.5,54.451,9.769a33.682,33.682,0,0,0-11-4.562V2H28.935V5.207a33.682,33.682,0,0,0-11,4.562L15.664,7.5,12,11.162V45.548A16.88,16.88,0,0,0,28.935,62.427L63.5,62.306l3.49-3.49-2.272-2.272a33.682,33.682,0,0,0,4.562-11h3.207V31.032H69.277A33.682,33.682,0,0,0,64.715,20.033Z" transform="translate(2.306 0.21)" fill="#f2c141"/>
    <circle id="Ellipse_11985" data-name="Ellipse 11985" cx="24" cy="24" r="24" transform="translate(14.5 14.5)" fill="#fff"/>
    <path id="Path_908617" data-name="Path 908617" d="M37.516,23V36.306a5.84,5.84,0,0,0,1.711,4.13l3.837,3.837a5.84,5.84,0,0,1,1.71,4.13V59.29H23V48.4h0a5.84,5.84,0,0,1,1.711-4.13l3.837-3.837a5.84,5.84,0,0,0,1.71-4.13V23" transform="translate(4.613 4.613)" fill="#283237"/>
    <path id="Path_908618" data-name="Path 908618" d="M42.644,44.273l-3.837-3.837a5.84,5.84,0,0,1-1.71-4.13V23H32.258V36.306a5.84,5.84,0,0,1-1.711,4.13L26.71,44.273A5.84,5.84,0,0,0,25,48.4V59.29H44.355V48.4a5.84,5.84,0,0,0-1.711-4.13Z" transform="translate(5.032 4.613)" fill="#39474d"/>
    <path id="Path_908619" data-name="Path 908619" d="M46.194,19H22V31.1h6.048l.036-.144A6.2,6.2,0,0,1,34.1,26.258h0a6.2,6.2,0,0,1,6.012,4.695l.036.144h6.048Z" transform="translate(4.403 3.774)" fill="#475a62"/>
    <path id="Path_908620" data-name="Path 908620" d="M27.665,30.953a6.2,6.2,0,0,1,12.024,0l.036.144h6.048V19H24V31.1h3.629Z" transform="translate(4.823 3.774)" fill="#586e7a"/>
    <ellipse id="Ellipse_11986" data-name="Ellipse 11986" cx="3" cy="2" rx="3" ry="2" transform="translate(35.5 24.5)" fill="#475a62"/>
    <rect id="Rectangle_409924" data-name="Rectangle 409924" width="20" height="6" transform="translate(28.5 17.5)" fill="#283237"/>
    <path id="Path_908621" data-name="Path 908621" d="M44.774,44.84h-4.96a6.048,6.048,0,0,0-11.855,0H23v2.419h4.96a6.048,6.048,0,0,0,11.855,0h4.96ZM33.887,49.678a3.629,3.629,0,1,1,3.629-3.629A3.629,3.629,0,0,1,33.887,49.678Z" transform="translate(4.613 8.176)" fill="#283237"/>
    <rect id="Rectangle_409925" data-name="Rectangle 409925" width="24" height="4" transform="translate(26.5 13.5)" fill="#475a62"/>
    <rect id="Rectangle_409926" data-name="Rectangle 409926" width="22" height="4" transform="translate(28.5 13.5)" fill="#586e7a"/>
    <rect id="Rectangle_409927" data-name="Rectangle 409927" width="17" height="6" transform="translate(31.5 17.5)" fill="#39474d"/>
    <path id="Path_908622" data-name="Path 908622" d="M49.71,14.985V11.21A1.21,1.21,0,0,0,48.5,10H24.306a1.21,1.21,0,0,0-1.21,1.21v3.775a25.384,25.384,0,0,0,1.21,43.955v3.076a1.21,1.21,0,0,0,1.21,1.21H47.29a1.21,1.21,0,0,0,1.21-1.21V58.94a25.384,25.384,0,0,0,1.21-43.955ZM25.516,12.419H47.29v2.419H25.516Zm16.815,38.71a6.048,6.048,0,0,0-11.855,0h-3.75a4.661,4.661,0,0,1,1.356-3.275l3.837-3.837a7.1,7.1,0,0,0,2.065-4.985V29.981a4.984,4.984,0,0,1,4.839,0v9.051a7.1,7.1,0,0,0,2.065,4.985l3.837,3.837a4.661,4.661,0,0,1,1.356,3.275Zm-2.3,1.21A3.629,3.629,0,1,1,36.4,48.71,3.629,3.629,0,0,1,40.032,52.339ZM33.718,22.1a3.578,3.578,0,0,0,.387,5.2,7.379,7.379,0,0,0-4.65,4.476H25.516V22.1ZM36.4,25.726a1.21,1.21,0,1,1,1.21-1.21A1.21,1.21,0,0,1,36.4,25.726ZM38.7,27.3a3.577,3.577,0,0,0,.387-5.2h8.2v9.677H43.35A7.379,7.379,0,0,0,38.7,27.3ZM27.935,19.677V17.258H44.871v2.419ZM13.419,36.613a23.069,23.069,0,0,1,10.673-19.4,1.159,1.159,0,0,0,.214.044h1.21v2.419h-1.21a1.21,1.21,0,0,0-1.21,1.21v12.1a1.21,1.21,0,0,0,1.21,1.21h6.048a1.21,1.21,0,0,0,1.173-.913l.036-.144v5.9a4.661,4.661,0,0,1-1.356,3.275l-3.837,3.837a7.1,7.1,0,0,0-2.065,4.985V56.15A22.863,22.863,0,0,1,13.419,36.613ZM26.726,60.806V53.548h3.75a6.048,6.048,0,0,0,11.855,0h3.75v7.258ZM48.5,56.15V51.129a7.1,7.1,0,0,0-2.065-4.985L42.6,42.307a4.661,4.661,0,0,1-1.356-3.275v-5.9l.036.145a1.21,1.21,0,0,0,1.173.913H48.5a1.21,1.21,0,0,0,1.21-1.21v-12.1a1.21,1.21,0,0,0-1.21-1.21H47.29V17.258H48.5a1.14,1.14,0,0,0,.214-.044A22.969,22.969,0,0,1,48.5,56.15Z" transform="translate(2.097 1.887)"/>
    <path id="Path_908623" data-name="Path 908623" d="M74.79,30.032H72.544a34.779,34.779,0,0,0-3.992-9.613l1.592-1.593a1.21,1.21,0,0,0,0-1.71L59.885,6.851a1.21,1.21,0,0,0-1.71,0L56.581,8.443a34.718,34.718,0,0,0-9.613-3.986V2.21A1.21,1.21,0,0,0,45.758,1H31.242a1.21,1.21,0,0,0-1.21,1.21V4.457a34.718,34.718,0,0,0-9.613,3.986L18.826,6.851a1.21,1.21,0,0,0-1.71,0L6.851,17.115a1.21,1.21,0,0,0,0,1.71l1.592,1.593a34.779,34.779,0,0,0-3.987,9.613H2.21A1.21,1.21,0,0,0,1,31.242V45.758a1.21,1.21,0,0,0,1.21,1.21H4.456a34.779,34.779,0,0,0,3.992,9.613l-1.6,1.593a1.21,1.21,0,0,0,0,1.71L17.115,70.149a1.21,1.21,0,0,0,1.71,0l1.593-1.592a34.78,34.78,0,0,0,9.613,3.987V74.79A1.21,1.21,0,0,0,31.242,76H45.758a1.21,1.21,0,0,0,1.21-1.21V72.544a34.779,34.779,0,0,0,9.613-3.992l1.593,1.592a1.21,1.21,0,0,0,1.71,0L70.149,59.88a1.21,1.21,0,0,0,0-1.71l-1.592-1.593a34.78,34.78,0,0,0,3.987-9.608H74.79A1.21,1.21,0,0,0,76,45.758V31.242A1.21,1.21,0,0,0,74.79,30.032Zm-1.21,14.516h-2A1.21,1.21,0,0,0,70.4,45.5,32.363,32.363,0,0,1,66,56.1a1.21,1.21,0,0,0,.163,1.508l1.417,1.417-8.554,8.554-1.417-1.417A1.21,1.21,0,0,0,56.1,66a32.362,32.362,0,0,1-10.6,4.4,1.21,1.21,0,0,0-.952,1.182v2h-12.1v-2A1.21,1.21,0,0,0,31.5,70.4,32.362,32.362,0,0,1,20.9,66a1.21,1.21,0,0,0-1.508.163l-1.417,1.417L9.417,59.029l1.417-1.417A1.21,1.21,0,0,0,11,56.1,32.362,32.362,0,0,1,6.6,45.5a1.21,1.21,0,0,0-1.182-.952h-2v-12.1h2A1.21,1.21,0,0,0,6.6,31.5,32.352,32.352,0,0,1,11,20.9a1.21,1.21,0,0,0-.163-1.508L9.417,17.971l8.554-8.554,1.417,1.417A1.21,1.21,0,0,0,20.9,11,32.361,32.361,0,0,1,31.5,6.6a1.21,1.21,0,0,0,.951-1.182v-2h12.1v2A1.21,1.21,0,0,0,45.5,6.6,32.361,32.361,0,0,1,56.1,11a1.21,1.21,0,0,0,1.508-.163l1.417-1.417,8.554,8.554-1.417,1.417A1.21,1.21,0,0,0,66,20.9a32.352,32.352,0,0,1,4.4,10.6,1.21,1.21,0,0,0,1.182.952h2Z" transform="translate(0 0)"/>
  </g>
</svg>
