<svg xmlns="http://www.w3.org/2000/svg" width="84.051" height="58.845" viewBox="0 0 84.051 58.845">
  <g id="Group_1117373" data-name="Group 1117373" transform="translate(-7.995 -82.37)">
    <g id="Group_1117372" data-name="Group 1117372" transform="translate(9.351 83.726)">
      <g id="Group_1117370" data-name="Group 1117370" transform="translate(25.205 0)">
        <path id="Path_908624" data-name="Path 908624" d="M169.391,124.025a23.955,23.955,0,0,0,2.908,7.014l-2.024,4.558,5.372,5.372,4.556-2.024a23.961,23.961,0,0,0,7.016,2.908l1.79,4.65h7.6l1.79-4.651a23.958,23.958,0,0,0,7.014-2.908l4.558,2.024,5.372-5.372-2.024-4.556a23.957,23.957,0,0,0,2.908-7.016l4.65-1.79v-7.6l-4.651-1.79a23.956,23.956,0,0,0-2.908-7.014l2.024-4.558L209.968,95.9l-4.556,2.024A23.956,23.956,0,0,0,198.4,95.02l-1.79-4.65h-7.6l-1.79,4.651a23.949,23.949,0,0,0-7.015,2.908L175.647,95.9l-5.372,5.372,2.024,4.558a23.962,23.962,0,0,0-2.908,7.014l-4.651,1.79v7.6Z" transform="translate(-164.74 -90.37)" fill="#a79ba7" fill-rule="evenodd"/>
        <path id="Path_908625" data-name="Path 908625" d="M258.092,140.224l1.678.745,5.372-5.372-2.024-4.556a23.956,23.956,0,0,0,2.908-7.016l4.65-1.79v-7.6l-4.651-1.79a23.956,23.956,0,0,0-2.908-7.014l2.024-4.558L259.77,95.9l-1.678.745,4.626,4.626-2.024,4.558a23.957,23.957,0,0,1,2.908,7.014l4.651,1.79v7.6l-4.65,1.79a23.955,23.955,0,0,1-2.908,7.016l2.024,4.556Zm-14.108,6.28h2.424l1.79-4.651a23.958,23.958,0,0,0,7.014-2.908l-1.374-.61a32.118,32.118,0,0,1-8.064,3.518Zm11.23-48.575A23.956,23.956,0,0,0,248.2,95.02l-1.79-4.65h-2.424l1.79,4.65a32.1,32.1,0,0,1,8.065,3.519Zm-25.207,0L225.449,95.9l-.745.745,4.253,1.889Q229.475,98.22,230.007,97.929Zm-5.3,42.295.745.745,4.556-2.024q-.532-.292-1.05-.61Z" transform="translate(-214.543 -90.37)" fill="#837683" fill-rule="evenodd"/>
        <circle id="Ellipse_11987" data-name="Ellipse 11987" cx="16.557" cy="16.557" r="16.557" transform="translate(7.627 39.46) rotate(-74.102)" fill="#eceff1"/>
        <path id="Path_908626" data-name="Path 908626" d="M232.666,174.852A16.556,16.556,0,0,1,249.223,158.3c.39,0,.776.015,1.16.041a16.556,16.556,0,0,0,0,33.031c-.383.026-.77.041-1.16.041A16.555,16.555,0,0,1,232.666,174.852Z" transform="translate(-221.156 -146.785)" fill="#d1d1d6" fill-rule="evenodd"/>
      </g>
      <g id="Group_1117371" data-name="Group 1117371" transform="translate(0 0)">
        <path id="Path_908627" data-name="Path 908627" d="M20.649,124.025a23.956,23.956,0,0,0,2.908,7.014L21.533,135.6l5.372,5.372,4.556-2.024a23.96,23.96,0,0,0,7.016,2.908l1.79,4.65h7.6l1.79-4.651a23.957,23.957,0,0,0,7.014-2.908l4.558,2.024L66.6,135.6l-2.024-4.556a23.956,23.956,0,0,0,2.908-7.016l4.65-1.79v-7.6l-4.651-1.79a23.956,23.956,0,0,0-2.908-7.014l2.024-4.558-5.372-5.372-4.556,2.024a23.955,23.955,0,0,0-7.016-2.908l-1.79-4.651h-7.6l-1.79,4.651a23.949,23.949,0,0,0-7.015,2.908L26.9,95.9l-5.372,5.372,2.024,4.558a23.957,23.957,0,0,0-2.908,7.014L16,114.639v7.6Zm6.859-5.588a16.557,16.557,0,1,1,16.557,16.556,16.556,16.556,0,0,1-16.557-16.556Z" transform="translate(-15.998 -90.37)" fill="#ffe177" fill-rule="evenodd"/>
        <path id="Path_908628" data-name="Path 908628" d="M109.35,140.224l1.678.745L116.4,135.6l-2.024-4.556a23.956,23.956,0,0,0,2.908-7.016l4.65-1.79v-7.6l-4.651-1.79a23.956,23.956,0,0,0-2.908-7.014l2.024-4.558L111.028,95.9l-1.678.745,4.626,4.626-2.024,4.558a23.956,23.956,0,0,1,2.908,7.014l4.651,1.79v7.6l-4.65,1.79a23.954,23.954,0,0,1-2.908,7.016l2.024,4.556ZM95.242,146.5h2.424l1.79-4.651a23.958,23.958,0,0,0,7.014-2.908l-1.374-.61a32.118,32.118,0,0,1-8.064,3.518Zm11.23-48.575a23.956,23.956,0,0,0-7.016-2.908l-1.79-4.65H95.242l1.79,4.65a32.11,32.11,0,0,1,8.065,3.519Zm-25.207,0L76.707,95.9l-.745.745,4.253,1.889Q80.733,98.221,81.265,97.929Zm-5.3,42.295.745.745,4.556-2.024q-.532-.292-1.05-.61Z" transform="translate(-65.801 -90.37)" fill="#ffd064" fill-rule="evenodd"/>
      </g>
    </g>
    <path id="Path_908629" data-name="Path 908629" d="M89.334,114.66l-3.782,1.458a1.346,1.346,0,0,0-.832.95,22.6,22.6,0,0,1-2.744,6.618,1.352,1.352,0,0,0-.085,1.26l1.645,3.708-4.055,4.055-3.706-1.647a1.359,1.359,0,0,0-1.261.085,22.573,22.573,0,0,1-6.619,2.745,1.352,1.352,0,0,0-.951.832L65.491,138.5H59.756L58.3,134.722a1.349,1.349,0,0,0-.951-.832c-.112-.027-.22-.058-.332-.087l3.892-3.891a1.386,1.386,0,0,0,.207-.272c.5.042,1.005.064,1.508.064a17.911,17.911,0,0,0,0-35.823q-.755,0-1.508.065a1.382,1.382,0,0,0-.207-.271l-3.892-3.892c.11-.029.22-.06.332-.087a1.349,1.349,0,0,0,.951-.831l1.457-3.783h5.735l1.456,3.783a1.352,1.352,0,0,0,.951.831,22.542,22.542,0,0,1,6.617,2.744,1.362,1.362,0,0,0,1.263.085l3.706-1.648,4.055,4.057-1.645,3.7a1.362,1.362,0,0,0,.085,1.263,22.514,22.514,0,0,1,2.744,6.618,1.36,1.36,0,0,0,.832.951l3.782,1.456v5.734ZM62.623,96.592a15.179,15.179,0,0,0-2.126.149L59.45,99.1a25.256,25.256,0,0,1,2.526,6.094l4,1.537a1.355,1.355,0,0,1,.868,1.266v7.6a1.353,1.353,0,0,1-.868,1.264l-4,1.539a25.249,25.249,0,0,1-2.524,6.092l1.047,2.358a15.438,15.438,0,0,0,2.126.148,15.2,15.2,0,0,0,0-30.4Zm-19.931,37.3a22.611,22.611,0,0,0,6.619-2.744,1.351,1.351,0,0,1,1.262-.085l3.7,1.645,4.056-4.055-1.646-3.708a1.355,1.355,0,0,1,.084-1.26,22.548,22.548,0,0,0,2.744-6.618,1.348,1.348,0,0,1,.832-.95l3.782-1.458v-5.734l-3.781-1.456a1.356,1.356,0,0,1-.832-.951A22.553,22.553,0,0,0,56.772,99.9a1.36,1.36,0,0,1-.085-1.263l1.646-3.7-4.056-4.057L50.57,92.524a1.353,1.353,0,0,1-1.262-.085A22.6,22.6,0,0,0,42.692,89.7a1.351,1.351,0,0,1-.951-.831l-1.456-3.783H34.55l-1.456,3.783a1.352,1.352,0,0,1-.951.831,22.607,22.607,0,0,0-6.617,2.744,1.352,1.352,0,0,1-1.261.085l-3.707-1.648L16.5,94.934l1.646,3.706a1.357,1.357,0,0,1-.085,1.261,22.542,22.542,0,0,0-2.744,6.618,1.358,1.358,0,0,1-.832.951l-3.782,1.456v5.734l3.781,1.456a1.357,1.357,0,0,1,.832.952,22.551,22.551,0,0,0,2.744,6.619,1.353,1.353,0,0,1,.085,1.26L16.5,128.653l4.056,4.055,3.706-1.647a1.359,1.359,0,0,1,1.261.085,22.554,22.554,0,0,0,6.617,2.744,1.354,1.354,0,0,1,.951.832L34.55,138.5h5.736l1.455-3.781a1.353,1.353,0,0,1,.952-.832Zm48.484-27.162-4-1.537A25.155,25.155,0,0,0,84.655,99.1l1.739-3.915a1.355,1.355,0,0,0-.282-1.508L80.742,88.3a1.357,1.357,0,0,0-1.508-.281l-3.916,1.74a25.294,25.294,0,0,0-6.094-2.526l-1.537-4a1.358,1.358,0,0,0-1.266-.869h-7.6a1.356,1.356,0,0,0-1.264.869l-1.539,4a25.229,25.229,0,0,0-6,2.476,25.2,25.2,0,0,0-6-2.476l-1.539-4a1.355,1.355,0,0,0-1.265-.869h-7.6a1.357,1.357,0,0,0-1.265.869l-1.539,4a25.3,25.3,0,0,0-6.092,2.526l-3.916-1.74A1.356,1.356,0,0,0,19.3,88.3l-5.372,5.372a1.355,1.355,0,0,0-.281,1.508l1.74,3.916a25.253,25.253,0,0,0-2.526,6.091l-4,1.539a1.357,1.357,0,0,0-.869,1.266v7.6a1.355,1.355,0,0,0,.869,1.264l4,1.539a25.283,25.283,0,0,0,2.526,6.094L13.646,128.4a1.357,1.357,0,0,0,.281,1.51l5.372,5.372a1.356,1.356,0,0,0,1.508.28l3.917-1.739a25.214,25.214,0,0,0,6.091,2.524l1.539,4a1.355,1.355,0,0,0,1.265.869h7.6a1.355,1.355,0,0,0,1.265-.869l1.538-3.994a25.324,25.324,0,0,0,6-2.476,25.233,25.233,0,0,0,6,2.473l1.539,4a1.354,1.354,0,0,0,1.264.869h7.6a1.357,1.357,0,0,0,1.266-.869l1.537-3.994a25.335,25.335,0,0,0,6.1-2.527l3.915,1.739a1.356,1.356,0,0,0,1.508-.28l5.371-5.373a1.354,1.354,0,0,0,.282-1.508l-1.74-3.915A25.282,25.282,0,0,0,87.18,118.4l4-1.539a1.355,1.355,0,0,0,.87-1.264V108a1.357,1.357,0,0,0-.87-1.266ZM42.9,125.971l.455-1.024a1.353,1.353,0,0,0-.085-1.26,22.592,22.592,0,0,1-2.744-6.619,1.358,1.358,0,0,0-.832-.952l-3.781-1.456v-5.734l3.782-1.456a1.357,1.357,0,0,0,.832-.952A22.546,22.546,0,0,1,43.27,99.9a1.357,1.357,0,0,0,.085-1.261L42.9,97.615a15.247,15.247,0,0,1,5.339,3.513,17.889,17.889,0,0,0,0,21.331A15.271,15.271,0,0,1,42.9,125.971ZM22.217,111.793A15.2,15.2,0,0,1,39.544,96.741L40.591,99.1a25.253,25.253,0,0,0-2.526,6.091l-4,1.539a1.357,1.357,0,0,0-.869,1.266v7.6a1.355,1.355,0,0,0,.869,1.264l4,1.539a25.265,25.265,0,0,0,2.527,6.094l-1.047,2.355a15.2,15.2,0,0,1-17.327-15.051Zm27.8,8.491a15.176,15.176,0,0,1,0-16.982,15.172,15.172,0,0,1,0,16.982Zm5.31-8.491A17.912,17.912,0,1,1,37.417,93.881,17.931,17.931,0,0,1,55.329,111.793Z" transform="translate(0 0)" fill-rule="evenodd"/>
  </g>
</svg>
