<svg xmlns="http://www.w3.org/2000/svg" xmlns:xlink="http://www.w3.org/1999/xlink" width="78.5" height="78.5" viewBox="0 0 78.5 78.5">
  <defs>
    <clipPath id="clip-path">
      <path id="path5508" d="M0-682.665H78.5v78.5H0Z" transform="translate(0 682.665)"/>
    </clipPath>
  </defs>
  <g id="g5502" transform="translate(0 682.665)">
    <g id="g5504" transform="translate(0 -682.665)">
      <g id="g5506" clip-path="url(#clip-path)">
        <g id="g5512" transform="translate(1.15 54.085)">
          <path id="path5514" d="M-179.059-149.4l-2.965,2.965a3.067,3.067,0,0,1-3.574.542,6.969,6.969,0,0,0-6.335,0,3.067,3.067,0,0,1-3.574-.543l-5.93-5.93a3.067,3.067,0,0,1-.543-3.574,6.972,6.972,0,0,0,0-6.335,3.067,3.067,0,0,1,.543-3.574l2.965-2.965,4.078.594.563,4.046a7.163,7.163,0,0,0,0,10.131,7.163,7.163,0,0,0,10.131,0l4.016.532Z" transform="translate(202.324 168.814)" fill="#c7c5cb"/>
        </g>
        <g id="g5516" transform="translate(5.003 27.495)">
          <path id="path5518" d="M-172.215-331.237l-2.964,2.964-4.641-4.641a7.163,7.163,0,0,0,0-10.13,7.163,7.163,0,0,0-10.13,0l-4.641-4.641,2.964-2.964a3.067,3.067,0,0,1,3.574-.543,6.962,6.962,0,0,0,8.089-1.279l23.941-21.8,7.434,7.434-21.8,23.941a6.962,6.962,0,0,0-1.279,8.089,3.067,3.067,0,0,1-.543,3.574" transform="translate(194.592 374.275)" fill="#a19dae"/>
        </g>
        <g id="g5520" transform="translate(38.309 27.495)">
          <path id="path5522" d="M-40.5,0l-5.262,4.793,7.9,7.9,4.793-5.262Z" transform="translate(45.764)" fill="#827f98"/>
        </g>
        <g id="g5524" transform="translate(29.356 7.879)">
          <path id="path5526" d="M-317.59-205.155-331.6-191.145a2.045,2.045,0,0,1-2.891,0l-2.085-2.085a2.044,2.044,0,0,1,0-2.89l1.039-1.039a1.684,1.684,0,0,0,0-2.382l-14.321-14.322a1.684,1.684,0,0,0-2.382,0l-1.039,1.039a2.044,2.044,0,0,1-2.89,0l-2.085-2.085a2.045,2.045,0,0,1,0-2.891l14.011-14.011,15.306,11.35Z" transform="translate(358.855 231.811)" fill="#c7c5cb"/>
        </g>
        <g id="g5528" transform="translate(51.231 17.923)">
          <path id="path5530" d="M-61.881-10.049l-1.761-1.306L-53.6,2.191-67.608,16.2a2.043,2.043,0,0,1-2.313.4,2.032,2.032,0,0,0,.4.578l2.085,2.085a2.044,2.044,0,0,0,2.891,0L-50.531,5.257Z" transform="translate(69.921 11.355)" fill="#a19dae"/>
        </g>
        <g id="g5532" transform="translate(47.922 1.15)">
          <path id="path5534" d="M-214.921-216.728l-1.269,1.269-15.306-11.35-11.35-15.306,1.269-1.269a5.135,5.135,0,0,1,7.262,0l19.393,19.393a5.135,5.135,0,0,1,0,7.262" transform="translate(242.846 244.887)" fill="#c7c5cb"/>
        </g>
        <g id="g5536" transform="translate(57.966 17.468)">
          <path id="path5538" d="M-137.609-35.246l-3.066-3.066a5.135,5.135,0,0,1,0,7.262l-1.269,1.269-13.546-10.044,1.306,1.761,15.306,11.35,1.269-1.269a5.135,5.135,0,0,0,0-7.262" transform="translate(155.489 39.825)" fill="#a19dae"/>
        </g>
        <g id="g5540" transform="translate(43.965 3.922)">
          <path id="path5542" d="M-235.605-205.155l-3.956,3.956-26.656-26.656,3.956-3.956Z" transform="translate(266.218 231.811)" fill="#a19dae"/>
        </g>
        <g id="g5544" transform="translate(67.555 27.512)">
          <path id="path5546" d="M-30.45,0l-3.956,3.956,3.066,3.066,3.956-3.956Z" transform="translate(34.407)" fill="#827f98"/>
        </g>
        <g id="g5548" transform="translate(47.889 23.583)">
          <path id="path5550" d="M-46.165-46.165a3.514,3.514,0,0,1-4.969,0,3.514,3.514,0,0,1,0-4.969,3.514,3.514,0,0,1,4.969,0,3.514,3.514,0,0,1,0,4.969" transform="translate(52.163 52.163)" fill="#a19dae"/>
        </g>
        <g id="g5552" transform="translate(47.889 23.583)">
          <path id="path5554" d="M-46.165-46.165a3.514,3.514,0,0,1-4.969,0,3.514,3.514,0,0,1,0-4.969,3.514,3.514,0,0,1,4.969,0A3.514,3.514,0,0,1-46.165-46.165Z" transform="translate(52.163 52.163)" fill="none" stroke="#000" stroke-linecap="round" stroke-linejoin="round" stroke-miterlimit="10" stroke-width="2"/>
        </g>
        <g id="g5556" transform="translate(47.922 1.15)">
          <path id="path5558" d="M-214.913-160.834l-19.393-19.393a5.135,5.135,0,0,0-7.262,0l-1.269,1.269,26.656,26.656,1.269-1.269A5.135,5.135,0,0,0-214.913-160.834Z" transform="translate(242.837 181.732)" fill="none" stroke="#000" stroke-linecap="round" stroke-linejoin="round" stroke-miterlimit="10" stroke-width="2"/>
        </g>
        <g id="g5560" transform="translate(43.965 3.922)">
          <path id="path5562" d="M-235.605-205.155l-3.956,3.956-26.656-26.656,3.956-3.956Z" transform="translate(266.218 231.811)" fill="none" stroke="#000" stroke-linecap="round" stroke-linejoin="round" stroke-miterlimit="10" stroke-width="2"/>
        </g>
        <g id="g5564" transform="translate(29.356 7.879)">
          <path id="path5566" d="M-56.88-55.555l-6.792,6.792a2.044,2.044,0,0,0,0,2.891l2.085,2.085a2.044,2.044,0,0,0,2.89,0l1.039-1.039a1.684,1.684,0,0,1,2.382,0L-40.953-30.5a1.684,1.684,0,0,1,0,2.382l-1.039,1.039a2.044,2.044,0,0,0,0,2.89l2.085,2.085a2.044,2.044,0,0,0,2.891,0l14.011-14.011L-49.662-62.773l-4.06,4.059" transform="translate(64.271 62.773)" fill="none" stroke="#000" stroke-linecap="round" stroke-linejoin="round" stroke-miterlimit="10" stroke-width="2"/>
        </g>
        <g id="g5568" transform="translate(1.15 54.085)">
          <path id="path5570" d="M-143.34-113.684h0a7.164,7.164,0,0,1-10.131,0,7.164,7.164,0,0,1,0-10.131l-4.641-4.641-2.965,2.965a3.067,3.067,0,0,0-.543,3.574,6.973,6.973,0,0,1,0,6.335,3.067,3.067,0,0,0,.543,3.574l5.93,5.93a3.067,3.067,0,0,0,3.574.543,6.968,6.968,0,0,1,6.335,0,3.067,3.067,0,0,0,3.574-.543l2.965-2.965Z" transform="translate(161.964 128.456)" fill="none" stroke="#000" stroke-linecap="round" stroke-linejoin="round" stroke-miterlimit="10" stroke-width="2"/>
        </g>
        <g id="g5572" transform="translate(5.003 29.187)">
          <path id="path5574" d="M-243.235-165.861l12.706-13.95-7.6-7.6L-260.212-167.3a6.962,6.962,0,0,1-8.089,1.279,3.067,3.067,0,0,0-3.574.543l-2.964,2.964,4.641,4.641a7.163,7.163,0,0,1,10.13,0,7.163,7.163,0,0,1,0,10.13l4.641,4.641,2.964-2.964a3.067,3.067,0,0,0,.543-3.574,6.962,6.962,0,0,1,1.279-8.089l4.353-4.78" transform="translate(274.839 187.412)" fill="none" stroke="#000" stroke-linecap="round" stroke-linejoin="round" stroke-miterlimit="10" stroke-width="2"/>
        </g>
      </g>
    </g>
  </g>
</svg>
