<svg xmlns="http://www.w3.org/2000/svg" width="90" height="90" viewBox="0 0 90 90">
  <g id="Group_1117367" data-name="Group 1117367" transform="translate(-4591 10909)">
    <rect id="Rectangle_409922" data-name="Rectangle 409922" width="90" height="90" transform="translate(4591 -10909)" fill="none"/>
    <g id="Group_1117366" data-name="Group 1117366" transform="translate(4597 -10959.932)">
      <g id="Group_1117364" data-name="Group 1117364" transform="translate(1.155 71.188)">
        <g id="Group_1117349" data-name="Group 1117349" transform="translate(17.146 18.547)">
          <path id="Path_908568" data-name="Path 908568" d="M137.987,234.368l-15.633-19.226-3.408,2.487,14.488,20.219.539.8,4.744-3.234Z" transform="translate(-118.946 -215.142)" fill="#c0c4bc"/>
        </g>
        <path id="Path_908569" data-name="Path 908569" d="M136.47,237.793h0a3.089,3.089,0,0,1-4.254-.756l-11.181-15.643-2.09,1.525,14.489,20.22.539.8,4.744-3.234-.73-1.044Z" transform="translate(-101.8 -201.885)" fill="#aaafa3"/>
        <g id="XMLID_31_" transform="translate(0 0)">
          <g id="Group_1117363" data-name="Group 1117363">
            <g id="Group_1117352" data-name="Group 1117352" transform="translate(30.607 18.712)">
              <g id="Group_1117351" data-name="Group 1117351">
                <g id="Group_1117350" data-name="Group 1117350">
                  <path id="Path_908570" data-name="Path 908570" d="M234.841,218.721l-14.358,20.037a7.538,7.538,0,1,1-13.021,0l0,0a7.564,7.564,0,0,1,1.637-1.951l.142-.117q.284-.228.589-.431a7.826,7.826,0,0,1,.8-.457c.055-.028.111-.054.166-.08s.111-.051.168-.075c0,0,0,0,0,0a7.4,7.4,0,0,1,1.052-.368l0,0a7.566,7.566,0,0,1,3.916,0l15.522-19.063Zm-18.252,23.991a2.769,2.769,0,1,0-2.769,2.769A2.77,2.77,0,0,0,216.589,242.712Z" transform="translate(-206.434 -216.215)" fill="#d1d5cd"/>
                </g>
              </g>
            </g>
            <g id="Group_1117353" data-name="Group 1117353" transform="translate(30.607 18.712)">
              <path id="Path_908571" data-name="Path 908571" d="M208.279,243.645a7.5,7.5,0,0,1,1.028-3.8l0,0a7.566,7.566,0,0,1,1.637-1.951l.142-.117q.284-.228.589-.431a7.826,7.826,0,0,1,.8-.457c.055-.028.111-.054.166-.08s.111-.051.168-.075c0,0,0,0,0,0a7.4,7.4,0,0,1,1.052-.368l0,0a7.566,7.566,0,0,1,3.916,0l15.381-18.89-1.7-1.26L215.93,235.278a7.565,7.565,0,0,0-3.916,0v0a7.4,7.4,0,0,0-1.052.368s0,0,0,0c-.057.025-.112.049-.168.075l-.166.08a7.836,7.836,0,0,0-.8.457q-.3.2-.589.431l-.142.117a7.565,7.565,0,0,0-1.637,1.951l0,0a7.541,7.541,0,0,0,3.652,10.778A7.523,7.523,0,0,1,208.279,243.645Z" transform="translate(-206.434 -216.215)" fill="#c8c9c7"/>
            </g>
            <g id="Group_1117356" data-name="Group 1117356">
              <path id="Path_908572" data-name="Path 908572" d="M332.112,105.353,318.917,95.273a3.314,3.314,0,0,0-4.645.622l-.6.785L311.7,99.256l-9.022,11.808a.828.828,0,0,0,.155,1.16l3.4,2.592a.826.826,0,0,0,1.117-.1l1.954-2.16a.988.988,0,0,1,1.337-.125l7.094,5.419a.991.991,0,0,1,.231,1.325l-1.569,2.452a.829.829,0,0,0,.192,1.106l3.4,2.592a.825.825,0,0,0,1.159-.154l9.022-11.808,1.969-2.579.6-.785A3.314,3.314,0,0,0,332.112,105.353Zm-12.77,5.573a1.712,1.712,0,1,1-.322-2.4A1.712,1.712,0,0,1,319.342,110.926Z" transform="translate(-257.122 -94.592)" fill="#acafb7"/>
              <g id="Group_1117354" data-name="Group 1117354" transform="translate(45.389)">
                <path id="Path_908573" data-name="Path 908573" d="M309.863,112.245l7.389-9.671L319.223,100l.6-.785a3.306,3.306,0,0,1,2.552-1.3l-3.456-2.64a3.314,3.314,0,0,0-4.645.622l-.6.785L311.7,99.256l-9.022,11.808a.828.828,0,0,0,.155,1.16l3.4,2.592a.826.826,0,0,0,1.117-.1l1.954-2.16A.98.98,0,0,1,309.863,112.245Z" transform="translate(-302.511 -94.592)" fill="#999da3"/>
              </g>
              <path id="Path_908574" data-name="Path 908574" d="M29.212,99.256l-1.971-2.577-.6-.785A3.314,3.314,0,0,0,22,95.273L8.8,105.353A3.314,3.314,0,0,0,8.182,110l.6.785,1.969,2.579,9.022,11.808a.825.825,0,0,0,1.159.154l3.4-2.592a.829.829,0,0,0,.192-1.106l-1.569-2.452a.991.991,0,0,1,.231-1.325l7.094-5.419a.988.988,0,0,1,1.337.125l1.954,2.16a.826.826,0,0,0,1.117.1l3.4-2.592a.828.828,0,0,0,.155-1.16Zm-5.237,11.992a1.713,1.713,0,1,1,.32-2.4A1.712,1.712,0,0,1,23.975,111.248Z" transform="translate(-7.501 -94.592)" fill="#acafb7"/>
              <g id="Group_1117355" data-name="Group 1117355" transform="translate(0 8.068)">
                <path id="Path_908575" data-name="Path 908575" d="M22.95,163.541a.987.987,0,0,1-.144-.373L15.4,153.474,13.431,150.9l-.6-.785a3.309,3.309,0,0,1-.5-3.083L8.8,149.722a3.314,3.314,0,0,0-.622,4.645l.6.785,1.969,2.579,9.022,11.808a.825.825,0,0,0,1.159.154l3.4-2.592a.829.829,0,0,0,.192-1.106Z" transform="translate(-7.501 -147.028)" fill="#999da3"/>
              </g>
            </g>
            <g id="Group_1117359" data-name="Group 1117359" transform="translate(54.581 2.087)">
              <g id="Group_1117358" data-name="Group 1117358">
                <g id="Group_1117357" data-name="Group 1117357">
                  <path id="Path_908576" data-name="Path 908576" d="M382.685,122.259l-1.969,2.579-.058-.045-18.4-14.061,1.971-2.577,18.4,14.059Z" transform="translate(-362.254 -108.155)" fill="#74767f"/>
                </g>
              </g>
            </g>
            <path id="Path_908577" data-name="Path 908577" d="M362.254,110.732l5.1,3.9.445-.582,1.526-2-5.1-3.9Z" transform="translate(-307.673 -106.068)" fill="#656872"/>
            <g id="Group_1117362" data-name="Group 1117362" transform="translate(1.281 2.087)">
              <g id="Group_1117361" data-name="Group 1117361">
                <g id="Group_1117360" data-name="Group 1117360">
                  <path id="Path_908578" data-name="Path 908578" d="M36.255,110.732l-18.4,14.061-.058.045-1.969-2.579.058-.045,18.4-14.059Z" transform="translate(-15.824 -108.155)" fill="#74767f"/>
                </g>
              </g>
            </g>
            <path id="Path_908579" data-name="Path 908579" d="M22.442,177.188l-1.63-2.134-4.93,3.767-.058.045,1.969,2.579.058-.045,4.93-3.767Z" transform="translate(-14.543 -162.674)" fill="#656872"/>
          </g>
        </g>
      </g>
      <g id="Group_1117365" data-name="Group 1117365" transform="translate(0.001 66.932)">
        <path id="Path_908580" data-name="Path 908580" d="M78.561,101.059A4.438,4.438,0,0,0,76.845,98.1L63.651,88.02a4.473,4.473,0,0,0-6.263.838l-.6.783h0L54.82,92.219h0L45.8,104.029a1.981,1.981,0,0,0,.371,2.776l3.395,2.594a1.99,1.99,0,0,0,2.673-.247l1.856-2.051.669.511-13.95,17.14a8.636,8.636,0,0,0-3.02,0l-3.359-4.127a1.154,1.154,0,0,0-1.79,1.457l2.8,3.441a8.742,8.742,0,0,0-2.641,2.022L20.4,110.239l1.6-1.225,7.722,9.487a1.154,1.154,0,0,0,1.79-1.457l-7.677-9.432.669-.511,1.853,2.048a1.991,1.991,0,0,0,2.676.25l3.395-2.594a1.981,1.981,0,0,0,.371-2.776L23.783,92.221h0l-1.969-2.577h0l-.6-.783a4.473,4.473,0,0,0-6.263-.838L1.757,98.1a4.468,4.468,0,0,0-.838,6.262L12.51,119.534a1.968,1.968,0,0,0,1.311.761,2,2,0,0,0,.267.018,1.966,1.966,0,0,0,1.2-.407l3.395-2.594a1.99,1.99,0,0,0,.464-2.644l-1.491-2.33.913-.7,12.872,17.966a8.692,8.692,0,1,0,15.724,0L60.034,111.64l.913.7-1.489,2.326a1.991,1.991,0,0,0,.462,2.647l3.395,2.594a1.966,1.966,0,0,0,1.2.407,2.03,2.03,0,0,0,.267-.018,1.968,1.968,0,0,0,1.311-.761l11.591-15.171A4.437,4.437,0,0,0,78.561,101.059Zm-74.509,3.6,16.627-12.7.569.745-16.627,12.7Zm-1.724-3.3a2.146,2.146,0,0,1,.83-1.43L16.352,89.854a2.156,2.156,0,0,1,2.918.278L2.658,102.825A2.142,2.142,0,0,1,2.328,101.365ZM16.133,110.6a2.155,2.155,0,0,0-.5,2.863l1.409,2.2-2.9,2.212L6.022,107.242l16.627-12.7,8.123,10.632-2.9,2.212-1.752-1.936a2.156,2.156,0,0,0-2.9-.27ZM62.249,89.854,75.444,99.935a2.156,2.156,0,0,1,.5,2.889L59.33,90.131A2.162,2.162,0,0,1,62.249,89.854Zm11.731,15.554L57.354,92.7l.569-.745,16.627,12.7ZM44.873,128.839a1.154,1.154,0,0,0-.058,1.255,6.379,6.379,0,1,1-3.856-2.949,1.155,1.155,0,0,0,1.194-.386L56.6,109.014l1.6,1.225Zm19.584-10.966-2.9-2.212,1.407-2.2a2.156,2.156,0,0,0-.5-2.866l-7.094-5.42a2.155,2.155,0,0,0-2.894.268l-1.754,1.939-2.9-2.212,8.123-10.632,16.627,12.7Z" transform="translate(-0.001 -84.001)"/>
        <path id="Path_908581" data-name="Path 908581" d="M390.129,177.862a2.865,2.865,0,1,0-.564,2.121h0A2.85,2.85,0,0,0,390.129,177.862Zm-2.4.719a.559.559,0,1,1,.11-.413A.56.56,0,0,1,387.732,178.581Z" transform="translate(-325.275 -158.692)"/>
        <path id="Path_908582" data-name="Path 908582" d="M90.3,175.964a2.867,2.867,0,0,0-.538,4.018h0a2.867,2.867,0,1,0,.538-4.018Zm2.294,2.352a.559.559,0,1,1-.11-.413A.556.556,0,0,1,92.6,178.316Z" transform="translate(-75.456 -158.691)"/>
        <path id="Path_908583" data-name="Path 908583" d="M232.857,362.935a3.923,3.923,0,1,0,3.923,3.923A3.928,3.928,0,0,0,232.857,362.935Zm0,5.539a1.615,1.615,0,1,1,1.616-1.615A1.617,1.617,0,0,1,232.857,368.474Z" transform="translate(-193.711 -317.393)"/>
        <path id="Path_908584" data-name="Path 908584" d="M192.807,72.745l3.693.923a1.154,1.154,0,1,0,.56-2.239l-.837-.209a11.761,11.761,0,0,1,11.024-.016l-.9.225a1.154,1.154,0,1,0,.56,2.239l3.693-.923a1.154,1.154,0,0,0,.857-1.317l-.615-3.539a1.154,1.154,0,0,0-2.274.4l.191,1.1a14.186,14.186,0,0,0-14.121.065l.2-1.163a1.154,1.154,0,1,0-2.274-.4l-.615,3.539A1.154,1.154,0,0,0,192.807,72.745Z" transform="translate(-162.403 -66.932)"/>
      </g>
    </g>
  </g>
</svg>
