<svg xmlns="http://www.w3.org/2000/svg" xmlns:xlink="http://www.w3.org/1999/xlink" width="112.086" height="112.086" viewBox="0 0 112.086 112.086">
  <defs>
    <clipPath id="clip-path">
      <path id="path10448" d="M0-682.665H86.1v86.1H0Z" transform="translate(0 682.665)"/>
    </clipPath>
  </defs>
  <g id="g10440" transform="translate(-223.477 632.956) rotate(22)">
    <path id="path10442" d="M250.068-663.412H219.279v-9.252h30.788Z" transform="translate(-191.623 -8.739)" fill="#dae4ea"/>
    <g id="g10444" transform="translate(0 -682.665)">
      <g id="g10446" clip-path="url(#clip-path)">
        <g id="g10452" transform="translate(27.657 1.261)">
          <path id="path10454" d="M-166.712,0V1.292a4.6,4.6,0,0,1-4.6,4.6h-19.464V9.253h30.788V0Z" transform="translate(190.773)" fill="#c6d0da"/>
        </g>
        <path id="path10456" d="M260.337-599.305H233.014v4.626h27.323Z" transform="translate(-203.625 609.819)" fill="#b9c1cb"/>
        <g id="g10458" transform="translate(27.657 15.14)">
          <path id="path10460" d="M0,0V23.938H4.2l1.237-2.322a5.809,5.809,0,0,1,5.127-3.078h9.651a5.809,5.809,0,0,1,5.127,3.078l1.237,2.322h4.2V0Z" fill="#dae4ea"/>
        </g>
        <g id="g10462" transform="translate(52.294 15.14)">
          <path id="path10464" d="M-7.663,0V19.469a1.106,1.106,0,0,1-1.106,1.106h0a5.814,5.814,0,0,1,.709,1.041l1.237,2.322h4.2V0Z" transform="translate(8.769)" fill="#c6d0da"/>
        </g>
        <g id="g10466" transform="translate(33.781 15.14)">
          <path id="path10468" d="M-128.448-64.223a9.269,9.269,0,0,1-9.269,9.269,9.269,9.269,0,0,1-9.269-9.269,9.269,9.269,0,0,1,9.269-9.269,9.269,9.269,0,0,1,9.269,9.269" transform="translate(146.986 73.492)" fill="#f6f9f9"/>
        </g>
        <g id="g10470" transform="translate(37.986 19.344)">
          <path id="path10472" d="M-70.189-35.094a5.065,5.065,0,0,1-5.065,5.065,5.065,5.065,0,0,1-5.065-5.065,5.065,5.065,0,0,1,5.065-5.065,5.065,5.065,0,0,1,5.065,5.065" transform="translate(80.32 40.159)" fill="#808b95"/>
        </g>
        <g id="g10474" transform="translate(30.617 59.973)">
          <path id="path10476" d="M-86.15-136.836a7.316,7.316,0,0,1-7.315-7.316,7.316,7.316,0,0,1,7.315-7.315,7.316,7.316,0,0,1,7.315,7.315,7.316,7.316,0,0,1-7.315,7.316m0-19.749a12.434,12.434,0,0,0-12.434,12.434A12.434,12.434,0,0,0-86.15-131.717a12.434,12.434,0,0,0,12.434-12.434A12.434,12.434,0,0,0-86.15-156.585" transform="translate(98.584 156.585)" fill="#dae4ea"/>
        </g>
        <g id="g10478" transform="translate(34.39 60.122)">
          <path id="path10480" d="M-73.415,0a12.4,12.4,0,0,1,3.706,7.626,7.285,7.285,0,0,1,1.675,4.659A7.316,7.316,0,0,1-75.349,19.6q-.171,0-.341-.008a12.376,12.376,0,0,1-6.386,1.763,12.519,12.519,0,0,1-1.935-.15,12.393,12.393,0,0,0,8.661,3.513A12.434,12.434,0,0,0-62.915,12.284,12.437,12.437,0,0,0-73.415,0" transform="translate(84.01)" fill="#c6d0da"/>
        </g>
        <g id="g10482" transform="translate(33.536 33.679)">
          <path id="path10484" d="M-95.056-101.747v-14.685h-8.408v14.685a26.649,26.649,0,0,1-4.459,14.757l-.852,1.281a12.407,12.407,0,0,1,9.515-4.43,12.407,12.407,0,0,1,9.515,4.43l-.852-1.281a26.649,26.649,0,0,1-4.459-14.757" transform="translate(108.776 116.432)" fill="#b9c1cb"/>
        </g>
        <path id="path10486" d="M435.016-201.948H430.7v-4.316h4.316Z" transform="translate(-376.378 266.35)" fill="#808b95"/>
        <path id="path10488" d="M435.016-40.806H430.7v-4.316h4.316Z" transform="translate(-376.378 125.532)" fill="#808b95"/>
        <g id="g10490" transform="translate(52.566 64.402)">
          <path id="path10492" d="M0,0A12.384,12.384,0,0,1,2.919,8H8.59V0Z" fill="#b9c1cb"/>
        </g>
        <g id="g10494" transform="translate(52.566 72.406)">
          <path id="path10496" d="M-20.223,0a12.385,12.385,0,0,1-2.919,8h8.59V0Z" transform="translate(23.141)" fill="#a0aab7"/>
        </g>
        <path id="path10498" d="M217.747-201.948h4.316v-4.316h-4.316Z" transform="translate(-190.284 266.35)" fill="#808b95"/>
        <path id="path10500" d="M217.747-40.806h4.316v-4.316h-4.316Z" transform="translate(-190.284 125.532)" fill="#808b95"/>
        <g id="g10502" transform="translate(24.946 64.402)">
          <path id="path10504" d="M-59.514,0a12.384,12.384,0,0,0-2.919,8H-68.1V0Z" transform="translate(68.104)" fill="#b9c1cb"/>
        </g>
        <g id="g10506" transform="translate(24.946 72.406)">
          <path id="path10508" d="M-39.292,0a12.385,12.385,0,0,0,2.919,8h-8.59V0Z" transform="translate(44.963)" fill="#a0aab7"/>
        </g>
        <g id="g10510" transform="translate(4.634 54.663)">
          <path id="path10512" d="M-140.733-122.94v-1.232a36.991,36.991,0,0,1-13.406-10.383l2.7-1.88-9.609-4.249.639,10.487,2.809-1.954a40.976,40.976,0,0,0,13.984,11.258q1.412.7,2.88,1.309Zm56.522-17.744L-84.85-130.2l-2.809-1.954a40.977,40.977,0,0,1-13.984,11.258q-1.412.7-2.88,1.309v-4.588a36.991,36.991,0,0,0,13.406-10.383l-2.7-1.88Z" transform="translate(161.045 140.684)" fill="#80bc93"/>
        </g>
        <path id="path10514" d="M250.068-663.412H219.279v-9.252h30.788Z" transform="translate(-191.623 673.926)" fill="none" stroke="#000" stroke-linecap="round" stroke-linejoin="round" stroke-miterlimit="10" stroke-width="1"/>
        <path id="path10516" d="M260.337-599.305H233.014v4.626h27.323Z" transform="translate(-203.625 609.819)" fill="none" stroke="#000" stroke-linecap="round" stroke-linejoin="round" stroke-miterlimit="10" stroke-width="1"/>
        <g id="g10518" transform="translate(55.929 5.888)">
          <path id="path10520" d="M0,0H3.441" fill="none" stroke="#000" stroke-linecap="round" stroke-linejoin="round" stroke-miterlimit="10" stroke-width="1"/>
        </g>
        <g id="g10522" transform="translate(26.732 5.888)">
          <path id="path10524" d="M0,0H23.312" fill="none" stroke="#000" stroke-linecap="round" stroke-linejoin="round" stroke-miterlimit="10" stroke-width="1"/>
        </g>
        <g id="g10526" transform="translate(27.657 15.14)">
          <path id="path10528" d="M0,0V23.938H4.2l1.237-2.322a5.809,5.809,0,0,1,5.127-3.078h9.651a5.809,5.809,0,0,1,5.127,3.078l1.237,2.322h4.2V0Z" fill="none" stroke="#000" stroke-linecap="round" stroke-linejoin="round" stroke-miterlimit="10" stroke-width="1"/>
        </g>
        <g id="g10530" transform="translate(33.781 15.14)">
          <path id="path10532" d="M-128.448-64.223a9.269,9.269,0,0,1-9.269,9.269,9.269,9.269,0,0,1-9.269-9.269,9.269,9.269,0,0,1,9.269-9.269A9.269,9.269,0,0,1-128.448-64.223Z" transform="translate(146.986 73.492)" fill="none" stroke="#000" stroke-linecap="round" stroke-linejoin="round" stroke-miterlimit="10" stroke-width="1"/>
        </g>
        <g id="g10534" transform="translate(37.986 19.344)">
          <path id="path10536" d="M-70.189-35.094a5.065,5.065,0,0,1-5.065,5.065,5.065,5.065,0,0,1-5.065-5.065,5.065,5.065,0,0,1,5.065-5.065A5.065,5.065,0,0,1-70.189-35.094Z" transform="translate(80.32 40.159)" fill="none" stroke="#000" stroke-linecap="round" stroke-linejoin="round" stroke-miterlimit="10" stroke-width="1"/>
        </g>
        <g id="g10538" transform="translate(30.617 59.972)">
          <path id="path10540" d="M-172.3-86.15a12.434,12.434,0,0,1-12.434,12.434A12.434,12.434,0,0,1-197.169-86.15a12.434,12.434,0,0,1,12.434-12.434A12.434,12.434,0,0,1-172.3-86.15Z" transform="translate(197.169 98.584)" fill="none" stroke="#000" stroke-linecap="round" stroke-linejoin="round" stroke-miterlimit="10" stroke-width="1"/>
        </g>
        <g id="g10542" transform="translate(35.735 65.091)">
          <path id="path10544" d="M-75.431-94.932A7.281,7.281,0,0,1-79-94a7.315,7.315,0,0,1-7.315-7.316A7.315,7.315,0,0,1-79-108.633a7.316,7.316,0,0,1,7.315,7.315,7.345,7.345,0,0,1-.19,1.663" transform="translate(86.318 108.633)" fill="none" stroke="#000" stroke-linecap="round" stroke-linejoin="round" stroke-miterlimit="10" stroke-width="1"/>
        </g>
        <g id="g10546" transform="translate(53.586 31.928)">
          <path id="path10548" d="M0,0H0" fill="none" stroke="#000" stroke-linecap="round" stroke-linejoin="round" stroke-miterlimit="10" stroke-width="1"/>
        </g>
        <g id="g10550" transform="translate(32.515 31.928)">
          <path id="path10552" d="M0,0H0" fill="none" stroke="#000" stroke-linecap="round" stroke-linejoin="round" stroke-miterlimit="10" stroke-width="1"/>
        </g>
        <g id="g10554" transform="translate(43.051 33.679)">
          <path id="path10556" d="M0,0V21.7" fill="none" stroke="#000" stroke-linecap="round" stroke-linejoin="round" stroke-miterlimit="10" stroke-width="1"/>
        </g>
        <g id="g10558" transform="translate(38.847 33.679)">
          <path id="path10560" d="M-95.056-212.871l-.852-1.281a26.649,26.649,0,0,1-4.459-14.757v-14.685h-8.408v5.4" transform="translate(108.776 243.594)" fill="none" stroke="#000" stroke-linecap="round" stroke-linejoin="round" stroke-miterlimit="10" stroke-width="1"/>
        </g>
        <g id="g10562" transform="translate(33.536 44.964)">
          <path id="path10564" d="M-36.8,0V3.4a26.649,26.649,0,0,1-4.459,14.757l-.852,1.281" transform="translate(42.109)" fill="none" stroke="#000" stroke-linecap="round" stroke-linejoin="round" stroke-miterlimit="10" stroke-width="1"/>
        </g>
        <path id="path10566" d="M435.016-201.948H430.7v-4.316h4.316Z" transform="translate(-376.378 266.35)" fill="none" stroke="#000" stroke-linecap="round" stroke-linejoin="round" stroke-miterlimit="10" stroke-width="1"/>
        <path id="path10568" d="M435.016-40.806H430.7v-4.316h4.316Z" transform="translate(-376.378 125.532)" fill="none" stroke="#000" stroke-linecap="round" stroke-linejoin="round" stroke-miterlimit="10" stroke-width="1"/>
        <g id="g10570" transform="translate(52.566 64.402)">
          <path id="path10572" d="M-20.223-55.458h5.671v-8h-8.59" transform="translate(23.141 63.463)" fill="none" stroke="#000" stroke-linecap="round" stroke-linejoin="round" stroke-miterlimit="10" stroke-width="1"/>
        </g>
        <g id="g10574" transform="translate(52.566 72.406)">
          <path id="path10576" d="M0-55.459H8.59v-8H2.919" transform="translate(0 63.464)" fill="none" stroke="#000" stroke-linecap="round" stroke-linejoin="round" stroke-miterlimit="10" stroke-width="1"/>
        </g>
        <path id="path10578" d="M217.747-201.948h4.316v-4.316h-4.316Z" transform="translate(-190.284 266.35)" fill="none" stroke="#000" stroke-linecap="round" stroke-linejoin="round" stroke-miterlimit="10" stroke-width="1"/>
        <path id="path10580" d="M217.747-40.806h4.316v-4.316h-4.316Z" transform="translate(-190.284 125.532)" fill="none" stroke="#000" stroke-linecap="round" stroke-linejoin="round" stroke-miterlimit="10" stroke-width="1"/>
        <g id="g10582" transform="translate(24.946 64.402)">
          <path id="path10584" d="M-39.292-55.458h-5.671v-8h8.59" transform="translate(44.963 63.463)" fill="none" stroke="#000" stroke-linecap="round" stroke-linejoin="round" stroke-miterlimit="10" stroke-width="1"/>
        </g>
        <g id="g10586" transform="translate(24.946 72.406)">
          <path id="path10588" d="M-59.514-55.459H-68.1v-8h5.671" transform="translate(68.104 63.464)" fill="none" stroke="#000" stroke-linecap="round" stroke-linejoin="round" stroke-miterlimit="10" stroke-width="1"/>
        </g>
        <g id="g10590" transform="translate(4.634 54.663)">
          <path id="path10592" d="M-140.733-122.94v-1.232a36.991,36.991,0,0,1-13.406-10.383l2.7-1.88-9.609-4.249.639,10.487,2.809-1.954a40.976,40.976,0,0,0,13.984,11.258q1.412.7,2.88,1.309Zm56.522-17.744L-84.85-130.2l-2.809-1.954a40.977,40.977,0,0,1-13.984,11.258q-1.412.7-2.88,1.309v-4.588a36.991,36.991,0,0,0,13.406-10.383l-2.7-1.88Z" transform="translate(161.045 140.684)" fill="none" stroke="#000" stroke-linecap="round" stroke-linejoin="round" stroke-miterlimit="10" stroke-width="1"/>
        </g>
      </g>
    </g>
  </g>
</svg>
