<svg xmlns="http://www.w3.org/2000/svg" width="54.224" height="58.221" viewBox="0 0 54.224 58.221">
  <g id="Group_1118025" data-name="Group 1118025" transform="translate(-40.445 -25)">
    <path id="Path_908496" data-name="Path 908496" d="M77.348,358.207a6.765,6.765,0,1,1,6.765-6.765A6.773,6.773,0,0,1,77.348,358.207Zm0-11.585a4.82,4.82,0,1,0,4.82,4.82A4.825,4.825,0,0,0,77.348,346.623Z" transform="translate(-26.239 -278.317)"/>
    <path id="Path_908497" data-name="Path 908497" d="M54.936,339.125a10.1,10.1,0,1,1,10.1-10.1A10.107,10.107,0,0,1,54.936,339.125Zm0-18.246a8.15,8.15,0,1,0,8.151,8.15A8.16,8.16,0,0,0,54.936,320.879Z" transform="translate(-3.826 -255.904)"/>
    <path id="Path_908498" data-name="Path 908498" d="M164.428,391.393H161.1a.973.973,0,1,1,0-1.946h3.331a.973.973,0,1,1,0,1.946Z" transform="translate(-104.195 -317.295)"/>
    <path id="Path_908499" data-name="Path 908499" d="M49.143,391.393H45.813a.973.973,0,0,1,0-1.946h3.331a.973.973,0,0,1,0,1.946Z" transform="translate(-3.826 -317.295)"/>
    <path id="Path_908500" data-name="Path 908500" d="M60.608,105.784H41.418a.973.973,0,0,1-.973-.973V90.33a.973.973,0,0,1,.973-.973h19.19a.973.973,0,0,1,.973.973v14.481A.973.973,0,0,1,60.608,105.784Zm-18.218-1.946H59.636V91.3H42.391Z" transform="translate(0 -56.031)"/>
    <path id="Path_908501" data-name="Path 908501" d="M60.608,132.978H41.418a.973.973,0,0,1-.973-.973v-4.988a.973.973,0,0,1,.973-.973h19.19a.973.973,0,0,1,.973.973V132A.973.973,0,0,1,60.608,132.978Zm-18.218-1.946H59.636V127.99H42.391Z" transform="translate(0 -87.971)"/>
    <path id="Path_908502" data-name="Path 908502" d="M74.16,69.051H59.7a.973.973,0,0,1-.973-.973V64.772A.973.973,0,0,1,59.7,63.8H74.16a.973.973,0,0,1,.973.973v3.307A.973.973,0,0,1,74.16,69.051ZM60.673,67.106H73.187V65.745H60.673Z" transform="translate(-15.917 -33.779)"/>
    <path id="Path_908503" data-name="Path 908503" d="M60.608,31.966H41.418a.973.973,0,0,1-.973-.973V27.94A2.943,2.943,0,0,1,43.385,25H58.641a2.943,2.943,0,0,1,2.94,2.94v3.053A.973.973,0,0,1,60.608,31.966ZM42.391,30.02H59.636V27.94a1,1,0,0,0-.995-.994H43.385a1,1,0,0,0-.994.994Z" transform="translate(0)"/>
    <path id="Path_908504" data-name="Path 908504" d="M87.973,219.225a.973.973,0,0,1-.973-.973V202.257a.973.973,0,0,1,.973-.973h7.144a.973.973,0,0,1,.973.973v15.91a.973.973,0,0,1-1.344.9,8.165,8.165,0,0,0-6.382.075.971.971,0,0,1-.392.083Zm.973-15.995v13.643a10.134,10.134,0,0,1,5.2-.052V203.23Z" transform="translate(-40.532 -153.476)"/>
    <path id="Path_908505" data-name="Path 908505" d="M233.069,175.006a.949.949,0,0,1-.135-.009.973.973,0,0,1-.642-.378l-11.549-15.326a.974.974,0,0,1,.192-1.363l11.565-8.715a.974.974,0,0,1,1.363.191l11.549,15.326a.974.974,0,0,1-.192,1.363l-11.565,8.715A.973.973,0,0,1,233.069,175.006ZM222.883,158.9l10.378,13.772,10.011-7.544-10.378-13.772Z" transform="translate(-156.801 -107.974)"/>
    <path id="Path_908506" data-name="Path 908506" d="M262.367,191.378a.957.957,0,0,1-.135-.009.97.97,0,0,1-.641-.378l-11.549-15.326a.973.973,0,0,1,.191-1.363l3.984-3a.974.974,0,0,1,1.363.192l11.549,15.326a.973.973,0,0,1-.191,1.363l-3.983,3a.973.973,0,0,1-.586.2ZM252.181,175.27l10.378,13.772,2.43-1.831L254.61,173.439Z" transform="translate(-182.308 -127.201)"/>
    <path id="Path_908507" data-name="Path 908507" d="M330.613,163.727a.974.974,0,0,1-.778-.387l-8.7-11.548a.974.974,0,0,1,.192-1.363l2.641-1.99a.973.973,0,0,1,1.363.191l8.7,11.548a.974.974,0,0,1-.191,1.363l-2.641,1.99A.971.971,0,0,1,330.613,163.727Zm-7.34-12.329,7.531,9.994,1.087-.819-7.531-9.994Z" transform="translate(-244.202 -107.298)"/>
    <path id="Path_908508" data-name="Path 908508" d="M342.867,135.89a.949.949,0,0,1-.135-.009.971.971,0,0,1-.641-.378l-11.549-15.326a.973.973,0,0,1,.191-1.362l2.438-1.837a2.942,2.942,0,0,1,4.117.578l9.181,12.184a2.939,2.939,0,0,1-.579,4.117l-2.438,1.837A.973.973,0,0,1,342.867,135.89Zm-10.187-16.107,10.378,13.772,1.661-1.252a.994.994,0,0,0,.2-1.392l-9.181-12.184a.994.994,0,0,0-1.392-.2Z" transform="translate(-252.393 -79.562)"/>
    <path id="Path_908509" data-name="Path 908509" d="M176.221,270.788a.973.973,0,0,1-.586-1.75l11.93-8.99-3.128-4.151-8.869,6.683a.973.973,0,0,1-1.171-1.554l9.646-7.268a.973.973,0,0,1,1.363.191l4.3,5.705a.973.973,0,0,1-.191,1.362l-12.707,9.576A.971.971,0,0,1,176.221,270.788Z" transform="translate(-116.283 -198.99)"/>
  </g>
</svg>
