<svg xmlns="http://www.w3.org/2000/svg" width="90" height="90" viewBox="0 0 90 90">
  <g id="Group_1118040" data-name="Group 1118040" transform="translate(-608.051 -2447.268)">
    <g id="Group_1117177" data-name="Group 1117177" transform="translate(-17 259.268)">
      <rect id="Rectangle_409906" data-name="Rectangle 409906" width="90" height="90" transform="translate(625.051 2188)" fill="none"/>
      <g id="Group_1117176" data-name="Group 1117176" transform="translate(635.051 2197)">
        <g id="Group_1117174" data-name="Group 1117174" transform="translate(1.166 1.166)">
          <g id="Group_1117170" data-name="Group 1117170" transform="translate(0 12.01)">
            <path id="Path_908354" data-name="Path 908354" d="M48.637,147.665a34.162,34.162,0,0,1-13.643,0,33.665,33.665,0,0,1-12.5-5.374,33.98,33.98,0,0,1-9.321-9.777A33.721,33.721,0,0,1,8,114.537q0-.586.02-1.166A33.772,33.772,0,0,1,18.136,90.4L21.9,97.207l.993,1.8a24.381,24.381,0,0,0-5.311,12.037H29.541l3.624,6.558c.082.149.168.3.259.439H17.578a24.489,24.489,0,0,0,48.476,0H50.207c.092-.143.178-.29.259-.439l3.623-6.558H66.053A24.381,24.381,0,0,0,60.742,99l.993-1.8L65.495,90.4a33.913,33.913,0,0,1,7.006,9.914,33.609,33.609,0,0,1,3.109,13.057q.02.579.02,1.166a33.864,33.864,0,0,1-.442,5.473,33.61,33.61,0,0,1-4.728,12.5,33.907,33.907,0,0,1-15.29,13.1A33.536,33.536,0,0,1,48.637,147.665Z" transform="translate(-8 -90.4)" fill="#ccd1d9"/>
          </g>
          <g id="Group_1117171" data-name="Group 1117171" transform="translate(9.132)">
            <path id="Path_908355" data-name="Path 908355" d="M95.334,8a34.876,34.876,0,0,1,24.684,10.194l-1,1.816-3.76,6.807a25.652,25.652,0,0,0-39.838,0L71.654,20.01l-1-1.816A34.876,34.876,0,0,1,95.334,8Z" transform="translate(-70.65 -8)" fill="#fcd770"/>
          </g>
          <g id="Group_1117172" data-name="Group 1117172" transform="translate(13.896 9.328)">
            <path id="Path_908356" data-name="Path 908356" d="M143.178,81.489l-.993,1.8-6.652,12.037-3.624,6.558c-.082.149-.168.3-.259.439a9.88,9.88,0,0,1-16.782,0c-.092-.143-.178-.29-.259-.439l-3.623-6.558-6.652-12.037-.993-1.8a25.652,25.652,0,0,1,39.838,0Z" transform="translate(-103.34 -72)" fill="#ffeaa7"/>
          </g>
          <g id="Group_1117173" data-name="Group 1117173" transform="translate(29.297 30.463)">
            <circle id="Ellipse_11972" data-name="Ellipse 11972" cx="4.518" cy="4.518" r="4.518" transform="translate(0 0)" fill="#ff826e"/>
          </g>
        </g>
        <g id="Group_1117175" data-name="Group 1117175" transform="translate(0 0)">
          <path id="Path_908357" data-name="Path 908357" d="M207,109.612V97.151l1.508,1.508,1.649-1.649-4.323-4.323-4.323,4.323,1.649,1.649,1.508-1.508v12.461a5.83,5.83,0,1,0,2.332,0Zm-1.166,9.211a3.5,3.5,0,1,1,3.5-3.5A3.5,3.5,0,0,1,205.83,118.823Z" transform="translate(-170.849 -79.177)"/>
          <circle id="Ellipse_11973" data-name="Ellipse 11973" cx="1.13" cy="1.13" r="1.13" transform="translate(33.852 35.018)"/>
          <path id="Path_908358" data-name="Path 908358" d="M60.105,12.975l1.006-1.82-.623-.62a36.145,36.145,0,0,0-51.012,0l-.623.62,1.006,1.82A34.98,34.98,0,0,0,34.981,72.3a34.979,34.979,0,0,0,25.124-59.32ZM15.234,8.692l2.583,3.865,1.939-1.3L17.17,7.392a33.481,33.481,0,0,1,3.795-2.037l1.783,4.306L24.9,8.769,23.12,4.463a33.442,33.442,0,0,1,4.123-1.244l.908,4.565,2.287-.455-.907-4.561a34.144,34.144,0,0,1,4.285-.414V7h2.332V2.354a34.144,34.144,0,0,1,4.285.414l-.907,4.561,2.287.455.908-4.565a33.441,33.441,0,0,1,4.123,1.244L45.06,8.769l2.154.892L49,5.356a33.46,33.46,0,0,1,3.795,2.037l-2.585,3.869,1.939,1.3,2.583-3.865a34.159,34.159,0,0,1,3.484,2.885l-3.527,6.382a26.81,26.81,0,0,0-39.41,0L11.75,11.577a34.177,34.177,0,0,1,3.484-2.885ZM25.965,41.978a11.047,11.047,0,0,0,18.032,0H57.834a23.324,23.324,0,0,1-45.705,0Zm16.646-2.169a8.717,8.717,0,0,1-15.26,0L16.471,20.12a24.481,24.481,0,0,1,37.021,0Zm-21.881-7.16h-8.6A23.234,23.234,0,0,1,15.9,23.91ZM54.062,23.91a23.234,23.234,0,0,1,3.772,8.739h-8.6Zm-39.4-2.247A25.564,25.564,0,0,0,9.59,33.65L9.4,34.981h12.62L24.6,39.646H9.4l.191,1.331a25.655,25.655,0,0,0,50.783,0l.191-1.331h-15.2l2.578-4.664h12.62l-.191-1.331A25.563,25.563,0,0,0,55.3,21.663l3.618-6.546q1.041,1.12,1.964,2.32l-2.314,1.546,1.3,1.939,2.376-1.588a32.333,32.333,0,0,1,1.844,3.149l-3.456,1.431.892,2.155,3.549-1.47a32.191,32.191,0,0,1,1.388,4l-3.61.718.455,2.287L67,30.869a32.8,32.8,0,0,1,.549,4.112H62.967v2.332h4.664a32.806,32.806,0,0,1-.256,4.089L63.8,40.691l-.455,2.287L67,43.705a32.363,32.363,0,0,1-1.066,4L62.36,46.226l-.892,2.155,3.643,1.509a32.555,32.555,0,0,1-1.86,3.744l-3.383-2.26-1.3,1.939,3.438,2.3a32.881,32.881,0,0,1-2.589,3.328l-3-3L54.77,57.585l3.043,3.043a32.935,32.935,0,0,1-3.22,2.772l-2.447-3.662-1.939,1.3,2.474,3.7a32.625,32.625,0,0,1-3.733,2.084l-1.734-4.187-2.154.892,1.748,4.219a32.365,32.365,0,0,1-4.1,1.29l-.9-4.525-2.287.455.9,4.54a32.654,32.654,0,0,1-4.28.434V65.3H33.815V69.94a32.651,32.651,0,0,1-4.28-.434l.9-4.54-2.287-.455-.9,4.525a32.366,32.366,0,0,1-4.1-1.29L24.9,63.526l-2.154-.892L21.014,66.82a32.638,32.638,0,0,1-3.733-2.084l2.474-3.7-1.939-1.3L15.37,63.4a32.917,32.917,0,0,1-3.22-2.772l3.043-3.043-1.649-1.649-3,3A32.894,32.894,0,0,1,7.953,55.61l3.438-2.3-1.3-1.939-3.383,2.26a32.567,32.567,0,0,1-1.86-3.744L8.5,48.381,7.6,46.226,4.029,47.707a32.341,32.341,0,0,1-1.066-4l3.656-.727-.455-2.287L2.588,41.4a32.806,32.806,0,0,1-.256-4.089H7V34.981H2.415a32.821,32.821,0,0,1,.549-4.112l3.693.735.455-2.287L3.5,28.6a32.189,32.189,0,0,1,1.266-3.7L7.6,26.069,8.5,23.915,5.733,22.77a32.31,32.31,0,0,1,1.987-3.436L10.1,20.921l1.3-1.939L9.077,17.436q.924-1.2,1.964-2.32Z" transform="translate(0 0)"/>
        </g>
      </g>
    </g>
  </g>
</svg>
