<svg xmlns="http://www.w3.org/2000/svg" width="71.569" height="62.485" viewBox="0 0 71.569 62.485">
  <g id="Group_1117405" data-name="Group 1117405" transform="translate(-3.986 -35.973)">
    <g id="Group_1117404" data-name="Group 1117404" transform="translate(4.839 36.827)">
      <path id="Path_908725" data-name="Path 908725" d="M65.609,66.224H68.62a2.156,2.156,0,0,1,2.153,2.153v8a2.156,2.156,0,0,1-2.153,2.154H65.609a25.837,25.837,0,0,1-3.039,7.334L64.7,87.991a2.155,2.155,0,0,1,0,3.047l-5.655,5.655a2.157,2.157,0,0,1-3.043,0L53.872,94.56A25.754,25.754,0,0,1,46.534,97.6v3.011a2.158,2.158,0,0,1-2.149,2.153h-8a2.159,2.159,0,0,1-2.153-2.153V97.6A25.8,25.8,0,0,1,26.9,94.56l-2.133,2.133a2.157,2.157,0,0,1-3.043,0l-5.655-5.655a2.155,2.155,0,0,1,0-3.047L18.2,85.862a25.674,25.674,0,0,1-3.039-7.334H12.148a2.156,2.156,0,0,1-2.153-2.154v-8a2.156,2.156,0,0,1,2.153-2.153h3.011A25.672,25.672,0,0,1,18.2,58.89l-2.129-2.129a2.155,2.155,0,0,1,0-3.047l5.655-5.655a2.157,2.157,0,0,1,3.043,0L26.9,50.192a25.8,25.8,0,0,1,7.334-3.043V44.138a2.156,2.156,0,0,1,2.153-2.153h8a2.155,2.155,0,0,1,2.149,2.153v3.011a25.859,25.859,0,0,1,7.338,3.039L56,48.059a2.157,2.157,0,0,1,3.043,0L64.7,53.714a2.155,2.155,0,0,1,0,3.047L62.57,58.89a25.833,25.833,0,0,1,3.039,7.334Z" transform="translate(-9.995 -41.985)" fill="#11bef7" fill-rule="evenodd"/>
      <path id="Path_908726" data-name="Path 908726" d="M131.136,144.706a18.419,18.419,0,1,1-18.419-18.419,18.421,18.421,0,0,1,18.419,18.419Z" transform="translate(-82.328 -114.317)" fill="#f7b84e" fill-rule="evenodd"/>
      <path id="Path_908727" data-name="Path 908727" d="M164.6,145.969a18.423,18.423,0,0,1-15.649,18.213,18.421,18.421,0,0,1,0-36.423A18.422,18.422,0,0,1,164.6,145.969Z" transform="translate(-115.794 -115.58)" fill="#ffcb5b" fill-rule="evenodd"/>
      <path id="Path_908728" data-name="Path 908728" d="M118.17,211.953l5.212-5.212a5.055,5.055,0,0,1,3.892-1.529,9.611,9.611,0,0,0,9.656-11.966l-5.671,5.667-2.737-.733-2.741-.737-.733-2.737-.737-2.741,5.671-5.667a9.607,9.607,0,0,0-11.967,9.656,5.079,5.079,0,0,1-1.534,3.892l-5.208,5.212a18.522,18.522,0,0,0,6.895,6.895Z" transform="translate(-96.894 -165.553)" fill="#1b6fab" fill-rule="evenodd"/>
      <path id="Path_908729" data-name="Path 908729" d="M143.938,209.628l2.89-2.886a5.056,5.056,0,0,1,3.892-1.529,9.611,9.611,0,0,0,9.656-11.966l-5.671,5.667-2.737-.733-2.741-.737-.733-2.737-.737-2.741,5.671-5.667a9.607,9.607,0,0,0-11.967,9.656,5.079,5.079,0,0,1-1.534,3.892l-1.328,1.328a18.455,18.455,0,0,0,5.337,8.453Z" transform="translate(-120.34 -165.554)" fill="#3589c9" fill-rule="evenodd"/>
      <path id="Path_908730" data-name="Path 908730" d="M368.963,326a11.007,11.007,0,1,1-11-11.009A11.008,11.008,0,0,1,368.963,326Z" transform="translate(-299.104 -276.224)" fill="#ffcb5b" fill-rule="evenodd"/>
      <path id="Path_908731" data-name="Path 908731" d="M385.467,345.771a7.736,7.736,0,1,1-7.736-7.736A7.739,7.739,0,0,1,385.467,345.771Z" transform="translate(-318.877 -295.998)" fill="#cad1d8" fill-rule="evenodd"/>
      <path id="Path_908732" data-name="Path 908732" d="M405.193,346.817a6.245,6.245,0,1,1-6.106-7.563A7.74,7.74,0,0,1,405.193,346.817Z" transform="translate(-338.603 -297.043)" fill="#e2e5e7" fill-rule="evenodd"/>
    </g>
    <path id="Path_908733" data-name="Path 908733" d="M395.557,372.753a.847.847,0,0,1,1.469-.845l1.312,2.274,3.9-3.9a.851.851,0,0,1,1.2,1.2l-4.681,4.681h0a.858.858,0,0,1-1.336-.177Z" transform="translate(-335.872 -286.624)" fill="#3cb54b"/>
    <path id="Path_908734" data-name="Path 908734" d="M67.574,83.658a.853.853,0,0,1,0,1.208l-4.689,4.681a.849.849,0,0,1-.6.246.963.963,0,0,1-.109,0,.865.865,0,0,1-.628-.419L59.68,86.133a.852.852,0,0,1,1.477-.849l1.308,2.266,3.9-3.892a.853.853,0,0,1,1.208,0Zm-3.88,9.825A6.883,6.883,0,1,1,70.576,86.6,6.894,6.894,0,0,1,63.693,93.483Zm0-15.472a8.589,8.589,0,1,0,8.59,8.589A8.6,8.6,0,0,0,63.693,78.011Zm0,18.741A10.151,10.151,0,1,1,73.849,86.6,10.162,10.162,0,0,1,63.693,96.751Zm-12.248-5.82L49.316,88.8a.846.846,0,0,0-1.046-.125,24.922,24.922,0,0,1-7.092,2.942.852.852,0,0,0-.648.825v3.011a1.3,1.3,0,0,1-1.3,1.3h-8a1.3,1.3,0,0,1-1.3-1.3V92.445a.86.86,0,0,0-.656-.833,24.79,24.79,0,0,1-7.088-2.938.858.858,0,0,0-1.047.129l-2.133,2.129a1.288,1.288,0,0,1-.918.378h0a1.288,1.288,0,0,1-.918-.378L11.517,85.28a1.306,1.306,0,0,1,0-1.839l2.133-2.129a.847.847,0,0,0,.125-1.05,25.025,25.025,0,0,1-2.942-7.092A.845.845,0,0,0,10,72.521H6.993a1.3,1.3,0,0,1-1.3-1.3V63.223a1.3,1.3,0,0,1,1.3-1.3H10a.845.845,0,0,0,.825-.652,24.912,24.912,0,0,1,2.942-7.092.858.858,0,0,0-.125-1.046L11.517,51a1.3,1.3,0,0,1,0-1.839L17.172,43.5a1.288,1.288,0,0,1,.914-.378h0a1.291,1.291,0,0,1,.918.382l2.133,2.125a.847.847,0,0,0,1.047.129,24.794,24.794,0,0,1,7.088-2.938.852.852,0,0,0,.656-.829V38.984a1.3,1.3,0,0,1,1.3-1.3h8a1.3,1.3,0,0,1,1.3,1.3v3.011a.853.853,0,0,0,.652.829,24.856,24.856,0,0,1,7.088,2.934.841.841,0,0,0,1.046-.125l2.129-2.125a1.3,1.3,0,0,1,.922-.382h0a1.291,1.291,0,0,1,.918.382l5.655,5.651a1.31,1.31,0,0,1,0,1.839l-2.133,2.133a.846.846,0,0,0-.125,1.047,24.873,24.873,0,0,1,2.942,7.092.853.853,0,0,0,.829.652h3.011a1.3,1.3,0,0,1,1.3,1.3v7.994a1.3,1.3,0,0,1-1.3,1.3H60.457a.849.849,0,0,0-.829.648,26.544,26.544,0,0,1-.8,2.62,11.856,11.856,0,0,0-6.054,15.456,1.307,1.307,0,0,1-1.332-.314ZM63.693,74.742a11.885,11.885,0,0,0-2.826.342c.089-.286.169-.572.249-.857h2.351a3.012,3.012,0,0,0,3-3.011V63.223a3.009,3.009,0,0,0-3-3.007H61.117a26.56,26.56,0,0,0-2.632-6.347L60.151,52.2a3.005,3.005,0,0,0,0-4.246L54.5,42.3a2.984,2.984,0,0,0-2.125-.882h0a2.99,2.99,0,0,0-2.125.882l-1.662,1.658a26.543,26.543,0,0,0-6.347-2.628V38.984a3.012,3.012,0,0,0-3-3.011h-8a3.013,3.013,0,0,0-3.007,3.011V41.33a26.7,26.7,0,0,0-6.348,2.628L20.215,42.3a2.984,2.984,0,0,0-2.125-.882h0a2.968,2.968,0,0,0-2.121.882l-5.655,5.655a3.005,3.005,0,0,0,0,4.246l1.658,1.666a26.492,26.492,0,0,0-2.628,6.347H6.993a3.007,3.007,0,0,0-3.007,3.007v7.994a3.01,3.01,0,0,0,3.007,3.011H9.339a26.712,26.712,0,0,0,2.632,6.343l-1.662,1.662a3.01,3.01,0,0,0,0,4.25l5.655,5.651a2.968,2.968,0,0,0,2.121.881h0a2.98,2.98,0,0,0,2.125-.877l1.662-1.662A26.7,26.7,0,0,0,28.225,93.1v2.351a3.009,3.009,0,0,0,3.007,3h8a3.008,3.008,0,0,0,3-3V93.109a26.655,26.655,0,0,0,6.347-2.632l1.658,1.658a3.017,3.017,0,0,0,3.325.632A11.86,11.86,0,1,0,63.694,74.742ZM35.228,84.785A17.46,17.46,0,0,1,27.54,83.01l4.387-4.391a4.262,4.262,0,0,1,3.26-1.284A10.462,10.462,0,0,0,45.7,64.305a.854.854,0,0,0-1.433-.39l-5.317,5.321-4.524-1.212L33.212,63.5l5.321-5.325a.853.853,0,0,0-.4-1.429A10.465,10.465,0,0,0,25.109,67.264a4.227,4.227,0,0,1-1.28,3.252l-4.391,4.391a17.563,17.563,0,1,1,15.79,9.877ZM20.3,76.461l4.738-4.738A5.913,5.913,0,0,0,26.812,67.2a8.755,8.755,0,0,1,9.33-9.048l-4.484,4.488a.844.844,0,0,0-.221.825l1.469,5.478a.855.855,0,0,0,.6.6l5.478,1.465a.846.846,0,0,0,.821-.217L44.3,66.3a8.82,8.82,0,0,1-2.544,6.774,8.687,8.687,0,0,1-6.5,2.556,5.948,5.948,0,0,0-4.524,1.783l-4.738,4.733A17.7,17.7,0,0,1,20.3,76.461ZM35.228,47.948a19.267,19.267,0,0,0-16.78,28.743.784.784,0,0,0,.072.125,19.416,19.416,0,0,0,7.092,7.1.909.909,0,0,0,.193.109,19.27,19.27,0,1,0,9.423-36.077Z" transform="translate(0 0)"/>
  </g>
</svg>
