<svg xmlns="http://www.w3.org/2000/svg" width="64.593" height="58.158" viewBox="0 0 64.593 58.158">
  <g id="Group_1118026" data-name="Group 1118026" transform="translate(-2.585 -9.486)">
    <path id="Path_908510" data-name="Path 908510" d="M32.275,29.051a2.57,2.57,0,0,0,0-3.666S20.244,13.355,18.385,11.548a2.556,2.556,0,0,0-3.666,0L4.548,21.771a2.556,2.556,0,0,0,0,3.666C6.355,27.3,18.385,39.275,18.385,39.275a2.556,2.556,0,0,0,3.666,0Z" transform="translate(0 -0.048)" fill="none" stroke="#000" stroke-linecap="square" stroke-linejoin="round" stroke-miterlimit="10" stroke-width="2"/>
    <path id="Path_908511" data-name="Path 908511" d="M7.4,28.289,21.289,14.4" transform="translate(-1.768 -1.816)" fill="none" stroke="#000" stroke-linecap="square" stroke-linejoin="round" stroke-miterlimit="10" stroke-width="2"/>
    <path id="Path_908512" data-name="Path 908512" d="M13,33.889,26.889,20" transform="translate(-4.477 -4.525)" fill="none" stroke="#000" stroke-linecap="square" stroke-linejoin="round" stroke-miterlimit="10" stroke-width="2"/>
    <circle id="Ellipse_11981" data-name="Ellipse 11981" cx="4.131" cy="4.131" r="4.131" transform="translate(15.486 28.273) rotate(-45)" fill="none" stroke="#000" stroke-linecap="square" stroke-linejoin="round" stroke-miterlimit="10" stroke-width="2"/>
    <circle id="Ellipse_11982" data-name="Ellipse 11982" cx="6.196" cy="6.196" r="6.196" transform="translate(39.199 54.925) rotate(-45)" fill="none" stroke="#000" stroke-linecap="square" stroke-linejoin="round" stroke-miterlimit="10" stroke-width="2"/>
    <path id="Path_908513" data-name="Path 908513" d="M81.877,95.851,88.9,88.829a6.1,6.1,0,0,1,1.239-5.576l-9.5-9.552a6.132,6.132,0,0,1-5.576,1.239l-7.022,7.074A6.1,6.1,0,0,1,66.8,87.589l9.552,9.552A6.17,6.17,0,0,1,81.877,95.851Z" transform="translate(-30.498 -30.498)" fill="none" stroke="#000" stroke-linecap="square" stroke-linejoin="round" stroke-miterlimit="10" stroke-width="2"/>
    <path id="Path_908514" data-name="Path 908514" d="M76.7,107.069l2.169-2.169" transform="translate(-35.286 -45.588)" fill="none" stroke="#000" stroke-linecap="square" stroke-linejoin="round" stroke-miterlimit="10" stroke-width="2"/>
    <path id="Path_908515" data-name="Path 908515" d="M97.9,85.869l2.169-2.169" transform="translate(-45.54 -35.335)" fill="none" stroke="#000" stroke-linecap="square" stroke-linejoin="round" stroke-miterlimit="10" stroke-width="2"/>
    <path id="Path_908516" data-name="Path 908516" d="M45.6,59.6,59.438,73.489" transform="translate(-20.244 -23.678)" fill="none" stroke="#000" stroke-linecap="square" stroke-linejoin="round" stroke-miterlimit="10" stroke-width="2"/>
    <path id="Path_908517" data-name="Path 908517" d="M52.6,52.6,66.489,66.438" transform="translate(-23.63 -20.292)" fill="none" stroke="#000" stroke-linecap="square" stroke-linejoin="round" stroke-miterlimit="10" stroke-width="2"/>
    <path id="Path_908518" data-name="Path 908518" d="M78.471,39.226a2.57,2.57,0,0,0,3.666,0L96.026,25.337a2.57,2.57,0,0,0,0-3.666L85.8,11.448a2.556,2.556,0,0,0-3.666,0L68.248,25.337a2.556,2.556,0,0,0,0,3.666Z" transform="translate(-30.81 0)" fill="none" stroke="#000" stroke-linecap="square" stroke-linejoin="round" stroke-miterlimit="10" stroke-width="2"/>
    <path id="Path_908519" data-name="Path 908519" d="M93.7,14.4l13.889,13.889" transform="translate(-43.508 -1.816)" fill="none" stroke="#000" stroke-linecap="square" stroke-linejoin="round" stroke-miterlimit="10" stroke-width="2"/>
    <path id="Path_908520" data-name="Path 908520" d="M88.1,20l13.889,13.889" transform="translate(-40.8 -4.525)" fill="none" stroke="#000" stroke-linecap="square" stroke-linejoin="round" stroke-miterlimit="10" stroke-width="2"/>
    <circle id="Ellipse_11983" data-name="Ellipse 11983" cx="4.131" cy="4.131" r="4.131" transform="translate(42.543 28.285) rotate(-45)" fill="none" stroke="#000" stroke-linecap="square" stroke-linejoin="round" stroke-miterlimit="10" stroke-width="2"/>
    <circle id="Ellipse_11984" data-name="Ellipse 11984" cx="6.196" cy="6.196" r="6.196" transform="translate(12.97 54.919) rotate(-45)" fill="none" stroke="#000" stroke-linecap="square" stroke-linejoin="round" stroke-miterlimit="10" stroke-width="2"/>
    <path id="Path_908521" data-name="Path 908521" d="M17.191,88.877,24.213,95.9a6.1,6.1,0,0,1,5.576,1.239l9.552-9.552A6.132,6.132,0,0,1,38.1,82.01l-7.074-6.971A6.1,6.1,0,0,1,25.452,73.8L15.9,83.3A6.308,6.308,0,0,1,17.191,88.877Z" transform="translate(-5.879 -30.546)" fill="none" stroke="#000" stroke-linecap="square" stroke-linejoin="round" stroke-miterlimit="10" stroke-width="2"/>
    <path id="Path_908522" data-name="Path 908522" d="M25.9,83.7l2.169,2.169" transform="translate(-10.716 -35.335)" fill="none" stroke="#000" stroke-linecap="square" stroke-linejoin="round" stroke-miterlimit="10" stroke-width="2"/>
    <path id="Path_908523" data-name="Path 908523" d="M47.1,104.9l2.169,2.169" transform="translate(-20.97 -45.588)" fill="none" stroke="#000" stroke-linecap="square" stroke-linejoin="round" stroke-miterlimit="10" stroke-width="2"/>
    <path id="Path_908524" data-name="Path 908524" d="M52.837,71,48.5,75.337" transform="translate(-21.647 -29.192)" fill="none" stroke="#000" stroke-linecap="square" stroke-linejoin="round" stroke-miterlimit="10" stroke-width="2"/>
    <path id="Path_908525" data-name="Path 908525" d="M69.983,52.6,64.2,58.331" transform="translate(-29.24 -20.292)" fill="none" stroke="#000" stroke-linecap="square" stroke-linejoin="round" stroke-miterlimit="10" stroke-width="2"/>
    <path id="Path_908526" data-name="Path 908526" d="M59.937,78.1,55.6,82.437" transform="translate(-25.081 -32.626)" fill="none" stroke="#000" stroke-linecap="square" stroke-linejoin="round" stroke-miterlimit="10" stroke-width="2"/>
    <path id="Path_908527" data-name="Path 908527" d="M77.031,59.6,71.3,65.383" transform="translate(-32.674 -23.678)" fill="none" stroke="#000" stroke-linecap="square" stroke-linejoin="round" stroke-miterlimit="10" stroke-width="2"/>
  </g>
</svg>
