<svg xmlns="http://www.w3.org/2000/svg" xmlns:xlink="http://www.w3.org/1999/xlink" width="90" height="90" viewBox="0 0 90 90">
  <defs>
    <clipPath id="clip-path">
      <path id="path1623" d="M0-682.665H76.1v76.1H0Z" transform="translate(0 682.665)"/>
    </clipPath>
  </defs>
  <g id="Group_1117178" data-name="Group 1117178" transform="translate(-755.051 -2188)">
    <g id="g1617" transform="translate(762.051 2877.665)">
      <g id="g1619" transform="translate(0 -682.665)">
        <g id="g1621" clip-path="url(#clip-path)">
          <g id="g1627" transform="translate(2.601 1.115)">
            <path id="path1629" d="M-282.55,0a36.794,36.794,0,0,0-24.587,9.376C-312.967,15.906-318,26.006-318,35.449a36.935,36.935,0,0,0,36.935,36.935c9.443,0,19.543-5.032,26.073-10.862a36.794,36.794,0,0,0,9.376-24.587A36.935,36.935,0,0,0-282.55,0" transform="translate(317.999)" fill="#ffe177"/>
          </g>
          <g id="g1631" transform="translate(1.115 10.49)">
            <path id="path1633" d="M-23.694-195.974a36.794,36.794,0,0,1,9.376-24.587A36.841,36.841,0,0,0-26.667-193a36.935,36.935,0,0,0,36.935,36.935,36.841,36.841,0,0,0,27.56-12.348,36.794,36.794,0,0,1-24.587,9.376,36.935,36.935,0,0,1-36.935-36.935" transform="translate(26.667 220.561)" fill="#ffc344"/>
          </g>
          <g id="g1635" transform="translate(29.58 17.919)">
            <path id="path1637" d="M0-221.853a15.165,15.165,0,0,0,15.165,15.165c6.119,0,11.973-4.282,14.489-9.284A15.888,15.888,0,0,0,30.4-220.8c0-9.166-6.038-14.373-14.554-28.205a1.551,1.551,0,0,0-.875-.677c-.179.312-.908.632-1.091.928C5.76-235.564,0-230.6,0-221.853" transform="translate(0 249.687)" fill="#ffc344"/>
          </g>
          <g id="g1639" transform="translate(28.188 17.85)">
            <path id="path1641" d="M-136.062-335.9a14.831,14.831,0,0,1-14.831-14.831c0-8.551,5.633-13.409,13.578-26.313.178-.29.37-.616.549-.928a1.578,1.578,0,0,0-1.812.677c-8.516,13.832-14.554,19.039-14.554,28.2a15.9,15.9,0,0,0,15.9,15.9,15.9,15.9,0,0,0,15.149-11.065,15.688,15.688,0,0,1-13.976,8.358" transform="translate(153.133 378.042)" fill="#fe9738"/>
          </g>
          <g id="g1643" transform="translate(17.148 12.054)">
            <path id="path1645" d="M-111.97-249a11.3,11.3,0,0,1-11.3-11.3c0-6.428,4.177-10.118,10.1-19.657a1.2,1.2,0,0,0-1.794.285c-6.468,10.506-11.055,14.461-11.055,21.423a12.076,12.076,0,0,0,11.054,12.032c.337.028,10.493-3.131,12.258-7.612A11.286,11.286,0,0,1-111.97-249" transform="translate(126.018 280.243)" fill="#fe9738"/>
          </g>
          <g id="g1647" transform="translate(19.893 12.335)">
            <path id="path1649" d="M-90.086-246.763a11.286,11.286,0,0,0,9.264-4.831c.539-1.369-.19-10.339-1.959-13.3-1.968-3.294-4.851-7.01-8.257-12.541a1.193,1.193,0,0,0-.247-.285c-5.925,9.539-10.1,13.229-10.1,19.657a11.3,11.3,0,0,0,11.3,11.3" transform="translate(101.388 277.722)" fill="#ffc344"/>
          </g>
          <g id="g1651" transform="translate(29.781 26.298)">
            <path id="path1653" d="M-74.669,0c-5.786,6.966-8.779,12.038-9.368,17.718.222.013,1.189.022,1.415.022,3.834,0,7.22-2.654,9.263-5.574a12.037,12.037,0,0,0,.839-4.421A15.5,15.5,0,0,0-74.669,0" transform="translate(84.037)" fill="#fe9738"/>
          </g>
          <g id="g1655" transform="translate(28.202 25.161)">
            <path id="path1657" d="M-23.859-144.531c-.226,0-.449-.008-.672-.022.589-5.68,3.852-9.968,8.625-16.975q-.306-.562-.649-1.137c-6.007,8.92-10.041,13.765-10.3,20.911.337.028.676.046,1.021.046A12.076,12.076,0,0,0-14.6-149.361a11.286,11.286,0,0,1-9.263,4.831" transform="translate(26.852 162.664)" fill="#c5715a"/>
          </g>
          <g id="g1659" transform="translate(1.115 1.115)">
            <path id="path1661" d="M0-294.385a36.934,36.934,0,0,0,36.934,36.934,36.934,36.934,0,0,0,36.934-36.934,36.933,36.933,0,0,0-20.3-32.987m-4.194-1.8a36.873,36.873,0,0,0-12.437-2.146A36.934,36.934,0,0,0,0-294.385m55.124-3.043c-2.589-4.312-6.361-9.184-10.81-16.409a1.581,1.581,0,0,0-2.687,0c-8.516,13.832-14.554,19.039-14.554,28.205a15.9,15.9,0,0,0,15.9,15.9,15.9,15.9,0,0,0,15.9-15.9,19.1,19.1,0,0,0-1.689-7.884m-17.6-9.014a14.181,14.181,0,0,1,.6,4.139,12.075,12.075,0,0,1-12.075,12.075A12.075,12.075,0,0,1,16.033-298.39m.727-4.541c1.536-4.646,5.382-8.849,10.327-16.882a1.2,1.2,0,0,1,2.041,0c3.381,5.491,6.247,9.193,8.213,12.469" transform="translate(0 331.319)" fill="none" stroke="#000" stroke-linecap="round" stroke-linejoin="round" stroke-miterlimit="10" stroke-width="2"/>
          </g>
        </g>
      </g>
    </g>
    <rect id="Rectangle_409907" data-name="Rectangle 409907" width="90" height="90" transform="translate(755.051 2188)" fill="none"/>
  </g>
</svg>
