<svg xmlns="http://www.w3.org/2000/svg" xmlns:xlink="http://www.w3.org/1999/xlink" width="75.998" height="75.998" viewBox="0 0 75.998 75.998">
  <defs>
    <clipPath id="clip-path">
      <path id="path23" d="M0-682.665H76v76H0Z" transform="translate(0 682.665)"/>
    </clipPath>
  </defs>
  <g id="g15" transform="translate(0 682.665)">
    <path id="path17" d="M268.979-230.994H246.162v16.924h22.817Z" transform="translate(-218.758 -401.388)" fill="#aaa"/>
    <g id="g19" transform="translate(0 -682.665)">
      <g id="g21" clip-path="url(#clip-path)">
        <g id="g27" transform="translate(24.036 52.568)">
          <path id="path29" d="M-17.581-134.441h0a2.2,2.2,0,0,1-2.2-2.2v-14.639h4.4v14.639a2.2,2.2,0,0,1-2.2,2.2" transform="translate(19.784 151.282)" fill="#cbcbcb"/>
        </g>
        <g id="g31" transform="translate(31.877 52.568)">
          <path id="path33" d="M-17.58-134.441h0a2.2,2.2,0,0,1-2.2-2.2v-14.639h4.4v14.639a2.2,2.2,0,0,1-2.2,2.2" transform="translate(19.783 151.282)" fill="#cbcbcb"/>
        </g>
        <g id="g35" transform="translate(39.717 52.568)">
          <path id="path37" d="M-17.581-134.441h0a2.2,2.2,0,0,1-2.2-2.2v-14.639h4.4v14.639a2.2,2.2,0,0,1-2.2,2.2" transform="translate(19.784 151.282)" fill="#cbcbcb"/>
        </g>
        <g id="g39" transform="translate(47.557 52.568)">
          <path id="path41" d="M-17.58-134.441h0a2.2,2.2,0,0,1-2.2-2.2v-14.639h4.4v14.639a2.2,2.2,0,0,1-2.2,2.2" transform="translate(19.783 151.282)" fill="#cbcbcb"/>
        </g>
        <g id="g43" transform="translate(45.502 32.523)">
          <path id="path45" d="M-35.579-90.323a6.866,6.866,0,0,0,6.858,6.858,6.866,6.866,0,0,0,6.858-6.858,6.866,6.866,0,0,0-6.858-6.858,6.866,6.866,0,0,0-6.858,6.858m-4.457,0a11.328,11.328,0,0,1,11.315-11.315A11.328,11.328,0,0,1-17.406-90.323,11.328,11.328,0,0,1-28.721-79.008,11.328,11.328,0,0,1-40.036-90.323" transform="translate(40.036 101.638)" fill="#cbcbcb"/>
        </g>
        <g id="g47" transform="translate(39.23 13.802)">
          <path id="path49" d="M0-97.018,16.287-80.731,28.441-92.884,12.154-109.172Z" transform="translate(0 109.172)" fill="#cbcbcb"/>
        </g>
        <g id="g51" transform="translate(38.509 14.523)">
          <path id="path53" d="M0-97.018l3.272,3.272L15.426-105.9l-3.272-3.272Z" transform="translate(0 109.172)" fill="#aaa"/>
        </g>
        <g id="g55" transform="translate(47.401 6.588)">
          <path id="path57" d="M-170.248-219.4l-21.327-21.327,7.19-5.3a4.383,4.383,0,0,1,5.7.429l13.31,13.31a4.383,4.383,0,0,1,.429,5.7Z" transform="translate(191.576 246.879)" fill="#da4a54"/>
        </g>
        <g id="g59" transform="translate(47.401 6.588)">
          <path id="path61" d="M-43.774-92.923l-5.484-5.484,7.189-5.3a4.384,4.384,0,0,1,5.7.429l5.484,5.484a4.382,4.382,0,0,0-5.7-.428Z" transform="translate(49.257 104.563)" fill="#c32430"/>
        </g>
        <g id="g63" transform="translate(7.867 32.523)">
          <path id="path65" d="M-90.323-35.579a6.866,6.866,0,0,0-6.858,6.858,6.866,6.866,0,0,0,6.858,6.858,6.866,6.866,0,0,0,6.858-6.858,6.866,6.866,0,0,0-6.858-6.858m0,18.173a11.328,11.328,0,0,1-11.315-11.315A11.328,11.328,0,0,1-90.323-40.036,11.328,11.328,0,0,1-79.008-28.721,11.328,11.328,0,0,1-90.323-17.406" transform="translate(101.638 40.036)" fill="#cbcbcb"/>
        </g>
        <g id="g67" transform="translate(7.867 32.523)">
          <path id="path69" d="M-14.977-90.325A11.33,11.33,0,0,1-4.6-101.6q-.463-.038-.938-.039A11.329,11.329,0,0,0-16.853-90.325,11.329,11.329,0,0,0-5.538-79.01q.474,0,.938-.039A11.33,11.33,0,0,1-14.977-90.325" transform="translate(16.853 101.64)" fill="#aaa"/>
        </g>
        <g id="g71" transform="translate(8.327 13.802)">
          <path id="path73" d="M-227.036-97.018l-16.287,16.287-12.154-12.154,16.287-16.287Z" transform="translate(255.477 109.172)" fill="#cbcbcb"/>
        </g>
        <g id="g75" transform="translate(8.327 26.817)">
          <path id="path77" d="M-123.138-97.018l-3.272,3.272L-138.564-105.9l3.272-3.272Z" transform="translate(138.564 109.172)" fill="#aaa"/>
        </g>
        <g id="g79" transform="translate(18.516 23.99)">
          <path id="path81" d="M-181.045,0h-6.392l-16.287,16.287L-198.2,33.43h27.925l5.521-17.142" transform="translate(203.725)" fill="#e2dfe2"/>
        </g>
        <g id="g83" transform="translate(9.79 15.265)">
          <path id="path85" d="M-199.669-69.652l-16.287,16.287-8.725-8.726,16.287-16.287Z" transform="translate(224.682 78.377)" fill="none" stroke="#000" stroke-linecap="round" stroke-linejoin="round" stroke-miterlimit="10" stroke-width="2"/>
        </g>
        <g id="g87" transform="translate(13.062 25.226)">
          <path id="path89" d="M-55.7-55.7h0a2.16,2.16,0,0,1-3.054,0l-3.924-3.924,3.054-3.054,3.924,3.924a2.159,2.159,0,0,1,0,3.054" transform="translate(62.679 62.679)" fill="#818181"/>
        </g>
        <g id="g91" transform="translate(19.752 18.537)">
          <path id="path93" d="M-55.7-55.7h0a2.16,2.16,0,0,1-3.054,0l-3.924-3.924,3.054-3.054,3.924,3.924a2.16,2.16,0,0,1,0,3.054" transform="translate(62.679 62.679)" fill="#818181"/>
        </g>
        <g id="g95" transform="translate(1.114 6.588)">
          <path id="path97" d="M-219.4-49.147-240.723-27.82l-5.3-7.19a4.383,4.383,0,0,1,.429-5.7l13.31-13.31a4.383,4.383,0,0,1,5.7-.429Z" transform="translate(246.879 55.304)" fill="#da4a54"/>
        </g>
        <g id="g99" transform="translate(1.113 15.699)">
          <path id="path101" d="M-92.923-102.894l-5.484,5.484-5.3-7.189a4.384,4.384,0,0,1,.429-5.7l5.484-5.484a4.382,4.382,0,0,0-.428,5.7Z" transform="translate(104.563 115.784)" fill="#c32430"/>
        </g>
        <g id="g103" transform="translate(1.113 6.588)">
          <path id="path105" d="M-99.673-27.079l2.108-2.108a4.381,4.381,0,0,1,5.7-.429l7.19,5.3L-106-2.987l-5.3-7.19a4.385,4.385,0,0,1,.429-5.7l8.054-8.054" transform="translate(112.159 30.471)" fill="none" stroke="#000" stroke-linecap="round" stroke-linejoin="round" stroke-miterlimit="10" stroke-width="2"/>
        </g>
        <g id="g107" transform="translate(13.062 25.226)">
          <path id="path109" d="M-55.7-55.7h0a2.16,2.16,0,0,1-3.054,0l-3.924-3.924,3.054-3.054,3.924,3.924A2.159,2.159,0,0,1-55.7-55.7Z" transform="translate(62.679 62.679)" fill="none" stroke="#000" stroke-linecap="round" stroke-linejoin="round" stroke-miterlimit="10" stroke-width="2"/>
        </g>
        <g id="g111" transform="translate(19.752 18.537)">
          <path id="path113" d="M-55.7-55.7h0a2.16,2.16,0,0,1-3.054,0l-3.924-3.924,3.054-3.054,3.924,3.924A2.16,2.16,0,0,1-55.7-55.7Z" transform="translate(62.679 62.679)" fill="none" stroke="#000" stroke-linecap="round" stroke-linejoin="round" stroke-miterlimit="10" stroke-width="2"/>
        </g>
        <g id="g115" transform="translate(55.326 25.226)">
          <path id="path117" d="M-5.049-55.7h0A2.16,2.16,0,0,0-2-55.7l3.924-3.924-3.054-3.054-3.924,3.924a2.159,2.159,0,0,0,0,3.054" transform="translate(5.682 62.679)" fill="#818181"/>
        </g>
        <g id="g119" transform="translate(48.636 18.537)">
          <path id="path121" d="M-5.049-55.7h0a2.16,2.16,0,0,0,3.054,0l3.924-3.924-3.054-3.054-3.924,3.924a2.16,2.16,0,0,0,0,3.054" transform="translate(5.681 62.679)" fill="#818181"/>
        </g>
        <g id="g123" transform="translate(4.501 9.975)">
          <path id="path125" d="M0-162.372l20.341-20.341" transform="translate(0 182.713)" fill="none" stroke="#000" stroke-linecap="round" stroke-linejoin="round" stroke-miterlimit="10" stroke-width="2"/>
        </g>
        <g id="g127" transform="translate(41.195 15.265)">
          <path id="path129" d="M0-69.652,16.287-53.364l8.725-8.726L8.725-78.377Z" transform="translate(0 78.377)" fill="none" stroke="#000" stroke-linecap="round" stroke-linejoin="round" stroke-miterlimit="10" stroke-width="2"/>
        </g>
        <g id="g131" transform="translate(47.401 6.588)">
          <path id="path133" d="M0-49.147,21.327-27.82l5.3-7.19a4.383,4.383,0,0,0-.429-5.7L12.89-54.02a4.383,4.383,0,0,0-5.7-.429Z" transform="translate(0 55.304)" fill="none" stroke="#000" stroke-linecap="round" stroke-linejoin="round" stroke-miterlimit="10" stroke-width="2"/>
        </g>
        <g id="g135" transform="translate(55.326 25.226)">
          <path id="path137" d="M-5.049-55.7h0A2.16,2.16,0,0,0-2-55.7l3.924-3.924-3.054-3.054-3.924,3.924A2.159,2.159,0,0,0-5.049-55.7Z" transform="translate(5.682 62.679)" fill="none" stroke="#000" stroke-linecap="round" stroke-linejoin="round" stroke-miterlimit="10" stroke-width="2"/>
        </g>
        <g id="g139" transform="translate(48.636 18.537)">
          <path id="path141" d="M-5.049-55.7h0a2.16,2.16,0,0,0,3.054,0l3.924-3.924-3.054-3.054-3.924,3.924A2.16,2.16,0,0,0-5.049-55.7Z" transform="translate(5.681 62.679)" fill="none" stroke="#000" stroke-linecap="round" stroke-linejoin="round" stroke-miterlimit="10" stroke-width="2"/>
        </g>
        <g id="g143" transform="translate(51.157 9.975)">
          <path id="path145" d="M-162.372-162.372l-20.341-20.341" transform="translate(182.713 182.713)" fill="none" stroke="#000" stroke-linecap="round" stroke-linejoin="round" stroke-miterlimit="10" stroke-width="2"/>
        </g>
        <g id="g147" transform="translate(18.516 40.277)">
          <path id="path149" d="M-19.106-59.31-21.5-66.74" transform="translate(21.5 66.74)" fill="none" stroke="#000" stroke-linecap="round" stroke-linejoin="round" stroke-miterlimit="10" stroke-width="2"/>
        </g>
        <g id="g151" transform="translate(56.04 40.277)">
          <path id="path153" d="M-11.516,0l-1.443,4.481" transform="translate(12.959)" fill="none" stroke="#000" stroke-linecap="round" stroke-linejoin="round" stroke-miterlimit="10" stroke-width="2"/>
        </g>
        <g id="g155" transform="translate(33.887 57.421)">
          <path id="path157" d="M0,0H18.075" fill="none" stroke="#000" stroke-linecap="round" stroke-linejoin="round" stroke-miterlimit="10" stroke-width="2"/>
        </g>
        <g id="g159" transform="translate(34.803 23.99)">
          <path id="path161" d="M0,0H6.392" transform="translate(0 0)" fill="none" stroke="#000" stroke-linecap="round" stroke-linejoin="round" stroke-miterlimit="10" stroke-width="2"/>
        </g>
        <g id="g163" transform="translate(7.867 34.524)">
          <path id="path165" d="M-39.09,0a11.311,11.311,0,0,0-4.9,9.314,11.335,11.335,0,0,0,9.909,11.229m-1.774-17.3a6.862,6.862,0,0,0-3.68,6.075,6.869,6.869,0,0,0,6.23,6.829" transform="translate(43.987)" fill="none" stroke="#000" stroke-linecap="round" stroke-linejoin="round" stroke-miterlimit="10" stroke-width="2"/>
        </g>
        <g id="g167" transform="translate(57.117 34.525)">
          <path id="path169" d="M-48.4-148.989a11.254,11.254,0,0,1-6.064,1.961m6.117-20.625a11.306,11.306,0,0,1,4.9,9.313,11.244,11.244,0,0,1-1.848,6.19m-6.287-12.264a6.863,6.863,0,0,1,3.678,6.075,6.868,6.868,0,0,1-4.727,6.518" transform="translate(54.467 167.653)" fill="none" stroke="#000" stroke-linecap="round" stroke-linejoin="round" stroke-miterlimit="10" stroke-width="2"/>
        </g>
        <g id="g171" transform="translate(24.037 62.323)">
          <path id="path173" d="M-35.164,0V4.883a2.2,2.2,0,0,1-2.2,2.2,2.2,2.2,0,0,1-2.2-2.2V.065" transform="translate(39.569)" fill="none" stroke="#000" stroke-linecap="round" stroke-linejoin="round" stroke-miterlimit="10" stroke-width="2"/>
        </g>
        <g id="g175" transform="translate(31.877 57.421)">
          <path id="path177" d="M-16.046,0h2.395V9.786a2.2,2.2,0,0,1-2.2,2.2,2.2,2.2,0,0,1-2.2-2.2V2.939" transform="translate(18.056)" fill="none" stroke="#000" stroke-linecap="round" stroke-linejoin="round" stroke-miterlimit="10" stroke-width="2"/>
        </g>
        <g id="g179" transform="translate(39.717 57.42)">
          <path id="path181" d="M-17.581-95.708h0a2.2,2.2,0,0,1-2.2-2.2V-107.7h4.4v9.787A2.2,2.2,0,0,1-17.581-95.708Z" transform="translate(19.784 107.697)" fill="none" stroke="#000" stroke-linecap="round" stroke-linejoin="round" stroke-miterlimit="10" stroke-width="2"/>
        </g>
        <g id="g183" transform="translate(47.557 57.42)">
          <path id="path185" d="M-17.58-95.708h0a2.2,2.2,0,0,1-2.2-2.2V-107.7h4.4v9.787A2.2,2.2,0,0,1-17.58-95.708Z" transform="translate(19.783 107.697)" fill="none" stroke="#000" stroke-linecap="round" stroke-linejoin="round" stroke-miterlimit="10" stroke-width="2"/>
        </g>
        <g id="g187" transform="translate(44.122 67.207)">
          <path id="path189" d="M-27.42,0h-3.435" transform="translate(30.855 0)" fill="none" stroke="#000" stroke-linecap="round" stroke-linejoin="round" stroke-miterlimit="10" stroke-width="2"/>
        </g>
        <g id="g191" transform="translate(28.442 67.207)">
          <path id="path193" d="M-27.42,0h-3.435" transform="translate(30.855 0)" fill="none" stroke="#000" stroke-linecap="round" stroke-linejoin="round" stroke-miterlimit="10" stroke-width="2"/>
        </g>
        <g id="g195" transform="translate(36.282 67.207)">
          <path id="path197" d="M-27.42,0h-3.435" transform="translate(30.855 0)" fill="none" stroke="#000" stroke-linecap="round" stroke-linejoin="round" stroke-miterlimit="10" stroke-width="2"/>
        </g>
        <g id="g199" transform="translate(32.812 33.092)">
          <path id="path201" d="M-82.821-41.41A5.188,5.188,0,0,0-88.008-46.6,5.188,5.188,0,0,0-93.2-41.41a5.187,5.187,0,0,0,5.187,5.187,5.187,5.187,0,0,0,5.188-5.187" transform="translate(93.196 46.597)" fill="#818181"/>
        </g>
        <g id="g203" transform="translate(32.812 33.092)">
          <path id="path205" d="M-82.821-41.41A5.188,5.188,0,0,0-88.008-46.6,5.188,5.188,0,0,0-93.2-41.41a5.187,5.187,0,0,0,5.187,5.187A5.187,5.187,0,0,0-82.821-41.41Z" transform="translate(93.196 46.597)" fill="none" stroke="#000" stroke-linecap="round" stroke-linejoin="round" stroke-miterlimit="10" stroke-width="2"/>
        </g>
        <g id="g207" transform="translate(44.975 43.445)">
          <path id="path209" d="M-111.556-55.778a6.987,6.987,0,0,0-6.987-6.987,6.987,6.987,0,0,0-6.987,6.987,6.987,6.987,0,0,0,6.987,6.987,6.987,6.987,0,0,0,6.987-6.987" transform="translate(125.53 62.765)" fill="#818181"/>
        </g>
        <g id="g211" transform="translate(44.975 43.445)">
          <path id="path213" d="M-111.556-55.778a6.987,6.987,0,0,0-6.987-6.987,6.987,6.987,0,0,0-6.987,6.987,6.987,6.987,0,0,0,6.987,6.987A6.987,6.987,0,0,0-111.556-55.778Z" transform="translate(125.53 62.765)" fill="none" stroke="#000" stroke-linecap="round" stroke-linejoin="round" stroke-miterlimit="10" stroke-width="2"/>
        </g>
        <g id="g215" transform="translate(17.74 45.891)">
          <path id="path217" d="M-133.782-66.891a8.38,8.38,0,0,0-8.38-8.38,8.38,8.38,0,0,0-8.38,8.38,8.38,8.38,0,0,0,8.38,8.38,8.38,8.38,0,0,0,8.38-8.38" transform="translate(150.541 75.27)" fill="#818181"/>
        </g>
        <g id="g219" transform="translate(17.74 45.891)">
          <path id="path221" d="M-133.782-66.891a8.38,8.38,0,0,0-8.38-8.38,8.38,8.38,0,0,0-8.38,8.38,8.38,8.38,0,0,0,8.38,8.38A8.38,8.38,0,0,0-133.782-66.891Z" transform="translate(150.541 75.27)" fill="none" stroke="#000" stroke-linecap="round" stroke-linejoin="round" stroke-miterlimit="10" stroke-width="2"/>
        </g>
        <g id="g223" transform="translate(23.873 52.023)">
          <path id="path225" d="M-35.872-17.936a2.247,2.247,0,0,0-2.247-2.247,2.247,2.247,0,0,0-2.247,2.247,2.247,2.247,0,0,0,2.247,2.247,2.247,2.247,0,0,0,2.247-2.247" transform="translate(40.365 20.183)" fill="#e2dfe2"/>
        </g>
        <g id="g227" transform="translate(23.873 52.023)">
          <path id="path229" d="M-35.872-17.936a2.247,2.247,0,0,0-2.247-2.247,2.247,2.247,0,0,0-2.247,2.247,2.247,2.247,0,0,0,2.247,2.247A2.247,2.247,0,0,0-35.872-17.936Z" transform="translate(40.365 20.183)" fill="none" stroke="#000" stroke-linecap="round" stroke-linejoin="round" stroke-miterlimit="10" stroke-width="2"/>
        </g>
        <g id="g231" transform="translate(49.715 48.186)">
          <path id="path233" d="M-35.872-17.936a2.247,2.247,0,0,0-2.247-2.247,2.247,2.247,0,0,0-2.247,2.247,2.247,2.247,0,0,0,2.247,2.247,2.247,2.247,0,0,0,2.247-2.247" transform="translate(40.365 20.183)" fill="#e2dfe2"/>
        </g>
        <g id="g235" transform="translate(49.715 48.186)">
          <path id="path237" d="M-35.872-17.936a2.247,2.247,0,0,0-2.247-2.247,2.247,2.247,0,0,0-2.247,2.247,2.247,2.247,0,0,0,2.247,2.247A2.247,2.247,0,0,0-35.872-17.936Z" transform="translate(40.365 20.183)" fill="none" stroke="#000" stroke-linecap="round" stroke-linejoin="round" stroke-miterlimit="10" stroke-width="2"/>
        </g>
        <g id="g239" transform="translate(19.546 34.432)">
          <path id="path241" d="M0-116.876l14.973-14.641" transform="translate(0 131.517)" fill="none" stroke="#000" stroke-linecap="round" stroke-linejoin="round" stroke-miterlimit="10" stroke-width="2"/>
        </g>
        <g id="g243" transform="translate(41.542 34.491)">
          <path id="path245" d="M0,0,13.284,9.569" fill="none" stroke="#000" stroke-linecap="round" stroke-linejoin="round" stroke-miterlimit="10" stroke-width="2"/>
        </g>
        <g id="g247" transform="translate(31.877 46.911)">
          <path id="path249" d="M0-107.352,14.049-120.8" transform="translate(0 120.8)" fill="none" stroke="#000" stroke-linecap="round" stroke-linejoin="round" stroke-miterlimit="10" stroke-width="2"/>
        </g>
      </g>
    </g>
  </g>
</svg>
