<svg xmlns="http://www.w3.org/2000/svg" xmlns:xlink="http://www.w3.org/1999/xlink" width="125" height="125" viewBox="0 0 125 125">
  <defs>
    <clipPath id="clip-path">
      <path id="path4965" d="M0-682.665H69.335v69.335H0Z" transform="translate(0 682.665)"/>
    </clipPath>
  </defs>
  <g id="Group_1118042" data-name="Group 1118042" transform="translate(-685.737 -4621.57)">
    <circle id="Ellipse_11953" data-name="Ellipse 11953" cx="62.5" cy="62.5" r="62.5" transform="translate(685.737 4621.57)" fill="#e8e8e8"/>
    <g id="Group_1118040" data-name="Group 1118040">
      <g id="g4959" transform="translate(713.665 5332.235)">
        <g id="g4961" transform="translate(0 -682.665)">
          <g id="g4963" clip-path="url(#clip-path)">
            <g id="g4969" transform="translate(1.016 1.016)">
              <path id="path4971" d="M-409.01-461.371l-7.138-7.138a11.837,11.837,0,0,0-8.064-3.449,10.237,10.237,0,0,1-6.848-2.853A10.272,10.272,0,0,1-433.829-485a.436.436,0,0,1,.727-.19l6.325,6.325a.4.4,0,0,0,.384.1l4.445-1.191a.4.4,0,0,0,.281-.281l1.191-4.445a.4.4,0,0,0-.1-.384l-6.325-6.325a.436.436,0,0,1,.193-.728,10.272,10.272,0,0,1,10.043,2.629,10.24,10.24,0,0,1,3,6.939,11.985,11.985,0,0,0,3.451,8.13l7.122,7.122,2.278.831a.2.2,0,0,0,.244-.089l2.387-4.134a.2.2,0,0,0-.045-.255l-4.344-3.64a.2.2,0,0,1-.058-.226,24.142,24.142,0,0,0,1.349-5.048.2.2,0,0,1,.163-.167l5.587-.981a.2.2,0,0,0,.167-.2v-4.774a.2.2,0,0,0-.167-.2l-5.587-.981a.2.2,0,0,1-.163-.167,24.14,24.14,0,0,0-1.349-5.048.2.2,0,0,1,.058-.226l4.344-3.64a.2.2,0,0,0,.045-.256l-2.387-4.134a.2.2,0,0,0-.244-.089l-5.332,1.945a.2.2,0,0,1-.225-.063,24.456,24.456,0,0,0-3.692-3.692.2.2,0,0,1-.063-.225l1.945-5.331a.2.2,0,0,0-.089-.244l-4.134-2.387a.2.2,0,0,0-.256.045l-3.64,4.344a.2.2,0,0,1-.226.058,24.144,24.144,0,0,0-5.048-1.348.2.2,0,0,1-.167-.163l-.981-5.587a.2.2,0,0,0-.2-.167h-4.774a.2.2,0,0,0-.2.167l-.981,5.587a.2.2,0,0,1-.167.163,24.141,24.141,0,0,0-5.048,1.348.2.2,0,0,1-.226-.058l-3.64-4.344a.2.2,0,0,0-.256-.045l-4.134,2.387a.2.2,0,0,0-.089.244l1.945,5.332a.2.2,0,0,1-.063.225,24.462,24.462,0,0,0-3.692,3.692.2.2,0,0,1-.225.063l-5.332-1.945a.2.2,0,0,0-.244.089l-2.387,4.134a.2.2,0,0,0,.045.256l4.344,3.64a.2.2,0,0,1,.058.226,24.141,24.141,0,0,0-1.348,5.048.2.2,0,0,1-.163.167l-5.587.981a.2.2,0,0,0-.167.2v4.774a.2.2,0,0,0,.167.2l5.587.981a.2.2,0,0,1,.163.167,24.132,24.132,0,0,0,1.349,5.048.2.2,0,0,1-.058.226l-4.344,3.64a.2.2,0,0,0-.045.255l2.387,4.135a.2.2,0,0,0,.244.089l5.332-1.945a.2.2,0,0,1,.225.063,24.453,24.453,0,0,0,3.692,3.692.2.2,0,0,1,.063.225l-1.945,5.332a.2.2,0,0,0,.089.244l4.134,2.387a.2.2,0,0,0,.256-.045l3.64-4.344a.2.2,0,0,1,.226-.058,24.138,24.138,0,0,0,5.048,1.349.2.2,0,0,1,.167.163l.981,5.587a.2.2,0,0,0,.2.167h4.774a.2.2,0,0,0,.2-.167l.981-5.587a.2.2,0,0,1,.167-.163,24.137,24.137,0,0,0,5.048-1.349.2.2,0,0,1,.226.058l3.64,4.344a.2.2,0,0,0,.256.045l4.134-2.387a.2.2,0,0,0,.089-.244Z" transform="translate(455.247 513.528)" fill="#8eaadf"/>
            </g>
            <g id="g4973" transform="translate(37.931 3.807)">
              <path id="path4975" d="M-201.689-217.3l-5.587-.981a.2.2,0,0,1-.163-.167,24.139,24.139,0,0,0-1.348-5.048.2.2,0,0,1,.058-.226l4.344-3.64a.2.2,0,0,0,.045-.255l-2.387-4.134a.2.2,0,0,0-.244-.089l-5.332,1.945a.2.2,0,0,1-.225-.063,24.453,24.453,0,0,0-3.692-3.692.2.2,0,0,1-.063-.225l1.945-5.332a.2.2,0,0,0-.089-.244l-4.134-2.387a.2.2,0,0,0-.256.045l-3.64,4.344a.2.2,0,0,1-.226.058q-.887-.344-1.808-.619a24.012,24.012,0,0,1,11.634,20.587,23.913,23.913,0,0,1-3.277,12.12l6.884,6.884,2.278.831a.2.2,0,0,0,.244-.089l2.387-4.134a.2.2,0,0,0-.045-.255l-4.344-3.64a.2.2,0,0,1-.058-.226,24.139,24.139,0,0,0,1.348-5.048.2.2,0,0,1,.163-.167l5.587-.981a.2.2,0,0,0,.167-.2V-217.1a.2.2,0,0,0-.167-.2" transform="translate(224.489 241.863)" fill="#698ed5"/>
            </g>
            <g id="g4977" transform="translate(12.674 12.674)">
              <path id="path4979" d="M-242.743-295.106a11.837,11.837,0,0,0-8.064-3.449,10.237,10.237,0,0,1-6.848-2.853,10.272,10.272,0,0,1-2.77-10.184.436.436,0,0,1,.727-.19l6.325,6.325a.4.4,0,0,0,.384.1l4.445-1.191a.4.4,0,0,0,.281-.281l1.191-4.445a.4.4,0,0,0-.1-.384l-6.325-6.325a.436.436,0,0,1,.193-.728,10.272,10.272,0,0,1,10.043,2.629,10.24,10.24,0,0,1,3,6.939,11.985,11.985,0,0,0,3.451,8.13l.453.453a18.2,18.2,0,0,0,2.738-9.626A18.283,18.283,0,0,0-251.9-328.467a18.283,18.283,0,0,0-18.283,18.283A18.283,18.283,0,0,0-251.9-291.9a18.2,18.2,0,0,0,9.626-2.738Z" transform="translate(270.185 328.467)" fill="#4073c8"/>
            </g>
            <g id="g4981" transform="translate(20.192 43.325)">
              <path id="path4983" d="M-138.831,0a18.2,18.2,0,0,1-10.346,3.207,18.268,18.268,0,0,1-5.349-.8,18.2,18.2,0,0,0,10.765,3.5,18.2,18.2,0,0,0,9.626-2.738l-.468-.468A11.759,11.759,0,0,0-138.831,0" transform="translate(154.525)" fill="#3b66c1"/>
            </g>
            <g id="g4985" transform="translate(36.304 13.468)">
              <path id="path4987" d="M0,0A18.258,18.258,0,0,1,7.519,14.781a18.26,18.26,0,0,1-.972,5.9,11.817,11.817,0,0,0,3.2,5.985l.453.453a18.2,18.2,0,0,0,2.738-9.626A18.291,18.291,0,0,0,0,0" fill="#3b66c1"/>
            </g>
            <g id="g4989" transform="translate(22.844 22.844)">
              <path id="path4991" d="M-2.8-57.629,3.522-51.3a.4.4,0,0,0,.384.1L8.35-52.393a.4.4,0,0,0,.281-.281l1.191-4.445a.4.4,0,0,0-.1-.384L3.395-63.827a.428.428,0,0,1-.127-.317A8.3,8.3,0,0,0-3.12-57.756a.429.429,0,0,1,.317.127" transform="translate(3.12 64.144)" fill="#8eaadf"/>
            </g>
            <g id="g4993" transform="translate(26.115 26.115)">
              <path id="path4995" d="M-84.639-29.814l-3.254-3.254a.4.4,0,0,0-.384-.1l-4.445,1.191A.4.4,0,0,0-93-31.7l-1.191,4.445a.4.4,0,0,0,.1.384l3.254,3.254a.4.4,0,0,0,.384.1l4.445-1.191a.4.4,0,0,0,.281-.281l1.191-4.445a.4.4,0,0,0-.1-.384" transform="translate(94.207 33.184)" fill="#d3ced5"/>
            </g>
            <g id="g4997" transform="translate(27.473 26.115)">
              <path id="path4999" d="M-72.624-29.814l-3.254-3.254a.4.4,0,0,0-.384-.1l-.312.084,1.242,1.242a.4.4,0,0,1,.1.384l-1.191,4.445a.4.4,0,0,1-.281.281l-4.132,1.107,2.012,2.012a.4.4,0,0,0,.384.1l4.445-1.191a.4.4,0,0,0,.281-.281l1.191-4.445a.4.4,0,0,0-.1-.384" transform="translate(80.834 33.184)" fill="#c3bec6"/>
            </g>
            <g id="g5001" transform="translate(22.052 22.052)">
              <path id="path5003" d="M-155.172-26.623a10.272,10.272,0,0,0-10.043-2.629.436.436,0,0,0-.193.728l6.325,6.325a.4.4,0,0,1,.1.384l-1.191,4.445a.4.4,0,0,1-.281.281L-164.9-15.9a.4.4,0,0,1-.384-.1l-6.325-6.325a.436.436,0,0,0-.727.19,10.272,10.272,0,0,0,2.77,10.184A10.237,10.237,0,0,0-162.715-9.1a11.837,11.837,0,0,1,8.064,3.449l21.059,21.059a4.185,4.185,0,0,0,5.919,0,4.185,4.185,0,0,0,0-5.919l-21.044-21.044a11.983,11.983,0,0,1-3.451-8.13,10.24,10.24,0,0,0-3-6.939" transform="translate(172.714 29.633)" fill="#b4acb7"/>
            </g>
            <g id="g5005" transform="translate(26.115 26.115)">
              <path id="path5007" d="M-55.855-1.03a.4.4,0,0,0-.384-.1L-60.684.058a.4.4,0,0,0-.281.281l-1.191,4.445a.4.4,0,0,0,.1.384" transform="translate(62.17 1.147)" fill="none" stroke="#000" stroke-linecap="round" stroke-linejoin="round" stroke-miterlimit="10" stroke-width="2"/>
            </g>
            <g id="g5009" transform="translate(22.052 22.052)">
              <path id="path5011" d="M-286.621-338.983l6.72,6.72a4.185,4.185,0,0,0,5.919,0,4.185,4.185,0,0,0,0-5.919l-21.044-21.044a11.984,11.984,0,0,1-3.451-8.13,10.24,10.24,0,0,0-3-6.939,10.272,10.272,0,0,0-10.043-2.629.436.436,0,0,0-.193.728l6.324,6.325a.4.4,0,0,1,.1.384l-1.191,4.445a.4.4,0,0,1-.281.281l-4.445,1.191a.4.4,0,0,1-.384-.1L-317.914-370a.436.436,0,0,0-.727.19,10.272,10.272,0,0,0,2.77,10.184,10.237,10.237,0,0,0,6.848,2.853,11.837,11.837,0,0,1,8.064,3.449l10.849,10.849" transform="translate(319.022 377.304)" fill="none" stroke="#000" stroke-linecap="round" stroke-linejoin="round" stroke-miterlimit="10" stroke-width="2"/>
            </g>
            <g id="g5013" transform="translate(12.674 12.674)">
              <path id="path5015" d="M-232.584-16.3a18.211,18.211,0,0,0-8.01-1.843A18.283,18.283,0,0,0-258.877.135a18.283,18.283,0,0,0,18.283,18.283,18.2,18.2,0,0,0,9.626-2.738" transform="translate(258.877 18.148)" fill="none" stroke="#000" stroke-linecap="round" stroke-linejoin="round" stroke-miterlimit="10" stroke-width="2"/>
            </g>
            <g id="g5017" transform="translate(42.909 17.121)">
              <path id="path5019" d="M-31.784-207.54a18.2,18.2,0,0,0,2.738-9.626A18.241,18.241,0,0,0-35.377-231" transform="translate(35.377 231.002)" fill="none" stroke="#000" stroke-linecap="round" stroke-linejoin="round" stroke-miterlimit="10" stroke-width="2"/>
            </g>
            <g id="g5021" transform="translate(1.016 1.016)">
              <path id="path5023" d="M-461.371-409.01l2.278.831a.2.2,0,0,0,.244-.089l2.387-4.134a.2.2,0,0,0-.045-.256l-4.344-3.64a.2.2,0,0,1-.058-.226,24.142,24.142,0,0,0,1.349-5.048.2.2,0,0,1,.163-.167l5.587-.981a.2.2,0,0,0,.167-.2v-4.774a.2.2,0,0,0-.167-.2l-5.587-.981a.2.2,0,0,1-.163-.167,24.14,24.14,0,0,0-1.349-5.048.2.2,0,0,1,.058-.226l4.344-3.64a.2.2,0,0,0,.045-.256l-2.387-4.134a.2.2,0,0,0-.244-.089l-5.332,1.945a.2.2,0,0,1-.225-.063,24.456,24.456,0,0,0-3.692-3.692.2.2,0,0,1-.063-.225l1.945-5.332a.2.2,0,0,0-.089-.244l-4.134-2.387a.2.2,0,0,0-.255.045l-3.64,4.344a.2.2,0,0,1-.226.058,24.144,24.144,0,0,0-5.048-1.348.2.2,0,0,1-.167-.163L-481-455.08a.2.2,0,0,0-.2-.167h-4.774a.2.2,0,0,0-.2.167l-.981,5.587a.2.2,0,0,1-.167.163,24.141,24.141,0,0,0-5.048,1.348.2.2,0,0,1-.226-.058l-3.64-4.344a.2.2,0,0,0-.256-.045l-4.134,2.387a.2.2,0,0,0-.089.244l1.945,5.332a.2.2,0,0,1-.063.225,24.46,24.46,0,0,0-3.692,3.692.2.2,0,0,1-.225.063l-5.331-1.945a.2.2,0,0,0-.244.089l-2.387,4.134a.2.2,0,0,0,.045.256l4.344,3.64a.2.2,0,0,1,.058.226,24.141,24.141,0,0,0-1.348,5.048.2.2,0,0,1-.163.167l-5.587.981a.2.2,0,0,0-.167.2v4.774a.2.2,0,0,0,.167.2l5.587.981a.2.2,0,0,1,.163.167,24.132,24.132,0,0,0,1.349,5.048.2.2,0,0,1-.058.226l-4.344,3.64a.2.2,0,0,0-.045.256l2.387,4.134a.2.2,0,0,0,.244.089l5.331-1.945a.2.2,0,0,1,.225.063,24.453,24.453,0,0,0,3.692,3.692.2.2,0,0,1,.063.225l-1.945,5.332a.2.2,0,0,0,.089.244l4.134,2.387a.2.2,0,0,0,.256-.045l3.64-4.344a.2.2,0,0,1,.226-.058,24.138,24.138,0,0,0,5.048,1.349.2.2,0,0,1,.167.163l.981,5.587a.2.2,0,0,0,.2.167h4.774a.2.2,0,0,0,.2-.167l.981-5.587a.2.2,0,0,1,.167-.163,24.138,24.138,0,0,0,5.048-1.349.2.2,0,0,1,.226.058l3.64,4.344a.2.2,0,0,0,.255.045l4.135-2.387a.2.2,0,0,0,.089-.244l-.831-2.278" transform="translate(513.528 455.247)" fill="none" stroke="#000" stroke-linecap="round" stroke-linejoin="round" stroke-miterlimit="10" stroke-width="2"/>
            </g>
            <g id="g5025" transform="translate(62.022 62.022)">
              <path id="path5027" d="M0,0,2.478,2.478" fill="none" stroke="#000" stroke-linecap="round" stroke-linejoin="round" stroke-miterlimit="10" stroke-width="2"/>
            </g>
            <g id="g5029" transform="translate(22.844 27.089)">
              <path id="path5031" d="M-6.86,0a8.238,8.238,0,0,0-.776,2.142" transform="translate(7.636)" fill="none" stroke="#000" stroke-linecap="round" stroke-linejoin="round" stroke-miterlimit="10" stroke-width="2"/>
            </g>
            <g id="g5033" transform="translate(26.917 22.844)">
              <path id="path5035" d="M-20.471,0a8.242,8.242,0,0,0-2.314.869" transform="translate(22.785)" fill="none" stroke="#000" stroke-linecap="round" stroke-linejoin="round" stroke-miterlimit="10" stroke-width="2"/>
            </g>
          </g>
        </g>
      </g>
    </g>
  </g>
</svg>
