<svg xmlns="http://www.w3.org/2000/svg" width="125" height="125" viewBox="0 0 125 125">
  <g id="Group_1118041" data-name="Group 1118041" transform="translate(-1000.737 -4621.57)">
    <circle id="Ellipse_11954" data-name="Ellipse 11954" cx="62.5" cy="62.5" r="62.5" transform="translate(1000.737 4621.57)" fill="#e8e8e8"/>
    <g id="Group_1117409" data-name="Group 1117409" transform="translate(1018.025 4630)">
      <g id="Group_1117408" data-name="Group 1117408" transform="translate(4.346 16.958)">
        <g id="Group_1117407" data-name="Group 1117407" transform="translate(0 0)">
          <g id="Group_1117406" data-name="Group 1117406">
            <path id="Path_908735" data-name="Path 908735" d="M75.052,31.694l-4.91,4.91A28.874,28.874,0,0,0,18.681,51.363h3.726A1.724,1.724,0,0,1,23.9,53.951l-7.337,12.71a1.726,1.726,0,0,1-2.991,0L6.236,53.952A1.724,1.724,0,0,1,7.73,51.363h4.011A35.773,35.773,0,0,1,47.374,18.61h.034A35.666,35.666,0,0,1,75.052,31.694Z" transform="translate(-6.001 -18.61)" fill="#fc5d3d"/>
            <path id="Path_908736" data-name="Path 908736" d="M46.466,129.04l4.91-4.91a28.874,28.874,0,0,0,51.461-14.758H99.111a1.724,1.724,0,0,1-1.494-2.588l7.337-12.71a1.726,1.726,0,0,1,2.991,0l7.337,12.71a1.724,1.724,0,0,1-1.494,2.588h-4.011a35.773,35.773,0,0,1-35.633,32.753h-.034A35.668,35.668,0,0,1,46.466,129.04Z" transform="translate(-32.737 -67.9)" fill="#72c1e8"/>
          </g>
        </g>
        <path id="Path_908737" data-name="Path 908737" d="M110.285,79.746v22.31H73.42V79.746a2.12,2.12,0,0,1,2.12-2.117h32.624A2.12,2.12,0,0,1,110.285,79.746Z" transform="translate(-50.547 -57.606)" fill="#aeaeae"/>
        <path id="Path_908738" data-name="Path 908738" d="M84.166,88.371H113.74v17.138H84.166Z" transform="translate(-57.647 -64.703)" fill="#efefef"/>
        <path id="Path_908739" data-name="Path 908739" d="M95.055,109.61a4.721,4.721,0,0,1,0-9.443h16.116a4.721,4.721,0,0,1,0,9.443Z" transform="translate(-61.723 -72.498)" fill="#aeaeae"/>
        <path id="Path_908740" data-name="Path 908740" d="M108.256,150.648V152.4a3.394,3.394,0,0,1-3.393,3.393h-37A3.394,3.394,0,0,1,64.47,152.4v-1.751a1.019,1.019,0,0,1,1.018-1.018h41.75A1.019,1.019,0,0,1,108.256,150.648Z" transform="translate(-44.633 -105.179)" fill="#aeaeae"/>
        <path id="Path_908741" data-name="Path 908741" d="M125.178,149.63v1.384a1.7,1.7,0,0,1-1.7,1.7h-7.555a1.7,1.7,0,0,1-1.7-1.7V149.63Z" transform="translate(-77.512 -105.179)" fill="#868686"/>
        <path id="Path_908742" data-name="Path 908742" d="M118.141,109.516a2.346,2.346,0,0,1-2.346,2.346H99.676a2.346,2.346,0,0,1,0-4.692h16.118A2.346,2.346,0,0,1,118.141,109.516Z" transform="translate(-66.345 -77.125)" fill="#efefef"/>
        <path id="Path_908743" data-name="Path 908743" d="M110.534,107.17v4.692H99.676a2.346,2.346,0,0,1,0-4.692Z" transform="translate(-66.345 -77.125)" fill="#13bf6d"/>
      </g>
      <path id="Path_908744" data-name="Path 908744" d="M31.212,57.479a.848.848,0,0,1-.775-.916q.043-.522.1-1.039a.848.848,0,0,1,1.685.194q-.056.491-.1.986a.848.848,0,0,1-.916.775Zm.55-4.373a.848.848,0,0,1-.643-1.013A33.227,33.227,0,0,1,87.042,35.9a.848.848,0,0,1-1.2,1.2,31.282,31.282,0,0,0-22.289-9.246A31.7,31.7,0,0,0,32.774,52.463a.848.848,0,0,1-1.012.643Z" transform="translate(-17.799 -6.64)" fill="#ffcbc3"/>
      <path id="Path_908745" data-name="Path 908745" d="M81.753,168.84h-.034a32.966,32.966,0,0,1-23.49-9.744.848.848,0,0,1,1.2-1.2,31.281,31.281,0,0,0,22.289,9.246h.034A31.7,31.7,0,0,0,112.5,142.537a.848.848,0,1,1,1.656.37A33.241,33.241,0,0,1,81.753,168.84Zm32.038-28.618a.848.848,0,0,1-.745-.94q.056-.491.1-.986a.848.848,0,0,1,1.69.141q-.043.522-.1,1.039A.848.848,0,0,1,113.791,140.222Z" transform="translate(-36 -80.219)" fill="#c5e5fe"/>
      <path id="Path_908746" data-name="Path 908746" d="M130.062,37.395a.847.847,0,1,0-.875.818A.846.846,0,0,0,130.062,37.395Z" transform="translate(-82.507 -13.485)"/>
      <path id="Path_908747" data-name="Path 908747" d="M139.034,39.112A27.864,27.864,0,0,1,156.9,49.558a.848.848,0,1,0,1.337-1.045,29.645,29.645,0,0,0-18.945-11.08.864.864,0,0,0-.967.712.85.85,0,0,0,.712.967Z" transform="translate(-89.077 -14.083)"/>
      <path id="Path_908748" data-name="Path 908748" d="M3.847,52.724l7.335,12.709a2.574,2.574,0,0,0,4.461,0l7.338-12.709a2.575,2.575,0,0,0-2.229-3.861H17.984a28.165,28.165,0,0,1,25.4-24.054.85.85,0,0,0,.777-.913.859.859,0,0,0-.916-.777,29.7,29.7,0,0,0-27.067,26.5.848.848,0,0,0,.845.936h3.725a.879.879,0,0,1,.76,1.316L14.174,64.584a.874.874,0,0,1-1.52,0L5.316,51.875a.875.875,0,0,1,.76-1.316h4.01a.854.854,0,0,0,.845-.777A35.1,35.1,0,0,1,45.719,17.806h.034A34.794,34.794,0,0,1,72.742,30.58a.872.872,0,0,0,1.194.119.849.849,0,0,0,.119-1.191v0a36.511,36.511,0,0,0-28.3-13.394h-.034a36.611,36.611,0,0,0-36.4,32.753H6.076a2.573,2.573,0,0,0-2.229,3.861Z" transform="translate(0)"/>
      <path id="Path_908749" data-name="Path 908749" d="M122.639,215.307a.849.849,0,1,0,.875-.818A.851.851,0,0,0,122.639,215.307Z" transform="translate(-78.722 -131.075)"/>
      <path id="Path_908750" data-name="Path 908750" d="M108.9,108.569h3.237a2.575,2.575,0,0,0,2.229-3.861L107.029,92a2.577,2.577,0,0,0-4.465,0l-7.335,12.709a2.577,2.577,0,0,0,2.229,3.861h2.768a28.165,28.165,0,0,1-25.4,24.054.842.842,0,0,0-.774.913.852.852,0,0,0,.913.777,29.7,29.7,0,0,0,27.067-26.5.85.85,0,0,0-.845-.936H97.458a.876.876,0,0,1-.76-1.316l7.338-12.709a.877.877,0,0,1,1.523,0l7.335,12.709a.875.875,0,0,1-.76,1.316h-4.01a.854.854,0,0,0-.845.777,35.1,35.1,0,0,1-34.788,31.976h-.034a34.794,34.794,0,0,1-26.989-12.773.872.872,0,0,0-1.194-.119.845.845,0,0,0-.119,1.191v0a36.523,36.523,0,0,0,28.3,13.394h.034A36.617,36.617,0,0,0,108.9,108.569Z" transform="translate(-26.739 -49.291)"/>
      <path id="Path_908751" data-name="Path 908751" d="M58.766,182.046a.849.849,0,0,0-.146,1.191,29.647,29.647,0,0,0,18.945,11.08.848.848,0,0,0,.258-1.676,0,0,0,0,0,0,0,27.864,27.864,0,0,1-17.862-10.446A.87.87,0,0,0,58.766,182.046Z" transform="translate(-36.304 -109.526)"/>
      <path id="Path_908752" data-name="Path 908752" d="M65.006,78.094V99.556h-1.17a1.868,1.868,0,0,0-1.866,1.866v1.751a4.245,4.245,0,0,0,4.241,4.241h37a4.245,4.245,0,0,0,4.241-4.241v-1.751a1.868,1.868,0,0,0-1.866-1.866h-2.019V78.094a2.97,2.97,0,0,0-2.969-2.965H67.975A2.97,2.97,0,0,0,65.006,78.094Zm40.749,23.328v1.751a2.547,2.547,0,0,1-2.544,2.544h-37a2.547,2.547,0,0,1-2.544-2.544v-1.751a.17.17,0,0,1,.17-.17H78.852v.536a2.547,2.547,0,0,0,2.544,2.544h7.555a2.547,2.547,0,0,0,2.544-2.544v-.536h14.09A.17.17,0,0,1,105.756,101.422Zm-25.207-.17H89.8v.536a.849.849,0,0,1-.848.848H81.4a.849.849,0,0,1-.848-.848Zm21.323-23.159V99.556H66.7V78.094a1.272,1.272,0,0,1,1.272-1.269H100.6A1.272,1.272,0,0,1,101.871,78.094Z" transform="translate(-38.636 -38.996)"/>
      <path id="Path_908753" data-name="Path 908753" d="M82.514,104.706h29.574a.848.848,0,0,0,.848-.848V86.719a.848.848,0,0,0-.848-.848H82.514a.848.848,0,0,0-.848.848v17.138A.848.848,0,0,0,82.514,104.706Zm.848-17.138H111.24v15.442H83.362Z" transform="translate(-51.65 -46.093)"/>
      <path id="Path_908754" data-name="Path 908754" d="M114.143,104.667H98.027a3.195,3.195,0,0,0,0,6.389h16.116a3.195,3.195,0,0,0,0-6.389Zm-17.614,3.194a1.5,1.5,0,0,1,1.5-1.5h10.009v3H98.027A1.5,1.5,0,0,1,96.529,107.861Zm17.614,1.5h-4.411v-3h4.411a1.5,1.5,0,0,1,0,3Z" transform="translate(-60.349 -58.513)"/>
    </g>
  </g>
</svg>
