<svg xmlns="http://www.w3.org/2000/svg" xmlns:xlink="http://www.w3.org/1999/xlink" width="67.642" height="67.642" viewBox="0 0 67.642 67.642">
  <defs>
    <clipPath id="clip-path">
      <path id="path3515" d="M0-682.665H67.642v67.642H0Z" transform="translate(0 682.665)"/>
    </clipPath>
  </defs>
  <g id="g3501" transform="translate(0 682.665)">
    <g id="g3503" transform="translate(39.241 -663.754)">
      <path id="path3505" d="M-67.809-176.43l-7.458-7.458,11.946-11.946,7.458,7.458Z" transform="translate(75.266 195.834)" fill="#838383"/>
    </g>
    <g id="g3507" transform="translate(45.119 -663.754)">
      <path id="path3509" d="M-55.177,0l-1.58,1.58,5.878,5.878L-61.245,17.824l1.58,1.58L-47.719,7.458Z" transform="translate(61.245)" fill="#6d6d6d"/>
    </g>
    <g id="g3511" transform="translate(0 -682.665)">
      <g id="g3513" clip-path="url(#clip-path)">
        <g id="g3519" transform="translate(49.85 11.742)">
          <path id="path3521" d="M-144.191-104.661-155.7-116.172l-3.823,3.823a1.791,1.791,0,0,0,0,2.533l8.978,8.978a1.791,1.791,0,0,0,2.533,0Z" transform="translate(160.049 116.172)" fill="#cecece"/>
        </g>
        <g id="g3523" transform="translate(52.617 11.742)">
          <path id="path3525" d="M-14.365,0l-1.58,1.58,9.931,9.931-2.637,2.633a1.784,1.784,0,0,1-1.227.523l.667.667a1.791,1.791,0,0,0,2.533,0l3.823-3.823Z" transform="translate(15.945)" fill="silver"/>
        </g>
        <g id="g3527" transform="translate(54.197 10.884)">
          <path id="path3529" d="M-104.66-112.462l-11.511-11.511,4.4-.822a2.132,2.132,0,0,1,1.9.588l5.532,5.532a2.131,2.131,0,0,1,.579,1.946Z" transform="translate(116.17 124.831)" fill="#8795de"/>
        </g>
        <g id="g3531" transform="translate(56.978 10.884)">
          <path id="path3533" d="M-82.271-55.979-87.8-61.511a2.132,2.132,0,0,0-1.9-.588l-1.617.3a2.132,2.132,0,0,1,.357.286l5.532,5.532a2.132,2.132,0,0,1,.579,1.946l-.348,1.655,2.611,2.611.9-4.266a2.132,2.132,0,0,0-.579-1.946" transform="translate(91.32 62.136)" fill="#6c7fd8"/>
        </g>
        <g id="g3535" transform="translate(8.997 18.911)">
          <path id="path3537" d="M-176.423-108.626l-7.458,7.458-6.143-6.143-5.8-5.8,7.458-7.458,6.767,6.767Z" transform="translate(195.826 120.573)" fill="#838383"/>
        </g>
        <g id="g3539" transform="translate(14.874 18.911)">
          <path id="path3541" d="M-14.364,0l-1.58,1.58L-5.577,11.946l-5.878,5.878,1.58,1.58,7.458-7.458Z" transform="translate(15.944)" fill="#6d6d6d"/>
        </g>
        <g id="g3543" transform="translate(1.934 11.742)">
          <path id="path3545" d="M0-104.661l11.511-11.511,3.823,3.823a1.791,1.791,0,0,1,0,2.533l-8.978,8.978a1.791,1.791,0,0,1-2.533,0Z" transform="translate(0 116.172)" fill="#cecece"/>
        </g>
        <g id="g3547" transform="translate(4.814 11.742)">
          <path id="path3549" d="M-113.23-34.761l-3.823-3.823-1.58,1.58,2.243,2.243a1.791,1.791,0,0,1,0,2.533l-7.575,7.57a1.789,1.789,0,0,1-1.718.465l.942.942a1.791,1.791,0,0,0,2.533,0l8.978-8.978a1.791,1.791,0,0,0,0-2.533" transform="translate(125.684 38.584)" fill="silver"/>
        </g>
        <g id="g3551" transform="translate(0.991 10.884)">
          <path id="path3553" d="M-8.572-112.462,2.939-123.973l-4.4-.822a2.132,2.132,0,0,0-1.9.588l-5.532,5.532a2.131,2.131,0,0,0-.579,1.946Z" transform="translate(9.514 124.831)" fill="#8795de"/>
        </g>
        <g id="g3555" transform="translate(1.385 10.884)">
          <path id="path3557" d="M-69.665-.33a2.132,2.132,0,0,0-1.9.588l-.281.281A2.131,2.131,0,0,1-70.269.216l1.843.276-8.9,8.9L-76.778,12-65.267.492Z" transform="translate(77.326 0.366)" fill="#6c7fd8"/>
        </g>
        <g id="g3559" transform="translate(2.603 35.334)">
          <path id="path3561" d="M-21.648-49.374H-8.674V-54.8H-21.648a2.381,2.381,0,0,0-2.381,2.381v.668a2.381,2.381,0,0,0,2.381,2.381" transform="translate(24.029 54.804)" fill="#cecece"/>
        </g>
        <path id="path3563" d="M149.353-320.63h3.16v-5.43h-3.16Z" transform="translate(-134.554 361.395)" fill="silver"/>
        <g id="g3565" transform="translate(2.603 40.764)">
          <path id="path3567" d="M-21.648-49.372H-8.674V-54.8H-21.648a2.381,2.381,0,0,0-2.381,2.381v.668a2.381,2.381,0,0,0,2.381,2.381" transform="translate(24.029 54.803)" fill="#cecece"/>
        </g>
        <path id="path3569" d="M149.353-265.827h3.16v-5.43h-3.16Z" transform="translate(-134.554 312.021)" fill="silver"/>
        <g id="g3571" transform="translate(2.603 46.194)">
          <path id="path3573" d="M-21.648-49.374H-8.674V-54.8H-21.648a2.381,2.381,0,0,0-2.381,2.381v.668a2.381,2.381,0,0,0,2.381,2.381" transform="translate(24.029 54.804)" fill="#cecece"/>
        </g>
        <path id="path3575" d="M149.353-211.025h3.16v-5.43h-3.16Z" transform="translate(-134.554 262.65)" fill="silver"/>
        <g id="g3577" transform="translate(49.659 35.334)">
          <path id="path3579" d="M-117.97-49.374h-12.975V-54.8h12.975a2.381,2.381,0,0,1,2.381,2.381v.668a2.381,2.381,0,0,1-2.381,2.381" transform="translate(130.945 54.804)" fill="#cecece"/>
        </g>
        <g id="g3581" transform="translate(59.474 35.334)">
          <path id="path3583" d="M-28.728,0h-3.16a2.381,2.381,0,0,1,2.381,2.381v.668A2.381,2.381,0,0,1-31.888,5.43h3.16a2.381,2.381,0,0,0,2.381-2.381V2.381A2.381,2.381,0,0,0-28.728,0" transform="translate(31.888)" fill="silver"/>
        </g>
        <g id="g3585" transform="translate(49.659 40.764)">
          <path id="path3587" d="M-117.97-49.372h-12.975V-54.8h12.975a2.381,2.381,0,0,1,2.381,2.381v.668a2.381,2.381,0,0,1-2.381,2.381" transform="translate(130.945 54.803)" fill="#cecece"/>
        </g>
        <g id="g3589" transform="translate(59.474 40.764)">
          <path id="path3591" d="M-28.728,0h-3.16a2.381,2.381,0,0,1,2.381,2.381v.668A2.381,2.381,0,0,1-31.888,5.43h3.16a2.381,2.381,0,0,0,2.381-2.381V2.381A2.381,2.381,0,0,0-28.728,0" transform="translate(31.888)" fill="silver"/>
        </g>
        <g id="g3593" transform="translate(49.659 46.194)">
          <path id="path3595" d="M-117.97-49.374h-12.975V-54.8h12.975a2.381,2.381,0,0,1,2.381,2.381v.668a2.381,2.381,0,0,1-2.381,2.381" transform="translate(130.945 54.804)" fill="#cecece"/>
        </g>
        <g id="g3597" transform="translate(14.799 25.677)">
          <path id="path3599" d="M-123.665-47.1l-7.458,7.458-6.143-6.143a3.7,3.7,0,0,1,2.1-3.3l5.447-2.607a3.7,3.7,0,0,0,.875-.584Z" transform="translate(137.266 52.28)" fill="#6d6d6d"/>
        </g>
        <g id="g3601" transform="translate(59.474 46.194)">
          <path id="path3603" d="M-28.728,0h-3.16a2.381,2.381,0,0,1,2.381,2.381v.668A2.381,2.381,0,0,1-31.888,5.43h3.16a2.381,2.381,0,0,0,2.381-2.381V2.381A2.381,2.381,0,0,0-28.728,0" transform="translate(31.888)" fill="silver"/>
        </g>
        <g id="g3605" transform="translate(17.958 16.472)">
          <path id="path3607" d="M-288.239-143.03v19.918a5.62,5.62,0,0,1-2.141,4.414l-4.063,3.2v5.159a1.71,1.71,0,0,1-1.71,1.71h-15.874a1.709,1.709,0,0,1-1.71-1.71V-115.5l-4.063-3.2a5.62,5.62,0,0,1-2.141-4.414V-143.03a3.7,3.7,0,0,1,2.1-3.336l5.446-2.606a3.7,3.7,0,0,0,2.1-3.336v-6.453h12.4v6.453a3.7,3.7,0,0,0,2.1,3.336l5.446,2.606a3.7,3.7,0,0,1,2.1,3.336" transform="translate(319.941 158.761)" fill="#cecece"/>
        </g>
        <g id="g3609" transform="translate(36.85 16.472)">
          <path id="path3611" d="M-97.356-112.7l-5.446-2.606a3.7,3.7,0,0,1-2.1-3.336V-125.1h-3.16v6.453a3.7,3.7,0,0,0,2.1,3.336l5.446,2.606a3.7,3.7,0,0,1,2.1,3.336v19.918a5.619,5.619,0,0,1-2.141,4.414l-4.063,3.2v5.159a1.71,1.71,0,0,1-1.71,1.71h3.16a1.71,1.71,0,0,0,1.71-1.71v-5.159l4.063-3.2a5.619,5.619,0,0,0,2.141-4.414v-19.918a3.7,3.7,0,0,0-2.1-3.336" transform="translate(108.064 125.097)" fill="silver"/>
        </g>
        <g id="g3613" transform="translate(23.42 5.663)">
          <path id="path3615" d="M-175.136-98.024h-17.746A1.516,1.516,0,0,1-194.4-99.54v-7.749a1.516,1.516,0,0,1,1.516-1.516h17.746a1.516,1.516,0,0,1,1.516,1.516v7.749a1.516,1.516,0,0,1-1.516,1.516" transform="translate(194.398 108.805)" fill="#a6e7f0"/>
        </g>
        <g id="g3617" transform="translate(39.522 5.663)">
          <path id="path3619" d="M-28.73,0h-3.16a1.516,1.516,0,0,1,1.516,1.516V9.265a1.516,1.516,0,0,1-1.516,1.516h3.16a1.516,1.516,0,0,0,1.516-1.516V1.516A1.516,1.516,0,0,0-28.73,0" transform="translate(31.889)" fill="#6bd9e7"/>
        </g>
        <g id="g3621" transform="translate(28.614 1.037)">
          <path id="path3623" d="M-78.764,0H-85.7a1.726,1.726,0,0,0-1.726,1.726v2.9h10.389v-2.9A1.726,1.726,0,0,0-78.764,0" transform="translate(87.426 0)" fill="#8795de"/>
        </g>
        <g id="g3625" transform="translate(34.117 1.037)">
          <path id="path3627" d="M-28.728,0h-3.16a1.726,1.726,0,0,1,1.726,1.726v2.9H-27v-2.9A1.726,1.726,0,0,0-28.728,0" transform="translate(31.888 0)" fill="#6c7fd8"/>
        </g>
        <g id="g3629" transform="translate(24.162 59.736)">
          <path id="path3631" d="M-175.42,0V5.159a1.71,1.71,0,0,1-1.71,1.71H-193a1.71,1.71,0,0,1-1.71-1.71V0Z" transform="translate(194.713)" fill="#eaf9fa"/>
        </g>
        <g id="g3633" transform="translate(38.586 59.736)">
          <path id="path3635" d="M-15.544,0V5.159a1.71,1.71,0,0,1-1.71,1.71h3.16a1.71,1.71,0,0,0,1.71-1.71V0Z" transform="translate(17.253)" fill="#d4f3f6"/>
        </g>
        <g id="g3637" transform="translate(28.888 30.423)">
          <path id="path3639" d="M-89.709-44.853a4.933,4.933,0,0,1-4.933,4.933,4.933,4.933,0,0,1-4.933-4.933,4.933,4.933,0,0,1,4.933-4.933,4.933,4.933,0,0,1,4.933,4.933" transform="translate(99.576 49.787)" fill="#838383"/>
        </g>
        <g id="g3641" transform="translate(32.241 30.423)">
          <path id="path3643" d="M-14.364,0a4.925,4.925,0,0,0-1.58.26,4.934,4.934,0,0,1,3.353,4.673,4.934,4.934,0,0,1-3.353,4.673,4.925,4.925,0,0,0,1.58.26A4.933,4.933,0,0,0-9.431,4.933,4.933,4.933,0,0,0-14.364,0" transform="translate(15.944)" fill="#6d6d6d"/>
        </g>
        <g id="g3645" transform="translate(23.041 44.649)">
          <path id="path3647" d="M-89.709-44.855a4.933,4.933,0,0,1-4.933,4.933,4.933,4.933,0,0,1-4.933-4.933,4.933,4.933,0,0,1,4.933-4.933,4.933,4.933,0,0,1,4.933,4.933" transform="translate(99.576 49.788)" fill="#838383"/>
        </g>
        <g id="g3649" transform="translate(26.394 44.649)">
          <path id="path3651" d="M-14.364,0a4.922,4.922,0,0,0-1.58.26,4.934,4.934,0,0,1,3.353,4.673,4.934,4.934,0,0,1-3.353,4.673,4.925,4.925,0,0,0,1.58.26A4.933,4.933,0,0,0-9.431,4.933,4.933,4.933,0,0,0-14.364,0" transform="translate(15.944)" fill="#6d6d6d"/>
        </g>
        <g id="g3653" transform="translate(39.214 43.639)">
          <path id="path3655" d="M-46.459-23.229a2.555,2.555,0,0,1-2.555,2.555,2.555,2.555,0,0,1-2.555-2.555,2.555,2.555,0,0,1,2.555-2.555,2.555,2.555,0,0,1,2.555,2.555" transform="translate(51.569 25.784)" fill="#8795de"/>
        </g>
        <g id="g3657" transform="translate(43.279 18.911)">
          <path id="path3659" d="M0-71.917l7.908-7.91,7.458,7.458L6.38-63.381" transform="translate(0 79.826)" fill="none" stroke="#000" stroke-linecap="round" stroke-linejoin="round" stroke-miterlimit="10" stroke-width="2"/>
        </g>
        <g id="g3661" transform="translate(49.85 11.742)">
          <path id="path3663" d="M-144.191-104.661-155.7-116.172l-3.823,3.823a1.791,1.791,0,0,0,0,2.533l8.978,8.978a1.791,1.791,0,0,0,2.533,0Z" transform="translate(160.049 116.172)" fill="none" stroke="#000" stroke-linecap="round" stroke-linejoin="round" stroke-miterlimit="10" stroke-width="2"/>
        </g>
        <g id="g3665" transform="translate(54.197 10.884)">
          <path id="path3667" d="M-104.66-112.462l-11.511-11.511,4.4-.822a2.132,2.132,0,0,1,1.9.588l5.532,5.532a2.131,2.131,0,0,1,.579,1.946Z" transform="translate(116.17 124.831)" fill="none" stroke="#000" stroke-linecap="round" stroke-linejoin="round" stroke-miterlimit="10" stroke-width="2"/>
        </g>
        <g id="g3669" transform="translate(47.942 22.156)">
          <path id="path3671" d="M-67.812-67.812-75.27-75.27" transform="translate(75.27 75.27)" fill="none" stroke="#000" stroke-linecap="round" stroke-linejoin="round" stroke-miterlimit="10" stroke-width="2"/>
        </g>
        <g id="g3673" transform="translate(8.997 18.911)">
          <path id="path3675" d="M-81.479-149.3l-8.961-8.963,7.458-7.458,7.9,7.9" transform="translate(90.44 165.72)" fill="none" stroke="#000" stroke-linecap="round" stroke-linejoin="round" stroke-miterlimit="10" stroke-width="2"/>
        </g>
        <g id="g3677" transform="translate(1.934 11.742)">
          <path id="path3679" d="M0-104.661l11.511-11.511,3.823,3.823a1.791,1.791,0,0,1,0,2.533l-8.978,8.978a1.791,1.791,0,0,1-2.533,0Z" transform="translate(0 116.172)" fill="none" stroke="#000" stroke-linecap="round" stroke-linejoin="round" stroke-miterlimit="10" stroke-width="2"/>
        </g>
        <g id="g3681" transform="translate(0.991 10.884)">
          <path id="path3683" d="M-8.572-112.462,2.939-123.973l-4.4-.822a2.132,2.132,0,0,0-1.9.588l-5.532,5.532a2.131,2.131,0,0,0-.579,1.946Z" transform="translate(9.514 124.831)" fill="none" stroke="#000" stroke-linecap="round" stroke-linejoin="round" stroke-miterlimit="10" stroke-width="2"/>
        </g>
        <g id="g3685" transform="translate(15.518 22.156)">
          <path id="path3687" d="M-38.025,0l-4.182,4.182" transform="translate(42.207)" fill="none" stroke="#000" stroke-linecap="round" stroke-linejoin="round" stroke-miterlimit="10" stroke-width="2"/>
        </g>
        <g id="g3689" transform="translate(2.603 35.334)">
          <path id="path3691" d="M-21.648-49.374H-8.674V-54.8H-21.648a2.381,2.381,0,0,0-2.381,2.381v.668A2.381,2.381,0,0,0-21.648-49.374Z" transform="translate(24.029 54.804)" fill="none" stroke="#000" stroke-linecap="round" stroke-linejoin="round" stroke-miterlimit="10" stroke-width="2"/>
        </g>
        <g id="g3693" transform="translate(2.603 40.764)">
          <path id="path3695" d="M-21.648-49.372H-8.674V-54.8H-21.648a2.381,2.381,0,0,0-2.381,2.381v.668A2.381,2.381,0,0,0-21.648-49.372Z" transform="translate(24.029 54.803)" fill="none" stroke="#000" stroke-linecap="round" stroke-linejoin="round" stroke-miterlimit="10" stroke-width="2"/>
        </g>
        <g id="g3697" transform="translate(2.603 46.194)">
          <path id="path3699" d="M-21.648-49.374H-8.674V-54.8H-21.648a2.381,2.381,0,0,0-2.381,2.381v.668A2.381,2.381,0,0,0-21.648-49.374Z" transform="translate(24.029 54.804)" fill="none" stroke="#000" stroke-linecap="round" stroke-linejoin="round" stroke-miterlimit="10" stroke-width="2"/>
        </g>
        <g id="g3701" transform="translate(49.659 35.334)">
          <path id="path3703" d="M-117.97-49.374h-12.975V-54.8h12.975a2.381,2.381,0,0,1,2.381,2.381v.668A2.381,2.381,0,0,1-117.97-49.374Z" transform="translate(130.945 54.804)" fill="none" stroke="#000" stroke-linecap="round" stroke-linejoin="round" stroke-miterlimit="10" stroke-width="2"/>
        </g>
        <g id="g3705" transform="translate(49.659 40.764)">
          <path id="path3707" d="M-27.418-49.372h-3.015V-54.8h12.975a2.381,2.381,0,0,1,2.381,2.381v.668a2.381,2.381,0,0,1-2.381,2.381h-5.322" transform="translate(30.433 54.803)" fill="none" stroke="#000" stroke-linecap="round" stroke-linejoin="round" stroke-miterlimit="10" stroke-width="2"/>
        </g>
        <g id="g3709" transform="translate(49.659 46.194)">
          <path id="path3711" d="M-117.97,0a2.381,2.381,0,0,1,2.381,2.381v.668A2.381,2.381,0,0,1-117.97,5.43h-12.975" transform="translate(130.945)" fill="none" stroke="#000" stroke-linecap="round" stroke-linejoin="round" stroke-miterlimit="10" stroke-width="2"/>
        </g>
        <g id="g3713" transform="translate(17.958 16.472)">
          <path id="path3715" d="M-288.239-143.03v19.918a5.62,5.62,0,0,1-2.141,4.414l-4.063,3.2v5.159a1.71,1.71,0,0,1-1.71,1.71h-15.874a1.709,1.709,0,0,1-1.71-1.71V-115.5l-4.063-3.2a5.62,5.62,0,0,1-2.141-4.414V-143.03a3.7,3.7,0,0,1,2.1-3.336l5.446-2.606a3.7,3.7,0,0,0,2.1-3.336v-6.453h12.4v6.453a3.7,3.7,0,0,0,2.1,3.336l5.446,2.606A3.7,3.7,0,0,1-288.239-143.03Z" transform="translate(319.941 158.761)" fill="none" stroke="#000" stroke-linecap="round" stroke-linejoin="round" stroke-miterlimit="10" stroke-width="2"/>
        </g>
        <g id="g3717" transform="translate(23.42 5.663)">
          <path id="path3719" d="M-175.136-98.024h-17.746A1.516,1.516,0,0,1-194.4-99.54v-7.749a1.516,1.516,0,0,1,1.516-1.516h17.746a1.516,1.516,0,0,1,1.516,1.516v7.749A1.516,1.516,0,0,1-175.136-98.024Z" transform="translate(194.398 108.805)" fill="none" stroke="#000" stroke-linecap="round" stroke-linejoin="round" stroke-miterlimit="10" stroke-width="2"/>
        </g>
        <g id="g3721" transform="translate(28.614 1.037)">
          <path id="path3723" d="M-78.764,0H-85.7a1.726,1.726,0,0,0-1.726,1.726v2.9h10.389v-2.9A1.726,1.726,0,0,0-78.764,0Z" transform="translate(87.426 0)" fill="none" stroke="#000" stroke-linecap="round" stroke-linejoin="round" stroke-miterlimit="10" stroke-width="2"/>
        </g>
        <g id="g3725" transform="translate(24.162 59.736)">
          <path id="path3727" d="M-175.42,0V5.159a1.71,1.71,0,0,1-1.71,1.71H-193a1.71,1.71,0,0,1-1.71-1.71V0Z" transform="translate(194.713)" fill="none" stroke="#000" stroke-linecap="round" stroke-linejoin="round" stroke-miterlimit="10" stroke-width="2"/>
        </g>
        <g id="g3729" transform="translate(38.169 62.164)">
          <path id="path3731" d="M-17.961-8.98a.988.988,0,0,1-.988.988.988.988,0,0,1-.988-.988.988.988,0,0,1,.988-.988.988.988,0,0,1,.988.988" transform="translate(19.936 9.968)"/>
        </g>
        <g id="g3733" transform="translate(27.497 62.164)">
          <path id="path3735" d="M-17.961-8.98a.988.988,0,0,1-.988.988.988.988,0,0,1-.988-.988.988.988,0,0,1,.988-.988.988.988,0,0,1,.988.988" transform="translate(19.936 9.968)"/>
        </g>
        <g id="g3737" transform="translate(28.888 30.423)">
          <path id="path3739" d="M-89.709-44.853a4.933,4.933,0,0,1-4.933,4.933,4.933,4.933,0,0,1-4.933-4.933,4.933,4.933,0,0,1,4.933-4.933A4.933,4.933,0,0,1-89.709-44.853Z" transform="translate(99.576 49.787)" fill="none" stroke="#000" stroke-linecap="round" stroke-linejoin="round" stroke-miterlimit="10" stroke-width="2"/>
        </g>
        <g id="g3741" transform="translate(23.041 44.649)">
          <path id="path3743" d="M-89.709-44.855a4.933,4.933,0,0,1-4.933,4.933,4.933,4.933,0,0,1-4.933-4.933,4.933,4.933,0,0,1,4.933-4.933A4.933,4.933,0,0,1-89.709-44.855Z" transform="translate(99.576 49.788)" fill="none" stroke="#000" stroke-linecap="round" stroke-linejoin="round" stroke-miterlimit="10" stroke-width="2"/>
        </g>
        <g id="g3745" transform="translate(39.214 43.639)">
          <path id="path3747" d="M-46.459-23.229a2.555,2.555,0,0,1-2.555,2.555,2.555,2.555,0,0,1-2.555-2.555,2.555,2.555,0,0,1,2.555-2.555A2.555,2.555,0,0,1-46.459-23.229Z" transform="translate(51.569 25.784)" fill="none" stroke="#000" stroke-linecap="round" stroke-linejoin="round" stroke-miterlimit="10" stroke-width="2"/>
        </g>
        <g id="g3749" transform="translate(23.397 33.585)">
          <path id="path3751" d="M-52.9,0l-5.818,14.155" transform="translate(58.717)" fill="none" stroke="#000" stroke-linecap="round" stroke-linejoin="round" stroke-miterlimit="10" stroke-width="2"/>
        </g>
        <g id="g3753" transform="translate(38.246 33.175)">
          <path id="path3755" d="M0,0,5.814,11.889" fill="none" stroke="#000" stroke-linecap="round" stroke-linejoin="round" stroke-miterlimit="10" stroke-width="2"/>
        </g>
        <g id="g3757" transform="translate(30.199 48.603)">
          <path id="path3759" d="M0-48.926l12.42-5.381" transform="translate(0 54.307)" fill="none" stroke="#000" stroke-linecap="round" stroke-linejoin="round" stroke-miterlimit="10" stroke-width="2"/>
        </g>
        <g id="g3761" transform="translate(32.833 34.369)">
          <path id="path3763" d="M-17.961-8.98a.988.988,0,0,1-.988.988.988.988,0,0,1-.988-.988.988.988,0,0,1,.988-.988.988.988,0,0,1,.988.988" transform="translate(19.936 9.968)"/>
        </g>
        <g id="g3765" transform="translate(26.987 48.594)">
          <path id="path3767" d="M-17.961-8.98a.988.988,0,0,1-.988.988.988.988,0,0,1-.988-.988.988.988,0,0,1,.988-.988.988.988,0,0,1,.988.988" transform="translate(19.936 9.968)"/>
        </g>
        <g id="g3769" transform="translate(23.42 9.849)">
          <path id="path3771" d="M-29.4,0h-3.234" transform="translate(32.635)" fill="none" stroke="#000" stroke-linecap="round" stroke-linejoin="round" stroke-miterlimit="10" stroke-width="2"/>
        </g>
        <g id="g3773" transform="translate(31.275 9.849)">
          <path id="path3775" d="M-117.486,0h-12.921" transform="translate(130.408)" fill="none" stroke="#000" stroke-linecap="round" stroke-linejoin="round" stroke-miterlimit="10" stroke-width="2"/>
        </g>
      </g>
    </g>
  </g>
</svg>
