<svg xmlns="http://www.w3.org/2000/svg" xmlns:xlink="http://www.w3.org/1999/xlink" width="79.233" height="79.233" viewBox="0 0 79.233 79.233">
  <defs>
    <clipPath id="clip-path">
      <path id="path2505" d="M0-682.665H79.233v79.233H0Z" transform="translate(0 682.665)"/>
    </clipPath>
  </defs>
  <g id="g2499" transform="translate(0 682.665)">
    <g id="g2501" transform="translate(0 -682.665)">
      <g id="g2503" clip-path="url(#clip-path)">
        <g id="g2509" transform="translate(8.977 33.051)">
          <path id="path2511" d="M-90.482-304.782a3.752,3.752,0,0,1-3.752-3.752,3.752,3.752,0,0,1,3.752-3.752,3.752,3.752,0,0,1,3.752,3.752,3.752,3.752,0,0,1-3.752,3.752m10.63-7.5H-82a.947.947,0,0,1-.826-.494,8.8,8.8,0,0,0-2.368-2.73.937.937,0,0,1-.371-.708L-86.73-344.8h-7.5L-95.4-316.218a.937.937,0,0,1-.371.708,8.8,8.8,0,0,0-2.368,2.73.947.947,0,0,1-.826.494h-2.148a1.251,1.251,0,0,0-1.251,1.251v5a1.251,1.251,0,0,0,1.251,1.251h2.148a.945.945,0,0,1,.824.492,8.75,8.75,0,0,0,7.657,4.511,8.75,8.75,0,0,0,7.657-4.511.945.945,0,0,1,.824-.492h2.148a1.251,1.251,0,0,0,1.251-1.251v-5a1.251,1.251,0,0,0-1.251-1.251" transform="translate(102.362 344.802)" fill="silver"/>
        </g>
        <g id="g2513" transform="translate(16.915 33.051)">
          <path id="path2515" d="M-60.059-35.717l-.191-4.69h-7.5l-.191,4.69Z" transform="translate(67.945 40.407)" fill="#acacac"/>
        </g>
        <g id="g2517" transform="translate(5.225 1.161)">
          <path id="path2519" d="M0-23.811V8.7A1.251,1.251,0,0,0,1.251,9.956H4.309A1.25,1.25,0,0,0,5.37,9.368L7.211,6.423a3.126,3.126,0,0,1,2.651-1.47H21.4a3.126,3.126,0,0,1,2.651,1.47L25.9,9.368a1.251,1.251,0,0,0,1.061.588h3.059A1.251,1.251,0,0,0,31.265,8.7V-23.811a3.127,3.127,0,0,0-3.127-3.126H3.126A3.126,3.126,0,0,0,0-23.811" transform="translate(0 26.937)" fill="#e2e2e2"/>
        </g>
        <g id="g2521" transform="translate(29.299 1.161)">
          <path id="path2523" d="M-30.954,0h-4.064a3.126,3.126,0,0,1,3.126,3.126V35.642a1.25,1.25,0,0,1-.746,1.144,1.248,1.248,0,0,0,.5.107h3.059a1.251,1.251,0,0,0,1.251-1.251V3.126A3.127,3.127,0,0,0-30.954,0" transform="translate(35.019)" fill="silver"/>
        </g>
        <g id="g2525" transform="translate(15.23 16.481)">
          <path id="path2527" d="M-85.72-42.86a5.628,5.628,0,0,1-5.628,5.628,5.628,5.628,0,0,1-5.628-5.628,5.628,5.628,0,0,1,5.628-5.628A5.628,5.628,0,0,1-85.72-42.86" transform="translate(96.976 48.488)" fill="#838383"/>
        </g>
        <g id="g2529" transform="translate(15.836 17.086)">
          <path id="path2531" d="M-57.583,0a5.6,5.6,0,0,1,.606,2.539A5.628,5.628,0,0,1-62.6,8.167a5.6,5.6,0,0,1-2.539-.606,5.626,5.626,0,0,0,5.022,3.089,5.628,5.628,0,0,0,5.628-5.628A5.626,5.626,0,0,0-57.583,0" transform="translate(65.144)" fill="#5a5a5a"/>
        </g>
        <g id="g2533" transform="translate(46.495 33.051)">
          <path id="path2535" d="M-90.482-304.782a3.752,3.752,0,0,1-3.752-3.752,3.752,3.752,0,0,1,3.752-3.752,3.752,3.752,0,0,1,3.752,3.752,3.752,3.752,0,0,1-3.752,3.752m10.63-7.5H-82a.947.947,0,0,1-.826-.494,8.8,8.8,0,0,0-2.368-2.73.937.937,0,0,1-.371-.708L-86.73-344.8h-7.5L-95.4-316.218a.937.937,0,0,1-.371.708,8.8,8.8,0,0,0-2.368,2.73.947.947,0,0,1-.826.494h-2.148a1.251,1.251,0,0,0-1.251,1.251v5a1.251,1.251,0,0,0,1.251,1.251h2.148a.945.945,0,0,1,.824.492,8.75,8.75,0,0,0,7.657,4.511,8.75,8.75,0,0,0,7.657-4.511.945.945,0,0,1,.824-.492h2.148a1.251,1.251,0,0,0,1.251-1.251v-5a1.251,1.251,0,0,0-1.251-1.251" transform="translate(102.362 344.802)" fill="silver"/>
        </g>
        <g id="g2537" transform="translate(54.433 33.051)">
          <path id="path2539" d="M-60.059-35.717l-.191-4.69h-7.5l-.191,4.69Z" transform="translate(67.945 40.407)" fill="#acacac"/>
        </g>
        <g id="g2541" transform="translate(42.743 1.161)">
          <path id="path2543" d="M0-23.811V8.7A1.251,1.251,0,0,0,1.251,9.956H4.309A1.25,1.25,0,0,0,5.37,9.368L7.211,6.423a3.126,3.126,0,0,1,2.651-1.47H21.4a3.126,3.126,0,0,1,2.651,1.47L25.9,9.368a1.251,1.251,0,0,0,1.061.588h3.059A1.251,1.251,0,0,0,31.265,8.7V-23.811a3.127,3.127,0,0,0-3.126-3.126H3.127A3.126,3.126,0,0,0,0-23.811" transform="translate(0 26.937)" fill="#e2e2e2"/>
        </g>
        <g id="g2545" transform="translate(66.817 1.161)">
          <path id="path2547" d="M-30.955,0H-35.02a3.126,3.126,0,0,1,3.127,3.126V35.642a1.25,1.25,0,0,1-.746,1.144,1.249,1.249,0,0,0,.5.107h3.059a1.251,1.251,0,0,0,1.251-1.251V3.126A3.126,3.126,0,0,0-30.955,0" transform="translate(35.02)" fill="silver"/>
        </g>
        <g id="g2549" transform="translate(52.748 16.481)">
          <path id="path2551" d="M-85.72-42.86a5.628,5.628,0,0,1-5.628,5.628,5.628,5.628,0,0,1-5.628-5.628,5.628,5.628,0,0,1,5.628-5.628A5.628,5.628,0,0,1-85.72-42.86" transform="translate(96.976 48.488)" fill="#838383"/>
        </g>
        <g id="g2553" transform="translate(53.354 17.086)">
          <path id="path2555" d="M-57.583,0a5.6,5.6,0,0,1,.606,2.539A5.628,5.628,0,0,1-62.6,8.167a5.6,5.6,0,0,1-2.539-.606,5.626,5.626,0,0,0,5.022,3.089,5.628,5.628,0,0,0,5.628-5.628A5.626,5.626,0,0,0-57.583,0" transform="translate(65.144)" fill="#5a5a5a"/>
        </g>
        <g id="g2557" transform="translate(5.224 1.161)">
          <path id="path2559" d="M0-203.092v8.976a1.251,1.251,0,0,0,1.252,1.25H4.31a1.249,1.249,0,0,0,1.06-.588L7.211-196.4a3.124,3.124,0,0,1,2.651-1.47H21.4a3.124,3.124,0,0,1,2.651,1.47l1.842,2.945a1.249,1.249,0,0,0,1.06.588h3.059a1.251,1.251,0,0,0,1.25-1.25v-32.517a3.128,3.128,0,0,0-3.128-3.126H3.128A3.128,3.128,0,0,0,0-226.633v18.125" transform="translate(0 229.759)" fill="none" stroke="#000" stroke-linecap="round" stroke-linejoin="round" stroke-miterlimit="10" stroke-width="2"/>
        </g>
        <g id="g2561" transform="translate(15.23 16.481)">
          <path id="path2563" d="M-85.72-42.86a5.628,5.628,0,0,1-5.628,5.628,5.628,5.628,0,0,1-5.628-5.628,5.628,5.628,0,0,1,5.628-5.628A5.628,5.628,0,0,1-85.72-42.86Z" transform="translate(96.976 48.488)" fill="none" stroke="#000" stroke-linecap="round" stroke-linejoin="round" stroke-miterlimit="10" stroke-width="2"/>
        </g>
        <g id="g2565" transform="translate(30.333 20.936)">
          <path id="path2567" d="M-17.858-8.929A1.172,1.172,0,0,1-19.03-7.756,1.172,1.172,0,0,1-20.2-8.929,1.172,1.172,0,0,1-19.03-10.1a1.172,1.172,0,0,1,1.172,1.172" transform="translate(20.203 10.101)"/>
        </g>
        <g id="g2569" transform="translate(9.038 20.936)">
          <path id="path2571" d="M0-8.929A1.172,1.172,0,0,0,1.172-7.756,1.172,1.172,0,0,0,2.345-8.929,1.172,1.172,0,0,0,1.172-10.1,1.172,1.172,0,0,0,0-8.929" transform="translate(0 10.101)"/>
        </g>
        <g id="g2573" transform="translate(8.977 33.051)">
          <path id="path2575" d="M-90.482-304.782a3.752,3.752,0,0,1-3.752-3.752,3.752,3.752,0,0,1,3.752-3.752,3.752,3.752,0,0,1,3.752,3.752A3.752,3.752,0,0,1-90.482-304.782ZM-94.234-344.8-95.4-316.218a.937.937,0,0,1-.371.708,8.8,8.8,0,0,0-2.368,2.73.947.947,0,0,1-.826.494h-2.148a1.251,1.251,0,0,0-1.251,1.251v5a1.251,1.251,0,0,0,1.251,1.251h2.148a.945.945,0,0,1,.824.492,8.75,8.75,0,0,0,7.657,4.511,8.75,8.75,0,0,0,7.657-4.511.945.945,0,0,1,.824-.492h2.148a1.251,1.251,0,0,0,1.251-1.251v-5a1.251,1.251,0,0,0-1.251-1.251H-82a.947.947,0,0,1-.826-.494,8.8,8.8,0,0,0-2.368-2.73.937.937,0,0,1-.371-.708L-86.73-344.8" transform="translate(102.362 344.802)" fill="none" stroke="#000" stroke-linecap="round" stroke-linejoin="round" stroke-miterlimit="10" stroke-width="2"/>
        </g>
        <g id="g2577" transform="translate(20.858 58.049)">
          <path id="path2579" d="M0-19.158v-2.516" transform="translate(0 21.673)" fill="none" stroke="#000" stroke-linecap="round" stroke-linejoin="round" stroke-miterlimit="10" stroke-width="2"/>
        </g>
        <g id="g2581" transform="translate(30.776 64.003)">
          <path id="path2583" d="M0-11.906v-1.563" transform="translate(0 13.469)" fill="none" stroke="#000" stroke-linecap="round" stroke-linejoin="round" stroke-miterlimit="10" stroke-width="2"/>
        </g>
        <g id="g2585" transform="translate(10.94 64.003)">
          <path id="path2587" d="M0-11.906v-1.563" transform="translate(0 13.469)" fill="none" stroke="#000" stroke-linecap="round" stroke-linejoin="round" stroke-miterlimit="10" stroke-width="2"/>
        </g>
        <g id="g2589" transform="translate(30.776 73.07)">
          <path id="path2591" d="M0,0V1.563" transform="translate(0)" fill="none" stroke="#000" stroke-linecap="round" stroke-linejoin="round" stroke-miterlimit="10" stroke-width="2"/>
        </g>
        <g id="g2593" transform="translate(10.94 73.07)">
          <path id="path2595" d="M0,0V1.563" transform="translate(0)" fill="none" stroke="#000" stroke-linecap="round" stroke-linejoin="round" stroke-miterlimit="10" stroke-width="2"/>
        </g>
        <g id="g2597" transform="translate(5.225 6.163)">
          <path id="path2599" d="M0,0H31.265" transform="translate(0 0)" fill="none" stroke="#000" stroke-linecap="round" stroke-linejoin="round" stroke-miterlimit="10" stroke-width="2"/>
        </g>
        <g id="g2601" transform="translate(5.225 11.165)">
          <path id="path2603" d="M-238.111,0h-31.265" transform="translate(269.377 0)" fill="none" stroke="#000" stroke-linecap="round" stroke-linejoin="round" stroke-miterlimit="10" stroke-width="2"/>
        </g>
        <g id="g2605" transform="translate(42.743 1.161)">
          <path id="path2607" d="M-238.12-150.563v15.873a1.251,1.251,0,0,1-1.252,1.25h-3.058a1.249,1.249,0,0,1-1.06-.588l-1.842-2.945a3.124,3.124,0,0,0-2.651-1.47h-11.541a3.124,3.124,0,0,0-2.651,1.47l-1.842,2.945a1.249,1.249,0,0,1-1.06.588h-3.059a1.251,1.251,0,0,1-1.25-1.25v-32.517a3.128,3.128,0,0,1,3.128-3.126h25.011a3.128,3.128,0,0,1,3.128,3.126v11.227" transform="translate(269.386 170.333)" fill="none" stroke="#000" stroke-linecap="round" stroke-linejoin="round" stroke-miterlimit="10" stroke-width="2"/>
        </g>
        <g id="g2609" transform="translate(52.748 16.481)">
          <path id="path2611" d="M-85.72-42.86a5.628,5.628,0,0,1-5.628,5.628,5.628,5.628,0,0,1-5.628-5.628,5.628,5.628,0,0,1,5.628-5.628A5.628,5.628,0,0,1-85.72-42.86Z" transform="translate(96.976 48.488)" fill="none" stroke="#000" stroke-linecap="round" stroke-linejoin="round" stroke-miterlimit="10" stroke-width="2"/>
        </g>
        <g id="g2613" transform="translate(67.851 20.936)">
          <path id="path2615" d="M-17.859-8.929a1.172,1.172,0,0,1-1.172,1.172A1.172,1.172,0,0,1-20.2-8.929,1.172,1.172,0,0,1-19.031-10.1a1.172,1.172,0,0,1,1.172,1.172" transform="translate(20.204 10.101)"/>
        </g>
        <g id="g2617" transform="translate(46.556 20.936)">
          <path id="path2619" d="M0-8.929A1.172,1.172,0,0,0,1.172-7.756,1.172,1.172,0,0,0,2.345-8.929,1.172,1.172,0,0,0,1.172-10.1,1.172,1.172,0,0,0,0-8.929" transform="translate(0 10.101)"/>
        </g>
        <g id="g2621" transform="translate(46.495 33.051)">
          <path id="path2623" d="M-119.048,0l1.167,28.584a.937.937,0,0,0,.37.709,8.791,8.791,0,0,1,2.369,2.73.945.945,0,0,0,.825.494h2.148a1.251,1.251,0,0,1,1.25,1.25v5a1.25,1.25,0,0,1-1.25,1.25h-2.148a.947.947,0,0,0-.825.492,8.751,8.751,0,0,1-7.657,4.511,8.751,8.751,0,0,1-7.657-4.511.947.947,0,0,0-.825-.492h-2.148a1.25,1.25,0,0,1-1.25-1.25v-5a1.251,1.251,0,0,1,1.25-1.25h2.148a.945.945,0,0,0,.825-.494,8.771,8.771,0,0,1,2.369-2.73.937.937,0,0,0,.37-.709l.356-8.713M-126.551,0l-.59,14.46m4.341,25.56a3.752,3.752,0,0,1-3.752-3.752,3.752,3.752,0,0,1,3.752-3.752,3.752,3.752,0,0,1,3.752,3.752A3.752,3.752,0,0,1-122.8,40.02Z" transform="translate(134.68)" fill="none" stroke="#000" stroke-linecap="round" stroke-linejoin="round" stroke-miterlimit="10" stroke-width="2"/>
        </g>
        <g id="g2625" transform="translate(58.376 58.049)">
          <path id="path2627" d="M0-19.158v-2.516" transform="translate(0 21.673)" fill="none" stroke="#000" stroke-linecap="round" stroke-linejoin="round" stroke-miterlimit="10" stroke-width="2"/>
        </g>
        <g id="g2629" transform="translate(68.294 64.003)">
          <path id="path2631" d="M0-11.906v-1.563" transform="translate(0 13.469)" fill="none" stroke="#000" stroke-linecap="round" stroke-linejoin="round" stroke-miterlimit="10" stroke-width="2"/>
        </g>
        <g id="g2633" transform="translate(48.458 64.003)">
          <path id="path2635" d="M0-11.906v-1.563" transform="translate(0 13.469)" fill="none" stroke="#000" stroke-linecap="round" stroke-linejoin="round" stroke-miterlimit="10" stroke-width="2"/>
        </g>
        <g id="g2637" transform="translate(68.294 73.07)">
          <path id="path2639" d="M0,0V1.563" transform="translate(0)" fill="none" stroke="#000" stroke-linecap="round" stroke-linejoin="round" stroke-miterlimit="10" stroke-width="2"/>
        </g>
        <g id="g2641" transform="translate(48.458 73.07)">
          <path id="path2643" d="M0,0V1.563" transform="translate(0)" fill="none" stroke="#000" stroke-linecap="round" stroke-linejoin="round" stroke-miterlimit="10" stroke-width="2"/>
        </g>
        <g id="g2645" transform="translate(42.743 6.163)">
          <path id="path2647" d="M0,0H31.265" transform="translate(0 0)" fill="none" stroke="#000" stroke-linecap="round" stroke-linejoin="round" stroke-miterlimit="10" stroke-width="2"/>
        </g>
        <g id="g2649" transform="translate(42.743 11.165)">
          <path id="path2651" d="M-238.111,0h-31.265" transform="translate(269.377 0)" fill="none" stroke="#000" stroke-linecap="round" stroke-linejoin="round" stroke-miterlimit="10" stroke-width="2"/>
        </g>
      </g>
    </g>
  </g>
</svg>
