<svg xmlns="http://www.w3.org/2000/svg" width="125" height="125" viewBox="0 0 125 125">
  <g id="Group_1118043" data-name="Group 1118043" transform="translate(-430 -4152.932)">
    <circle id="Ellipse_11952" data-name="Ellipse 11952" cx="62.5" cy="62.5" r="62.5" transform="translate(430 4152.932)" fill="#e8e8e8"/>
    <g id="Group_1117368" data-name="Group 1117368" transform="translate(464.662 4184.17)">
      <path id="Path_908585" data-name="Path 908585" d="M348.4,211.883h9.235v9.766H348.4Zm0,0" transform="translate(-305.413 -186.008)" fill="#464646"/>
      <path id="Path_908586" data-name="Path 908586" d="M399.457,211.883h3v9.766h-3Zm0,0" transform="translate(-350.236 -186.008)" fill="#333"/>
      <path id="Path_908587" data-name="Path 908587" d="M361.648,291.852h6v4.075h-6Zm0,0" transform="translate(-317.045 -256.212)" fill="#b4aaaa"/>
      <path id="Path_908588" data-name="Path 908588" d="M392.8,291.852H395v4.075H392.8Zm0,0" transform="translate(-344.397 -256.212)" fill="#9b9696"/>
      <path id="Path_908589" data-name="Path 908589" d="M373.393,333.057l1.783-7.835h-3.566Zm0,0" transform="translate(-325.79 -285.507)" fill="#4172cc"/>
      <path id="Path_908590" data-name="Path 908590" d="M8,474.055H32.774v3.72H8Zm0,0" transform="translate(-6.584 -416.164)" fill="#464646"/>
      <path id="Path_908591" data-name="Path 908591" d="M185.059,474.055h3.152v3.72h-3.152Zm0,0" transform="translate(-162.021 -416.164)" fill="#333"/>
      <path id="Path_908592" data-name="Path 908592" d="M23.121,441.609H44.2v3.962H23.121Zm0,0" transform="translate(-19.858 -387.68)" fill="#464646"/>
      <path id="Path_908593" data-name="Path 908593" d="M168.523,441.609h3.324v3.962h-3.324Zm0,0" transform="translate(-147.504 -387.68)" fill="#333"/>
      <path id="Path_908594" data-name="Path 908594" d="M56.754,269.7h14V290.7h-14Zm0,0" transform="translate(-49.384 -236.767)" fill="#b4aaaa"/>
      <path id="Path_908595" data-name="Path 908595" d="M142.543,269.7h3.526V290.7h-3.526Zm0,0" transform="translate(-124.697 -236.767)" fill="#9b9696"/>
      <path id="Path_908596" data-name="Path 908596" d="M107.532,108.024,98,98.488l19.22-15.32,5.636,5.636Zm0,0" transform="translate(-85.59 -73.012)" fill="#b4aaaa"/>
      <path id="Path_908597" data-name="Path 908597" d="M176.34,88.807l-2.1-2.095-3.54-3.54-2.66,2.12,1.571,1.8a4.122,4.122,0,0,1,.118,5.28l-10.809,13.56,2.1,2.1,12.824-16.089Zm0,0" transform="translate(-139.078 -73.015)" fill="#9b9696"/>
      <path id="Path_908598" data-name="Path 908598" d="M291.247,38.426,286.719,33.9l4.742-3.345a2.247,2.247,0,0,1,3.132,3.132Zm0,0" transform="translate(-251.266 -26.461)" fill="#b4aaaa"/>
      <path id="Path_908599" data-name="Path 908599" d="M314.368,31.149a2.241,2.241,0,0,0-1.134-.61,2.242,2.242,0,0,1-.362,1.751l-3.345,4.742,1.743,1.744,3.345-4.742a2.248,2.248,0,0,0-.247-2.885Zm0,0" transform="translate(-271.289 -26.81)" fill="#9b9696"/>
      <path id="Path_908600" data-name="Path 908600" d="M56.607,202.936a9.288,9.288,0,1,1-9.288-9.288A9.288,9.288,0,0,1,56.607,202.936Zm0,0" transform="translate(-32.948 -170)" fill="#4172cc"/>
      <path id="Path_908601" data-name="Path 908601" d="M101.412,193.652a9.335,9.335,0,0,0-1.763.169,9.287,9.287,0,0,1,0,18.237,9.287,9.287,0,1,0,1.763-18.406Zm0,0" transform="translate(-87.04 -170.004)" fill="#2d56a1"/>
      <path id="Path_908602" data-name="Path 908602" d="M238.564,23.506l-6.546,6.546-15.27-17.5a3.058,3.058,0,0,1,4.315-4.315Zm0,0" transform="translate(-189.178 -6.568)" fill="#b4aaaa"/>
      <path id="Path_908603" data-name="Path 908603" d="M318.045,115.966l6.546-6.546-4.668-4.072a6.66,6.66,0,0,0-5.935,5.97Zm0,0" transform="translate(-275.205 -92.483)" fill="#9b9696"/>
      <path id="Path_908604" data-name="Path 908604" d="M345.007,129.677a6.658,6.658,0,1,1-6.657-6.658A6.657,6.657,0,0,1,345.007,129.677Zm0,0" transform="translate(-290.747 -107.997)" fill="#4172cc"/>
      <path id="Path_908605" data-name="Path 908605" d="M373.564,123.02a6.666,6.666,0,0,0-1.759.237,6.658,6.658,0,0,1,0,12.842,6.658,6.658,0,1,0,1.759-13.079Zm0,0" transform="translate(-325.961 -107.997)" fill="#2d56a1"/>
      <path id="Path_908606" data-name="Path 908606" d="M52.22,30.634a.916.916,0,0,0,.916-.916V26.845a7.57,7.57,0,0,0-5.6-12.74l-4.917-4.29,1.457-2.065a3.163,3.163,0,0,0-4.408-4.408L37.2,5.084,32.487.975A3.974,3.974,0,0,0,26.88,6.583l3.182,3.647L14.379,22.73h-.008A10.2,10.2,0,0,0,6.454,39.364v8.511a.916.916,0,0,0,1.832,0V41.121a10.328,10.328,0,0,0,1.643,1V45.33a.916.916,0,0,0,1.832,0V42.8a10.246,10.246,0,0,0,5.221,0V45.33a.916.916,0,0,0,1.832,0V42.119a10.333,10.333,0,0,0,1.643-1V53.01H8.286V50.958a.916.916,0,0,0-1.832,0V53.01H3.263a.916.916,0,0,0-.916.916v3.047H1.416a.916.916,0,0,0-.916.916v3.72a.916.916,0,0,0,.916.916H26.19a.916.916,0,0,0,.916-.916v-3.72a.916.916,0,0,0-.916-.916h-.93V53.926a.916.916,0,0,0-.916-.916H22.288V39.363a10.153,10.153,0,0,0,2.284-6.183L36.753,17.9l3.276,3.755c0,.009,0,.017,0,.026a7.546,7.546,0,0,0,2.041,5.166v8.794a.916.916,0,0,0,.916.916h.7v3.16a.916.916,0,0,0,.916.916h.486l1.62,7.122a.917.917,0,0,0,1.786,0l1.62-7.122H50.6a.916.916,0,0,0,.916-.916v-3.16h.7a.916.916,0,0,0,.916-.916V32.8a.916.916,0,0,0-1.832,0v1.921H43.9V28.287a7.582,7.582,0,0,0,7.4,0v1.431a.915.915,0,0,0,.916.916ZM25.274,60.693H2.332V58.8H25.274Zm-1.846-3.72H4.179V54.842h19.25ZM40.722,4.838a1.331,1.331,0,0,1,1.856,1.855L41.23,8.6,38.617,6.323ZM28.36,2.455a2.149,2.149,0,0,1,2.924-.1L45.2,14.495A7.569,7.569,0,0,0,40.409,19.3L28.261,5.378a2.148,2.148,0,0,1,.1-2.923ZM9.942,40.035a8.371,8.371,0,1,1,12.8-7.1,8.375,8.375,0,0,1-12.8,7.1ZM24.3,30.579a10.17,10.17,0,0,0-7.386-7.529L31.268,11.612l.9,1.026.417.478L29.626,16.07a.916.916,0,0,0,1.3,1.3L33.787,14.5l1.741,2Zm17.606-9.637a5.742,5.742,0,1,1,5.105,6.448,5.755,5.755,0,0,1-5.105-6.448ZM47.6,43.42l-.635-2.791h1.27Zm2.083-6.866V38.8H45.519V36.554Zm0,0"/>
      <path id="Path_908607" data-name="Path 908607" d="M136.119,229.469l-.387.387a.916.916,0,0,0,1.3,1.3l.387-.387a.916.916,0,0,0-1.3-1.3Zm0,0" transform="translate(-118.481 -201.211)"/>
      <path id="Path_908608" data-name="Path 908608" d="M75.2,290.392l-.387.387a.916.916,0,1,0,1.3,1.3l.387-.387a.916.916,0,1,0-1.3-1.3Zm0,0" transform="translate(-64.999 -254.695)"/>
      <path id="Path_908609" data-name="Path 908609" d="M137.027,290.391a.916.916,0,1,0-1.3,1.3l.387.387a.916.916,0,1,0,1.3-1.3Zm0,0" transform="translate(-118.481 -254.693)"/>
      <path id="Path_908610" data-name="Path 908610" d="M76.1,229.469a.916.916,0,1,0-1.3,1.3l.387.387a.916.916,0,1,0,1.3-1.3Zm0,0" transform="translate(-64.999 -201.211)"/>
      <path id="Path_908611" data-name="Path 908611" d="M397.3,152.914l.228-.228a.916.916,0,0,0-1.3-1.3l-.228.229a.916.916,0,0,0,1.3,1.3Zm0,0" transform="translate(-346.971 -132.668)"/>
      <path id="Path_908612" data-name="Path 908612" d="M361.372,188.843l.228-.228a.916.916,0,0,0-1.3-1.3l-.228.229a.916.916,0,1,0,1.3,1.3Zm0,0" transform="translate(-315.43 -164.209)"/>
      <path id="Path_908613" data-name="Path 908613" d="M396.236,188.843a.916.916,0,1,0,1.3-1.3l-.228-.229a.916.916,0,0,0-1.3,1.3Zm0,0" transform="translate(-346.973 -164.209)"/>
      <path id="Path_908614" data-name="Path 908614" d="M360.306,152.914a.916.916,0,1,0,1.3-1.3l-.228-.229a.916.916,0,1,0-1.3,1.3Zm0,0" transform="translate(-315.431 -132.668)"/>
    </g>
  </g>
</svg>
