<svg xmlns="http://www.w3.org/2000/svg" width="77.597" height="76.026" viewBox="0 0 77.597 76.026">
  <g id="Group_1117316" data-name="Group 1117316" transform="translate(-6.5 -11.662)">
    <g id="Group_1117313" data-name="Group 1117313" transform="translate(7.5 12.662)">
      <g id="Group_1117301" data-name="Group 1117301" transform="translate(0)">
        <path id="Path_908458" data-name="Path 908458" d="M82.876,53.79a38.357,38.357,0,0,0,0-8.229l-8.851-2.607a29.277,29.277,0,0,0-1.534-4.726l5.629-7.314a37.913,37.913,0,0,0-4.842-6.654l-8.7,3.094a29.586,29.586,0,0,0-4.013-2.92l.256-9.233A37.51,37.51,0,0,0,53,12.662l-5.221,7.62q-1.227-.1-2.481-.1t-2.481.1L37.6,12.662a37.517,37.517,0,0,0-7.824,2.54l.256,9.233a29.6,29.6,0,0,0-4.013,2.92l-8.7-3.094a37.928,37.928,0,0,0-4.842,6.654l5.629,7.314a29.272,29.272,0,0,0-1.534,4.726L7.721,45.561a38.357,38.357,0,0,0,0,8.229L16.572,56.4a29.277,29.277,0,0,0,1.534,4.726l-5.629,7.314A37.912,37.912,0,0,0,17.32,75.09L26.016,72a29.587,29.587,0,0,0,4.013,2.92l-.256,9.233a37.511,37.511,0,0,0,7.824,2.54l5.221-7.62q1.227.1,2.481.1t2.481-.1L53,86.689a37.517,37.517,0,0,0,7.824-2.54l-.256-9.233A29.6,29.6,0,0,0,64.581,72l8.7,3.094a37.92,37.92,0,0,0,4.842-6.654l-5.629-7.314A29.272,29.272,0,0,0,74.025,56.4Z" transform="translate(-7.5 -12.662)" fill="#685e68"/>
        <circle id="Ellipse_11974" data-name="Ellipse 11974" cx="18.909" cy="18.909" r="18.909" transform="translate(18.89 18.105)" fill="none" stroke="#000" stroke-linecap="round" stroke-linejoin="round" stroke-miterlimit="10" stroke-width="2"/>
        <g id="Group_1117300" data-name="Group 1117300" transform="translate(30.98 26.689)">
          <path id="Path_908459" data-name="Path 908459" d="M223.874,198.369a6.867,6.867,0,1,1-11.774,0l5.887-10.249Z" transform="translate(-211.168 -188.12)" fill="none" stroke="#000" stroke-linecap="round" stroke-linejoin="round" stroke-miterlimit="10" stroke-width="2"/>
        </g>
      </g>
      <g id="Group_1117303" data-name="Group 1117303" transform="translate(14.175 13.389)">
        <circle id="Ellipse_11975" data-name="Ellipse 11975" cx="23.624" cy="23.624" r="23.624" fill="#698ed5"/>
        <path id="Path_908460" data-name="Path 908460" d="M105.342,124.311a23.627,23.627,0,0,1,21.3-23.511q-1.148-.112-2.327-.113a23.624,23.624,0,1,0,0,47.248q1.178,0,2.327-.113A23.627,23.627,0,0,1,105.342,124.311Z" transform="translate(-100.687 -100.687)" fill="#3f73c8"/>
        <circle id="Ellipse_11976" data-name="Ellipse 11976" cx="18.909" cy="18.909" r="18.909" transform="translate(4.716 4.716)" fill="#d2e4f9"/>
        <path id="Path_908461" data-name="Path 908461" d="M136.251,150.6a18.912,18.912,0,0,1,16.627-18.772,19.112,19.112,0,0,0-2.282-.136,18.909,18.909,0,1,0,2.282,37.681A18.912,18.912,0,0,1,136.251,150.6Z" transform="translate(-126.972 -126.972)" fill="#bbd3ea"/>
        <g id="Group_1117302" data-name="Group 1117302" transform="translate(16.805 13.299)">
          <path id="Path_908462" data-name="Path 908462" d="M223.874,198.369a6.867,6.867,0,1,1-11.774,0l5.887-10.249Z" transform="translate(-211.168 -188.12)" fill="#fee07d"/>
        </g>
        <path id="Path_908463" data-name="Path 908463" d="M216.664,198.369l3.605-6.277-2.282-3.972L212.1,198.369a6.876,6.876,0,0,0,8.164,10.02A6.979,6.979,0,0,1,216.664,198.369Z" transform="translate(-194.363 -174.821)" fill="#ffcf64"/>
      </g>
      <g id="Group_1117312" data-name="Group 1117312" transform="translate(0 0.072)">
        <g id="Group_1117311" data-name="Group 1117311">
          <g id="Group_1117304" data-name="Group 1117304" transform="translate(41.285 0.053)">
            <path id="Path_908464" data-name="Path 908464" d="M280,20.88q.956,0,1.9.06a1.04,1.04,0,0,0,.923-.452l3.375-4.927a1.045,1.045,0,0,0-.58-1.6q-.88-.246-1.777-.449a1.048,1.048,0,0,0-1.1.428l-3.632,5.3a1.046,1.046,0,0,0,.871,1.635Z" transform="translate(-278.922 -13.489)" fill="#554e56"/>
          </g>
          <g id="Group_1117305" data-name="Group 1117305" transform="translate(20.594)">
            <path id="Path_908465" data-name="Path 908465" d="M143.3,27.02l1.739.619a.618.618,0,0,0,.606-.112,29.6,29.6,0,0,1,3.439-2.5.618.618,0,0,0,.293-.542l-.234-8.462a.618.618,0,0,1,.368-.583q1.377-.6,2.809-1.1a.617.617,0,0,0,.307-.932h0a.618.618,0,0,0-.64-.256,37.514,37.514,0,0,0-7.039,2.285.618.618,0,0,0-.368.583l.234,8.462a.619.619,0,0,1-.293.542q-.7.434-1.367.905A.619.619,0,0,0,143.3,27.02Z" transform="translate(-142.891 -13.138)" fill="#554e56"/>
          </g>
          <g id="Group_1117306" data-name="Group 1117306" transform="translate(39.859 7.516)">
            <path id="Path_908466" data-name="Path 908466" d="M269.544,62.552l.022.032.2-.016Z" transform="translate(-269.544 -62.552)" fill="#554e56"/>
          </g>
          <g id="Group_1117307" data-name="Group 1117307" transform="translate(39.859 66.334)">
            <path id="Path_908467" data-name="Path 908467" d="M269.765,449.251l-.2-.016-.022.032Z" transform="translate(-269.544 -449.235)" fill="#554e56"/>
          </g>
          <g id="Group_1117308" data-name="Group 1117308" transform="translate(0 11.703)">
            <path id="Path_908468" data-name="Path 908468" d="M17.475,133.513l4.825-6.269a1.048,1.048,0,0,0,.147-1.026,29.287,29.287,0,0,1-1.172-3.609,1.048,1.048,0,0,0-.722-.743l-7.586-2.235a1.058,1.058,0,0,1-.754-.922q-.149-1.677-.15-3.393t.15-3.393a1.058,1.058,0,0,1,.754-.922l7.586-2.235a1.048,1.048,0,0,0,.722-.743,29.244,29.244,0,0,1,1.172-3.609,1.048,1.048,0,0,0-.147-1.026l-4.825-6.269a1.06,1.06,0,0,1-.066-1.192,37.905,37.905,0,0,1,2.485-3.649,1.053,1.053,0,0,0-.485-1.633l-1.42-.505a1.058,1.058,0,0,0-1.151.3,37.917,37.917,0,0,0-3.994,5.488,1.058,1.058,0,0,0,.068,1.189l4.825,6.269a1.048,1.048,0,0,1,.147,1.026,29.286,29.286,0,0,0-1.172,3.609,1.048,1.048,0,0,1-.722.743L8.405,111a1.058,1.058,0,0,0-.754.922Q7.5,113.6,7.5,115.315t.15,3.393a1.058,1.058,0,0,0,.754.922l7.586,2.235a1.048,1.048,0,0,1,.722.743,29.244,29.244,0,0,0,1.172,3.609,1.048,1.048,0,0,1-.147,1.026l-4.825,6.269a1.058,1.058,0,0,0-.068,1.189,37.918,37.918,0,0,0,3.994,5.488,1.058,1.058,0,0,0,1.151.3l1.42-.505a1.053,1.053,0,0,0,.485-1.633A37.859,37.859,0,0,1,17.41,134.7,1.059,1.059,0,0,1,17.475,133.513Z" transform="translate(-7.501 -90.077)" fill="#554e56"/>
          </g>
          <g id="Group_1117309" data-name="Group 1117309" transform="translate(41.285 66.375)">
            <path id="Path_908469" data-name="Path 908469" d="M282.817,449.956a1.04,1.04,0,0,0-.923-.452q-.941.06-1.9.06h-.021a1.046,1.046,0,0,0-.871,1.635l3.632,5.3a1.048,1.048,0,0,0,1.1.428q.9-.2,1.777-.449a1.045,1.045,0,0,0,.58-1.6Z" transform="translate(-278.921 -449.502)" fill="#554e56"/>
          </g>
          <g id="Group_1117310" data-name="Group 1117310" transform="translate(20.594 59.346)">
            <path id="Path_908470" data-name="Path 908470" d="M149.145,414.945l.234-8.462a.618.618,0,0,0-.293-.542,29.581,29.581,0,0,1-3.439-2.5.618.618,0,0,0-.606-.112l-1.739.619a.619.619,0,0,0-.146,1.09q.67.471,1.367.905a.619.619,0,0,1,.293.542l-.234,8.462a.617.617,0,0,0,.368.583,37.515,37.515,0,0,0,7.039,2.285.618.618,0,0,0,.64-.256h0a.617.617,0,0,0-.307-.932q-1.431-.494-2.809-1.1A.617.617,0,0,1,149.145,414.945Z" transform="translate(-142.891 -403.291)" fill="#554e56"/>
          </g>
        </g>
      </g>
    </g>
    <g id="Group_1117315" data-name="Group 1117315" transform="translate(7.5 12.662)">
      <path id="Path_908471" data-name="Path 908471" d="M107.459,107.754a23.577,23.577,0,1,1-3.112,3.92" transform="translate(-86.512 -87.297)" fill="none" stroke="#000" stroke-linecap="round" stroke-linejoin="round" stroke-miterlimit="10" stroke-width="2"/>
      <circle id="Ellipse_11977" data-name="Ellipse 11977" cx="18.909" cy="18.909" r="18.909" transform="translate(18.89 18.105)" fill="none" stroke="#000" stroke-linecap="round" stroke-linejoin="round" stroke-miterlimit="10" stroke-width="2"/>
      <path id="Path_908472" data-name="Path 908472" d="M256,157.1q1.253,0,2.481-.1l5.221,7.62a37.517,37.517,0,0,0,7.824-2.54l-.256-9.233a29.6,29.6,0,0,0,4.013-2.92l8.7,3.094a37.918,37.918,0,0,0,4.842-6.654l-5.629-7.314a29.27,29.27,0,0,0,1.534-4.726l8.851-2.607a38.358,38.358,0,0,0,0-8.229l-8.851-2.607a29.275,29.275,0,0,0-1.534-4.726l5.629-7.314a37.863,37.863,0,0,0-2.848-4.271" transform="translate(-218.199 -90.593)" fill="none" stroke="#000" stroke-linecap="round" stroke-linejoin="round" stroke-miterlimit="10" stroke-width="2"/>
      <path id="Path_908473" data-name="Path 908473" d="M70.3,25.322l-5.719,2.035a29.586,29.586,0,0,0-4.013-2.92l.256-9.233A37.51,37.51,0,0,0,53,12.664l-5.221,7.62q-1.227-.1-2.481-.1t-2.481.1L37.6,12.664a37.517,37.517,0,0,0-7.824,2.54l.256,9.233a29.6,29.6,0,0,0-4.013,2.92l-8.7-3.094a37.928,37.928,0,0,0-4.842,6.654l5.629,7.314a29.272,29.272,0,0,0-1.534,4.726L7.721,45.563a38.357,38.357,0,0,0,0,8.229L16.572,56.4a29.277,29.277,0,0,0,1.534,4.726l-5.629,7.314a37.912,37.912,0,0,0,4.842,6.654L26.016,72a29.587,29.587,0,0,0,4.013,2.92l-.256,9.233A37.511,37.511,0,0,0,37.6,86.69l2.677-3.907" transform="translate(-7.5 -12.664)" fill="none" stroke="#000" stroke-linecap="round" stroke-linejoin="round" stroke-miterlimit="10" stroke-width="2"/>
      <g id="Group_1117314" data-name="Group 1117314" transform="translate(30.98 26.688)">
        <path id="Path_908474" data-name="Path 908474" d="M223.874,198.369a6.867,6.867,0,1,1-11.774,0l5.887-10.249Z" transform="translate(-211.168 -188.12)" fill="none" stroke="#000" stroke-linecap="round" stroke-linejoin="round" stroke-miterlimit="10" stroke-width="2"/>
      </g>
    </g>
  </g>
</svg>
