<svg xmlns="http://www.w3.org/2000/svg" width="94" height="94" viewBox="0 0 94 94">
  <g id="Group_1117380" data-name="Group 1117380" transform="translate(-746.475 -6160)">
    <g id="Group_1117375" data-name="Group 1117375" transform="translate(750.485 6074.933)">
      <path id="Path_908630" data-name="Path 908630" d="M78.834,161.239C53.392,132.9,32.436,132.9,7,161.239c25.436,28.342,46.392,28.342,71.834,0Z" transform="translate(-5.828 -27.367)" fill="#d5e3f2" fill-rule="evenodd"/>
      <path id="Path_908631" data-name="Path 908631" d="M156.925,186.926a16.045,16.045,0,1,1-16.045-16.043,16.046,16.046,0,0,1,16.045,16.043Z" transform="translate(-103.791 -53.054)" fill="#69a7ff" fill-rule="evenodd"/>
      <path id="Path_908632" data-name="Path 908632" d="M184.766,221.85a8.961,8.961,0,1,1-8.963-8.958,8.961,8.961,0,0,1,8.963,8.958Z" transform="translate(-138.716 -87.979)" fill="#4d6c8f" fill-rule="evenodd"/>
      <path id="Path_908633" data-name="Path 908633" d="M235.237,207.573a3.295,3.295,0,1,1-.965-2.333,3.3,3.3,0,0,1,.965,2.333Z" transform="translate(-190.091 -80.815)" fill="#d5e3f2" fill-rule="evenodd"/>
      <path id="Path_908634" data-name="Path 908634" d="M0,0H3.83V18.806H0Z" transform="translate(70.6 133.373) rotate(-14.954)" fill="#4d6c8f"/>
      <g id="Group_1117374" data-name="Group 1117374" transform="translate(35.37 108.24)">
        <path id="Path_908635" data-name="Path 908635" d="M424.486,307.344l6.358-1.7,3.059,11.43a3.289,3.289,0,1,1-6.354,1.7Z" transform="translate(-388.28 -273.328)" fill="#fea832" fill-rule="evenodd"/>
        <path id="Path_908636" data-name="Path 908636" d="M335.884,114.564a15.206,15.206,0,1,1-10.751,18.624,15.206,15.206,0,0,1,10.751-18.624Z" transform="translate(-305.247 -114.038)" fill="#69a7ff" fill-rule="evenodd"/>
        <path id="Path_908637" data-name="Path 908637" d="M356.424,137.887a11.244,11.244,0,1,1-6.836,5.238A11.251,11.251,0,0,1,356.424,137.887Z" transform="translate(-324.759 -133.542)" fill="#d5e3f2" fill-rule="evenodd"/>
        <path id="Path_908638" data-name="Path 908638" d="M240.08,290.76c-10.588,10.76-20.455,16.44-30.287,17.032,10.8.65,21.559-4.842,33.171-16.482a15.352,15.352,0,0,1-2.883-.55Z" transform="translate(-209.792 -260.955)" fill="#b7cfe8" fill-rule="evenodd"/>
        <path id="Path_908639" data-name="Path 908639" d="M209.79,140.04c6.473.388,12.964,2.983,19.666,7.782a15.063,15.063,0,0,1,.531-1.95C223.131,141.579,216.468,139.633,209.79,140.04Z" transform="translate(-209.79 -135.609)" fill="#b7cfe8" fill-rule="evenodd"/>
        <path id="Path_908640" data-name="Path 908640" d="M213.078,170.921a16.047,16.047,0,0,1,0,32.009c.382.029.774.043,1.162.043a16.045,16.045,0,1,0,0-32.09c-.388,0-.779.014-1.162.038Z" transform="translate(-212.524 -161.294)" fill="#4c8fed" fill-rule="evenodd"/>
        <path id="Path_908641" data-name="Path 908641" d="M223.547,236.491a8.964,8.964,0,0,1-7.209,13.313c.2.015.406.024.612.024a8.964,8.964,0,0,0,7.371-14.064,3.3,3.3,0,0,1-.775.727Z" transform="translate(-215.234 -215.233)" fill="#3b5c82" fill-rule="evenodd"/>
        <path id="Path_908642" data-name="Path 908642" d="M216.336,212.911a8.789,8.789,0,0,1,2.361.483,2.228,2.228,0,0,1,.153-.3,8.889,8.889,0,0,0-1.9-.2c-.206,0-.411,0-.612.019Z" transform="translate(-215.231 -196.219)" fill="#3b5c82" fill-rule="evenodd"/>
        <path id="Path_908643" data-name="Path 908643" d="M421.148,125.3a15.193,15.193,0,0,1-10.369,18.514c-.129.038-.253.077-.382.11a15.382,15.382,0,0,1-2.749.473,14.932,14.932,0,0,0,3.26-.1,15.209,15.209,0,0,0-3.241-30.231,15.219,15.219,0,0,1,13.481,11.23Z" transform="translate(-374.282 -114.024)" fill="#4c8fed" fill-rule="evenodd"/>
        <path id="Path_908644" data-name="Path 908644" d="M448.807,306.241l2.577,9.618.344,1.282a3.3,3.3,0,0,1-1.883,3.871,3.278,3.278,0,0,0,4.278-3.944l-3.059-11.43-1.329.354Z" transform="translate(-408.5 -273.324)" fill="#ed9e00" fill-rule="evenodd"/>
      </g>
      <path id="Path_908645" data-name="Path 908645" d="M46.326,126.759a4.474,4.474,0,0,0-7.859-2.93,10.131,10.131,0,1,0,7.382,4.934A4.441,4.441,0,0,0,46.326,126.759Zm-4.477-2.12a2.118,2.118,0,1,1-2.12,2.12,2.118,2.118,0,0,1,2.12-2.12Zm-4.762,17.019a7.785,7.785,0,0,1,0-15.571c.111,0,.222,0,.334.009a4.475,4.475,0,0,0,6.729,4.5,7.787,7.787,0,0,1-7.062,11.064Zm0-25.008a17.225,17.225,0,1,0,17.227,17.225A17.224,17.224,0,0,0,37.087,116.65Zm0,32.092a14.868,14.868,0,1,1,14.87-14.87,14.868,14.868,0,0,1-14.87,14.87Zm39.141-29.988a1.178,1.178,0,0,1,0,1.666L68.5,128.146a1.178,1.178,0,0,1-1.667,0l-3.165-3.164a1.178,1.178,0,1,1,1.667-1.666l2.331,2.331,6.892-6.892a1.178,1.178,0,0,1,1.667,0Zm5.726,1.48a12.343,12.343,0,1,0-1.209,9.451,12.43,12.43,0,0,0,1.209-9.451Zm-9.4,12.95a10.074,10.074,0,0,1-5.214-19.461h0a10.073,10.073,0,0,1,5.213,19.461Zm6.52,7.068a1.179,1.179,0,0,0-1.444-.834l-.19.051-.341-1.275a16.386,16.386,0,1,0-21.347-22.935,16.632,16.632,0,0,0-.776,1.518c-8.988-5.293-17.662-6.634-26.475-4.1-8.976,2.582-18.2,9.258-28.213,20.407a1.178,1.178,0,0,0,0,1.574C6.7,141.8,12.674,147.011,18.548,150.587c6.054,3.685,11.86,5.552,17.752,5.707.259.007.517.01.776.01,10.281,0,20.736-5.408,31.917-16.5.32.019.641.032.963.032.387,0,.776-.015,1.165-.043l.342,1.273-.19.051a1.178,1.178,0,0,0-.834,1.444l3.064,11.43a4.468,4.468,0,0,0,8.631-2.311ZM36.365,153.939c-10.544-.279-21.545-6.846-33.606-20.066,9.427-10.336,18.069-16.533,26.4-18.929,8.277-2.382,16.465-1.045,25,4.087a16.4,16.4,0,0,0,11.909,20.336c-10.5,10.049-20.23,14.827-29.706,14.572ZM56.4,127.08a13.919,13.919,0,0,1,.256-8.124q.017-.042.031-.084a14.175,14.175,0,0,1,1.113-2.433,13.927,13.927,0,0,1,8.518-6.535A14.028,14.028,0,1,1,56.4,127.081Zm18.769,13-1.425.381-.27-1.006c.239-.053.479-.109.718-.173s.475-.135.708-.208Zm3.206,14.8a2.121,2.121,0,0,1-2.59-1.494l-2.759-10.292L77.1,142l2.755,10.293a2.113,2.113,0,0,1-1.487,2.586Z" transform="translate(0 0)"/>
    </g>
    <rect id="Rectangle_409946" data-name="Rectangle 409946" width="94" height="94" transform="translate(746.475 6160)" fill="none"/>
  </g>
</svg>
