<svg xmlns="http://www.w3.org/2000/svg" width="94" height="94" viewBox="0 0 94 94">
  <g id="Group_1117379" data-name="Group 1117379" transform="translate(-1178.475 -6160)">
    <rect id="Rectangle_409947" data-name="Rectangle 409947" width="94" height="94" transform="translate(1178.475 6160)" fill="none"/>
    <g id="Layer_2" transform="translate(1128.735 6162.997)">
      <g id="Group_1117378" data-name="Group 1117378" transform="translate(65.74 2.003)">
        <g id="Group_1117376" data-name="Group 1117376" transform="translate(28.655 66)">
          <path id="Path_908646" data-name="Path 908646" d="M255.071,415.027H240.452v-3.28h14.619a5,5,0,0,0,5-5v-2.337h3.28v2.337A8.286,8.286,0,0,1,255.071,415.027Z" transform="translate(-240.452 -404.413)" fill="#68c0e0"/>
        </g>
        <path id="Path_908647" data-name="Path 908647" d="M233.5,444.31h9.627v4.86H233.5Z" transform="translate(-205.985 -371.766)" fill="#494a47"/>
        <path id="Path_908648" data-name="Path 908648" d="M292.194,446.772h3.16v4.053h-3.16Z" transform="translate(-255.053 -373.824)" fill="#494a47"/>
        <path id="Path_908649" data-name="Path 908649" d="M108.4,87.5h8.124v7.168H108.4Z" transform="translate(-101.405 -73.477)" fill="#cdcdc6"/>
        <path id="Path_908650" data-name="Path 908650" d="M108.4,87.5h3.823v7.168H108.4Z" transform="translate(-101.405 -73.477)" fill="#989898"/>
        <path id="Path_908651" data-name="Path 908651" d="M95.9,247.627h-9.05a10.8,10.8,0,0,1-10.8-10.8v-39.7H106.7v39.7A10.8,10.8,0,0,1,95.9,247.627Z" transform="translate(-74.361 -165.129)" fill="#68c0e0"/>
        <path id="Path_908652" data-name="Path 908652" d="M79.874,236.83v-39.7H76.051v39.7a10.8,10.8,0,0,0,10.8,10.8H90.67A10.8,10.8,0,0,1,79.874,236.83Z" transform="translate(-74.36 -165.129)" fill="#3282a1"/>
        <path id="Path_908653" data-name="Path 908653" d="M106.694,129.7H76.051v-.643a8.832,8.832,0,0,1,8.832-8.832h12.98a8.832,8.832,0,0,1,8.832,8.832Z" transform="translate(-74.36 -100.836)" fill="#68c0e0"/>
        <path id="Path_908654" data-name="Path 908654" d="M88.706,120.226H84.883a8.832,8.832,0,0,0-8.832,8.832v.643h3.823v-.643A8.832,8.832,0,0,1,88.706,120.226Z" transform="translate(-74.36 -100.836)" fill="#3282a1"/>
        <path id="Path_908655" data-name="Path 908655" d="M70.742,177.991h32.385v3.14H70.742Z" transform="translate(-69.922 -149.127)" fill="#68c0e0"/>
        <path id="Path_908656" data-name="Path 908656" d="M70.742,177.991h3.823v3.14H70.742Z" transform="translate(-69.922 -149.127)" fill="#3282a1"/>
        <path id="Path_908657" data-name="Path 908657" d="M146.233,42h7.622v4.1h-7.622Z" transform="translate(-133.031 -35.441)" fill="#68c0e0"/>
        <path id="Path_908658" data-name="Path 908658" d="M146.233,42h3.811v4.1h-3.811Z" transform="translate(-133.031 -35.441)" fill="#3282a1"/>
        <path id="Path_908659" data-name="Path 908659" d="M157.934,67.021h3.783v8.726h-3.783Z" transform="translate(-142.813 -56.357)" fill="#3282a1"/>
        <path id="Path_908660" data-name="Path 908660" d="M315.6,201.873h-3.763a9.169,9.169,0,0,1-9.169-9.169V162.136h22.1V192.7A9.169,9.169,0,0,1,315.6,201.873Z" transform="translate(-263.812 -135.872)" fill="#68c0e0"/>
        <path id="Path_908661" data-name="Path 908661" d="M306.494,192.7V162.136h-3.823V192.7a9.169,9.169,0,0,0,9.169,9.169h3.793A9.169,9.169,0,0,1,306.494,192.7Z" transform="translate(-263.811 -135.872)" fill="#3282a1"/>
        <path id="Path_908662" data-name="Path 908662" d="M324.774,94.7h-22.1V92.728a7.5,7.5,0,0,1,7.5-7.5h7.1a7.5,7.5,0,0,1,7.5,7.5Z" transform="translate(-263.812 -71.578)" fill="#68c0e0"/>
        <path id="Path_908663" data-name="Path 908663" d="M313.994,85.228h-3.823a7.5,7.5,0,0,0-7.5,7.5V94.7h3.823V92.728A7.5,7.5,0,0,1,313.994,85.228Z" transform="translate(-263.811 -71.578)" fill="#3282a1"/>
        <path id="Path_908664" data-name="Path 908664" d="M298.842,142.993H322.2v3.14H298.842Z" transform="translate(-260.61 -119.869)" fill="#68c0e0"/>
        <path id="Path_908665" data-name="Path 908665" d="M298.842,142.993h3.823v3.14h-3.823Z" transform="translate(-260.61 -119.869)" fill="#3282a1"/>
        <path id="Path_908666" data-name="Path 908666" d="M346.815,7h7.622v4.1h-7.622Z" transform="translate(-300.715 -6.183)" fill="#68c0e0"/>
        <path id="Path_908667" data-name="Path 908667" d="M346.815,7h3.811v4.1h-3.811Z" transform="translate(-300.715 -6.183)" fill="#3282a1"/>
        <path id="Path_908668" data-name="Path 908668" d="M358.516,32.023H362.3v8.726h-3.783Z" transform="translate(-310.497 -27.099)" fill="#3282a1"/>
        <path id="Path_908669" data-name="Path 908669" d="M302.672,220.679h22.1v8.411h-22.1Z" transform="translate(-263.812 -184.813)" fill="#494a47"/>
        <path id="Path_908670" data-name="Path 908670" d="M262.885,226.427h6.526v6.526h-6.526Z" transform="translate(-230.551 -189.619)" fill="#494a47"/>
        <path id="Path_908671" data-name="Path 908671" d="M105.039,259.572h21.069v15.006H105.039Z" transform="translate(-98.593 -217.327)" fill="#fff"/>
        <g id="Group_1117377" data-name="Group 1117377" transform="translate(0 0)">
          <path id="Path_908672" data-name="Path 908672" d="M127.522,24.332V23.153a8.33,8.33,0,0,0-8.321-8.32h-.839V7.747h1.1a.82.82,0,0,0,.82-.82v-4.1a.82.82,0,0,0-.82-.82H111.84a.82.82,0,0,0-.82.82v4.1a.82.82,0,0,0,.82.82h1.1v7.086H112.1a8.33,8.33,0,0,0-8.321,8.32v1.179a.819.819,0,0,0-.628.8v3.14a.819.819,0,0,0,.628.8v8.929H98.894V34.827h.051a.82.82,0,0,0,.82-.82v-3.14a.82.82,0,0,0-.82-.82H98.89a9.661,9.661,0,0,0-9.647-9.474H85.464V13.487h1.1a.82.82,0,0,0,.82-.82v-4.1a.82.82,0,0,0-.82-.82H78.942a.82.82,0,0,0-.82.82v4.1a.82.82,0,0,0,.82.82h1.1v1.719h-7.3a.82.82,0,0,0-.82.82v5.585a9.66,9.66,0,0,0-5.3,8.436H66.56a.82.82,0,0,0-.82.82v3.14a.82.82,0,0,0,.82.82h.051V73.7A11.63,11.63,0,0,0,78.227,85.321h9.05a11.613,11.613,0,0,0,9.607-5.093h6a.817.817,0,0,0,.7-.4h2.457a.818.818,0,0,0,.693-.386h2.279a9.107,9.107,0,0,0,9.1-9.1V68.805a10,10,0,0,0,9.411-9.971V29.062a.819.819,0,0,0,.628-.8v-3.14a.818.818,0,0,0-.628-.795Zm-22.1,33.682V47.1h20.462V58.014Zm1.315,16.5a.817.817,0,0,0-.693-.386h-2.457a.816.816,0,0,0-.7-.4H98.894c0-.008,0-.015,0-.023V46.157h4.885V58.834a10,10,0,0,0,9.411,9.971V70.34a4.181,4.181,0,0,1-4.177,4.177Zm19.775-47.07H104.792v-1.5H126.51Zm-.628,18.013H105.42V38.689h20.462Zm0-8.411H105.42V29.087h20.462ZM112.66,3.643h5.982V6.107H112.66Zm1.919,4.1h2.143v7.086h-2.143ZM105.42,23.153a6.688,6.688,0,0,1,6.68-6.68h7.1a6.688,6.688,0,0,1,6.68,6.68v1.154H105.42Zm-1.64,16.478v4.885H98.894V39.631Zm-36.4-6.445v-1.5H98.125v1.5H67.38Zm12.381-23.8h5.982v2.464H79.762Zm4.062,4.1v7.086H81.681V13.487ZM73.557,16.846h6.484v3.728H76.263a9.616,9.616,0,0,0-2.706.389Zm2.706,5.368h12.98a8.021,8.021,0,0,1,8.01,7.834h-29a8.021,8.021,0,0,1,8.01-7.834ZM87.278,83.68h-9.05A9.988,9.988,0,0,1,68.251,73.7V34.827h29V73.7A9.988,9.988,0,0,1,87.278,83.68Zm11.5-8.313h3.288v3.22H97.814A11.517,11.517,0,0,0,98.773,75.367Zm6.448,2.816H103.7V75.771h1.52Zm11.25-7.843a7.465,7.465,0,0,1-7.457,7.457h-2.153v-1.64h2.153a5.823,5.823,0,0,0,5.817-5.817V68.823h1.64V70.34Zm1.061-3.157h-3.763a8.36,8.36,0,0,1-8.308-7.529h20.38A8.36,8.36,0,0,1,117.532,67.183Z" transform="translate(-65.74 -2.003)"/>
          <path id="Path_908673" data-name="Path 908673" d="M121.928,254.572H100.859a.82.82,0,0,0-.82.82V270.4a.82.82,0,0,0,.82.82h21.069a.82.82,0,0,0,.82-.82V255.392A.82.82,0,0,0,121.928,254.572Zm-.82,15.006H101.679V256.212h19.429Z" transform="translate(-94.414 -213.147)"/>
        </g>
      </g>
    </g>
  </g>
</svg>
