<svg xmlns="http://www.w3.org/2000/svg" width="90" height="90" viewBox="0 0 90 90">
  <g id="Group_1118019" data-name="Group 1118019" transform="translate(-1080.475 -699)">
    <rect id="Rectangle_409911" data-name="Rectangle 409911" width="90" height="90" transform="translate(1080.475 699)" fill="none"/>
    <g id="Layer_25" data-name="Layer 25" transform="translate(1085.475 705.29)">
      <rect id="Rectangle_409923" data-name="Rectangle 409923" width="76" height="5" rx="2" transform="translate(2 57.71)" fill="#313e44"/>
      <path id="Path_908528" data-name="Path 908528" d="M74.452,47H4a2.516,2.516,0,0,0,2.516,2.516H76.968A2.516,2.516,0,0,0,74.452,47Z" transform="translate(0.774 10.581)" fill="#43525b"/>
      <path id="Path_908529" data-name="Path 908529" d="M10,7H30.129V29.645H10Z" transform="translate(2.323 0.258)" fill="#69737a"/>
      <path id="Path_908530" data-name="Path 908530" d="M12,7H29.613V27.129H12Z" transform="translate(2.839 0.258)" fill="#91989d"/>
      <path id="Path_908531" data-name="Path 908531" d="M10,11H30.129v5.032H10Z" transform="translate(2.323 1.29)" fill="#313e44"/>
      <path id="Path_908532" data-name="Path 908532" d="M16,25h5.032V48.9H16Z" transform="translate(3.871 4.903)" fill="#313e44"/>
      <path id="Path_908533" data-name="Path 908533" d="M11.032,41V61.129A5.032,5.032,0,0,1,6,56.1V46.032A5.032,5.032,0,0,1,11.032,41Z" transform="translate(1.29 9.032)" fill="#91989d"/>
      <path id="Path_908534" data-name="Path 908534" d="M12,11H29.613v5.032H12Z" transform="translate(2.839 1.29)" fill="#69737a"/>
      <path id="Path_908535" data-name="Path 908535" d="M16,27h5.032V48.387H16Z" transform="translate(3.871 5.419)" fill="#43525b"/>
      <path id="Path_908536" data-name="Path 908536" d="M14,44H24.065V56.581H14Z" transform="translate(3.355 9.806)" fill="#91989d"/>
      <path id="Path_908537" data-name="Path 908537" d="M16,44h7.548V54.065H16Z" transform="translate(3.871 9.806)" fill="#aab1b7"/>
      <path id="Path_908538" data-name="Path 908538" d="M8.516,41.555A5.01,5.01,0,0,0,6,45.889V55.954a5.01,5.01,0,0,0,2.516,4.334Z" transform="translate(1.29 9.175)" fill="#aab1b7"/>
      <path id="Path_908539" data-name="Path 908539" d="M5.032,0V20.129A5.032,5.032,0,0,1,0,15.1V5.032A5.032,5.032,0,0,1,5.032,0Z" transform="translate(37.484 70.161) rotate(180)" fill="#91989d"/>
      <path id="Path_908540" data-name="Path 908540" d="M28,41.555a5.01,5.01,0,0,1,2.516,4.334V55.954A5.01,5.01,0,0,1,28,60.288Z" transform="translate(6.968 9.175)" fill="#aab1b7"/>
      <path id="Path_908541" data-name="Path 908541" d="M38,7H58.129V29.645H38Z" transform="translate(9.548 0.258)" fill="#69737a"/>
      <path id="Path_908542" data-name="Path 908542" d="M40,7H57.613V27.129H40Z" transform="translate(10.065 0.258)" fill="#91989d"/>
      <path id="Path_908543" data-name="Path 908543" d="M38,11H58.129v5.032H38Z" transform="translate(9.548 1.29)" fill="#313e44"/>
      <path id="Path_908544" data-name="Path 908544" d="M44,25h5.032V48.9H44Z" transform="translate(11.097 4.903)" fill="#313e44"/>
      <path id="Path_908545" data-name="Path 908545" d="M39.032,41V61.129A5.032,5.032,0,0,1,34,56.1V46.032A5.032,5.032,0,0,1,39.032,41Z" transform="translate(8.516 9.032)" fill="#91989d"/>
      <path id="Path_908546" data-name="Path 908546" d="M40,11H57.613v5.032H40Z" transform="translate(10.065 1.29)" fill="#69737a"/>
      <path id="Path_908547" data-name="Path 908547" d="M44,27h5.032V48.387H44Z" transform="translate(11.097 5.419)" fill="#43525b"/>
      <path id="Path_908548" data-name="Path 908548" d="M42,44H52.065V56.581H42Z" transform="translate(10.581 9.806)" fill="#91989d"/>
      <path id="Path_908549" data-name="Path 908549" d="M44,44h7.548V54.065H44Z" transform="translate(11.097 9.806)" fill="#aab1b7"/>
      <path id="Path_908550" data-name="Path 908550" d="M36.516,41.555A5.01,5.01,0,0,0,34,45.889V55.954a5.01,5.01,0,0,0,2.516,4.334Z" transform="translate(8.516 9.175)" fill="#aab1b7"/>
      <path id="Path_908551" data-name="Path 908551" d="M5.032,0V20.129A5.032,5.032,0,0,1,0,15.1V5.032A5.032,5.032,0,0,1,5.032,0Z" transform="translate(72.71 70.161) rotate(180)" fill="#91989d"/>
      <path id="Path_908552" data-name="Path 908552" d="M56,41.555a5.01,5.01,0,0,1,2.516,4.334V55.954A5.01,5.01,0,0,1,56,60.288Z" transform="translate(14.194 9.175)" fill="#aab1b7"/>
      <path id="Path_908553" data-name="Path 908553" d="M75.226,56.323H73.968V55.065a6.3,6.3,0,0,0-6.29-6.29,1.258,1.258,0,0,0-1.258,1.258v6.29H63.9V53.806a1.258,1.258,0,0,0-1.258-1.258H61.387V31.161h6.29A1.258,1.258,0,0,0,68.935,29.9V7.258A1.258,1.258,0,0,0,67.677,6H47.548A1.258,1.258,0,0,0,46.29,7.258V29.9a1.258,1.258,0,0,0,1.258,1.258h6.29V52.548H52.581a1.258,1.258,0,0,0-1.258,1.258v2.516H48.806v-6.29a1.258,1.258,0,0,0-1.258-1.258,6.3,6.3,0,0,0-6.29,6.29v1.258H38.742V55.065a6.3,6.3,0,0,0-6.29-6.29,1.258,1.258,0,0,0-1.258,1.258v6.29H28.677V53.806a1.258,1.258,0,0,0-1.258-1.258H26.161V31.161h6.29A1.258,1.258,0,0,0,33.71,29.9V7.258A1.258,1.258,0,0,0,32.452,6H12.323a1.258,1.258,0,0,0-1.258,1.258V29.9a1.258,1.258,0,0,0,1.258,1.258h6.29V52.548H17.355A1.258,1.258,0,0,0,16.1,53.806v2.516H13.581v-6.29a1.258,1.258,0,0,0-1.258-1.258,6.3,6.3,0,0,0-6.29,6.29v1.258H4.774a3.774,3.774,0,0,0,0,7.548H6.032v1.258a6.3,6.3,0,0,0,6.29,6.29,1.258,1.258,0,0,0,1.258-1.258v-6.29H16.1v2.516a1.258,1.258,0,0,0,1.258,1.258H27.419a1.258,1.258,0,0,0,1.258-1.258V63.871h2.516v6.29a1.258,1.258,0,0,0,1.258,1.258,6.3,6.3,0,0,0,6.29-6.29V63.871h2.516v1.258a6.3,6.3,0,0,0,6.29,6.29,1.258,1.258,0,0,0,1.258-1.258v-6.29h2.516v2.516a1.258,1.258,0,0,0,1.258,1.258H62.645A1.258,1.258,0,0,0,63.9,66.387V63.871h2.516v6.29a1.258,1.258,0,0,0,1.258,1.258,6.3,6.3,0,0,0,6.29-6.29V63.871h1.258a3.774,3.774,0,0,0,0-7.548ZM4.774,61.355a1.258,1.258,0,1,1,0-2.516H6.032v2.516Zm6.29,7.333a3.782,3.782,0,0,1-2.516-3.559V55.065a3.782,3.782,0,0,1,2.516-3.559Zm2.516-7.333V58.839H16.1v2.516Zm17.613-45.29H13.581V13.548H31.194Zm0-7.548v2.516H13.581V8.516ZM13.581,18.581H31.194V28.645H13.581Zm7.548,12.581h2.516V52.548H21.129Zm5.032,33.968H18.613V55.065h7.548Zm2.516-3.774V58.839h2.516v2.516Zm7.548,3.774a3.782,3.782,0,0,1-2.516,3.559V51.505a3.782,3.782,0,0,1,2.516,3.559Zm2.516-3.774V58.839h2.516v2.516Zm7.548,7.333a3.782,3.782,0,0,1-2.516-3.559V55.065a3.782,3.782,0,0,1,2.516-3.559Zm2.516-7.333V58.839h2.516v2.516Zm17.613-45.29H48.806V13.548H66.419Zm0-7.548v2.516H48.806V8.516ZM48.806,18.581H66.419V28.645H48.806Zm7.548,12.581h2.516V52.548H56.355Zm5.032,33.968H53.839V55.065h7.548ZM63.9,61.355V58.839h2.516v2.516Zm7.548,3.774a3.782,3.782,0,0,1-2.516,3.559V51.505a3.782,3.782,0,0,1,2.516,3.559Zm3.774-3.774H73.968V58.839h1.258a1.258,1.258,0,0,1,0,2.516Z"/>
    </g>
  </g>
</svg>
