<svg xmlns="http://www.w3.org/2000/svg" width="90" height="90" viewBox="0 0 90 90">
  <g id="Group_1118028" data-name="Group 1118028" transform="translate(-615.051 -735)">
    <g id="Group_1117161" data-name="Group 1117161" transform="translate(612.551 732.5)">
      <g id="Group_1117158" data-name="Group 1117158" transform="translate(7.5 7.5)">
        <path id="Path_908331" data-name="Path 908331" d="M86.653,50.345V43.808a2.572,2.572,0,0,0-1.785-2.448l-5.931-1.906A32.559,32.559,0,0,0,75,29.938L77.842,24.4a2.572,2.572,0,0,0-.469-2.993L72.75,16.781a2.572,2.572,0,0,0-2.993-.469l-5.529,2.84a32.565,32.565,0,0,0-9.539-3.967l-1.9-5.9A2.572,2.572,0,0,0,50.345,7.5H43.808A2.572,2.572,0,0,0,41.36,9.285l-1.9,5.9a32.557,32.557,0,0,0-9.539,3.967L24.4,16.312a2.572,2.572,0,0,0-2.993.469L16.781,21.4a2.572,2.572,0,0,0-.469,2.993l2.846,5.542a32.563,32.563,0,0,0-3.942,9.516L9.285,41.36A2.572,2.572,0,0,0,7.5,43.808v6.537a2.572,2.572,0,0,0,1.785,2.448l5.952,1.912a32.562,32.562,0,0,0,3.943,9.467l-2.868,5.584a2.571,2.571,0,0,0,.469,2.993L21.4,77.373a2.572,2.572,0,0,0,2.993.469l5.6-2.875a32.565,32.565,0,0,0,9.444,3.918l1.923,5.983a2.572,2.572,0,0,0,2.448,1.785h6.537a2.572,2.572,0,0,0,2.448-1.785l1.923-5.983a32.556,32.556,0,0,0,9.444-3.918l5.6,2.875a2.572,2.572,0,0,0,2.993-.469l4.622-4.622a2.572,2.572,0,0,0,.469-2.993l-2.868-5.584a32.561,32.561,0,0,0,3.943-9.467l5.952-1.912A2.572,2.572,0,0,0,86.653,50.345Z" transform="translate(-7.5 -7.5)" fill="#918291"/>
        <path id="Path_908332" data-name="Path 908332" d="M129.883,86.376l-5.931-1.906a32.558,32.558,0,0,0-3.942-9.516l2.846-5.542a2.571,2.571,0,0,0-.469-2.993L117.765,61.8a2.572,2.572,0,0,0-2.993-.469l-3.011,1.546A35.443,35.443,0,0,1,62.9,111.715l-1.571,3.058a2.571,2.571,0,0,0,.469,2.993l4.622,4.622a2.572,2.572,0,0,0,2.993.469l5.6-2.875a32.566,32.566,0,0,0,9.444,3.918l1.923,5.983a2.572,2.572,0,0,0,2.448,1.785h6.537a2.572,2.572,0,0,0,2.448-1.785L99.73,123.9a32.556,32.556,0,0,0,9.444-3.918l5.6,2.875a2.572,2.572,0,0,0,2.993-.469l4.622-4.622a2.572,2.572,0,0,0,.469-2.993l-2.868-5.584a32.562,32.562,0,0,0,3.943-9.467l5.952-1.912a2.572,2.572,0,0,0,1.785-2.448V88.824A2.572,2.572,0,0,0,129.883,86.376Z" transform="translate(-52.514 -52.516)" fill="#7a6d79"/>
        <circle id="Ellipse_11966" data-name="Ellipse 11966" cx="27.644" cy="27.644" r="27.644" transform="translate(11.932 11.894)" fill="#eaf6ff"/>
        <path id="Path_908333" data-name="Path 908333" d="M154.652,115.77a27.644,27.644,0,0,1-38.64,38.64,27.644,27.644,0,1,0,38.64-38.64Z" transform="translate(-98.73 -98.527)" fill="#d8ecfe"/>
        <path id="Path_908334" data-name="Path 908334" d="M87.565,129.562A22.491,22.491,0,0,1,98.8,110.083l-2.555-4.426A27.632,27.632,0,0,0,82.422,129.6h5.144C87.565,129.588,87.565,129.575,87.565,129.562Z" transform="translate(-70.49 -90.024)" fill="#8ac9fe"/>
        <path id="Path_908335" data-name="Path 908335" d="M337.99,129.562c0,.013,0,.026,0,.039h5.144a27.633,27.633,0,0,0-13.82-23.944l-2.555,4.426A22.492,22.492,0,0,1,337.99,129.562Z" transform="translate(-275.912 -90.024)" fill="#fd8087"/>
        <path id="Path_908336" data-name="Path 908336" d="M370.277,138.58a27.6,27.6,0,0,0-11.234-22.243,27.515,27.515,0,0,1,5.283,16.212,22.52,22.52,0,0,1,.807,5.993c0,.013,0,.026,0,.039Z" transform="translate(-303.056 -99.003)" fill="#fe646f"/>
        <path id="Path_908337" data-name="Path 908337" d="M183.023,87.526a22.4,22.4,0,0,1,11.269,3.022l2.555-4.426a27.673,27.673,0,0,0-27.648,0l2.555,4.426A22.4,22.4,0,0,1,183.023,87.526Z" transform="translate(-143.447 -70.49)" fill="#ffe177"/>
        <circle id="Ellipse_11967" data-name="Ellipse 11967" cx="11.894" cy="11.894" r="11.894" transform="translate(27.683 27.644)" fill="#6cf5c2"/>
        <path id="Path_908338" data-name="Path 908338" d="M207.487,191.012a11.891,11.891,0,0,1-16.232,16.232,11.891,11.891,0,1,0,16.232-16.232Z" transform="translate(-161.99 -161.786)" fill="#00f2a6"/>
        <g id="Group_1117157" data-name="Group 1117157" transform="translate(32.646 34.53)">
          <path id="Path_908339" data-name="Path 908339" d="M217.656,234.924a2.571,2.571,0,0,1-1.818-.753l-2.6-2.6a2.572,2.572,0,0,1,3.637-3.637l.784.784,3.65-3.65a2.572,2.572,0,0,1,3.637,3.637l-5.468,5.468A2.572,2.572,0,0,1,217.656,234.924Z" transform="translate(-212.482 -224.312)" fill="#eaf6ff"/>
        </g>
      </g>
      <g id="Group_1117160" data-name="Group 1117160" transform="translate(7.5 7.5)">
        <path id="Path_908340" data-name="Path 908340" d="M114.715,136.974a22.5,22.5,0,0,1,45,0" transform="translate(-97.64 -97.436)" fill="none" stroke="#000" stroke-linecap="round" stroke-linejoin="round" stroke-miterlimit="10" stroke-width="2"/>
        <line id="Line_679" data-name="Line 679" x1="2.579" y2="4.45" transform="translate(50.821 15.633)" fill="none" stroke="#000" stroke-linecap="round" stroke-linejoin="round" stroke-miterlimit="10" stroke-width="2"/>
        <line id="Line_680" data-name="Line 680" x2="2.579" y2="4.45" transform="translate(25.752 15.633)" fill="none" stroke="#000" stroke-linecap="round" stroke-linejoin="round" stroke-miterlimit="10" stroke-width="2"/>
        <path id="Path_908341" data-name="Path 908341" d="M85.94,123.332a27.5,27.5,0,1,0-2.226-5.127" transform="translate(-70.488 -70.286)" fill="none" stroke="#000" stroke-linecap="round" stroke-linejoin="round" stroke-miterlimit="10" stroke-width="2"/>
        <path id="Path_908342" data-name="Path 908342" d="M76.9,20.935l.468.468a2.569,2.569,0,0,1,.468,2.993L75,29.938a32.555,32.555,0,0,1,3.942,9.516l5.931,1.906a2.569,2.569,0,0,1,1.785,2.448v6.536a2.573,2.573,0,0,1-1.785,2.449l-5.952,1.911a32.529,32.529,0,0,1-3.943,9.468l2.868,5.584a2.571,2.571,0,0,1-.468,2.994l-4.623,4.622a2.569,2.569,0,0,1-2.993.468l-5.6-2.875a32.562,32.562,0,0,1-9.444,3.918l-1.924,5.983a2.569,2.569,0,0,1-2.448,1.785H43.808a2.569,2.569,0,0,1-2.448-1.785l-1.924-5.983a32.562,32.562,0,0,1-9.444-3.918l-5.6,2.875a2.569,2.569,0,0,1-2.993-.468L16.78,72.751a2.571,2.571,0,0,1-.468-2.994l2.868-5.584a32.529,32.529,0,0,1-3.943-9.468L9.285,52.794A2.573,2.573,0,0,1,7.5,50.345V43.808a2.569,2.569,0,0,1,1.785-2.448l5.931-1.906a32.555,32.555,0,0,1,3.942-9.516L16.312,24.4A2.569,2.569,0,0,1,16.78,21.4L21.4,16.78a2.569,2.569,0,0,1,2.993-.468l5.53,2.84a32.559,32.559,0,0,1,9.538-3.967l1.9-5.9A2.569,2.569,0,0,1,43.808,7.5h6.536a2.569,2.569,0,0,1,2.448,1.785l1.9,5.9a32.559,32.559,0,0,1,9.538,3.967l5.53-2.84a2.569,2.569,0,0,1,2.993.468l.2.2" transform="translate(-7.5 -7.5)" fill="none" stroke="#000" stroke-linecap="round" stroke-linejoin="round" stroke-miterlimit="10" stroke-width="2"/>
        <line id="Line_681" data-name="Line 681" x2="5.143" transform="translate(11.932 39.538)" fill="none" stroke="#000" stroke-linecap="round" stroke-linejoin="round" stroke-miterlimit="10" stroke-width="2"/>
        <line id="Line_682" data-name="Line 682" x1="5.143" transform="translate(62.078 39.538)" fill="none" stroke="#000" stroke-linecap="round" stroke-linejoin="round" stroke-miterlimit="10" stroke-width="2"/>
        <path id="Path_908343" data-name="Path 908343" d="M188.692,181.97a11.9,11.9,0,1,1-4.507,3.262" transform="translate(-153.637 -153.435)" fill="none" stroke="#000" stroke-linecap="round" stroke-linejoin="round" stroke-miterlimit="10" stroke-width="2"/>
        <g id="Group_1117159" data-name="Group 1117159" transform="translate(32.646 34.53)">
          <path id="Path_908344" data-name="Path 908344" d="M217.656,234.924a2.571,2.571,0,0,1-1.818-.753l-2.6-2.6a2.572,2.572,0,0,1,3.637-3.637l.784.784,3.65-3.65a2.572,2.572,0,0,1,3.637,3.637l-5.468,5.468A2.572,2.572,0,0,1,217.656,234.924Z" transform="translate(-212.482 -224.312)" fill="none" stroke="#000" stroke-linecap="round" stroke-linejoin="round" stroke-miterlimit="10" stroke-width="2"/>
        </g>
      </g>
    </g>
    <rect id="Rectangle_409889" data-name="Rectangle 409889" width="90" height="90" transform="translate(615.051 735)" fill="none"/>
  </g>
</svg>
