<svg xmlns="http://www.w3.org/2000/svg" width="90" height="90" viewBox="0 0 90 90">
  <g id="Group_1117348" data-name="Group 1117348" transform="translate(-3957 10901)">
    <rect id="Rectangle_409920" data-name="Rectangle 409920" width="90" height="90" transform="translate(3957 -10901)" fill="none"/>
    <g id="Fill_Outline" data-name="Fill Outline" transform="translate(3961.002 -10897.998)">
      <g id="Color" transform="translate(3.317 3.317)">
        <path id="Path_908554" data-name="Path 908554" d="M58.129,54.014v-7.9H53.7a16.961,16.961,0,0,0-2.083-5.02l3.132-3.132-5.586-5.586-3.132,3.132a16.961,16.961,0,0,0-5.02-2.083V29h-7.9v4.426a16.961,16.961,0,0,0-5.02,2.083l-3.132-3.132-5.586,5.586,3.132,3.132a16.961,16.961,0,0,0-2.083,5.02H16v7.9h4.426a16.961,16.961,0,0,0,2.083,5.02l-3.132,3.132,5.586,5.586,3.131-3.132A16.983,16.983,0,0,0,33.115,66.7v4.426h7.9V66.7a16.983,16.983,0,0,0,5.021-2.083l3.131,3.132,5.586-5.586L51.62,59.034a16.961,16.961,0,0,0,2.083-5.02ZM37.064,55.989a5.924,5.924,0,1,1,5.924-5.924A5.924,5.924,0,0,1,37.064,55.989Z" transform="translate(1.115 5.23)" fill="#fcbc04"/>
        <path id="Path_908555" data-name="Path 908555" d="M42.331,64.112a19.869,19.869,0,0,1-3.853-.382l2.869-4.967a10.544,10.544,0,0,0,1.643-2.856l.211-.366a6.583,6.583,0,0,0,.431-5.686L42.865,47.9A6.583,6.583,0,0,1,43.3,42.21l5.911-10.222-.041-.039-3.132,3.132a16.961,16.961,0,0,0-5.02-2.089V30.373L36.46,38.26a6.573,6.573,0,0,1-3.345,2.852A6.573,6.573,0,0,1,29.77,38.26l-2.064-3.574-2.742-2.744-5.586,5.586,3.132,3.132a16.961,16.961,0,0,0-2.083,5.02H16v7.9h4.426a16.961,16.961,0,0,0,2.083,5.02l-3.132,3.132,5.586,5.586,3.131-3.132a16.984,16.984,0,0,0,5.021,2.083v4.426h7.9V66.268a16.983,16.983,0,0,0,5.021-2.083l3.131,3.132,5.586-5.586-1.159-1.159A19.644,19.644,0,0,1,42.331,64.112ZM23.442,47.643,23,48.408a19.046,19.046,0,0,1-.248-6.5l.176.307a6.583,6.583,0,0,1,.513,5.433Zm7.7,1.987a5.924,5.924,0,1,1,5.924,5.924A5.924,5.924,0,0,1,31.14,49.63Z" transform="translate(1.115 5.665)" fill="#e59730"/>
        <path id="Path_908556" data-name="Path 908556" d="M46.653,55.293a10.49,10.49,0,0,1-12.04,6.95l-8.1-6.871a6.583,6.583,0,0,1-.431-5.686l.765-1.958a6.583,6.583,0,0,0-.431-5.687l-8.952-15.5,6.846-3.95,8.952,15.5a6.583,6.583,0,0,0,4.709,3.216l2.079.316a6.583,6.583,0,0,1,4.709,3.216ZM32.125,54.56a5.266,5.266,0,1,0,1.927-7.194A5.266,5.266,0,0,0,32.125,54.56Z" transform="translate(1.578 3.201)" fill="#93999a"/>
        <path id="Path_908557" data-name="Path 908557" d="M44.752,44.839a6.589,6.589,0,0,0-4.713-3.212l-2.067-.316a6.506,6.506,0,0,1-3.686-1.883l-1,.5a3.95,3.95,0,0,1-5.148-1.5l-3.489-5.806a3.95,3.95,0,0,1,2.12-5.766L24.306,22.59,17.46,26.54l8.952,15.5a6.6,6.6,0,0,1,.434,5.687l-.764,1.962a6.591,6.591,0,0,0,.434,5.687l8.1,6.872a10.491,10.491,0,0,0,12.033-6.951ZM39.314,56.491a5.26,5.26,0,1,1,2.464-3.2,5.266,5.266,0,0,1-2.464,3.2Z" transform="translate(1.577 3.201)" fill="#656b76"/>
        <path id="Path_908558" data-name="Path 908558" d="M4.317,12.569,20.28,3.353a2.633,2.633,0,0,1,3.6.964l13.165,22.8A29.173,29.173,0,0,0,16.518,38.969L3.353,16.165a2.633,2.633,0,0,1,.964-3.6ZM19.233,25.24a2.633,2.633,0,1,0,.964-3.6,2.633,2.633,0,0,0-.964,3.6Z" transform="translate(-3 -3)" fill="#d0d8da"/>
        <path id="Path_908559" data-name="Path 908559" d="M4.316,10.488,5.883,9.58,12.189,19.9a10.524,10.524,0,0,0,14.14,3.686l7.465-4.2,3.252,5.648A29.173,29.173,0,0,0,16.52,36.885L3.355,14.083a2.633,2.633,0,0,1,.961-3.594Z" transform="translate(-2.999 -0.917)" fill="#93999a"/>
        <path id="Path_908560" data-name="Path 908560" d="M44.919,47.728a6.583,6.583,0,0,1,.431-5.687l8.952-15.5-6.846-3.95L38.5,38.091a6.583,6.583,0,0,1-4.709,3.216l-2.079.316a6.583,6.583,0,0,0-4.709,3.216L22,53.5l3.1,1.79a10.489,10.489,0,0,0,12.04,6.95l3.1,1.792,5-8.663a6.583,6.583,0,0,0,.431-5.686ZM39.64,54.56a5.266,5.266,0,1,1-1.929-7.194A5.266,5.266,0,0,1,39.64,54.56Z" transform="translate(3.016 3.201)" fill="#d0d8da"/>
        <path id="Path_908561" data-name="Path 908561" d="M44.918,47.723a6.6,6.6,0,0,1,.434-5.687L54.3,26.54l-6.846-3.95-2.686,4.647a7.021,7.021,0,0,1,.171,7.794l-3.7,5.806a7.038,7.038,0,0,0-.355,6.912l.606,1.2a7.055,7.055,0,0,1,0,6.293l-.066.105a7.024,7.024,0,0,1-11.9,1.08L27.263,53.41l-3.857-2.317L22.01,53.5l3.107,1.79A10.491,10.491,0,0,0,37.15,62.244l3.107,1.79,4.99-8.663a6.591,6.591,0,0,0,.434-5.687Z" transform="translate(3.018 3.201)" fill="#93999a"/>
        <path id="Path_908562" data-name="Path 908562" d="M67.868,12.569,51.905,3.353a2.633,2.633,0,0,0-3.6.964L35.143,27.12A29.173,29.173,0,0,1,55.666,38.969l13.165-22.8a2.633,2.633,0,0,0-.964-3.6ZM52.952,25.24a2.633,2.633,0,1,1-.965-3.6A2.633,2.633,0,0,1,52.952,25.24Z" transform="translate(7.175 -3)" fill="#e9f1f2"/>
        <path id="Path_908563" data-name="Path 908563" d="M67.869,10.488,66.3,9.58,60,19.9a10.524,10.524,0,0,1-14.14,3.686l-7.465-4.2L35.14,25.036A29.173,29.173,0,0,1,55.665,36.885l13.165-22.8A2.633,2.633,0,0,0,67.869,10.488Z" transform="translate(7.174 -0.917)" fill="#d0d8da"/>
      </g>
      <g id="Outline_copy" data-name="Outline copy" transform="translate(1.998 1.998)">
        <path id="Path_908564" data-name="Path 908564" d="M58.445,42.96H55.03a18.255,18.255,0,0,0-1.448-3.487L56,37.056a1.317,1.317,0,0,0-1.862-1.863l-3.132,3.131a1.317,1.317,0,0,0-.19,1.623,15.667,15.667,0,0,1,1.922,4.632,1.317,1.317,0,0,0,1.281,1.014h3.11v5.266h-3.11a1.316,1.316,0,0,0-1.281,1.013A15.667,15.667,0,0,1,50.816,56.5a1.317,1.317,0,0,0,.19,1.623l2.2,2.2-3.724,3.724-2.2-2.2a1.317,1.317,0,0,0-1.623-.19,15.753,15.753,0,0,1-4.632,1.922,1.317,1.317,0,0,0-1.014,1.281v3.108H34.748V64.866a1.316,1.316,0,0,0-1.013-1.281A15.753,15.753,0,0,1,29.1,61.663a1.317,1.317,0,0,0-1.623.19l-2.2,2.2-3.724-3.724,2.2-2.2a1.317,1.317,0,0,0,.19-1.623,15.667,15.667,0,0,1-1.922-4.632,1.317,1.317,0,0,0-1.281-1.014h-3.11V49.211a1.317,1.317,0,1,0-2.633,0v2.965a1.317,1.317,0,0,0,1.317,1.317h3.415A18.255,18.255,0,0,0,21.18,56.98L18.763,59.4a1.317,1.317,0,0,0,0,1.862l5.585,5.586a1.317,1.317,0,0,0,1.862,0l2.417-2.416a18.321,18.321,0,0,0,3.489,1.447v3.415a1.317,1.317,0,0,0,1.317,1.317h7.9a1.317,1.317,0,0,0,1.317-1.317V65.876a18.321,18.321,0,0,0,3.487-1.448l2.417,2.416a1.317,1.317,0,0,0,1.862,0L56,61.26A1.317,1.317,0,0,0,56,59.4l-2.417-2.417a18.256,18.256,0,0,0,1.448-3.489h3.415a1.317,1.317,0,0,0,1.317-1.317v-7.9a1.317,1.317,0,0,0-1.317-1.317Z" transform="translate(2.118 8.387)" fill="#323232"/>
        <path id="Path_908565" data-name="Path 908565" d="M18.019,23.791a3.95,3.95,0,1,0-3.9-3.258,3.95,3.95,0,0,0,3.9,3.258Zm-.666-5.09a1.317,1.317,0,1,1-.614.8A1.317,1.317,0,0,1,17.353,18.7Z" transform="translate(1.821 2.4)" fill="#323232"/>
        <path id="Path_908566" data-name="Path 908566" d="M80.861,14.144a3.923,3.923,0,0,0-1.843-2.4L63.056,2.527a3.95,3.95,0,0,0-5.4,1.448l-6.406,11.1a1.317,1.317,0,0,0,2.282,1.317l1.8-3.115L73.572,23.805l-7.581,13.13A30.563,30.563,0,0,0,47.75,26.4L50.9,20.95a1.317,1.317,0,0,0-2.282-1.317l-4.125,7.145a1.317,1.317,0,0,0,1,1.967,27.767,27.767,0,0,1,6.188,1.392l-4.921,8.513v-1.1a1.317,1.317,0,0,0-1.317-1.317h-7.9a1.317,1.317,0,0,0-1.317,1.317v1.1l-4.915-8.513A27.767,27.767,0,0,1,37.5,28.745a1.317,1.317,0,0,0,1-1.967L25.34,3.976a3.95,3.95,0,0,0-5.4-1.448L3.976,11.743a3.95,3.95,0,0,0-1.448,5.4L9.785,29.712a1.317,1.317,0,1,0,2.28-1.317L9.419,23.805l15.394-8.887A1.317,1.317,0,0,0,23.5,12.637L8.1,21.525l-1.317-2.28L25.028,8.712,35.242,26.4A30.563,30.563,0,0,0,17,36.935l-2.3-3.979a1.317,1.317,0,1,0-2.28,1.317l3.272,5.67a1.317,1.317,0,0,0,1.072.658h.07a1.317,1.317,0,0,0,1.064-.542A27.771,27.771,0,0,1,22.191,35.4l3.976,6.885-3.291,3.291a1.317,1.317,0,0,0,0,1.862l2.417,2.417a18.255,18.255,0,0,0-1.446,3.489H20.432a1.317,1.317,0,0,0,0,2.633h4.426a1.316,1.316,0,0,0,1.281-1.013,15.667,15.667,0,0,1,1.922-4.632,1.317,1.317,0,0,0-.19-1.623l-2.2-2.2,1.862-1.863,2.633,4.57a5.248,5.248,0,0,1,.427,4.264L27.2,59.361a1.317,1.317,0,0,0,.482,1.8l2.686,1.55a11.863,11.863,0,0,0,4.8,5.793,1.317,1.317,0,1,0,1.389-2.238,9.216,9.216,0,0,1-3.865-4.871,1.327,1.327,0,0,0-.59-.72l-1.962-1.132,2.633-4.56,2.408,1.38A6.572,6.572,0,0,0,46.335,62.8l2.4,1.39L46.1,68.753,44.143,67.62a1.327,1.327,0,0,0-.922-.15,9.084,9.084,0,0,1-2.27.166,1.336,1.336,0,0,0-1.377,1.255,1.317,1.317,0,0,0,1.253,1.377,11.953,11.953,0,0,0,2.412-.132l2.686,1.551a1.335,1.335,0,0,0,.658.175,1.317,1.317,0,0,0,1.14-.658l5-8.661a7.865,7.865,0,0,0,.517-6.824l-.765-1.959a5.232,5.232,0,0,1,.345-4.549l6.134-10.624a1.317,1.317,0,1,0-2.282-1.317L50.544,47.895a7.858,7.858,0,0,0-.517,6.825l.765,1.958a5.241,5.241,0,0,1-.342,4.554l-.395.681-2.4-1.384a6.583,6.583,0,0,0-11.171-6.451l-2.4-1.382.395-.681a5.253,5.253,0,0,1,3.769-2.572l2.077-.317a7.858,7.858,0,0,0,5.652-3.859l8.162-14.143a27.892,27.892,0,0,1,10.944,8.935,1.317,1.317,0,0,0,1.064.542h.07a1.317,1.317,0,0,0,1.072-.658l13.169-22.8A3.914,3.914,0,0,0,80.861,14.144ZM23.712,6.432,5.47,16.964l-.658-1.141a1.317,1.317,0,0,1,.481-1.8L21.255,4.812a1.317,1.317,0,0,1,1.8.481ZM43.388,55.024a3.925,3.925,0,1,1-3-.4,3.95,3.95,0,0,1,3,.4Zm-10.262-5.6a7.81,7.81,0,0,0-.675-1.528L24.288,33.757a27.934,27.934,0,0,1,4.559-2.633L37.01,45.267a7.823,7.823,0,0,0,1.185,1.522l-.341.053A7.841,7.841,0,0,0,33.126,49.429Zm8.363-3.423a5.266,5.266,0,0,1-2.2-2.049l-.691-1.2a1.317,1.317,0,0,0,.263-.781V38.864H44.13v3.108a1.307,1.307,0,0,0,.263.782l-.692,1.2A5.227,5.227,0,0,1,41.489,46ZM60.739,4.679a1.324,1.324,0,0,1,1,.132L77.7,14.026a1.317,1.317,0,0,1,.481,1.8l-.658,1.14L59.282,6.431l.658-1.14A1.317,1.317,0,0,1,60.739,4.679ZM56.648,11l1.317-2.28L76.207,19.25,74.89,21.53Z" transform="translate(-1.998 -1.998)" fill="#323232"/>
        <path id="Path_908567" data-name="Path 908567" d="M47.88,23.792a3.95,3.95,0,1,0-3.414-1.978,3.95,3.95,0,0,0,3.414,1.978Zm-1.132-4.608a1.317,1.317,0,1,1,.482,1.8,1.317,1.317,0,0,1-.482-1.8Z" transform="translate(11.278 2.4)" fill="#323232"/>
      </g>
    </g>
  </g>
</svg>
