<svg xmlns="http://www.w3.org/2000/svg" xmlns:xlink="http://www.w3.org/1999/xlink" width="90" height="90" viewBox="0 0 90 90">
  <defs>
    <clipPath id="clip-path">
      <path id="path6633" d="M0-682.665H82.021v82.021H0Z" transform="translate(0 682.665)"/>
    </clipPath>
  </defs>
  <g id="Group_1118031" data-name="Group 1118031" transform="translate(-1050.051 -746)">
    <g id="g6627" transform="translate(1054.051 1432.666)">
      <g id="g6629" transform="translate(0 -682.665)">
        <g id="g6631" clip-path="url(#clip-path)">
          <g id="g6637" transform="translate(1.203 8.808)">
            <path id="path6639" d="M-93.641-7.383c-3.76,5.653-12.724,17.828-12.787,24.853v.2c.041,6.344,3.478,10.458,7.924,12.342a15.457,15.457,0,0,0,6,1.194c6.961,0,13.922-4.55,13.922-13.655,0-4.25-3.315-10.422-6.761-15.889-2.243-3.551-4.541-6.807-6.03-9.041-.895-1.344-1.371-1.344-2.266,0" transform="translate(106.428 8.391)" fill="#ffd772" fill-rule="evenodd"/>
          </g>
          <g id="g6641" transform="translate(8.954 1.202)">
            <path id="path6643" d="M-97.632-129.3c3.446,5.467,6.761,11.639,6.761,15.889,0,9.1-6.961,13.655-13.922,13.655a15.458,15.458,0,0,1-6-1.194,18.223,18.223,0,0,0-.173,2.434c0,17,13,25.5,26,25.5a29.63,29.63,0,0,0,4.832-.4c12.632-.377,24.975-28.622,15.175-43.362-5.544-10.658-13.564-21.788-17.891-28.29-1.671-2.516-2.561-2.511-4.232,0-2.62,3.937-6.594,9.572-10.548,15.771" transform="translate(110.964 146.951)" fill="#ffd772" fill-rule="evenodd"/>
          </g>
          <g id="g6645" transform="translate(31.377 31.377)">
            <path id="path6647" d="M-69.93-181.034A15.172,15.172,0,0,1-54.76-196.206a15.172,15.172,0,0,1,15.171,15.171,15.184,15.184,0,0,1-11.87,14.813,15.521,15.521,0,0,1-3.3.359,15.487,15.487,0,0,1-3.3-.359,15.179,15.179,0,0,1-11.87-14.813M-60-203.794v2.261a21.074,21.074,0,0,0-5.544,2.3l-1.6-1.6a1.968,1.968,0,0,0-2.774,0l-4.636,4.636a1.968,1.968,0,0,0,0,2.774l1.6,1.6a20.97,20.97,0,0,0-2.3,5.54h-2.261a1.969,1.969,0,0,0-1.962,1.966v6.557a1.965,1.965,0,0,0,1.962,1.962h2.261a21.076,21.076,0,0,0,2.3,5.544l-1.6,1.6a1.973,1.973,0,0,0,0,2.779l3.483,3.478,1.153,1.158a1.968,1.968,0,0,0,2.774,0l1.6-1.6a20.777,20.777,0,0,0,5.544,2.3v2.266a1.968,1.968,0,0,0,1.962,1.962h6.557a1.968,1.968,0,0,0,1.962-1.962v-2.266a21.085,21.085,0,0,0,5.544-2.3l1.6,1.6a1.968,1.968,0,0,0,2.775,0l4.636-4.636a1.973,1.973,0,0,0,0-2.779l-1.6-1.6a20.779,20.779,0,0,0,2.3-5.544H-32a1.968,1.968,0,0,0,1.962-1.93v-6.625A1.971,1.971,0,0,0-32-186.279h-2.266a20.811,20.811,0,0,0-2.3-5.54l1.6-1.6a1.968,1.968,0,0,0,0-2.774l-4.636-4.636a1.968,1.968,0,0,0-2.775,0l-1.6,1.6a21.074,21.074,0,0,0-5.544-2.3v-2.261a1.965,1.965,0,0,0-1.962-1.962h-6.557A1.965,1.965,0,0,0-60-203.794" transform="translate(79.48 205.756)" fill="#375e7d" fill-rule="evenodd"/>
          </g>
          <g id="g6649" transform="translate(40.926 40.927)">
            <path id="path6651" d="M-111.1,0a15.172,15.172,0,0,0-15.171,15.171A15.179,15.179,0,0,0-114.4,29.984h6.6a15.184,15.184,0,0,0,11.87-14.813A15.172,15.172,0,0,0-111.1,0" transform="translate(126.269)" fill="#dc8758" fill-rule="evenodd"/>
          </g>
          <g id="g6653" transform="translate(47.093 47.765)">
            <path id="path6655" d="M-65.941-77.848a3.48,3.48,0,0,1-3.233-3.46V-86.54c0-.44.463-3.047-1.952-1.4a8.73,8.73,0,0,0-3.819,7.2,8.745,8.745,0,0,0,5.7,8.174v7.234a15.485,15.485,0,0,0,3.3.359,15.517,15.517,0,0,0,3.3-.359v-7.234a8.745,8.745,0,0,0,5.7-8.174,8.723,8.723,0,0,0-3.823-7.2c-2.416-1.648-1.948.958-1.948,1.4v5.231a3.48,3.48,0,0,1-3.233,3.46" transform="translate(74.945 88.479)" fill="#f9f7f8" fill-rule="evenodd"/>
          </g>
          <g id="g6657" transform="translate(5.231 8.808)">
            <path id="path6659" d="M-113.924-163.477c0,9.1-6.961,13.65-13.922,13.65q-.817,0-1.635-.082a13.247,13.247,0,0,0,3.9,2.507,15.457,15.457,0,0,0,6,1.194c6.961,0,13.922-4.55,13.922-13.655,0-4.25-3.315-10.422-6.761-15.889-2.243-3.551-4.541-6.807-6.03-9.041-.895-1.344-1.371-1.344-2.266,0-.508.768-1.113,1.648-1.776,2.625.595.9,1.2,1.839,1.812,2.8,3.446,5.467,6.761,11.643,6.761,15.893" transform="translate(129.481 185.8)" fill="#fbba58" fill-rule="evenodd"/>
          </g>
          <g id="g6661" transform="translate(29.574 1.201)">
            <path id="path6663" d="M0-49.054c4.5,6.616,11.043,16.061,15.78,25.162a19.434,19.434,0,0,1,1.944,3.8,21.456,21.456,0,0,1,3.56-1.258v-2.261a1.965,1.965,0,0,1,1.962-1.962h2.139C19.839-36.235,11.82-47.365,7.493-53.867c-1.671-2.516-2.561-2.511-4.232,0-.935,1.4-2.043,3.024-3.26,4.813" transform="translate(0 55.753)" fill="#fbba58" fill-rule="evenodd"/>
          </g>
          <g id="g6665" transform="translate(50.857 31.377)">
            <path id="path6667" d="M-3.092-5.453A23.444,23.444,0,0,1,3.051-.875,25.592,25.592,0,0,1,6.884,4.251a15.177,15.177,0,0,1-1,28.867,23.976,23.976,0,0,1-9.4,8.287,1.974,1.974,0,0,0,1.962,1.839H5a1.968,1.968,0,0,0,1.962-1.962V39.017a21.088,21.088,0,0,0,5.545-2.3l1.6,1.6a1.968,1.968,0,0,0,2.775,0l4.636-4.636a1.973,1.973,0,0,0,0-2.779l-1.6-1.6a20.779,20.779,0,0,0,2.3-5.544h2.266a1.968,1.968,0,0,0,1.962-1.93V15.209a1.971,1.971,0,0,0-1.962-1.93H22.218a20.811,20.811,0,0,0-2.3-5.54l1.6-1.6a1.968,1.968,0,0,0,0-2.774L16.887-1.275a1.968,1.968,0,0,0-2.775,0l-1.6,1.6a21.077,21.077,0,0,0-5.545-2.3V-4.236A1.965,1.965,0,0,0,5-6.2H-1.553a1.959,1.959,0,0,0-1.539.745" transform="translate(3.515 6.197)" fill="#2b4d66" fill-rule="evenodd"/>
          </g>
          <g id="g6669" transform="translate(60.252 41.826)">
            <path id="path6671" d="M-7.35,0A27.306,27.306,0,0,1-3.921,11.017,8.746,8.746,0,0,1-3.5,13.677a8.6,8.6,0,0,1-.436,2.706A27.068,27.068,0,0,1-8.353,28.867,15.179,15.179,0,0,0,2.663,14.272,15.175,15.175,0,0,0-7.35,0" transform="translate(8.353)" fill="#c86d35" fill-rule="evenodd"/>
          </g>
          <g id="g6673" transform="translate(56.506 47.765)">
            <path id="path6675" d="M-41.766-50.418a8.745,8.745,0,0,1-5.7,8.174V-33.8a15.559,15.559,0,0,0,2.893-.354V-41.39a8.787,8.787,0,0,0,5.267-5.467,8.6,8.6,0,0,0,.436-2.707,8.746,8.746,0,0,0-.418-2.661A8.8,8.8,0,0,0-42.7-56.762c-1.226-.84-1.712-.577-1.889-.054a8.685,8.685,0,0,1,2.82,6.4" transform="translate(47.469 57.303)" fill="#e5e4ec" fill-rule="evenodd"/>
          </g>
          <g id="g6677" transform="translate(31.377 31.377)">
            <path id="path6679" d="M-219.4-30.926a21.074,21.074,0,0,1,5.544,2.3l1.6-1.6a1.968,1.968,0,0,1,2.775,0l4.636,4.636a1.968,1.968,0,0,1,0,2.774l-1.6,1.6a20.81,20.81,0,0,1,2.3,5.54h2.266a1.972,1.972,0,0,1,1.962,1.966V-7.15a1.968,1.968,0,0,1-1.962,1.962h-2.266a20.778,20.778,0,0,1-2.3,5.544l1.6,1.6a1.973,1.973,0,0,1,0,2.779l-4.636,4.636a1.968,1.968,0,0,1-2.775,0l-1.6-1.6a21.085,21.085,0,0,1-5.544,2.3v2.266a1.968,1.968,0,0,1-1.962,1.962h-6.557a1.968,1.968,0,0,1-1.962-1.962V10.065a20.777,20.777,0,0,1-5.544-2.3l-1.6,1.6a1.968,1.968,0,0,1-2.774,0l-4.636-4.636a1.973,1.973,0,0,1,0-2.779l1.6-1.6a21.076,21.076,0,0,1-2.3-5.544H-247.4a1.965,1.965,0,0,1-1.962-1.962v-6.557a1.969,1.969,0,0,1,1.962-1.966h2.261a20.97,20.97,0,0,1,2.3-5.54l-1.6-1.6a1.968,1.968,0,0,1,0-2.774l4.636-4.636a1.968,1.968,0,0,1,2.774,0l1.6,1.6a21.074,21.074,0,0,1,5.544-2.3v-2.261a1.965,1.965,0,0,1,1.962-1.962h6.557a1.965,1.965,0,0,1,1.962,1.962Z" transform="translate(249.363 35.149)" fill="none" stroke="#000" stroke-linecap="round" stroke-linejoin="round" stroke-miterlimit="10" stroke-width="2"/>
          </g>
          <g id="g6681" transform="translate(40.926 40.927)">
            <path id="path6683" d="M-111.1-222.2a15.2,15.2,0,0,0,15.171-15.171A15.2,15.2,0,0,0-111.1-252.546a15.2,15.2,0,0,0-15.171,15.171A15.2,15.2,0,0,0-111.1-222.2Z" transform="translate(126.269 252.546)" fill="none" stroke="#000" stroke-linecap="round" stroke-linejoin="round" stroke-miterlimit="10" stroke-width="2"/>
          </g>
          <g id="g6685" transform="translate(47.093 47.765)">
            <path id="path6687" d="M-41.767-169.5v-7.234a8.745,8.745,0,0,1-5.7-8.174,8.731,8.731,0,0,1,3.819-7.2c2.416-1.648,1.953.958,1.953,1.4v5.231a3.48,3.48,0,0,0,3.233,3.46,3.48,3.48,0,0,0,3.233-3.46V-190.7c0-.44-.468-3.047,1.948-1.4a8.723,8.723,0,0,1,3.823,7.2,8.745,8.745,0,0,1-5.7,8.174v7.234" transform="translate(47.471 192.642)" fill="none" stroke="#000" stroke-linecap="round" stroke-linejoin="round" stroke-miterlimit="10" stroke-width="2"/>
          </g>
          <g id="g6689" transform="translate(1.203 8.808)">
            <path id="path6691" d="M-30.925-104.617c-2.375,4.228-4.223,8.478-4.223,11.652,0,9.1,6.961,13.655,13.922,13.655S-7.3-83.86-7.3-92.965c0-7.011-9.013-19.254-12.792-24.93-.895-1.344-1.371-1.344-2.266,0-1.4,2.107-3.528,5.122-5.644,8.442" transform="translate(35.148 118.903)" fill="none" stroke="#000" stroke-linecap="round" stroke-linejoin="round" stroke-miterlimit="10" stroke-width="2"/>
          </g>
          <g id="g6693" transform="translate(8.954 1.202)">
            <path id="path6695" d="M-275.435-117.325c-3.6-5.549-7.111-10.549-9.5-14.136-1.671-2.516-2.561-2.511-4.232,0-2.62,3.937-6.593,9.572-10.548,15.771m32.671,12.52c-1.644-3.161-3.51-6.367-5.426-9.477m-40.4,25.307a18.2,18.2,0,0,0-.173,2.434c0,17,13,25.5,26,25.5a29.63,29.63,0,0,0,4.832-.4" transform="translate(313.047 133.346)" fill="none" stroke="#000" stroke-linecap="round" stroke-linejoin="round" stroke-miterlimit="10" stroke-width="2"/>
          </g>
        </g>
      </g>
    </g>
    <rect id="Rectangle_409891" data-name="Rectangle 409891" width="90" height="90" transform="translate(1050.051 746)" fill="none"/>
  </g>
</svg>
