<svg xmlns="http://www.w3.org/2000/svg" width="90" height="90" viewBox="0 0 90 90">
  <g id="Group_1118029" data-name="Group 1118029" transform="translate(-285.051 -935)">
    <g id="Group_1117162" data-name="Group 1117162" transform="translate(240.176 936.5)">
      <g id="Group_1116654" data-name="Group 1116654" transform="translate(57.735 1.269)">
        <g id="Group_1116646" data-name="Group 1116646" transform="translate(0 27.226)">
          <path id="Path_908114" data-name="Path 908114" d="M87.83,200.985l15.054-26.074,1.737-3.01-4.459-2.573-3.451-1.99-1.737,3.008L79.922,196.418,79.3,197.5c-.044.076-.09.151-.139.223s-.1.144-.151.213a4.13,4.13,0,0,1-.7.737c-.059.051-.118.1-.181.144l-.017.012c-.066.051-.134.1-.2.144a4.435,4.435,0,0,1-4.642.142l-2.851-1.644L62,212.049l3.551,2.051a11.865,11.865,0,0,0,14.15,8.167l3.553,2.051L91.577,209.9l-2.846-1.644a4.422,4.422,0,0,1-1.617-6.03Zm-5.925,12.631A5.751,5.751,0,1,1,79.8,205.76,5.752,5.752,0,0,1,81.905,213.616Z" transform="translate(-62 -167.338)" fill="#93999a" fill-rule="evenodd"/>
        </g>
        <g id="Group_1116647" data-name="Group 1116647" transform="translate(15.908 27.226)">
          <path id="Path_908115" data-name="Path 908115" d="M175.61,167.34l3.451,1.989L163.493,196.3l-.623,1.074a4.427,4.427,0,0,1-6.03,1.62l-.034-.019a4.406,4.406,0,0,0,1.39-1.472l.623-1.078Z" transform="translate(-156.807 -167.34)" fill="#656b76" fill-rule="evenodd"/>
        </g>
        <g id="Group_1116648" data-name="Group 1116648" transform="translate(32.976 50.607)">
          <path id="Path_908116" data-name="Path 908116" d="M286.108,318.3a12.457,12.457,0,0,1,.628,2.238l3.921,1.539-.609,5.1-4.175.566a12.245,12.245,0,0,1-1.136,2.028l1.687,3.858-4.036,3.178-3.35-2.55a12.4,12.4,0,0,1-2.243.628l-1.534,3.921-5.1-.609-.566-4.175a12.473,12.473,0,0,1-2.032-1.136l-3.854,1.687-3.178-4.036,2.55-3.35a12.385,12.385,0,0,1-.628-2.243l-3.926-1.534.613-5.1,4.17-.566a12.514,12.514,0,0,1,1.141-2.032l-1.687-3.854,4.036-3.178,3.35,2.55a12.457,12.457,0,0,1,2.238-.628l1.539-3.926,5.1.613.566,4.17a12.268,12.268,0,0,1,2.027,1.141l3.858-1.687,3.178,4.036Z" transform="translate(-258.528 -306.68)" fill="#fcc855" fill-rule="evenodd"/>
        </g>
        <g id="Group_1116649" data-name="Group 1116649" transform="translate(19.302 0)">
          <path id="Path_908117" data-name="Path 908117" d="M221.847,20.086,201.869,8.549l-5.636-3.255a1.593,1.593,0,0,0-2.171.58L192.22,9.066l-.186.321-.933,1.62-.294.509-.888,1.535-1.72,2.981-.4.685L177.032,35.375l5.047,2.915c.081-.142.167-.281.259-.414.042-.063.086-.125.13-.186.095-.13.193-.257.3-.379.046-.058.095-.113.144-.167s.1-.115.157-.171.115-.118.174-.178c.1-.1.21-.2.318-.291.061-.051.122-.1.183-.151s.1-.078.149-.117a.23.23,0,0,1,.032-.024c.061-.046.122-.09.184-.134l.188-.127c.071-.046.144-.091.215-.134s.115-.068.172-.1c.13-.074.264-.144.4-.208.068-.034.135-.064.2-.095.137-.061.277-.117.418-.167.064-.024.129-.046.193-.068a.22.22,0,0,1,.034-.012c.066-.022.134-.042.2-.063.144-.042.289-.08.435-.113a6.9,6.9,0,0,1,5.022.751l2.606,1.5L197.8,39.33a7.074,7.074,0,0,1,.813.551,6.986,6.986,0,0,1,1.731,8.953l5.051,2.918,10.771-18.659.328-.566.854-1.48,1.821-3.154.294-.509,1.439-2.494.678-1.175.846-1.464a1.588,1.588,0,0,0-.58-2.166ZM202.368,32.864a4.31,4.31,0,1,1-1.578-5.886A4.312,4.312,0,0,1,202.368,32.864Z" transform="translate(-177.032 -5.082)" fill="#d0d8da" fill-rule="evenodd"/>
        </g>
        <g id="Group_1116650" data-name="Group 1116650" transform="translate(19.302 0)">
          <path id="Path_908118" data-name="Path 908118" d="M196.232,5.3l5.637,3.255L186.608,34.984a6.943,6.943,0,0,0-4.529,3.307l-5.047-2.914,17.03-29.5a1.594,1.594,0,0,1,2.171-.58Z" transform="translate(-177.031 -5.084)" fill="#93999a" fill-rule="evenodd"/>
        </g>
        <g id="Group_1116651" data-name="Group 1116651" transform="translate(32.976 50.608)">
          <path id="Path_908119" data-name="Path 908119" d="M282.7,336.387c-.311,0-.617-.015-.92-.034l.6.46.546-.431C282.855,336.382,282.779,336.387,282.7,336.387Zm-12.009-7.176s0,0,0,0a13.649,13.649,0,0,1,0-12.912s0,0,0,0a13.653,13.653,0,0,1,8.639-6.757l-.3-2.239-5.1-.612-1.539,3.925a12.465,12.465,0,0,0-2.239.627l-3.35-2.55-4.036,3.179,1.688,3.854a12.437,12.437,0,0,0-1.141,2.032l-4.17.565-.614,5.1,3.926,1.534a12.4,12.4,0,0,0,.627,2.244l-2.55,3.35,3.179,4.036,3.854-1.687a12.384,12.384,0,0,0,2.031,1.136l.566,4.175,5.1.609,1.486-3.8h0A13.7,13.7,0,0,1,270.693,329.211Z" transform="translate(-258.525 -306.685)" fill="#f4b537" fill-rule="evenodd"/>
        </g>
        <g id="Group_1116652" data-name="Group 1116652" transform="translate(41.497 59.127)">
          <path id="Path_908120" data-name="Path 908120" d="M322.78,360.34a7.543,7.543,0,1,1-10.593-1.265A7.541,7.541,0,0,1,322.78,360.34Z" transform="translate(-309.305 -357.458)" fill="#dfebfa" fill-rule="evenodd"/>
        </g>
        <g id="Group_1116653" data-name="Group 1116653" transform="translate(41.497 59.128)">
          <path id="Path_908121" data-name="Path 908121" d="M318.491,372.375a7.546,7.546,0,1,1-.01-14.734,7.547,7.547,0,0,0,.01,14.734Z" transform="translate(-309.305 -357.463)" fill="#b1dbfc" fill-rule="evenodd"/>
        </g>
      </g>
      <path id="Path_908122" data-name="Path 908122" d="M122.955,65.955l-3.293-1.293c-.091-.39-.2-.775-.323-1.152l2.141-2.813a1.172,1.172,0,0,0-.012-1.435l-3.147-4a1.172,1.172,0,0,0-1.391-.349l-3.239,1.416q-.511-.319-1.045-.588l-.479-3.5a1.172,1.172,0,0,0-1.022-1.005L106.1,50.63a1.172,1.172,0,0,0-1.232.737l-1.287,3.294q-.578.134-1.152.324l-2.812-2.14a1.172,1.172,0,0,0-1.434.011l-4,3.143a1.173,1.173,0,0,0-.35,1.393l1.42,3.238q-.316.508-.588,1.048l-3.5.475a1.173,1.173,0,0,0-1.007,1.023l-.6,5.051a1.173,1.173,0,0,0,.737,1.231l3.294,1.287q.135.582.325,1.157l-2.141,2.813a1.172,1.172,0,0,0,.011,1.435l3.143,4a1.172,1.172,0,0,0,1.392.35l3.241-1.417q.51.315,1.047.585l.475,3.5a1.172,1.172,0,0,0,1.023,1.007l5.051.6a1.186,1.186,0,0,0,.139.008,1.173,1.173,0,0,0,1.091-.745l1.288-3.292q.589-.137,1.152-.322l2.817,2.141a1.173,1.173,0,0,0,1.435-.012l4-3.147a1.172,1.172,0,0,0,.349-1.391l-1.417-3.24q.314-.506.584-1.044l3.5-.475a1.173,1.173,0,0,0,1.007-1.023l.6-5.051a1.173,1.173,0,0,0-.736-1.231Zm-2.088,5.1-3.235.438a1.173,1.173,0,0,0-.915.688A10.961,10.961,0,0,1,115.7,74a1.173,1.173,0,0,0-.111,1.138l1.308,2.991-2.572,2.026-2.6-1.977a1.172,1.172,0,0,0-1.134-.16,11.087,11.087,0,0,1-2,.562,1.173,1.173,0,0,0-.88.726l-1.189,3.039-3.249-.388-.438-3.235a1.173,1.173,0,0,0-.688-.915,11.19,11.19,0,0,1-1.822-1.018,1.173,1.173,0,0,0-1.135-.109L96.2,77.984l-2.021-2.571,1.976-2.6a1.173,1.173,0,0,0,.161-1.132,10.839,10.839,0,0,1-.561-2,1.172,1.172,0,0,0-.728-.887L91.979,67.6l.388-3.249,3.235-.438a1.173,1.173,0,0,0,.915-.688,10.9,10.9,0,0,1,1.02-1.817,1.172,1.172,0,0,0,.112-1.141l-1.311-2.989,2.574-2.022,2.6,1.976a1.172,1.172,0,0,0,1.132.161,10.822,10.822,0,0,1,2-.561,1.172,1.172,0,0,0,.888-.728l1.188-3.042,3.25.391.442,3.233a1.172,1.172,0,0,0,.687.913,10.973,10.973,0,0,1,1.814,1.021,1.173,1.173,0,0,0,1.138.111l2.991-1.308L119.065,60l-1.976,2.6a1.173,1.173,0,0,0-.161,1.132,11.215,11.215,0,0,1,.563,2.007,1.172,1.172,0,0,0,.725.88l3.04,1.193Zm-19.6-10.149a8.649,8.649,0,1,0,12.143,1.454,8.662,8.662,0,0,0-12.143-1.454Zm11.6,7.545a6.3,6.3,0,1,1-1.3-4.642v0a6.251,6.251,0,0,1,1.3,4.641Zm-24.517,2.92L80.112,85.657a1.172,1.172,0,0,1-1.6.429l-3.123-1.8a12.925,12.925,0,0,1-14.8-8.545l-3.123-1.8a1.173,1.173,0,0,1-.429-1.6l8.336-14.441a1.173,1.173,0,0,1,1.6-.429l2.82,1.628a3.206,3.206,0,0,0,4.374-1.17l.611-1.066,13.2-22.865a1.173,1.173,0,1,1,2.031,1.173l-13.2,22.862L76.2,59.09a5.555,5.555,0,0,1-7.579,2.033L66.813,60.08,59.649,72.49l2.5,1.445a1.173,1.173,0,0,1,.538.684A10.579,10.579,0,0,0,75.3,81.9a1.171,1.171,0,0,1,.86.125l2.5,1.445L85.74,71.217l-1.8-1.042A5.553,5.553,0,0,1,81.908,62.6l.7-1.22,13.2-22.87a1.173,1.173,0,0,1,2.031,1.173L84.64,62.549l-.7,1.222a3.208,3.208,0,0,0,1.168,4.373l2.821,1.629a1.171,1.171,0,0,1,.429,1.6Zm-12.1-5.7a6.864,6.864,0,1,0,3.2,4.171A6.882,6.882,0,0,0,76.259,65.674Zm.483,8.21a4.519,4.519,0,1,1,.454-3.433A4.486,4.486,0,0,1,76.742,73.885Zm-.164-41.194,5,2.886a1.172,1.172,0,0,0,1.6-.429,5.725,5.725,0,0,1,7.812-2.091l6.155,3.55a5.73,5.73,0,0,1,2.093,7.812,1.173,1.173,0,0,0,.429,1.6l5,2.891a1.172,1.172,0,0,0,1.6-.429l13.342-23.112.007-.011.008-.015,3.51-6.081a2.757,2.757,0,0,0-1-3.751L96.763.868a2.747,2.747,0,0,0-3.748,1l-5.607,9.713L87.4,11.6l-.008.015L76.148,31.089a1.173,1.173,0,0,0,.429,1.6ZM90.941,10.154,117,25.2l-.924,1.6L90.017,11.755Zm2.094-3.627L119.1,21.572l-.923,1.6L92.114,8.123Zm2.011-3.485a.4.4,0,0,1,.542-.145h0l25.369,14.642a.406.406,0,0,1,.149.551l-.836,1.449L94.207,4.5Zm-6.2,10.744,26.062,15.048-10.079,17.46-3.046-1.76a8.083,8.083,0,0,0-3.463-9.958l-6.156-3.551A8.076,8.076,0,0,0,81.807,33l-3.042-1.756ZM95.837,31.77a5.444,5.444,0,1,0-1.991-7.438A5.4,5.4,0,0,0,95.837,31.77Zm.04-6.264a3.074,3.074,0,0,1,1.879-1.443,3.082,3.082,0,0,1,2.352.311h0a3.1,3.1,0,0,1,1.132,4.227,3.1,3.1,0,1,1-5.365-3.1Z" transform="translate(0 0)"/>
    </g>
    <rect id="Rectangle_409890" data-name="Rectangle 409890" width="90" height="90" transform="translate(285.051 935)" fill="none"/>
  </g>
</svg>
