<svg xmlns="http://www.w3.org/2000/svg" xmlns:xlink="http://www.w3.org/1999/xlink" width="90" height="90" viewBox="0 0 90 90">
  <defs>
    <clipPath id="clip-path">
      <path id="path5508" d="M0-682.665H60.5v60.5H0Z" transform="translate(0 682.665)"/>
    </clipPath>
  </defs>
  <g id="Group_1118062" data-name="Group 1118062" transform="translate(-5479 10571)">
    <g id="Group_1118061" data-name="Group 1118061">
      <rect id="Rectangle_409921" data-name="Rectangle 409921" width="90" height="90" transform="translate(5479 -10571)" fill="none"/>
    </g>
    <g id="g5502" transform="translate(5493.525 -9873.585)">
      <g id="g5504" transform="translate(0 -682.665)">
        <g id="g5506" clip-path="url(#clip-path)">
          <g id="g5512" transform="translate(0.886 41.683)">
            <path id="path5514" d="M-184.393-153.853l-2.285,2.285a2.364,2.364,0,0,1-2.754.418,5.371,5.371,0,0,0-4.883,0,2.364,2.364,0,0,1-2.754-.418l-4.57-4.57a2.364,2.364,0,0,1-.418-2.755,5.373,5.373,0,0,0,0-4.882,2.364,2.364,0,0,1,.418-2.754l2.285-2.285,3.143.458.434,3.119a5.521,5.521,0,0,0,0,7.808,5.521,5.521,0,0,0,7.808,0l3.1.41Z" transform="translate(202.324 168.814)" fill="#c7c5cb"/>
          </g>
          <g id="g5516" transform="translate(3.856 21.19)">
            <path id="path5518" d="M-177.346-341.106l-2.284,2.284-3.577-3.577a5.52,5.52,0,0,0,0-7.807,5.52,5.52,0,0,0-7.807,0l-3.577-3.577,2.284-2.284a2.363,2.363,0,0,1,2.754-.418,5.366,5.366,0,0,0,6.234-.985l18.451-16.8,5.73,5.729-16.8,18.451a5.366,5.366,0,0,0-.985,6.234,2.364,2.364,0,0,1-.418,2.755" transform="translate(194.592 374.275)" fill="#a19dae"/>
          </g>
          <g id="g5520" transform="translate(29.524 21.19)">
            <path id="path5522" d="M-41.708,0l-4.056,3.694,6.091,6.091,3.694-4.056Z" transform="translate(45.764)" fill="#827f98"/>
          </g>
          <g id="g5524" transform="translate(22.625 6.072)">
            <path id="path5526" d="M-327.053-211.268l-10.8,10.8a1.576,1.576,0,0,1-2.228,0l-1.607-1.607a1.575,1.575,0,0,1,0-2.227l.8-.8a1.3,1.3,0,0,0,0-1.836l-11.038-11.038a1.3,1.3,0,0,0-1.836,0l-.8.8a1.575,1.575,0,0,1-2.228,0l-1.607-1.607a1.576,1.576,0,0,1,0-2.228l10.8-10.8,11.8,8.747Z" transform="translate(358.856 231.811)" fill="#c7c5cb"/>
          </g>
          <g id="g5528" transform="translate(39.484 13.813)">
            <path id="path5530" d="M-63.725-10.348l-1.357-1.006L-57.34-.915l-10.8,10.8a1.575,1.575,0,0,1-1.783.31,1.567,1.567,0,0,0,.311.445L-68,12.245a1.576,1.576,0,0,0,2.228,0l10.8-10.8Z" transform="translate(69.921 11.355)" fill="#a19dae"/>
          </g>
          <g id="g5532" transform="translate(36.933 0.886)">
            <path id="path5534" d="M-221.324-223.185l-.978.978-11.8-8.747-8.747-11.8.978-.978a3.958,3.958,0,0,1,5.6,0l14.946,14.946a3.957,3.957,0,0,1,0,5.6" transform="translate(242.846 244.887)" fill="#c7c5cb"/>
          </g>
          <g id="g5536" transform="translate(44.674 13.463)">
            <path id="path5538" d="M-141.709-36.3l-2.363-2.363a3.958,3.958,0,0,1,0,5.6l-.978.978-10.439-7.741,1.006,1.357,11.8,8.747.978-.978a3.958,3.958,0,0,0,0-5.6" transform="translate(155.489 39.825)" fill="#a19dae"/>
          </g>
          <g id="g5540" transform="translate(33.884 3.023)">
            <path id="path5542" d="M-242.625-211.268l-3.049,3.049-20.544-20.544,3.049-3.049Z" transform="translate(266.218 231.811)" fill="#a19dae"/>
          </g>
          <g id="g5544" transform="translate(52.065 21.204)">
            <path id="path5546" d="M-31.357,0l-3.049,3.049,2.363,2.363,3.049-3.049Z" transform="translate(34.407)" fill="#827f98"/>
          </g>
          <g id="g5548" transform="translate(36.908 18.176)">
            <path id="path5550" d="M-47.54-47.54a2.708,2.708,0,0,1-3.83,0,2.708,2.708,0,0,1,0-3.83,2.708,2.708,0,0,1,3.83,0,2.708,2.708,0,0,1,0,3.83" transform="translate(52.163 52.163)" fill="#a19dae"/>
          </g>
          <g id="g5552" transform="translate(36.908 18.176)">
            <path id="path5554" d="M-47.54-47.54a2.708,2.708,0,0,1-3.83,0,2.708,2.708,0,0,1,0-3.83,2.708,2.708,0,0,1,3.83,0A2.708,2.708,0,0,1-47.54-47.54Z" transform="translate(52.163 52.163)" fill="none" stroke="#000" stroke-linecap="round" stroke-linejoin="round" stroke-miterlimit="10" stroke-width="2"/>
          </g>
          <g id="g5556" transform="translate(36.933 0.886)">
            <path id="path5558" d="M-221.316-165.626l-14.946-14.946a3.958,3.958,0,0,0-5.6,0l-.978.978,20.544,20.544.978-.978A3.958,3.958,0,0,0-221.316-165.626Z" transform="translate(242.837 181.732)" fill="none" stroke="#000" stroke-linecap="round" stroke-linejoin="round" stroke-miterlimit="10" stroke-width="2"/>
          </g>
          <g id="g5560" transform="translate(33.884 3.023)">
            <path id="path5562" d="M-242.625-211.268l-3.049,3.049-20.544-20.544,3.049-3.049Z" transform="translate(266.218 231.811)" fill="none" stroke="#000" stroke-linecap="round" stroke-linejoin="round" stroke-miterlimit="10" stroke-width="2"/>
          </g>
          <g id="g5564" transform="translate(22.625 6.072)">
            <path id="path5566" d="M-58.575-57.21l-5.235,5.235a1.576,1.576,0,0,0,0,2.228L-62.2-48.14a1.576,1.576,0,0,0,2.228,0l.8-.8a1.3,1.3,0,0,1,1.836,0L-46.3-37.9a1.3,1.3,0,0,1,0,1.836l-.8.8a1.576,1.576,0,0,0,0,2.228l1.607,1.607a1.576,1.576,0,0,0,2.228,0l10.8-10.8L-53.012-62.773l-3.129,3.129" transform="translate(64.271 62.773)" fill="none" stroke="#000" stroke-linecap="round" stroke-linejoin="round" stroke-miterlimit="10" stroke-width="2"/>
          </g>
          <g id="g5568" transform="translate(0.886 41.683)">
            <path id="path5570" d="M-147.611-117.072h0a5.521,5.521,0,0,1-7.808,0,5.521,5.521,0,0,1,0-7.808l-3.577-3.577-2.285,2.285a2.364,2.364,0,0,0-.418,2.755,5.374,5.374,0,0,1,0,4.882,2.364,2.364,0,0,0,.418,2.755l4.57,4.57a2.364,2.364,0,0,0,2.754.418,5.371,5.371,0,0,1,4.882,0,2.364,2.364,0,0,0,2.755-.418l2.285-2.285Z" transform="translate(161.964 128.456)" fill="none" stroke="#000" stroke-linecap="round" stroke-linejoin="round" stroke-miterlimit="10" stroke-width="2"/>
          </g>
          <g id="g5572" transform="translate(3.856 22.495)">
            <path id="path5574" d="M-250.482-170.8l9.792-10.752-5.857-5.857-17.019,15.5a5.366,5.366,0,0,1-6.234.985,2.364,2.364,0,0,0-2.754.418l-2.284,2.284,3.577,3.577a5.52,5.52,0,0,1,7.807,0,5.521,5.521,0,0,1,0,7.807l3.577,3.577,2.284-2.284a2.363,2.363,0,0,0,.418-2.754,5.365,5.365,0,0,1,.985-6.234l3.355-3.684" transform="translate(274.839 187.412)" fill="none" stroke="#000" stroke-linecap="round" stroke-linejoin="round" stroke-miterlimit="10" stroke-width="2"/>
          </g>
        </g>
      </g>
    </g>
  </g>
</svg>
