<svg xmlns="http://www.w3.org/2000/svg" width="80" height="80" viewBox="0 0 80 80">
  <g id="Group_1118032" data-name="Group 1118032" transform="translate(-1263.051 -994)">
    <g id="Page-1" transform="translate(1263.94 999.333)">
      <g id="_005---Pistons" data-name="005---Pistons" transform="translate(0 0)">
        <path id="Shape" d="M32.493,28.74c-1.595-1.41-2.939-2.662-3.888-3.611l-4.494-4.507-.013-.013c-.211.092-1.41-1.015-1.937-1.278l2.768,2.781c.949.949,2.293,2.2,3.888,3.611L34.14,30.2c.409.329.83.659,1.252.975ZM60.828,46.163a1.328,1.328,0,0,0,0-1.871l-1.871-1.858a1.309,1.309,0,0,0-1.423-.29,1.337,1.337,0,0,1-.382,1L55.978,44.3a9.849,9.849,0,0,1-.316,10.438,10.007,10.007,0,0,1-1.239,1.516,5.135,5.135,0,0,1-.5.435,7.349,7.349,0,0,1-1.015.8,9.849,9.849,0,0,1-10.438.316l-1.16,1.173a1.152,1.152,0,0,1-.422.29,1.3,1.3,0,0,0,.369.857L43.115,62a1.328,1.328,0,0,0,1.871,0l1.16-1.173a9.849,9.849,0,0,0,10.438-.316,7.35,7.35,0,0,0,1.015-.8,5.135,5.135,0,0,0,.5-.435,10.008,10.008,0,0,0,1.239-1.516,9.849,9.849,0,0,0,.316-10.438Z" transform="translate(7.045 5.864)" fill="#283593"/>
        <path id="Shape-2" data-name="Shape" d="M58.063,43.158a1.337,1.337,0,0,0,.382-1,1.2,1.2,0,0,0-.435.29L56.8,43.659a8.916,8.916,0,0,0-2.715-1.015c-3.7-.791-9.924-5.087-15.354-9.41L36.3,31.191c-.422-.316-.843-.646-1.252-.975l-5.324-4.481c-1.595-1.41-2.939-2.662-3.888-3.611l-2.768-2.781h-.013a.272.272,0,0,0-.2-.053,3.042,3.042,0,0,0-.461.237c-.119.066-.224.132-.343.2-.171.119-.343.237-.5.356l-.04.04a1.388,1.388,0,0,0-.145.105.554.554,0,0,0-.092.066,8.751,8.751,0,0,0-.988.988c-.026.026-.04.053-.066.079-.04.053-.066.105-.105.158-.013,0-.026.026-.04.04-.119.158-.237.329-.356.5-.066.119-.132.224-.2.343a2.13,2.13,0,0,0-.224.461c-.132.264,1.147,2.175,1.041,2.425V25.3h.013l4.507,4.494c.857.857,1.977,2.043,3.216,3.44L33.4,39.587c4.178,5.3,8.2,11.2,8.962,14.774a9.272,9.272,0,0,0,1.015,2.715l-1.213,1.212a1.233,1.233,0,0,0-.369,1,1.152,1.152,0,0,0,.422-.29l1.16-1.173a9.849,9.849,0,0,0,10.438-.316,7.348,7.348,0,0,0,1.015-.8,5.132,5.132,0,0,0,.5-.435,10.007,10.007,0,0,0,1.239-1.516,9.849,9.849,0,0,0,.316-10.438Zm-2.781,12.4a4.612,4.612,0,1,1-2.6-7.815,4.481,4.481,0,0,1,2.6,1.292A4.63,4.63,0,0,1,55.282,55.56Z" transform="translate(6.133 5.851)" fill="#3f51b5"/>
        <path id="Shape-3" data-name="Shape" d="M49.795,22.4c-.066-.119-.132-.224-.2-.343-.119-.171-.237-.343-.356-.5-.013-.013-.026-.04-.04-.04-.04-.053-.066-.105-.105-.158-.026-.026-.04-.053-.066-.079a8.75,8.75,0,0,0-.988-.988.554.554,0,0,0-.092-.066,1.389,1.389,0,0,0-.145-.105l-.04-.04c-.158-.119-.329-.237-.5-.356-.119-.066-.224-.132-.343-.2a3.042,3.042,0,0,0-.461-.237c-.105-.053-.461.2-.857.488.013.013.013.026.026.04l.04.04c.119.158.237.329.356.5.066.119.132.224.2.343a2.13,2.13,0,0,1,.224.461c.132.264-1.147,2.175-1.041,2.425V23.6h-.013L40.885,28.1c-4.586,4.586-16.145,18.227-17.5,24.566a9.272,9.272,0,0,1-1.015,2.715l1.213,1.213a1.318,1.318,0,0,1,0,1.858l-1.858,1.871a1.328,1.328,0,0,1-1.871,0l-1.16-1.173a9.783,9.783,0,0,1-7.3,1.054,3.154,3.154,0,0,0,.435.329,9.849,9.849,0,0,0,10.438.316l1.16,1.173a1.328,1.328,0,0,0,1.871,0l1.858-1.871a1.318,1.318,0,0,0,0-1.858L25.94,57.077a9.272,9.272,0,0,0,1.015-2.715c1.357-6.339,12.916-19.98,17.5-24.566L48.964,25.3h.013v-.013c-.105-.25,1.173-2.161,1.041-2.425A2.129,2.129,0,0,0,49.795,22.4Z" transform="translate(3.621 5.849)" fill="#283593"/>
        <path id="Shape-4" data-name="Shape" d="M47.235,20.583c-.066-.119-.132-.224-.2-.343-.119-.171-.237-.343-.356-.5-.013-.013-.026-.04-.04-.04s-.013-.026-.026-.04c-.54.409-1.147.909-1.292.843l-.013.013-4.494,4.507C36.23,29.61,22.589,41.169,16.25,42.526a8.917,8.917,0,0,0-2.715,1.015l-1.213-1.213a1.318,1.318,0,0,0-1.858,0L8.593,44.187a1.328,1.328,0,0,0,0,1.871l1.173,1.16a9.849,9.849,0,0,0,.316,10.438,10.007,10.007,0,0,0,1.239,1.516,10.361,10.361,0,0,0,1.081.909c2.438.606,5.193,3.506,7.394,2.2h1.318c.514.514,1.107-1.568,1.621-2.082l1.858-1.871a1.318,1.318,0,0,0,0-1.858L23.38,55.258A9.272,9.272,0,0,0,24.4,52.543c1.357-6.339,12.916-19.98,17.5-24.566L46.4,23.482h.013v-.013c-.105-.25,1.173-2.161,1.041-2.425A2.129,2.129,0,0,0,47.235,20.583ZM21.575,55.442a4.63,4.63,0,0,1-6.524,0l-.316-.356a4.613,4.613,0,1,1,6.84.356Z" transform="translate(2.609 5.969)" fill="#3f51b5"/>
        <path id="Shape-5" data-name="Shape" d="M35.126,23.227l-.474.474a2.627,2.627,0,0,1-2.267.738A7.249,7.249,0,0,0,24.227,32.6a2.627,2.627,0,0,1-.738,2.267l-.474.474a2.636,2.636,0,0,1-3.73,0L6.25,22.3l.092-.171,4.85-9.687,10.9-6L32.714,17.086,35.126,19.5a2.636,2.636,0,0,1,0,3.73Z" transform="translate(1.987 1.769)" fill="#0377bc"/>
        <path id="Shape-6" data-name="Shape" d="M32.138,20l-.474.474a2.627,2.627,0,0,1-2.267.738,7.249,7.249,0,0,0-8.158,8.158,2.627,2.627,0,0,1-.738,2.267l-.474.474a2.636,2.636,0,0,1-3.73,0L6.32,22.133l4.85-9.687,10.9-6L32.692,17.086A2.624,2.624,0,0,1,32.138,20Z" transform="translate(2.009 1.769)" fill="#02a9f4"/>
        <circle id="Oval" cx="3.295" cy="3.295" r="3.295" transform="translate(18.911 18.906)" fill="#37474f"/>
        <path id="Shape-7" data-name="Shape" d="M63.209,17.437l-2.794,2.794-8.105-3.888-1.9-.909-.119-.224L48.87,12.534,44.56,4.39,47.367,1.6a1.288,1.288,0,0,1,1.858,0L63.209,15.579A1.318,1.318,0,0,1,63.209,17.437Z" transform="translate(14.167 0.099)" fill="#00838f"/>
        <path id="Shape-8" data-name="Shape" d="M60.916,22.292,47.868,35.339a2.636,2.636,0,0,1-3.73,0l-.474-.474a3.137,3.137,0,0,1-.329-.382,2.748,2.748,0,0,1-.409-1.885,7.263,7.263,0,0,0-5.364-8h-.013a7.061,7.061,0,0,0-2.781-.158A2.627,2.627,0,0,1,32.5,23.7l-.474-.474a2.87,2.87,0,0,1-.316-.382,2.636,2.636,0,0,1,.316-3.348L45.048,6.476l.026-.026L50.1,9.2l3,1.661,1.832,1,1.476,2.583.132.224Z" transform="translate(9.936 1.769)" fill="#00838f"/>
        <path id="Shape-9" data-name="Shape" d="M60.243,15.8l-2.794,2.794-5.272-2.517-1.885-.909-.962-.461-1.9-.909L45.9,10.908l-.04-.079,3,1.661L44.56,4.345l2.807-2.794a1.315,1.315,0,0,1,.264-.211l12.613,12.6A1.337,1.337,0,0,1,60.243,15.8Z" transform="translate(14.167 0.144)" fill="#00bcd4"/>
        <path id="Shape-10" data-name="Shape" d="M57.95,20.691,44.89,33.738a2.5,2.5,0,0,1-1.555.738,2.748,2.748,0,0,1-.409-1.885,7.263,7.263,0,0,0-5.364-8h-.013a7.117,7.117,0,0,0-5.759-1.753H31.71a2.636,2.636,0,0,1,.316-3.348L45.048,6.47l5.087,2.807,1.819,1,1.608,2.794Z" transform="translate(9.936 1.775)" fill="#00bcd4"/>
        <rect id="Rectangle-path" width="5.27" height="22.408" transform="matrix(0.707, -0.707, 0.707, 0.707, 55.008, 8.216)" fill="#00838f"/>
        <circle id="Oval-2" data-name="Oval" cx="3.295" cy="3.295" r="3.295" transform="translate(53.575 18.906)" fill="#37474f"/>
        <path id="Shape-11" data-name="Shape" d="M20.031,4.386,15.5,15.431l-11.321,4.8L1.382,17.434a1.318,1.318,0,0,1,0-1.858L15.366,1.592a1.318,1.318,0,0,1,1.858,0Z" transform="translate(0.317 0.103)" fill="#02a9f4"/>
        <path id="Shape-12" data-name="Shape" d="M22.995,7.35,7.153,23.2,3.41,19.462,19.265,3.62Z" transform="translate(1.084 0.869)" fill="#0377bc"/>
        <path id="Shape-13" data-name="Shape" d="M4.5,21.863a1.318,1.318,0,0,1-.932-.386l-2.8-2.8a2.636,2.636,0,0,1,0-3.727L14.75.98a2.7,2.7,0,0,1,3.728,0l2.8,2.8a1.318,1.318,0,0,1,0,1.864L5.431,21.477A1.318,1.318,0,0,1,4.5,21.863ZM16.614,2.837,2.636,16.817,4.5,18.68,18.479,4.7Z" transform="translate(0 -0.208)"/>
        <path id="Shape-14" data-name="Shape" d="M22.37,38.647a3.941,3.941,0,0,1-2.8-1.156L2.8,20.717a1.318,1.318,0,0,1,0-1.864L18.643,3.01a1.318,1.318,0,0,1,1.864,0L37.281,19.785a3.954,3.954,0,0,1,0,5.591l-.482.481a3.944,3.944,0,0,1-3.379,1.1,5.915,5.915,0,0,0-6.67,6.67,3.954,3.954,0,0,1-1.1,3.379l-.48.481A3.941,3.941,0,0,1,22.37,38.647ZM5.6,19.785,21.438,35.628a1.318,1.318,0,0,0,1.865,0l.48-.481A1.342,1.342,0,0,0,24.14,34a8.552,8.552,0,0,1,9.647-9.646,1.345,1.345,0,0,0,1.149-.358l.482-.48a1.318,1.318,0,0,0,0-1.864L19.575,5.805Z" transform="translate(0.767 0.552)"/>
        <path id="Shape-15" data-name="Shape" d="M20.225,29.895a1.3,1.3,0,0,1-1.318-1.243c-.03-.239-.057-.46-.066-.681v-.315a4.2,4.2,0,0,1,.02-.6,3.518,3.518,0,0,1,.045-.485,4.442,4.442,0,0,1,.1-.625.125.125,0,0,1,.009-.058,7.919,7.919,0,0,1,.223-.895c.123-.349.239-.652.374-.954a4.048,4.048,0,0,1,.318-.614l.156-.275c.188-.294.327-.494.465-.675a.8.8,0,0,1,.053-.065,2.136,2.136,0,0,1,.14-.178l.033-.041a7.524,7.524,0,0,1,.569-.639,7.222,7.222,0,0,1,.638-.568l.046-.037a2.028,2.028,0,0,1,.187-.146l.053-.045c.181-.132.381-.275.571-.4l.455-.264a3.761,3.761,0,0,1,.581-.293c.264-.119.567-.235.859-.339a8.064,8.064,0,0,1,.948-.24l.059-.011a5.835,5.835,0,0,1,.722-.109,2.745,2.745,0,0,1,.387-.033,4.641,4.641,0,0,1,.659-.017h.157a8.251,8.251,0,0,1,.832.074,1.318,1.318,0,0,1-.324,2.616c-.177-.024-.353-.047-.527-.055h-.2a2.117,2.117,0,0,0-.376.011,1.356,1.356,0,0,1-.146.008c-.032,0-.192.02-.225.024a2.673,2.673,0,0,0-.413.062,1.174,1.174,0,0,1-.132.024h-.016a5.482,5.482,0,0,0-.58.146c-.174.065-.413.154-.65.264a1.818,1.818,0,0,0-.3.148l-.42.239c-.03.026-.146.107-.264.194a1.252,1.252,0,0,1-.167.132.891.891,0,0,1-.152.119,4.765,4.765,0,0,0-.764.764l-.018.024c-.028.036-.059.076-.09.111a1.892,1.892,0,0,1-.173.216c-.026.042-.132.2-.227.34l-.132.237a2.251,2.251,0,0,0-.174.333c-.125.278-.214.515-.3.745-.04.132-.09.326-.132.519v.024a1.119,1.119,0,0,1-.024.132,2.813,2.813,0,0,0-.062.411c0,.049-.025.323-.032.372a1.794,1.794,0,0,0-.012.3v.3a4.23,4.23,0,0,0,.051.489,1.6,1.6,0,0,1,.014.192A1.334,1.334,0,0,1,20.225,29.895Zm2.494-5.919-.032.033A.394.394,0,0,0,22.718,23.976Z" transform="translate(5.989 5.775)"/>
        <path id="Shape-16" data-name="Shape" d="M17.962,22.783a4.614,4.614,0,1,1,4.259-2.848,4.613,4.613,0,0,1-4.259,2.848Zm0-6.59a1.977,1.977,0,1,0,1.4.584,1.977,1.977,0,0,0-1.4-.584Z" transform="translate(4.243 4.028)"/>
        <path id="Shape-17" data-name="Shape" d="M7.268,23a1.318,1.318,0,0,1-.932-2.25L21.247,5.834A1.318,1.318,0,0,1,23.111,7.7L8.2,22.609A1.318,1.318,0,0,1,7.268,23Z" transform="translate(1.891 1.455)"/>
        <path id="Shape-18" data-name="Shape" d="M49.744,51.39a1.318,1.318,0,0,1-.932-2.25,3.71,3.71,0,0,0,.328-.37,1.318,1.318,0,0,1,2.082,1.617,6.766,6.766,0,0,1-.547.617A1.318,1.318,0,0,1,49.744,51.39Z" transform="translate(15.396 15.062)"/>
        <path id="Shape-19" data-name="Shape" d="M45.642,57.069a11.061,11.061,0,0,1-5.636-1.534,1.318,1.318,0,1,1,1.343-2.268,8.6,8.6,0,0,0,9.029-.275A8.875,8.875,0,0,0,51.7,51.9,8.721,8.721,0,0,0,52.779,50.6a8.6,8.6,0,0,0,.281-9.036,1.318,1.318,0,1,1,2.268-1.343,11.129,11.129,0,0,1-.364,11.847,11.3,11.3,0,0,1-1.406,1.7,11.557,11.557,0,0,1-1.713,1.414A11.089,11.089,0,0,1,45.642,57.069Z" transform="translate(12.514 12.299)"/>
        <path id="Shape-20" data-name="Shape" d="M40.3,53.823a1.318,1.318,0,0,1-1.147-.667,10.643,10.643,0,0,1-1.16-3.1c-.6-2.816-3.69-7.872-8.706-14.234a1.318,1.318,0,1,1,2.069-1.632c3.718,4.716,8.336,11.2,9.216,15.314a8.025,8.025,0,0,0,.871,2.339A1.318,1.318,0,0,1,40.3,53.816Z" transform="translate(9.215 10.422)"/>
        <path id="Shape-21" data-name="Shape" d="M28.144,33.422a1.318,1.318,0,0,1-.986-.443C26.047,31.726,24.918,30.524,24,29.6l-4.435-4.423a1.319,1.319,0,0,1,1.649-2.057,1.235,1.235,0,0,1,.142.123l4.507,4.494c.965.966,2.127,2.208,3.271,3.5a1.318,1.318,0,0,1-.986,2.192Z" transform="translate(6.069 6.981)"/>
        <path id="Shape-22" data-name="Shape" d="M52.421,41.927a1.308,1.308,0,0,1-.65-.173,7.68,7.68,0,0,0-2.316-.867c-4.264-.909-11.01-5.761-15.923-9.672a1.318,1.318,0,0,1,1.642-2.061c6.638,5.278,11.89,8.53,14.81,9.152a10.243,10.243,0,0,1,3.092,1.157,1.318,1.318,0,0,1-.652,2.465Z" transform="translate(10.509 8.901)"/>
        <path id="Shape-23" data-name="Shape" d="M32.34,30.066a1.318,1.318,0,0,1-.874-.331c-1.582-1.4-2.952-2.673-3.946-3.667l-4.5-4.509a1.327,1.327,0,0,1,0-1.87,1.31,1.31,0,0,1,1.857,0l4.509,4.522c.956.956,2.279,2.185,3.829,3.558a1.318,1.318,0,0,1-.879,2.3Z" transform="translate(7.197 5.856)"/>
        <path id="Shape-24" data-name="Shape" d="M49.37,51.706a1.318,1.318,0,0,1-.812-2.356,4.573,4.573,0,0,0,.373-.332,1.318,1.318,0,0,1,1.864,1.864,6.714,6.714,0,0,1-.615.546A1.318,1.318,0,0,1,49.37,51.706Z" transform="translate(15.277 15.185)"/>
        <path id="Shape-25" data-name="Shape" d="M45.55,51.687a5.922,5.922,0,1,1,4.194-1.734A5.921,5.921,0,0,1,45.55,51.687Zm0-9.226a3.295,3.295,0,0,0-2.331,5.628,3.381,3.381,0,0,0,4.66,0,3.295,3.295,0,0,0-2.329-5.624Z" transform="translate(12.601 12.386)"/>
        <path id="Shape-26" data-name="Shape" d="M51.845,43.479a1.318,1.318,0,0,1-.932-2.25l1.165-1.165L50.215,38.2,49,39.412a1.318,1.318,0,1,1-1.864-1.864l1.211-1.211a2.636,2.636,0,0,1,3.727,0L53.937,38.2a2.636,2.636,0,0,1,0,3.728l-1.165,1.164A1.309,1.309,0,0,1,51.845,43.479Z" transform="translate(14.859 11.026)"/>
        <path id="Shape-27" data-name="Shape" d="M39.856,54.921a2.628,2.628,0,0,1-1.865-.771l-1.864-1.865a2.636,2.636,0,0,1,0-3.728l1.21-1.211A1.319,1.319,0,0,1,39.2,49.21l-1.211,1.211,1.865,1.864L41.02,51.12a1.318,1.318,0,0,1,1.864,1.864l-1.164,1.165A2.626,2.626,0,0,1,39.856,54.921Z" transform="translate(11.24 14.648)"/>
        <path id="Shape-28" data-name="Shape" d="M60.726,21.869a1.318,1.318,0,0,1-.932-.386L43.951,5.64a1.318,1.318,0,0,1,0-1.864l2.8-2.79a2.636,2.636,0,0,1,3.728,0l13.978,13.97a2.636,2.636,0,0,1,0,3.727l-2.8,2.8A1.318,1.318,0,0,1,60.726,21.869ZM46.746,4.708,60.726,18.686l1.864-1.864L48.611,2.843Z" transform="translate(13.85 -0.214)"/>
        <path id="Shape-29" data-name="Shape" d="M46.321,38.647a3.941,3.941,0,0,1-2.8-1.156l-.48-.481a3.954,3.954,0,0,1-1.1-3.379,5.915,5.915,0,0,0-6.67-6.67,3.953,3.953,0,0,1-3.379-1.106l-.481-.478a3.954,3.954,0,0,1,0-5.592L48.184,3.01a1.318,1.318,0,0,1,1.864,0L65.891,18.853a1.318,1.318,0,0,1,0,1.864L49.116,37.491A3.941,3.941,0,0,1,46.321,38.647ZM36.114,24.266A8.557,8.557,0,0,1,44.549,34a1.342,1.342,0,0,0,.357,1.151l.48.481a1.318,1.318,0,0,0,1.865,0L63.1,19.785,49.116,5.805,33.273,21.648a1.318,1.318,0,0,0,0,1.864l.48.48a1.348,1.348,0,0,0,1.151.358A8.66,8.66,0,0,1,36.114,24.266Z" transform="translate(9.617 0.552)"/>
        <path id="Shape-30" data-name="Shape" d="M42.393,29.9a1.3,1.3,0,0,1-1.318-1.3,1.763,1.763,0,0,1,.012-.2c.024-.192.047-.362.055-.527v-.208a2.264,2.264,0,0,0-.011-.377,1.065,1.065,0,0,1-.008-.145c0-.033-.02-.194-.024-.227a2.812,2.812,0,0,0-.062-.411,1.116,1.116,0,0,1-.025-.132v-.014a5.667,5.667,0,0,0-.146-.58c-.065-.173-.153-.41-.264-.648a2.04,2.04,0,0,0-.148-.3l-.237-.414c-.03-.038-.116-.163-.208-.287-.045-.051-.091-.107-.121-.15l.061.061a1.843,1.843,0,0,1-.159-.188l-.016-.02a4.887,4.887,0,0,0-.361-.4,4.5,4.5,0,0,0-.407-.362l-.021-.017a1.823,1.823,0,0,1-.178-.152.52.52,0,0,1-.117-.082c-.121-.088-.252-.177-.374-.264l-.236-.132a2.136,2.136,0,0,0-.332-.174c-.277-.124-.515-.214-.743-.3-.132-.041-.328-.091-.527-.132h-.024a.7.7,0,0,1-.132-.024,2.673,2.673,0,0,0-.413-.062c-.049,0-.323-.026-.372-.032a1.993,1.993,0,0,0-.308-.013h-.291a4.09,4.09,0,0,0-.507.054,1.347,1.347,0,0,1-1.5-1.3,1.3,1.3,0,0,1,1.242-1.318c.225-.03.452-.055.679-.066h.32a4.161,4.161,0,0,1,.6.018,3.481,3.481,0,0,1,.484.046,4.426,4.426,0,0,1,.625.1l.059.011a7.833,7.833,0,0,1,.894.223c.347.121.65.237.953.373a4.078,4.078,0,0,1,.617.319l.264.152c.3.192.5.331.68.468.022.017.045.037.067.055a2.061,2.061,0,0,1,.175.138l.043.034a7.222,7.222,0,0,1,.638.568,7.526,7.526,0,0,1,.569.639l.029.036a1.855,1.855,0,0,1,.152.194l.045.054c.132.181.277.381.4.572l.264.452a3.924,3.924,0,0,1,.291.58c.119.264.235.565.339.858a8.065,8.065,0,0,1,.241.952.131.131,0,0,0,.009.058,5.83,5.83,0,0,1,.111.724,2.785,2.785,0,0,1,.032.386,4.524,4.524,0,0,1,.017.671v.152a8.12,8.12,0,0,1-.074.825A1.331,1.331,0,0,1,42.393,29.9Z" transform="translate(10.469 5.774)"/>
        <path id="Shape-31" data-name="Shape" d="M44.264,22.782a4.612,4.612,0,1,1,4.455-3.418,4.613,4.613,0,0,1-4.455,3.418Zm-1.4-6.006a1.977,1.977,0,1,0,2.8,0A1.977,1.977,0,0,0,42.865,16.776Z" transform="translate(12.606 4.029)"/>
        <path id="Shape-32" data-name="Shape" d="M56.961,23a1.318,1.318,0,0,1-.932-.386L41.118,7.7a1.318,1.318,0,0,1,1.864-1.864L57.893,20.745A1.318,1.318,0,0,1,56.961,23Z" transform="translate(12.955 1.455)"/>
        <path id="Shape-33" data-name="Shape" d="M10.994,51.386A1.309,1.309,0,0,1,10.062,51a6.566,6.566,0,0,1-.546-.617A1.318,1.318,0,0,1,11.6,48.765a3.873,3.873,0,0,0,.328.37,1.318,1.318,0,0,1-.932,2.25Z" transform="translate(2.941 15.066)"/>
        <path id="Shape-34" data-name="Shape" d="M18.58,57.07a11.1,11.1,0,0,1-6.214-1.893,11.731,11.731,0,0,1-3.11-3.121A11.125,11.125,0,0,1,8.9,40.217a1.319,1.319,0,0,1,2.269,1.343A8.5,8.5,0,0,0,12.532,51.9a8.684,8.684,0,0,0,1.31,1.085,8.6,8.6,0,0,0,9.034.279,1.318,1.318,0,1,1,1.343,2.268A11.071,11.071,0,0,1,18.58,57.07Z" transform="translate(2.341 12.299)"/>
        <path id="Shape-35" data-name="Shape" d="M22.75,57.266A1.318,1.318,0,0,1,21.6,55.3a8.031,8.031,0,0,0,.872-2.331c1.5-7.059,13.794-21.162,17.861-25.229l4.5-4.5a1.318,1.318,0,1,1,1.873,1.854L42.2,29.6c-5.344,5.346-15.947,18.267-17.145,23.909A10.693,10.693,0,0,1,23.9,56.6,1.318,1.318,0,0,1,22.75,57.266Z" transform="translate(6.814 6.977)"/>
        <path id="Shape-36" data-name="Shape" d="M12.569,44.874a1.318,1.318,0,0,1-.65-2.465,10.7,10.7,0,0,1,3.092-1.16c5.637-1.2,18.558-11.8,23.9-17.142l4.5-4.507,1.845,1.887-4.481,4.481c-4.066,4.067-18.169,16.357-25.221,17.858a8.1,8.1,0,0,0-2.339.875A1.309,1.309,0,0,1,12.569,44.874Z" transform="translate(3.577 5.95)"/>
        <path id="Shape-37" data-name="Shape" d="M11.382,51.706a1.318,1.318,0,0,1-.809-.278,6.766,6.766,0,0,1-.617-.547,1.318,1.318,0,0,1,1.864-1.864,3.885,3.885,0,0,0,.372.329,1.318,1.318,0,0,1-.809,2.359Z" transform="translate(3.047 15.185)"/>
        <path id="Shape-38" data-name="Shape" d="M17.307,51.692a5.932,5.932,0,1,1,.005,0Zm0-9.226a3.295,3.295,0,0,0-2.329,5.628,3.381,3.381,0,0,0,4.66,0,3.295,3.295,0,0,0-2.331-5.624Z" transform="translate(3.618 12.381)"/>
        <path id="Shape-39" data-name="Shape" d="M10.077,43.479a1.318,1.318,0,0,1-.932-.386L7.986,41.929a2.636,2.636,0,0,1,0-3.728L9.85,36.337a2.636,2.636,0,0,1,3.728,0l1.213,1.211a1.319,1.319,0,0,1-1.866,1.864L11.715,38.2,9.843,40.064l1.165,1.165a1.318,1.318,0,0,1-.932,2.25Z" transform="translate(2.293 11.026)"/>
        <path id="Shape-40" data-name="Shape" d="M22.05,54.921a2.627,2.627,0,0,1-1.864-.771l-1.164-1.165a1.318,1.318,0,0,1,1.864-1.864l1.164,1.164,1.865-1.864L22.7,49.21a1.319,1.319,0,0,1,1.865-1.865l1.211,1.213a2.636,2.636,0,0,1,0,3.727l-1.864,1.864A2.628,2.628,0,0,1,22.05,54.921Z" transform="translate(5.93 14.648)"/>
      </g>
    </g>
    <rect id="Rectangle_409892" data-name="Rectangle 409892" width="80" height="80" transform="translate(1263.051 994)" fill="none"/>
  </g>
</svg>
