<svg xmlns="http://www.w3.org/2000/svg" width="58.949" height="58.962" viewBox="0 0 58.949 58.962">
  <g id="Group_1118023" data-name="Group 1118023" transform="translate(-4.3 -4.7)">
    <g id="Group_1117334" data-name="Group 1117334" transform="translate(25.172 25.593)">
      <path id="Path_908486" data-name="Path 908486" d="M179.819,195.653a.626.626,0,0,1-.467-.2l-2.094-2.094a3.638,3.638,0,0,1,0-5.135l.28-.28-16.591-20.392a.663.663,0,0,1,1.027-.84l16.965,20.859a.672.672,0,0,1-.04.894l-.707.707a2.31,2.31,0,0,0,0,3.254l2.094,2.094a.66.66,0,0,1-.467,1.134Zm14.617-14.617a.626.626,0,0,1-.467-.2l-2.094-2.094a2.31,2.31,0,0,0-3.254,0l-.707.707a.658.658,0,0,1-.894.04l-20.859-16.951a.663.663,0,0,1,.84-1.027l20.392,16.578.28-.28a3.655,3.655,0,0,1,5.135,0L194.9,179.9a.66.66,0,0,1-.467,1.134Z" transform="translate(-160.8 -161.359)"/>
    </g>
    <g id="Group_1117335" data-name="Group 1117335" transform="translate(45.884 46.311)">
      <path id="Path_908487" data-name="Path 908487" d="M321.715,327.916a5.608,5.608,0,1,1,3.961-1.64A5.6,5.6,0,0,1,321.715,327.916Zm-3.027-8.642a4.282,4.282,0,1,0,6.055,0A4.29,4.29,0,0,0,318.687,319.274Z" transform="translate(-316.1 -316.7)"/>
    </g>
    <g id="Group_1117336" data-name="Group 1117336" transform="translate(43.524 43.844)">
      <path id="Path_908488" data-name="Path 908488" d="M309.763,318.019a3.606,3.606,0,0,1-2.561-1.067l-1.094-1.094-.28.28a3.638,3.638,0,0,1-5.135,0l-2.094-2.094a.66.66,0,0,1,0-.947l3.814-3.814a.67.67,0,1,1,.947.947l-3.348,3.348,1.627,1.627a2.3,2.3,0,0,0,1.627.667,2.324,2.324,0,0,0,1.627-.667l.76-.76a.679.679,0,0,1,.467-.2.626.626,0,0,1,.467.2l1.56,1.56a2.31,2.31,0,0,0,3.254,0l4.721-4.721a2.3,2.3,0,0,0,.667-1.627,2.324,2.324,0,0,0-.667-1.627l-1.56-1.56a.66.66,0,0,1,0-.947l.76-.76a2.31,2.31,0,0,0,0-3.254l-1.694-1.694-3.348,3.348a.67.67,0,0,1-.947-.947l3.814-3.814a.66.66,0,0,1,.947,0l2.161,2.161a3.638,3.638,0,0,1,0,5.135l-.28.28,1.094,1.094a3.639,3.639,0,0,1,0,5.121l-4.721,4.721a3.568,3.568,0,0,1-2.587,1.107Z" transform="translate(-298.4 -298.2)"/>
    </g>
    <g id="Group_1117337" data-name="Group 1117337" transform="translate(4.3 4.7)">
      <path id="Path_908489" data-name="Path 908489" d="M22.5,43.71a2.181,2.181,0,0,1-1.547-.64l-15.3-15.3a4.685,4.685,0,0,1,0-6.6L20.771,6.06a4.685,4.685,0,0,1,6.6,0l15.3,15.311a2.173,2.173,0,0,1,0,3.081l-2,2a2.189,2.189,0,0,1-3.094,0l-2.934-2.934L23.105,35.055l2.934,2.934a2.189,2.189,0,0,1,0,3.094l-2,2a2.17,2.17,0,0,1-1.534.627Zm1.56-37.677a3.321,3.321,0,0,0-2.361.974L6.594,22.118a3.349,3.349,0,0,0,0,4.721l15.3,15.3a.845.845,0,0,0,1.2,0l2-2a.845.845,0,0,0,0-1.2l-3.414-3.414a.679.679,0,0,1-.2-.467.626.626,0,0,1,.2-.467L34.161,22.1a.679.679,0,0,1,.467-.2.626.626,0,0,1,.467.2l3.414,3.414a.845.845,0,0,0,1.2,0l2-2a.845.845,0,0,0,0-1.2L26.413,7.007a3.324,3.324,0,0,0-2.347-.974Z" transform="translate(-4.3 -4.7)"/>
    </g>
    <g id="Group_1117338" data-name="Group 1117338" transform="translate(4.647 5.047)">
      <path id="Path_908490" data-name="Path 908490" d="M9.207,31.053a.626.626,0,0,1-.467-.2.66.66,0,0,1,0-.947L29.506,9.154a.67.67,0,1,1,.947.947L9.687,30.853A.677.677,0,0,1,9.207,31.053Zm-1.64-2a.626.626,0,0,1-.467-.2.66.66,0,0,1,0-.947L27.506,7.5a.67.67,0,0,1,.947.947L8.047,28.852A.677.677,0,0,1,7.567,29.052Z" transform="translate(-6.9 -7.3)"/>
    </g>
    <g id="Group_1117339" data-name="Group 1117339" transform="translate(8.154 8.568)">
      <path id="Path_908491" data-name="Path 908491" d="M35.694,57.613a.626.626,0,0,1-.467-.2.66.66,0,0,1,0-.947L55.979,35.714a.67.67,0,1,1,.947.947L36.161,57.413A.67.67,0,0,1,35.694,57.613ZM33.867,55.8a.626.626,0,0,1-.467-.2.66.66,0,0,1,0-.947L54.152,33.9a.67.67,0,0,1,.947.947L34.334,55.6a.626.626,0,0,1-.467.2Z" transform="translate(-33.2 -33.7)"/>
    </g>
    <g id="Group_1117340" data-name="Group 1117340" transform="translate(21.291 21.705)">
      <path id="Path_908492" data-name="Path 908492" d="M135.381,139.562a3.681,3.681,0,1,1,2.6-1.08A3.655,3.655,0,0,1,135.381,139.562Zm0-6.028a2.368,2.368,0,1,0,1.654.707A2.218,2.218,0,0,0,135.381,133.534Z" transform="translate(-131.7 -132.2)"/>
    </g>
    <g id="Group_1117341" data-name="Group 1117341" transform="translate(31.547 31.947)">
      <path id="Path_908493" data-name="Path 908493" d="M221.243,222.324a.626.626,0,0,1-.467-.2L208.8,210.147a.67.67,0,0,1,.947-.947l11.977,11.977a.66.66,0,0,1,0,.947A.677.677,0,0,1,221.243,222.324Z" transform="translate(-208.6 -209)"/>
    </g>
  </g>
</svg>
