<svg xmlns="http://www.w3.org/2000/svg" width="64.609" height="54.053" viewBox="0 0 64.609 54.053">
  <g id="Group_1118024" data-name="Group 1118024" transform="translate(-2 -6.902)">
    <path id="Path_908494" data-name="Path 908494" d="M61.282,23.555l3.674-3.527a1.077,1.077,0,0,0,.039-1.514L54.386,7.24A1.077,1.077,0,0,0,53.6,6.9H15a1.077,1.077,0,0,0-.784.338L3.615,18.514a1.077,1.077,0,0,0,.024,1.5l2.929,2.93L2.315,27.2a1.077,1.077,0,0,0,0,1.523L8.8,35.2a1.077,1.077,0,0,0,1.523,0L14.6,30.928,17.087,33.4,13.825,36.54a1.077,1.077,0,0,0-.03,1.523l7.384,7.687A13.1,13.1,0,1,0,47.21,47.842a13.642,13.642,0,0,0-.1-1.575l7.683-7.388a1.077,1.077,0,0,0,.03-1.523l-3.792-3.945L53.114,31.4l5.168,5.163a1.077,1.077,0,0,0,1.523,0l6.49-6.488a1.077,1.077,0,0,0,0-1.523ZM8.852,23.7l6.087-6.086,1.723,1.723L6.325,29.671,4.6,27.948Zm.714,9.22L7.843,31.194,18.18,20.858,19.9,22.58l-6.059,6.07h0Zm9.8,1.278h0l4.967-4.774,5.723,5.95c-.032.011-.062.027-.095.038a13.415,13.415,0,0,0-1.4.562c-.1.046-.194.1-.292.145a13.144,13.144,0,0,0-1.206.679c-.058.037-.117.068-.173.108a13.206,13.206,0,0,0-1.223.916c-.09.075-.178.153-.267.231a13.4,13.4,0,0,0-1.117,1.093,13.129,13.129,0,0,0-.936,1.209c-.08.115-.155.233-.232.35q-.333.514-.616,1.054c-.053.1-.108.195-.158.3a12.814,12.814,0,0,0-.538,1.243l-5.714-5.946ZM31.4,20.217a5,5,0,0,0,5.8,0V33.951l-.992.953c-.118-.019-.241-.027-.361-.043-.148-.02-.294-.04-.444-.054-.231-.024-.465-.037-.7-.047-.153-.008-.3-.017-.457-.018-.05,0-.1-.006-.146-.006-.094,0-.181.015-.273.016-.352.008-.7.027-1.053.061-.082.009-.167,0-.249.014L31.4,33.658Zm0-4.126a2.9,2.9,0,1,1,2.9,2.9,2.9,2.9,0,0,1-2.9-2.9ZM34.1,58.8A10.967,10.967,0,0,1,23.148,47.843a10.723,10.723,0,0,1,.23-2.237A10.955,10.955,0,0,1,25.9,40.575a11.1,11.1,0,0,1,6.41-3.542c.312-.052.631-.087.951-.108.108-.009.227-.009.34-.013.2-.009.4-.017.6-.015.257,0,.511.019.764.039.108.009.215.01.323.022a10.565,10.565,0,0,1,1.053.166,10.875,10.875,0,0,1,5.814,3.3,11.3,11.3,0,0,1,2.754,5.622,11.15,11.15,0,0,1,.144,1.8A10.967,10.967,0,0,1,34.1,58.8Zm12.475-15c-.008-.023-.018-.044-.026-.067-.124-.371-.267-.734-.422-1.092q-.062-.146-.129-.291a12.352,12.352,0,0,0-.571-1.108l-.024-.038c-.2-.348-.431-.684-.667-1.012-.062-.086-.125-.171-.19-.256-.253-.335-.517-.662-.8-.974a13.414,13.414,0,0,0-1-.969c-.084-.074-.168-.146-.254-.215a12.773,12.773,0,0,0-1.09-.827c-.02-.015-.044-.027-.066-.041a12.787,12.787,0,0,0-1.124-.66c-.093-.048-.185-.1-.279-.144a12.8,12.8,0,0,0-1.252-.547l-.025-.011.278-.267a1,1,0,0,0,.172-.166L44.6,29.834l4.131,4.307h.009l3.786,3.938ZM49.54,31.864l-4.137-4.3a1.077,1.077,0,0,0-.754-.331,1.118,1.118,0,0,0-.767.3l-4.522,4.348V16.091a5.053,5.053,0,1,0-10.106,0V31.419l-4.1-4.266a1.077,1.077,0,0,0-1.523-.029l-4.982,4.789-2.52-2.51,6.064-6.065a1.077,1.077,0,0,0,0-1.523L15.7,15.328a1.077,1.077,0,0,0-1.523,0L8.09,21.416l-2.2-2.189L15.468,9.053H53.137L62.7,19.21,59.76,22.029,54.427,16.7a1.077,1.077,0,0,0-1.523,0l-6.49,6.49a1.077,1.077,0,0,0,0,1.523l5.176,5.177Zm9.5,2.425L53.894,29.14l-5.2-5.191,1.723-1.723L60.758,32.563Zm3.245-3.244L51.951,20.708l1.723-1.723L58.991,24.3l5.023,5.023Z" transform="translate(0)"/>
    <path id="Path_908495" data-name="Path 908495" d="M32.377,37.591a7.9,7.9,0,1,0,7.9,7.9,7.9,7.9,0,0,0-7.9-7.9Zm0,13.639a5.743,5.743,0,1,1,5.742-5.743,5.744,5.744,0,0,1-5.742,5.743Z" transform="translate(1.725 2.355)"/>
  </g>
</svg>
