<svg xmlns="http://www.w3.org/2000/svg" width="90" height="90" viewBox="0 0 90 90">
  <g id="Group_1118039" data-name="Group 1118039" transform="translate(-190.051 -2447.268)">
    <g id="Group_1117169" data-name="Group 1117169" transform="translate(-200 259.268)">
      <g id="Group_1117168" data-name="Group 1117168" transform="translate(396.051 2194.003)">
        <ellipse id="Ellipse_11968" data-name="Ellipse 11968" cx="17" cy="17.5" rx="17" ry="17.5" transform="translate(21.532 23.997)" fill="#a7d8d5"/>
        <ellipse id="Ellipse_11969" data-name="Ellipse 11969" cx="12" cy="12.5" rx="12" ry="12.5" transform="translate(26.532 28.997)" fill="#e5e5e5"/>
        <ellipse id="Ellipse_11970" data-name="Ellipse 11970" cx="8" cy="7.5" rx="8" ry="7.5" transform="translate(30.532 33.997)" fill="#a7d8d5"/>
        <ellipse id="Ellipse_11971" data-name="Ellipse 11971" cx="3" cy="2.5" rx="3" ry="2.5" transform="translate(35.532 38.997)" fill="#686868"/>
        <path id="Path_908345" data-name="Path 908345" d="M19.047,14.075l6.561,4.588A25.889,25.889,0,1,0,38.3,15.333c-.419,0-.826.012-1.233.037v4.9L24.733,11.633,37.066,3V7.958c.407-.012.826-.025,1.233-.025a33.325,33.325,0,1,1-19.252,6.142Z" transform="translate(0.233 0.234)" fill="#91adce"/>
        <path id="Path_908346" data-name="Path 908346" d="M26.545,17.886,19.984,13.3a1.244,1.244,0,0,0-1.418,0A34.526,34.526,0,1,0,38.532,6.934v-3.7a1.258,1.258,0,0,0-.666-1.1,1.234,1.234,0,0,0-1.283.086L24.251,10.856a1.229,1.229,0,0,0,0,2.023l12.333,8.633a1.26,1.26,0,0,0,1.283.086,1.23,1.23,0,0,0,.666-1.1V16.8A24.663,24.663,0,0,1,42.06,65.873l.345,2.442a27.129,27.129,0,0,0-3.873-53.982c-.444,0-.876.012-1.307.037A1.231,1.231,0,0,0,36.066,15.6v2.528l-8.954-6.265L36.066,5.6v2.59a1.261,1.261,0,0,0,.37.888,1.187,1.187,0,0,0,.9.345c.395,0,.8-.025,1.2-.025a32.091,32.091,0,1,1-19.24,6.426l4.292,3A27.128,27.128,0,0,0,34.66,68.315l.345-2.442a24.658,24.658,0,0,1-8.559-45.9,1.246,1.246,0,0,0,.629-1.011A1.217,1.217,0,0,0,26.545,17.886Z"/>
        <path id="Path_908347" data-name="Path 908347" d="M33.555,56.437l-.148-2.467a18.181,18.181,0,0,1-2.319,0l-.148,2.467c.432.025.863.037,1.307.037s.876-.012,1.307-.037Z" transform="translate(6.285 12.125)"/>
        <path id="Path_908348" data-name="Path 908348" d="M50.5,34H48.033A16.048,16.048,0,0,1,32,50.033V52.5A18.522,18.522,0,0,0,50.5,34Z" transform="translate(6.532 7.466)"/>
        <path id="Path_908349" data-name="Path 908349" d="M17,37.5h2.467A16.048,16.048,0,0,1,35.5,21.467V19A18.522,18.522,0,0,0,17,37.5Z" transform="translate(3.033 3.967)"/>
        <path id="Path_908350" data-name="Path 908350" d="M21,34A13.574,13.574,0,0,0,34.566,47.566V45.1A11.116,11.116,0,0,1,23.467,34Z" transform="translate(3.966 7.466)"/>
        <path id="Path_908351" data-name="Path 908351" d="M32,23v2.467a11.116,11.116,0,0,1,11.1,11.1h2.467A13.574,13.574,0,0,0,32,23Z" transform="translate(6.532 4.9)"/>
        <path id="Path_908352" data-name="Path 908352" d="M33.633,44.266A8.633,8.633,0,1,0,25,35.633,8.643,8.643,0,0,0,33.633,44.266Zm0-14.8a6.167,6.167,0,1,1-6.167,6.167A6.169,6.169,0,0,1,33.633,29.467Z" transform="translate(4.899 5.833)"/>
        <path id="Path_908353" data-name="Path 908353" d="M32.7,38.4A3.7,3.7,0,1,0,29,34.7,3.711,3.711,0,0,0,32.7,38.4Zm0-4.933A1.233,1.233,0,1,1,31.467,34.7,1.237,1.237,0,0,1,32.7,33.467Z" transform="translate(5.833 6.767)"/>
      </g>
      <rect id="Rectangle_409905" data-name="Rectangle 409905" width="90" height="90" transform="translate(390.051 2188)" fill="none"/>
    </g>
  </g>
</svg>
