<svg id="Group_1099428" data-name="Group 1099428" xmlns="http://www.w3.org/2000/svg" xmlns:xlink="http://www.w3.org/1999/xlink" width="100.572" height="154.395" viewBox="0 0 100.572 154.395">
  <defs>
    <clipPath id="clip-path">
      <rect id="Rectangle_401346" data-name="Rectangle 401346" width="100.572" height="154.395" fill="none"/>
    </clipPath>
    <clipPath id="clip-path-3">
      <rect id="Rectangle_401322" data-name="Rectangle 401322" width="90.67" height="79.48" transform="translate(9.902 74.915)" fill="none"/>
    </clipPath>
    <clipPath id="clip-path-4">
      <path id="Path_873290" data-name="Path 873290" d="M24.454,66.123a3.573,3.573,0,0,0-3.094,1.786L.479,104.077a3.574,3.574,0,0,0,0,3.573L21.36,143.817a3.573,3.573,0,0,0,3.094,1.786H66.217a3.572,3.572,0,0,0,3.093-1.786L90.192,107.65a3.574,3.574,0,0,0,0-3.573L69.31,67.909a3.572,3.572,0,0,0-3.093-1.786Z" fill="none"/>
    </clipPath>
    <radialGradient id="radial-gradient" cx="0.714" cy="0.514" r="0.577" gradientTransform="translate(0.225 1.811) rotate(180) scale(1.028 1)" gradientUnits="objectBoundingBox">
      <stop offset="0" stop-color="#b4e7df"/>
      <stop offset="1" stop-color="#859ca6"/>
    </radialGradient>
    <clipPath id="clip-path-6">
      <rect id="Rectangle_401325" data-name="Rectangle 401325" width="37.536" height="21.742" transform="translate(27.219 101.039)" fill="none"/>
    </clipPath>
    <clipPath id="clip-path-7">
      <path id="Path_873292" data-name="Path 873292" d="M50.289,96.258C45.689,93.6,41.96,87.17,41.96,81.89s3.729-7.4,8.329-4.749,6.533,9.4,6.533,14.68c0,2.525.944,4.017-.45,4.921a4.249,4.249,0,0,1-2.344.66,7.6,7.6,0,0,1-3.739-1.144M41.147,76.9c-.521,1.086-5.3,6.686-5.3,8.291,0,6.306,5.638,12.739,11.134,15.911,1.822,1.052,7.472-.588,7.472-.588s2.406-1.377,3.057-1.788c1.694-1.07,2.733-3.237,2.733-6.283,0-6.307-4.456-13.992-9.953-17.165a9.063,9.063,0,0,0-4.466-1.367A4.985,4.985,0,0,0,41.147,76.9" fill="none"/>
    </clipPath>
    <linearGradient id="linear-gradient" x1="-0.863" y1="2.31" x2="-0.835" y2="2.31" gradientUnits="objectBoundingBox">
      <stop offset="0" stop-color="#d7d7d9"/>
      <stop offset="0.189" stop-color="#e2e2e2"/>
      <stop offset="0.216" stop-color="#e7e9ec"/>
      <stop offset="0.257" stop-color="#ecf0f4"/>
      <stop offset="0.327" stop-color="#eef2f7"/>
      <stop offset="0.374" stop-color="#ebeff3"/>
      <stop offset="0.417" stop-color="#e5e6e8"/>
      <stop offset="0.43" stop-color="#e3e3e3"/>
      <stop offset="0.527" stop-color="#c3c3ca"/>
      <stop offset="0.873" stop-color="#b3b4be"/>
      <stop offset="0.882" stop-color="#a5a7b3"/>
      <stop offset="1" stop-color="#a5a7b3"/>
    </linearGradient>
    <clipPath id="clip-path-8">
      <path id="Path_873293" data-name="Path 873293" d="M40.195,76.334,46.2,77.1l7.492,6.473,2.667,8.64-1.013,6.075-.894,2.232.928-.555,2.362-3.673.251-5.217,2.025-1.17-2.09-5.539L51.381,76.5l-8.4-1.767Z" fill="none"/>
    </clipPath>
    <linearGradient id="linear-gradient-2" x1="-1.167" y1="2.568" x2="-1.134" y2="2.568" gradientUnits="objectBoundingBox">
      <stop offset="0" stop-color="#a5a7b3"/>
      <stop offset="0.118" stop-color="#a5a7b3"/>
      <stop offset="0.127" stop-color="#b3b4be"/>
      <stop offset="0.473" stop-color="#c3c3ca"/>
      <stop offset="0.57" stop-color="#e3e3e3"/>
      <stop offset="0.583" stop-color="#e5e6e8"/>
      <stop offset="0.626" stop-color="#ebeff3"/>
      <stop offset="0.673" stop-color="#eef2f7"/>
      <stop offset="0.743" stop-color="#ecf0f4"/>
      <stop offset="0.784" stop-color="#e7e9ec"/>
      <stop offset="0.811" stop-color="#e2e2e2"/>
      <stop offset="1" stop-color="#d7d7d9"/>
    </linearGradient>
    <clipPath id="clip-path-10">
      <path id="Path_873297" data-name="Path 873297" d="M43.81,100c-4.6-2.656-8.33-9.088-8.33-14.368s3.729-7.4,8.33-4.749,6.532,9.4,6.532,14.68c0,2.525.944,4.018-.45,4.921a4.238,4.238,0,0,1-2.343.66A7.593,7.593,0,0,1,43.81,100M34.667,80.644c-.52,1.084-3.173,5.314-3.173,6.92,0,6.307,5.637,12.738,11.134,15.912,1.821,1.051,5.344.781,5.344.781s2.406-1.376,3.057-1.788c1.694-1.07,2.733-3.237,2.733-6.282,0-6.308-4.455-13.993-9.952-17.166a9.077,9.077,0,0,0-4.467-1.367,4.984,4.984,0,0,0-4.676,2.99" fill="none"/>
    </clipPath>
    <linearGradient id="linear-gradient-3" x1="-0.803" y1="2.34" x2="-0.772" y2="2.34" xlink:href="#linear-gradient"/>
    <clipPath id="clip-path-11">
      <path id="Path_873298" data-name="Path 873298" d="M46.645,98.363c-4.6-2.657-8.33-9.089-8.33-14.368a6.55,6.55,0,0,1,1.536-4.646c1.509-1.565,2.117,1.145,4.92,2.764,4.6,2.656,8.406,6.533,8.406,11.812,0,2.525.945,4.018-.45,4.921a4.238,4.238,0,0,1-2.343.661,7.593,7.593,0,0,1-3.739-1.144M37.5,79.006c-.52,1.086-3.173,5.316-3.173,6.921,0,6.307,5.637,12.738,11.134,15.912,1.821,1.052,5.344.781,5.344.781s2.406-1.376,3.057-1.788c1.694-1.07,2.732-3.237,2.732-6.283,0-6.306-4.455-13.992-9.951-17.165a9.077,9.077,0,0,0-4.467-1.367A4.985,4.985,0,0,0,37.5,79.006" fill="none"/>
    </clipPath>
    <linearGradient id="linear-gradient-4" x1="-0.889" y1="2.387" x2="-0.859" y2="2.387" xlink:href="#linear-gradient"/>
    <clipPath id="clip-path-13">
      <path id="Path_873300" data-name="Path 873300" d="M36.505,78.469l6.63,2.515,10.4,12.658L51.361,78.8l-8.376-4.067Z" fill="none"/>
    </clipPath>
    <linearGradient id="linear-gradient-5" x1="-1.36" y1="3.318" x2="-1.319" y2="3.318" xlink:href="#linear-gradient-2"/>
    <clipPath id="clip-path-15">
      <path id="Path_873333" data-name="Path 873333" d="M33.715,80.075l6.005.762,7.492,6.473,2.667,8.64-1.013,6.075-.894,2.232.928-.555,2.362-3.672.251-5.219,2.025-1.169L51.448,88.1,44.9,80.238l-8.4-1.769Z" fill="none"/>
    </clipPath>
    <linearGradient id="linear-gradient-6" x1="-0.951" y1="2.452" x2="-0.918" y2="2.452" xlink:href="#linear-gradient-2"/>
    <clipPath id="clip-path-17">
      <path id="Path_873348" data-name="Path 873348" d="M57.67,36.412c-6.24,3.731-16.5,3.834-22.924.232-3.262-1.831-4.9-4.267-4.912-6.71l.042,14.609c.007,2.442,1.649,4.878,4.912,6.708,6.42,3.6,16.683,3.5,22.924-.231,3.069-1.834,4.593-4.205,4.586-6.568l-.041-14.608c.007,2.363-1.518,4.733-4.587,6.568" fill="none"/>
    </clipPath>
    <linearGradient id="linear-gradient-7" x1="-0.919" y1="4.979" x2="-0.888" y2="4.979" xlink:href="#linear-gradient-2"/>
    <clipPath id="clip-path-19">
      <path id="Path_873352" data-name="Path 873352" d="M57.612,15.913c-6.24,3.73-16.5,3.834-22.923.231-3.264-1.83-4.9-4.267-4.912-6.709l.021,7.748c.007,2.442,1.65,4.879,4.912,6.709,6.42,3.6,16.684,3.5,22.924-.232,3.069-1.834,4.594-4.2,4.587-6.567L62.2,9.345c.006,2.363-1.518,4.733-4.587,6.568" fill="none"/>
    </clipPath>
    <linearGradient id="linear-gradient-8" x1="-0.918" y1="7.991" x2="-0.887" y2="7.991" xlink:href="#linear-gradient-2"/>
    <clipPath id="clip-path-20">
      <path id="Path_873353" data-name="Path 873353" d="M38.51,13.86c-4.249-2.384-4.345-6.318-.215-8.787s10.922-2.538,15.17-.154,4.346,6.318.215,8.787a15.406,15.406,0,0,1-7.73,1.9,15.52,15.52,0,0,1-7.44-1.744M45.876,0A23.215,23.215,0,0,0,34.363,2.866c-6.241,3.731-6.095,9.675.326,13.278s16.683,3.5,22.923-.231,6.094-9.675-.325-13.278A23.381,23.381,0,0,0,46.209,0Z" fill="none"/>
    </clipPath>
    <linearGradient id="linear-gradient-9" x1="-0.627" y1="4.633" x2="-0.602" y2="4.633" gradientUnits="objectBoundingBox">
      <stop offset="0" stop-color="#cfd0d6"/>
      <stop offset="0.037" stop-color="#cfd0d6"/>
      <stop offset="0.743" stop-color="#eef2f7"/>
      <stop offset="1" stop-color="#eef2f7"/>
    </linearGradient>
    <clipPath id="clip-path-22">
      <path id="Path_873356" data-name="Path 873356" d="M51.963,10.14a13,13,0,0,1-11.8.119c-2.865-1.607-3.3-4.122-1.273-6.014L36.872,6.127c-2.608,2.433-2.046,5.666,1.638,7.733,4.249,2.384,11.04,2.315,15.17-.154,3.517-2.1,3.969-5.266,1.4-7.631L53.055,4.2c1.995,1.839,1.643,4.3-1.092,5.935" fill="none"/>
    </clipPath>
    <linearGradient id="linear-gradient-10" x1="-1.465" y1="12.474" x2="-1.422" y2="12.474" xlink:href="#linear-gradient-2"/>
    <clipPath id="clip-path-23">
      <path id="Path_873357" data-name="Path 873357" d="M40,3.425c-3.212,1.92-3.137,4.98.167,6.834a13,13,0,0,0,11.8-.119C55.175,8.22,55.1,5.161,51.8,3.306A12.071,12.071,0,0,0,46.009,1.95,11.985,11.985,0,0,0,40,3.425" fill="none"/>
    </clipPath>
    <linearGradient id="linear-gradient-11" x1="-1.689" y1="8.687" x2="-1.641" y2="8.687" xlink:href="#linear-gradient-9"/>
    <clipPath id="clip-path-25">
      <path id="Path_873359" data-name="Path 873359" d="M30.672,41.584a9.067,9.067,0,0,0,4.116,7.1c1.455.841,2.733.711,3.465-.175a3.406,3.406,0,0,1-2.241-.532,9.065,9.065,0,0,1-4.116-7.1,3.354,3.354,0,0,1,.651-2.172c-1.128.191-1.875,1.219-1.875,2.879" fill="none"/>
    </clipPath>
    <linearGradient id="linear-gradient-12" x1="-2.378" y1="8.887" x2="-2.295" y2="8.887" xlink:href="#linear-gradient"/>
  </defs>
  <g id="Group_1099427" data-name="Group 1099427" clip-path="url(#clip-path)">
    <g id="Group_1099381" data-name="Group 1099381">
      <g id="Group_1099380" data-name="Group 1099380" clip-path="url(#clip-path)">
        <g id="Group_1099379" data-name="Group 1099379" opacity="0.1">
          <g id="Group_1099378" data-name="Group 1099378">
            <g id="Group_1099377" data-name="Group 1099377" clip-path="url(#clip-path-3)">
              <path id="Path_873289" data-name="Path 873289" d="M79.212,152.609l20.881-36.167a3.574,3.574,0,0,0,0-3.573L79.212,76.7a3.572,3.572,0,0,0-3.094-1.787H34.356A3.571,3.571,0,0,0,31.262,76.7L10.38,112.869a3.574,3.574,0,0,0,0,3.573l20.882,36.167a3.572,3.572,0,0,0,3.094,1.786H76.118a3.573,3.573,0,0,0,3.094-1.786" fill="#353e42"/>
            </g>
          </g>
        </g>
      </g>
    </g>
    <g id="Group_1099383" data-name="Group 1099383">
      <g id="Group_1099382" data-name="Group 1099382" clip-path="url(#clip-path-4)">
        <rect id="Rectangle_401324" data-name="Rectangle 401324" width="116.468" height="119.727" transform="matrix(0.551, -0.834, 0.834, 0.551, -36.711, 121.459)" fill="url(#radial-gradient)"/>
      </g>
    </g>
    <g id="Group_1099388" data-name="Group 1099388">
      <g id="Group_1099387" data-name="Group 1099387" clip-path="url(#clip-path)">
        <g id="Group_1099386" data-name="Group 1099386" style="mix-blend-mode: multiply;isolation: isolate">
          <g id="Group_1099385" data-name="Group 1099385">
            <g id="Group_1099384" data-name="Group 1099384" clip-path="url(#clip-path-6)">
              <path id="Path_873291" data-name="Path 873291" d="M32.53,104.358c7.224-4.319,19.107-4.439,26.539-.268s7.6,11.053.377,15.372-19.107,4.438-26.539.268-7.6-11.053-.377-15.372" fill="#c7dcf3"/>
            </g>
          </g>
        </g>
      </g>
    </g>
    <g id="Group_1099390" data-name="Group 1099390">
      <g id="Group_1099389" data-name="Group 1099389" clip-path="url(#clip-path-7)">
        <rect id="Rectangle_401327" data-name="Rectangle 401327" width="35.249" height="36.657" transform="matrix(0.866, -0.5, 0.5, 0.866, 23.616, 80.974)" fill="url(#linear-gradient)"/>
      </g>
    </g>
    <g id="Group_1099392" data-name="Group 1099392">
      <g id="Group_1099391" data-name="Group 1099391" clip-path="url(#clip-path-8)">
        <rect id="Rectangle_401328" data-name="Rectangle 401328" width="30.061" height="32.244" transform="matrix(0.866, -0.5, 0.5, 0.866, 29.029, 81.176)" fill="url(#linear-gradient-2)"/>
      </g>
    </g>
    <g id="Group_1099394" data-name="Group 1099394">
      <g id="Group_1099393" data-name="Group 1099393" clip-path="url(#clip-path)">
        <path id="Path_873294" data-name="Path 873294" d="M36.962,76.59,28.457,81.5l2.938,1.7,8.5-4.91Z" fill="#d4d4d8"/>
        <path id="Path_873295" data-name="Path 873295" d="M60.018,89.9,57.993,91.07l3.6,2.078,2.024-1.169Z" fill="#d4d4d8"/>
        <path id="Path_873296" data-name="Path 873296" d="M30.482,80.331,28.457,81.5l3.6,2.078,2.025-1.169Z" fill="#d4d4d8"/>
      </g>
    </g>
    <g id="Group_1099396" data-name="Group 1099396">
      <g id="Group_1099395" data-name="Group 1099395" clip-path="url(#clip-path-10)">
        <rect id="Rectangle_401330" data-name="Rectangle 401330" width="32.721" height="34.407" transform="translate(19.858 84.372) rotate(-30)" fill="url(#linear-gradient-3)"/>
      </g>
    </g>
    <g id="Group_1099398" data-name="Group 1099398">
      <g id="Group_1099397" data-name="Group 1099397" clip-path="url(#clip-path-11)">
        <rect id="Rectangle_401331" data-name="Rectangle 401331" width="32.721" height="34.407" transform="translate(22.692 82.736) rotate(-30)" fill="url(#linear-gradient-4)"/>
      </g>
    </g>
    <g id="Group_1099400" data-name="Group 1099400">
      <g id="Group_1099399" data-name="Group 1099399" clip-path="url(#clip-path)">
        <path id="Path_873299" data-name="Path 873299" d="M51.513,94.025,52.876,97.1l-2.411,5.868-2.493,1.285Z" fill="#a5a7b3"/>
      </g>
    </g>
    <g id="Group_1099402" data-name="Group 1099402">
      <g id="Group_1099401" data-name="Group 1099401" clip-path="url(#clip-path-13)">
        <rect id="Rectangle_401333" data-name="Rectangle 401333" width="24.208" height="24.896" transform="matrix(0.866, -0.5, 0.5, 0.866, 28.315, 79.457)" fill="url(#linear-gradient-5)"/>
      </g>
    </g>
    <g id="Group_1099404" data-name="Group 1099404">
      <g id="Group_1099403" data-name="Group 1099403" clip-path="url(#clip-path)">
        <path id="Path_873301" data-name="Path 873301" d="M61.908,95.738v11l-8.505,4.91-1.432-4.731-5.436,3.138.509-3.711,6.359-5.7Z" fill="#9698a6"/>
        <path id="Path_873302" data-name="Path 873302" d="M39.883,72.14,38.505,18.335,41.34,16.7l2.541,1.467v58.07c.03.007.06.016.089.024-.09-.024-2.923,1.613-2.923,1.613L33.42,74.661l2.834-1.637Z" fill="#bdbdc6"/>
        <path id="Path_873303" data-name="Path 873303" d="M39.961,71.581,38.5,73.422,33.42,74.661l4.454-2.572Z" fill="#d4d4d8"/>
        <path id="Path_873304" data-name="Path 873304" d="M32.057,83.578a11.111,11.111,0,0,0-.224,2.286c0,6.307,4.456,13.992,9.952,17.165s9.952.633,9.952-5.674a15.291,15.291,0,0,0-.223-2.544l3.6,2.078v4.746l-1.71-.987v11l-6.021-3.477-.847,1.884-9.5-5.484-.848-2.862-6.021-3.477v-11l-1.71-.987V81.5Z" fill="#b4b5bf"/>
        <path id="Path_873305" data-name="Path 873305" d="M43.881,18.165l5.527,3.191v58.07c-.029-.027-.059-.052-.089-.079l-.166-.147c-.074-.065-.149-.129-.224-.193l-.156-.131c-.113-.094-.226-.185-.341-.275-.037-.03-.074-.058-.112-.087-.1-.079-.206-.158-.31-.234l-.144-.1c-.086-.062-.173-.123-.26-.183l-.149-.1c-.091-.061-.183-.121-.275-.18l-.13-.083q-.2-.126-.408-.245c-.136-.079-.272-.153-.407-.225l-.13-.067c-.092-.048-.184-.094-.275-.138-.05-.025-.1-.048-.15-.071-.086-.041-.173-.08-.259-.117q-.072-.033-.144-.063c-.1-.044-.207-.085-.31-.124l-.112-.043c-.115-.042-.229-.081-.341-.118l-.156-.049q-.113-.035-.225-.066c-.055-.016-.11-.03-.165-.045l-.089-.023Z" fill="#a5a7b3"/>
        <path id="Path_873306" data-name="Path 873306" d="M43.4,78.8c.135.072.271.146.407.225-.136-.079-.272-.153-.407-.225" fill="#bebec6"/>
        <path id="Path_873307" data-name="Path 873307" d="M44.772,79.631c.087.06.173.121.26.183-.087-.062-.173-.123-.26-.183" fill="#bebec6"/>
        <path id="Path_873308" data-name="Path 873308" d="M43,78.591c.091.044.183.091.275.138-.092-.047-.184-.094-.275-.138" fill="#bebec6"/>
        <path id="Path_873309" data-name="Path 873309" d="M44.347,79.349c.092.059.184.119.275.18-.091-.061-.183-.121-.275-.18" fill="#bebec6"/>
        <path id="Path_873310" data-name="Path 873310" d="M45.176,79.917c.1.076.207.155.31.234-.1-.079-.206-.158-.31-.234" fill="#bebec6"/>
        <path id="Path_873311" data-name="Path 873311" d="M41.681,78.055c.113.037.227.077.341.119-.114-.042-.228-.082-.341-.119" fill="#bebec6"/>
        <path id="Path_873312" data-name="Path 873312" d="M41.3,77.94q.113.031.225.066-.113-.034-.225-.066" fill="#bebec6"/>
        <path id="Path_873313" data-name="Path 873313" d="M42.134,78.216c.1.039.206.08.31.124-.1-.044-.207-.085-.31-.124" fill="#bebec6"/>
        <path id="Path_873314" data-name="Path 873314" d="M42.588,78.4c.086.038.173.076.26.117-.087-.041-.174-.079-.26-.117" fill="#bebec6"/>
        <path id="Path_873315" data-name="Path 873315" d="M43.81,79.021c.137.079.272.161.407.245-.135-.084-.27-.166-.407-.245" fill="#bebec6"/>
        <path id="Path_873316" data-name="Path 873316" d="M51.028,20.421l2.541,1.467V76.975l5.086,7.112v7.366L54.2,94.025c-.778-4.6-2.442-10.822-5.975-13.991.029.026-1.681-57.068-1.652-57.041Z" fill="#9698a6"/>
        <path id="Path_873317" data-name="Path 873317" d="M46.573,22.993l2.541,1.467V79.547L54.2,86.659v7.366l-.662-.383a23.142,23.142,0,0,0-7.054-12.658c.03.027.06.052.089.079Z" fill="#b4b5bf"/>
        <path id="Path_873318" data-name="Path 873318" d="M46.094,80.644l.225.193-.225-.193" fill="#bebec6"/>
        <path id="Path_873319" data-name="Path 873319" d="M45.6,80.238c.114.09.228.181.341.275q-.169-.14-.341-.275" fill="#bebec6"/>
        <path id="Path_873320" data-name="Path 873320" d="M38.505,73.422V18.335L41.046,19.8v58.07c.03.007.06.016.089.024-3.533-.911-6.275.815-7.053,4.514l-.663-.383V74.661Z" fill="#b4b5bf"/>
        <path id="Path_873321" data-name="Path 873321" d="M42.444,78.34l.144.063-.144-.063" fill="#818175"/>
        <path id="Path_873322" data-name="Path 873322" d="M41.135,77.9l.166.044-.166-.044" fill="#818175"/>
        <path id="Path_873323" data-name="Path 873323" d="M41.526,78.007l.155.048-.155-.048" fill="#818175"/>
        <path id="Path_873324" data-name="Path 873324" d="M42.022,78.173l.112.043-.112-.043" fill="#818175"/>
        <path id="Path_873325" data-name="Path 873325" d="M46.319,80.837l.166.147-.166-.147" fill="#818175"/>
        <path id="Path_873326" data-name="Path 873326" d="M44.622,79.529c.05.033.1.067.149.1-.049-.035-.1-.068-.149-.1" fill="#818175"/>
        <path id="Path_873327" data-name="Path 873327" d="M42.848,78.52l.149.071-.149-.071" fill="#818175"/>
        <path id="Path_873328" data-name="Path 873328" d="M44.217,79.266c.044.027.087.055.13.083-.043-.028-.086-.056-.13-.083" fill="#818175"/>
        <path id="Path_873329" data-name="Path 873329" d="M45.485,80.151c.038.029.075.057.112.087-.037-.03-.074-.058-.112-.087" fill="#818175"/>
        <path id="Path_873330" data-name="Path 873330" d="M43.272,78.729l.13.067-.13-.067" fill="#818175"/>
        <path id="Path_873331" data-name="Path 873331" d="M45.939,80.513l.155.131-.155-.131" fill="#818175"/>
        <path id="Path_873332" data-name="Path 873332" d="M45.032,79.813l.143.1-.143-.1" fill="#818175"/>
      </g>
    </g>
    <g id="Group_1099406" data-name="Group 1099406">
      <g id="Group_1099405" data-name="Group 1099405" clip-path="url(#clip-path-15)">
        <rect id="Rectangle_401335" data-name="Rectangle 401335" width="30.061" height="32.245" transform="translate(22.548 84.916) rotate(-30)" fill="url(#linear-gradient-6)"/>
      </g>
    </g>
    <g id="Group_1099408" data-name="Group 1099408">
      <g id="Group_1099407" data-name="Group 1099407" clip-path="url(#clip-path)">
        <path id="Path_873334" data-name="Path 873334" d="M31.023,86.331c0,6.307,4.456,13.993,9.952,17.166s9.952.633,9.952-5.674-4.456-13.992-9.952-17.166-9.952-.632-9.952,5.674m1.622.937c0-5.279,3.729-7.4,8.33-4.749s8.33,9.089,8.33,14.368-3.73,7.4-8.33,4.749-8.33-9.089-8.33-14.368" fill="#d3d3d6"/>
        <path id="Path_873335" data-name="Path 873335" d="M53.538,93.643l-2.025,1.169,3.6,2.078,2.025-1.169Z" fill="#d4d4d8"/>
        <path id="Path_873336" data-name="Path 873336" d="M60.68,90.284l-8.505,4.91,2.938,1.7,8.5-4.91Z" fill="#d4d4d8"/>
        <path id="Path_873337" data-name="Path 873337" d="M53.57,76.975l-4.455,2.572L54.2,86.659l4.455-2.572Z" fill="#d4d4d8"/>
        <path id="Path_873338" data-name="Path 873338" d="M63.617,96.725l-8.505,4.91V96.89l8.505-4.911Z" fill="#a5a7b3"/>
        <path id="Path_873339" data-name="Path 873339" d="M34.421,23.366c6.24-3.731,16.5-3.834,22.923-.232s6.566,9.547.326,13.278-16.5,3.834-22.924.231-6.565-9.547-.325-13.277m1.551,12.545c5.723,3.212,14.875,3.12,20.438-.206s5.433-8.627-.291-11.839-14.874-3.119-20.438.207-5.434,8.626.291,11.838" fill="#ddddde"/>
        <path id="Path_873340" data-name="Path 873340" d="M35.969,35.127c5.724,3.212,14.875,3.12,20.438-.207,2.736-1.635,4.1-3.748,4.09-5.856l0,.785c.006,2.107-1.353,4.22-4.089,5.856-5.564,3.326-14.715,3.419-20.439.207-2.909-1.633-4.373-3.805-4.379-5.982l0-.785c.007,2.178,1.471,4.35,4.38,5.982" fill="#bebec6"/>
        <path id="Path_873341" data-name="Path 873341" d="M34.848,20.194a20.628,20.628,0,0,1,7.978-2.561l.234-.029a19.081,19.081,0,0,0-7.39,2.373c-5.564,3.326-5.434,8.626.29,11.838s14.874,3.119,20.438-.207,5.434-8.626-.29-11.838a19.358,19.358,0,0,0-7.148-2.183l.235.028a20.892,20.892,0,0,1,7.716,2.356c6.179,3.467,6.319,9.188.313,12.779s-15.884,3.69-22.063.223-6.319-9.189-.313-12.779" fill="#d4d4d8"/>
        <path id="Path_873342" data-name="Path 873342" d="M35.959,31.391h0c5.724,3.212,14.875,3.12,20.438-.207,2.737-1.635,4.1-3.748,4.09-5.856v.424c.006,2.107-1.353,4.221-4.089,5.856-5.564,3.326-14.715,3.419-20.439.207-2.909-1.633-4.373-3.805-4.379-5.982v-.424c.006,2.178,1.47,4.35,4.379,5.982" fill="#a5a7b3"/>
        <path id="Path_873343" data-name="Path 873343" d="M34.84,17.5a20.543,20.543,0,0,1,7.882-2.549l.241-.031a19.048,19.048,0,0,0-7.3,2.362c-5.564,3.326-5.434,8.626.29,11.838s14.874,3.119,20.438-.207,5.434-8.626-.29-11.838A19.309,19.309,0,0,0,49.042,14.9l.24.029A20.832,20.832,0,0,1,56.9,17.278c6.18,3.467,6.319,9.188.313,12.779s-15.884,3.69-22.063.223S28.834,21.091,34.84,17.5" fill="#d4d4d8"/>
        <path id="Path_873344" data-name="Path 873344" d="M35.951,28.7c5.724,3.212,14.875,3.12,20.438-.207,2.736-1.635,4.1-3.748,4.09-5.856v.423c.006,2.108-1.353,4.22-4.089,5.856-5.564,3.326-14.715,3.419-20.439.207-2.909-1.633-4.373-3.8-4.379-5.982l0-.423c.007,2.178,1.471,4.35,4.38,5.982" fill="#a5a7b3"/>
        <path id="Path_873345" data-name="Path 873345" d="M34.833,14.808a20.543,20.543,0,0,1,7.882-2.549l.242-.031a19.03,19.03,0,0,0-7.3,2.362c-5.564,3.326-5.434,8.626.29,11.838s14.875,3.119,20.438-.207,5.434-8.626-.29-11.838a19.309,19.309,0,0,0-7.059-2.172l.241.029A20.844,20.844,0,0,1,56.9,14.585c6.179,3.467,6.319,9.188.313,12.779s-15.884,3.69-22.063.223-6.319-9.189-.313-12.779" fill="#d4d4d8"/>
        <path id="Path_873346" data-name="Path 873346" d="M35.943,26h0c5.724,3.212,14.875,3.119,20.439-.207,2.736-1.635,4.1-3.748,4.089-5.856v.424c.006,2.107-1.353,4.22-4.089,5.856-5.564,3.326-14.715,3.419-20.439.207-2.909-1.633-4.373-3.805-4.379-5.982v-.424c.006,2.178,1.47,4.35,4.379,5.982" fill="#a5a7b3"/>
        <path id="Path_873347" data-name="Path 873347" d="M34.825,12.114a20.543,20.543,0,0,1,7.882-2.549l.241-.03a19.03,19.03,0,0,0-7.3,2.361c-5.564,3.326-5.434,8.626.29,11.838s14.874,3.119,20.438-.207,5.434-8.626-.29-11.838a19.309,19.309,0,0,0-7.059-2.172l.241.029a20.844,20.844,0,0,1,7.621,2.345c6.178,3.467,6.319,9.189.313,12.779s-15.884,3.69-22.063.223-6.319-9.189-.313-12.779" fill="#d4d4d8"/>
      </g>
    </g>
    <g id="Group_1099410" data-name="Group 1099410">
      <g id="Group_1099409" data-name="Group 1099409" clip-path="url(#clip-path-17)">
        <rect id="Rectangle_401337" data-name="Rectangle 401337" width="32.471" height="25.01" transform="translate(29.834 29.844)" fill="url(#linear-gradient-7)"/>
      </g>
    </g>
    <g id="Group_1099412" data-name="Group 1099412">
      <g id="Group_1099411" data-name="Group 1099411" clip-path="url(#clip-path)">
        <path id="Path_873349" data-name="Path 873349" d="M35.161,32.973h0c6.179,3.467,16.057,3.367,22.063-.223,2.953-1.765,4.42-4.047,4.414-6.321l0,.91c.006,2.275-1.461,4.556-4.415,6.321-6.006,3.591-15.883,3.69-22.062.223v0c-3.141-1.762-4.721-4.106-4.728-6.457l0-.91c.006,2.351,1.587,4.695,4.727,6.457" fill="#bebec6"/>
        <path id="Path_873350" data-name="Path 873350" d="M35.146,27.586c6.179,3.467,16.057,3.367,22.063-.223,2.953-1.766,4.421-4.047,4.414-6.321l0,.909c.006,2.275-1.461,4.556-4.415,6.321-6.006,3.591-15.883,3.691-22.062.223-3.141-1.762-4.721-4.106-4.728-6.457l0-.909c.006,2.351,1.587,4.695,4.727,6.457" fill="#bebec6"/>
        <path id="Path_873351" data-name="Path 873351" d="M35.138,24.893C41.317,28.36,51.195,28.26,57.2,24.67c2.953-1.766,4.42-4.047,4.414-6.321l0,.91c.007,2.275-1.46,4.556-4.414,6.321-6.006,3.591-15.884,3.69-22.062.223C32,24.041,30.42,21.7,30.413,19.346l0-.91c.006,2.351,1.587,4.695,4.727,6.457" fill="#bebec6"/>
      </g>
    </g>
    <g id="Group_1099414" data-name="Group 1099414">
      <g id="Group_1099413" data-name="Group 1099413" clip-path="url(#clip-path-19)">
        <rect id="Rectangle_401339" data-name="Rectangle 401339" width="32.451" height="18.15" transform="translate(29.777 9.345)" fill="url(#linear-gradient-8)"/>
      </g>
    </g>
    <g id="Group_1099416" data-name="Group 1099416">
      <g id="Group_1099415" data-name="Group 1099415" clip-path="url(#clip-path-20)">
        <rect id="Rectangle_401340" data-name="Rectangle 401340" width="40.817" height="34.966" transform="translate(19.571 4.937) rotate(-30)" fill="url(#linear-gradient-9)"/>
      </g>
    </g>
    <g id="Group_1099418" data-name="Group 1099418">
      <g id="Group_1099417" data-name="Group 1099417" clip-path="url(#clip-path)">
        <path id="Path_873354" data-name="Path 873354" d="M35.164,33.883h0c6.179,3.467,16.057,3.367,22.063-.223a10.587,10.587,0,0,0,3.215-2.824L59.386,32.3a9.794,9.794,0,0,1-2.978,2.616c-5.564,3.326-14.715,3.419-20.439.207a10.01,10.01,0,0,1-3.249-2.746q-.531-.732-1.063-1.462a10.8,10.8,0,0,0,3.507,2.964" fill="#9698a6"/>
        <path id="Path_873355" data-name="Path 873355" d="M35.154,30.279c6.179,3.467,16.057,3.367,22.063-.223,2.953-1.766,4.42-4.047,4.414-6.321l0,.909c.007,2.275-1.46,4.556-4.414,6.321-6.006,3.591-15.884,3.691-22.062.223-3.141-1.762-4.721-4.106-4.728-6.457l0-.909c.006,2.351,1.587,4.695,4.727,6.457" fill="#bebec6"/>
      </g>
    </g>
    <g id="Group_1099420" data-name="Group 1099420">
      <g id="Group_1099419" data-name="Group 1099419" clip-path="url(#clip-path-22)">
        <rect id="Rectangle_401342" data-name="Rectangle 401342" width="23.385" height="12.039" transform="translate(34.264 4.205)" fill="url(#linear-gradient-10)"/>
      </g>
    </g>
    <g id="Group_1099422" data-name="Group 1099422">
      <g id="Group_1099421" data-name="Group 1099421" clip-path="url(#clip-path-23)">
        <rect id="Rectangle_401343" data-name="Rectangle 401343" width="21.008" height="17.997" transform="matrix(0.866, -0.5, 0.5, 0.866, 32.384, 4.491)" fill="url(#linear-gradient-11)"/>
      </g>
    </g>
    <g id="Group_1099424" data-name="Group 1099424">
      <g id="Group_1099423" data-name="Group 1099423" clip-path="url(#clip-path)">
        <path id="Path_873358" data-name="Path 873358" d="M30.672,41.583a9.069,9.069,0,0,0,4.116,7.1c2.273,1.312,4.115.262,4.115-2.347a9.066,9.066,0,0,0-4.115-7.1c-2.273-1.313-4.116-.262-4.116,2.346" fill="#ddddde"/>
      </g>
    </g>
    <g id="Group_1099426" data-name="Group 1099426">
      <g id="Group_1099425" data-name="Group 1099425" clip-path="url(#clip-path-25)">
        <rect id="Rectangle_401345" data-name="Rectangle 401345" width="11.974" height="13.159" transform="translate(25.988 41.41) rotate(-30)" fill="url(#linear-gradient-12)"/>
      </g>
    </g>
  </g>
</svg>
